<?xml version="1.0" encoding="utf-8"?>
<!-- Generator: Adobe Illustrator 26.0.2, SVG Export Plug-In . SVG Version: 6.00 Build 0)  -->
<svg version="1.1" xmlns="http://www.w3.org/2000/svg" xmlns:xlink="http://www.w3.org/1999/xlink" x="0px" y="0px"
	 viewBox="0 0 450.3 408.8" style="enable-background:new 0 0 450.3 408.8;" xml:space="preserve">
<style type="text/css">
	.st0{enable-background:new    ;}
	.st1{fill:#A8E799;stroke:#FFFFFF;stroke-width:0.3545;stroke-linejoin:round;}
	.st2{fill:#F89176;stroke:#FFFFFF;stroke-width:0.3545;stroke-linejoin:round;}
	.st3{fill:#FAE688;stroke:#FFFFFF;stroke-width:0.3545;stroke-linejoin:round;}
	.st4{fill:none;}
	.st5{fill:#A8E799;stroke:#FFFFFF;stroke-width:0.3545;stroke-linecap:square;}
	.st6{fill:#F89176;stroke:#FFFFFF;stroke-width:0.3545;stroke-linecap:square;}
	.st7{fill:#FAE688;stroke:#FFFFFF;stroke-width:0.3545;stroke-linecap:square;}
</style>
<g id="Layer_1">
	<g>
		<g class="st0">
			<path d="M172.4,104.2c1.8-1.9,2.8-2.9,2.8-3.9c0-0.7-0.4-1.2-1.2-1.2c-0.5,0-1,0.3-1.3,0.7l-0.3-0.2c0.4-0.5,0.9-0.8,1.6-0.8
				c1,0,1.6,0.6,1.6,1.6c0,1.1-1,2.2-2.6,3.8c0.3,0,0.6,0,0.9,0h1.9v0.3h-3.4V104.2z"/>
			<path d="M176.7,101.6c0-1.9,0.6-2.9,1.7-2.9c1.1,0,1.7,1,1.7,2.9c0,1.9-0.6,2.9-1.7,2.9C177.3,104.5,176.7,103.5,176.7,101.6z
				 M179.7,101.6c0-1.7-0.5-2.6-1.3-2.6c-0.8,0-1.3,0.8-1.3,2.6s0.5,2.6,1.3,2.6C179.2,104.2,179.7,103.3,179.7,101.6z"/>
			<path d="M180.9,104.2c1.8-1.9,2.8-2.9,2.8-3.9c0-0.7-0.4-1.2-1.2-1.2c-0.5,0-1,0.3-1.3,0.7l-0.3-0.2c0.4-0.5,0.9-0.8,1.6-0.8
				c1,0,1.6,0.6,1.6,1.6c0,1.1-1,2.2-2.6,3.8c0.3,0,0.6,0,0.9,0h1.9v0.3h-3.4V104.2z"/>
			<path d="M185.1,101.6c0-1.9,0.6-2.9,1.7-2.9c1.1,0,1.7,1,1.7,2.9c0,1.9-0.6,2.9-1.7,2.9C185.7,104.5,185.1,103.5,185.1,101.6z
				 M188.1,101.6c0-1.7-0.5-2.6-1.3-2.6c-0.8,0-1.3,0.8-1.3,2.6s0.5,2.6,1.3,2.6C187.6,104.2,188.1,103.3,188.1,101.6z"/>
		</g>
	</g>
	<g>
		<g class="st0">
			<path d="M334.8,104.2c1.8-1.9,2.8-2.9,2.8-3.9c0-0.7-0.4-1.2-1.2-1.2c-0.5,0-1,0.3-1.3,0.7l-0.3-0.2c0.4-0.5,0.9-0.8,1.6-0.8
				c1,0,1.6,0.6,1.6,1.6c0,1.1-1,2.2-2.6,3.8c0.3,0,0.6,0,0.9,0h1.9v0.3h-3.4V104.2z"/>
			<path d="M339,101.6c0-1.9,0.6-2.9,1.7-2.9c1.1,0,1.7,1,1.7,2.9c0,1.9-0.6,2.9-1.7,2.9C339.6,104.5,339,103.5,339,101.6z
				 M342,101.6c0-1.7-0.5-2.6-1.3-2.6c-0.8,0-1.3,0.8-1.3,2.6s0.5,2.6,1.3,2.6C341.5,104.2,342,103.3,342,101.6z"/>
			<path d="M343.2,104.2c1.8-1.9,2.8-2.9,2.8-3.9c0-0.7-0.4-1.2-1.2-1.2c-0.5,0-1,0.3-1.3,0.7l-0.3-0.2c0.4-0.5,0.9-0.8,1.6-0.8
				c1,0,1.6,0.6,1.6,1.6c0,1.1-1,2.2-2.6,3.8c0.3,0,0.6,0,0.9,0h1.9v0.3h-3.4V104.2z"/>
			<path d="M347.8,104.1h1.3v-4.7h-1v-0.3c0.5-0.1,0.8-0.2,1.1-0.4h0.3v5.3h1.2v0.3h-2.9V104.1z"/>
		</g>
	</g>
	<g>
		<g class="st0">
			<path d="M35.3,361h0.4l0.7,3.4c0.1,0.6,0.3,1.3,0.4,1.9h0c0.1-0.6,0.3-1.3,0.4-1.9l0.9-3.4h0.4l0.9,3.4c0.2,0.6,0.3,1.3,0.5,1.9
				h0c0.1-0.6,0.3-1.3,0.4-1.9l0.7-3.4h0.4l-1.3,5.8h-0.4l-1.1-4c-0.1-0.5-0.2-0.9-0.3-1.3h0c-0.1,0.5-0.2,0.9-0.3,1.3l-1,4h-0.4
				L35.3,361z"/>
			<path d="M42,368.7l0.1-0.3c0.1,0,0.2,0.1,0.3,0.1c0.5,0,0.9-0.5,1.1-1.1l0.1-0.4l-1.7-4.3h0.4l1,2.7c0.1,0.4,0.3,0.8,0.5,1.2h0
				c0.1-0.4,0.3-0.8,0.4-1.2l0.9-2.7h0.4l-1.7,4.8c-0.2,0.7-0.7,1.4-1.4,1.4C42.3,368.7,42.1,368.7,42,368.7z"/>
			<path d="M46.1,364.7c0-1.4,0.9-2.2,1.9-2.2c1,0,1.9,0.8,1.9,2.2c0,1.4-0.9,2.2-1.9,2.2C47,366.9,46.1,366.1,46.1,364.7z
				 M49.5,364.7c0-1.1-0.6-1.9-1.5-1.9c-0.9,0-1.5,0.8-1.5,1.9c0,1.1,0.6,1.9,1.5,1.9C48.8,366.6,49.5,365.8,49.5,364.7z"/>
			<path d="M51.1,362.6h0.3l0,0.7h0c0.4-0.4,0.9-0.8,1.3-0.8c0.7,0,1,0.3,1.2,0.9c0.5-0.5,0.9-0.9,1.4-0.9c0.8,0,1.3,0.5,1.3,1.6
				v2.7h-0.4v-2.7c0-0.9-0.3-1.3-0.9-1.3c-0.4,0-0.8,0.3-1.3,0.8v3.2h-0.4v-2.7c0-0.9-0.3-1.3-0.9-1.3c-0.4,0-0.8,0.3-1.3,0.8v3.2
				h-0.4V362.6z"/>
			<path d="M58.1,361.2c0-0.2,0.2-0.3,0.4-0.3s0.4,0.1,0.4,0.3c0,0.2-0.2,0.3-0.4,0.3S58.1,361.4,58.1,361.2z M58.3,362.6h0.4v4.2
				h-0.4V362.6z"/>
			<path d="M60.3,362.6h0.3l0,0.7h0c0.4-0.4,0.9-0.8,1.5-0.8c0.9,0,1.3,0.5,1.3,1.6v2.7H63v-2.7c0-0.9-0.3-1.3-1-1.3
				c-0.5,0-0.9,0.3-1.4,0.8v3.2h-0.4V362.6z"/>
			<path d="M64.6,367.7c0-0.4,0.2-0.7,0.6-1v0c-0.2-0.1-0.4-0.4-0.4-0.7c0-0.4,0.3-0.6,0.5-0.8v0c-0.3-0.2-0.5-0.6-0.5-1.2
				c0-0.9,0.7-1.5,1.5-1.5c0.2,0,0.4,0.1,0.6,0.1h1.4v0.3h-1c0.3,0.2,0.5,0.6,0.5,1.1c0,0.9-0.6,1.5-1.5,1.5c-0.2,0-0.5-0.1-0.7-0.2
				c-0.2,0.2-0.3,0.3-0.3,0.6c0,0.3,0.2,0.5,0.8,0.5H67c0.9,0,1.4,0.3,1.4,1c0,0.7-0.8,1.4-2,1.4C65.3,368.8,64.6,368.4,64.6,367.7z
				 M68,367.5c0-0.5-0.3-0.6-1-0.6h-0.9c-0.1,0-0.3,0-0.5-0.1c-0.4,0.3-0.6,0.6-0.6,0.9c0,0.5,0.5,0.9,1.4,0.9
				C67.4,368.5,68,368,68,367.5z M67.4,364c0-0.7-0.5-1.2-1.1-1.2c-0.6,0-1.1,0.4-1.1,1.2c0,0.7,0.5,1.2,1.1,1.2
				C66.9,365.2,67.4,364.7,67.4,364z"/>
		</g>
	</g>
	<g>
		<g class="st0">
			<path d="M26.5,340.9H27l0.7,3.4c0.1,0.6,0.3,1.3,0.4,1.9h0c0.1-0.6,0.3-1.3,0.4-1.9l0.9-3.4h0.4l0.9,3.4c0.2,0.6,0.3,1.3,0.5,1.9
				h0c0.1-0.6,0.3-1.3,0.4-1.9l0.7-3.4h0.4l-1.3,5.8h-0.4l-1.1-4c-0.1-0.5-0.2-0.9-0.3-1.3h0c-0.1,0.5-0.2,0.9-0.3,1.3l-1,4h-0.4
				L26.5,340.9z"/>
			<path d="M33.6,345.6c0-0.9,0.8-1.4,2.7-1.6c0-0.6-0.2-1.3-1-1.3c-0.6,0-1.1,0.3-1.3,0.5l-0.2-0.3c0.3-0.2,0.9-0.5,1.6-0.5
				c1,0,1.3,0.7,1.3,1.6v2.7h-0.3l0-0.5h0c-0.4,0.3-0.9,0.7-1.5,0.7C34.1,346.8,33.6,346.4,33.6,345.6z M36.3,345.7v-1.4
				c-1.7,0.2-2.3,0.6-2.3,1.3c0,0.6,0.4,0.8,0.9,0.8C35.4,346.4,35.8,346.2,36.3,345.7z"/>
			<path d="M37.7,346.2l0.2-0.3c0.4,0.3,0.7,0.5,1.3,0.5c0.7,0,1-0.4,1-0.8c0-0.5-0.5-0.8-1-0.9c-0.6-0.2-1.3-0.5-1.3-1.2
				c0-0.6,0.5-1.1,1.4-1.1c0.5,0,0.9,0.2,1.2,0.4l-0.2,0.3c-0.3-0.2-0.6-0.4-1-0.4c-0.7,0-1,0.4-1,0.8c0,0.5,0.5,0.7,1,0.9
				c0.7,0.2,1.4,0.5,1.4,1.3c0,0.6-0.5,1.2-1.4,1.2C38.6,346.8,38.1,346.5,37.7,346.2z"/>
			<path d="M41.8,340.3h0.4v1.8l0,0.9c0.4-0.4,0.9-0.8,1.5-0.8c0.9,0,1.3,0.5,1.3,1.6v2.7h-0.4V344c0-0.9-0.3-1.3-1-1.3
				c-0.5,0-0.9,0.3-1.4,0.8v3.2h-0.4V340.3z"/>
			<path d="M46.3,341.1c0-0.2,0.2-0.3,0.4-0.3s0.4,0.1,0.4,0.3c0,0.2-0.2,0.3-0.4,0.3S46.3,341.3,46.3,341.1z M46.4,342.4h0.4v4.2
				h-0.4V342.4z"/>
			<path d="M48.4,342.4h0.3l0,0.7h0c0.4-0.4,0.9-0.8,1.5-0.8c0.9,0,1.3,0.5,1.3,1.6v2.7h-0.4V344c0-0.9-0.3-1.3-1-1.3
				c-0.5,0-0.9,0.3-1.4,0.8v3.2h-0.4V342.4z"/>
			<path d="M52.8,347.5c0-0.4,0.2-0.7,0.6-1v0c-0.2-0.1-0.4-0.4-0.4-0.7c0-0.4,0.3-0.6,0.5-0.8v0c-0.3-0.2-0.5-0.6-0.5-1.2
				c0-0.9,0.7-1.5,1.5-1.5c0.2,0,0.4,0.1,0.6,0.1h1.4v0.3h-1c0.3,0.2,0.5,0.6,0.5,1.1c0,0.9-0.6,1.5-1.5,1.5c-0.2,0-0.5-0.1-0.7-0.2
				c-0.2,0.2-0.3,0.3-0.3,0.6c0,0.3,0.2,0.5,0.8,0.5h0.9c0.9,0,1.4,0.3,1.4,1c0,0.7-0.8,1.4-2,1.4C53.4,348.7,52.8,348.2,52.8,347.5
				z M56.1,347.3c0-0.5-0.3-0.6-1-0.6h-0.9c-0.1,0-0.3,0-0.5-0.1c-0.4,0.3-0.6,0.6-0.6,0.9c0,0.5,0.5,0.9,1.4,0.9
				C55.5,348.4,56.1,347.8,56.1,347.3z M55.5,343.8c0-0.7-0.5-1.2-1.1-1.2s-1.1,0.4-1.1,1.2c0,0.7,0.5,1.2,1.1,1.2
				C55,345,55.5,344.5,55.5,343.8z"/>
			<path d="M57.5,345.5v-2.7h-0.7v-0.3l0.7,0l0-1.2h0.3v1.2h1.2v0.3h-1.2v2.7c0,0.5,0.1,0.9,0.7,0.9c0.2,0,0.4-0.1,0.5-0.1l0.1,0.3
				c-0.2,0.1-0.5,0.2-0.7,0.2C57.7,346.8,57.5,346.2,57.5,345.5z"/>
			<path d="M59.8,344.5c0-1.4,0.9-2.2,1.9-2.2c1,0,1.9,0.8,1.9,2.2c0,1.4-0.9,2.2-1.9,2.2C60.7,346.8,59.8,345.9,59.8,344.5z
				 M63.2,344.5c0-1.1-0.6-1.9-1.5-1.9c-0.9,0-1.5,0.8-1.5,1.9c0,1.1,0.6,1.9,1.5,1.9C62.5,346.4,63.2,345.7,63.2,344.5z"/>
			<path d="M64.8,342.4h0.3l0,0.7h0c0.4-0.4,0.9-0.8,1.5-0.8c0.9,0,1.3,0.5,1.3,1.6v2.7h-0.4V344c0-0.9-0.3-1.3-1-1.3
				c-0.5,0-0.9,0.3-1.4,0.8v3.2h-0.4V342.4z"/>
		</g>
	</g>
	<g>
		<g class="st0">
			<path d="M52.2,324.3v-3.6h0.4v3.5c0,1.5,0.7,2,1.5,2c0.8,0,1.6-0.5,1.6-2v-3.5h0.4v3.6c0,1.8-1,2.3-2,2.3S52.2,326.1,52.2,324.3z
				"/>
			<path d="M57.8,325.3v-2.7h-0.7v-0.3l0.7,0l0-1.2h0.3v1.2h1.2v0.3h-1.2v2.7c0,0.5,0.1,0.9,0.7,0.9c0.2,0,0.4-0.1,0.5-0.1l0.1,0.3
				c-0.2,0.1-0.5,0.2-0.7,0.2C58.1,326.6,57.8,326.1,57.8,325.3z"/>
			<path d="M60.2,325.4c0-0.9,0.8-1.4,2.7-1.6c0-0.6-0.2-1.3-1-1.3c-0.6,0-1.1,0.3-1.3,0.5l-0.2-0.3c0.3-0.2,0.9-0.5,1.6-0.5
				c1,0,1.3,0.7,1.3,1.6v2.7H63l0-0.5h0c-0.4,0.3-0.9,0.7-1.5,0.7C60.7,326.6,60.2,326.2,60.2,325.4z M62.9,325.6v-1.4
				c-1.7,0.2-2.3,0.6-2.3,1.3c0,0.6,0.4,0.8,0.9,0.8C62,326.3,62.4,326,62.9,325.6z"/>
			<path d="M64.8,320.2h0.4v1.8l0,0.9c0.4-0.4,0.9-0.8,1.5-0.8c0.9,0,1.3,0.5,1.3,1.6v2.7h-0.4v-2.7c0-0.9-0.3-1.3-1-1.3
				c-0.5,0-0.9,0.3-1.4,0.8v3.2h-0.4V320.2z"/>
		</g>
	</g>
	<g>
		<g class="st0">
			<path d="M16,305.6l0.3-0.3c0.4,0.5,1,0.8,1.7,0.8c0.9,0,1.4-0.5,1.4-1.2c0-0.7-0.5-1-1-1.2l-0.9-0.4c-0.5-0.2-1.2-0.6-1.2-1.4
				c0-0.8,0.7-1.4,1.7-1.4c0.7,0,1.3,0.3,1.6,0.7l-0.2,0.3c-0.3-0.4-0.8-0.6-1.4-0.6c-0.8,0-1.3,0.4-1.3,1c0,0.7,0.6,0.9,1,1.1
				l0.9,0.4c0.6,0.3,1.2,0.6,1.2,1.5c0,0.9-0.7,1.6-1.9,1.6C17.1,306.4,16.4,306.1,16,305.6z"/>
			<path d="M20.6,304.2c0-1.4,0.9-2.2,1.9-2.2c1,0,1.9,0.8,1.9,2.2c0,1.4-0.9,2.2-1.9,2.2C21.5,306.4,20.6,305.6,20.6,304.2z
				 M24,304.2c0-1.1-0.6-1.9-1.5-1.9c-0.9,0-1.5,0.8-1.5,1.9c0,1.1,0.6,1.9,1.5,1.9C23.4,306.1,24,305.3,24,304.2z"/>
			<path d="M25.6,304.8v-2.7H26v2.7c0,0.9,0.3,1.3,1,1.3c0.5,0,0.9-0.3,1.4-0.9v-3.1h0.4v4.2h-0.3l0-0.7h0c-0.4,0.5-0.9,0.8-1.4,0.8
				C26,306.4,25.6,305.9,25.6,304.8z"/>
			<path d="M30.4,305.2v-2.7h-0.7v-0.3l0.7,0l0-1.2h0.3v1.2H32v0.3h-1.2v2.7c0,0.5,0.1,0.9,0.7,0.9c0.2,0,0.4-0.1,0.5-0.1l0.1,0.3
				c-0.2,0.1-0.5,0.2-0.7,0.2C30.7,306.4,30.4,305.9,30.4,305.2z"/>
			<path d="M33.1,300h0.4v1.8l0,0.9c0.4-0.4,0.9-0.8,1.5-0.8c0.9,0,1.3,0.5,1.3,1.6v2.7h-0.4v-2.7c0-0.9-0.3-1.3-1-1.3
				c-0.5,0-0.9,0.3-1.4,0.8v3.2h-0.4V300z"/>
			<path d="M39.1,303.4c0-1.8,1-3,2.5-3c0.7,0,1.2,0.3,1.5,0.7l-0.2,0.3c-0.3-0.4-0.7-0.6-1.3-0.6c-1.3,0-2.1,1-2.1,2.6
				c0,1.6,0.8,2.7,2,2.7c0.6,0,1-0.2,1.5-0.7l0.2,0.3c-0.4,0.5-1,0.8-1.7,0.8C40.1,306.4,39.1,305.3,39.1,303.4z"/>
			<path d="M44.1,305.3c0-0.9,0.8-1.4,2.7-1.6c0-0.6-0.2-1.3-1-1.3c-0.6,0-1.1,0.3-1.3,0.5l-0.2-0.3c0.3-0.2,0.9-0.5,1.6-0.5
				c1,0,1.3,0.7,1.3,1.6v2.7h-0.3l0-0.5h0c-0.4,0.3-0.9,0.7-1.5,0.7C44.7,306.4,44.1,306.1,44.1,305.3z M46.9,305.4V304
				c-1.7,0.2-2.3,0.6-2.3,1.3c0,0.6,0.4,0.8,0.9,0.8C45.9,306.1,46.3,305.9,46.9,305.4z"/>
			<path d="M48.8,302.1h0.3l0,0.8h0c0.3-0.5,0.7-0.9,1.2-0.9c0.2,0,0.3,0,0.4,0.1l-0.1,0.4c-0.1-0.1-0.2-0.1-0.4-0.1
				c-0.4,0-0.8,0.3-1.2,1.1v2.9h-0.4V302.1z"/>
			<path d="M51.2,304.2c0-1.4,0.9-2.2,1.9-2.2c1,0,1.9,0.8,1.9,2.2c0,1.4-0.9,2.2-1.9,2.2C52.1,306.4,51.2,305.6,51.2,304.2z
				 M54.6,304.2c0-1.1-0.6-1.9-1.5-1.9c-0.9,0-1.5,0.8-1.5,1.9c0,1.1,0.6,1.9,1.5,1.9C53.9,306.1,54.6,305.3,54.6,304.2z"/>
			<path d="M56.3,305.8V300h0.4v5.8c0,0.2,0.1,0.3,0.2,0.3c0,0,0.1,0,0.2,0l0.1,0.3c-0.1,0-0.2,0-0.3,0
				C56.4,306.4,56.3,306.2,56.3,305.8z"/>
			<path d="M58.2,300.7c0-0.2,0.2-0.3,0.4-0.3s0.4,0.1,0.4,0.3c0,0.2-0.2,0.3-0.4,0.3S58.2,300.9,58.2,300.7z M58.3,302.1h0.4v4.2
				h-0.4V302.1z"/>
			<path d="M60.4,302.1h0.3l0,0.7h0c0.4-0.4,0.9-0.8,1.5-0.8c0.9,0,1.3,0.5,1.3,1.6v2.7h-0.4v-2.7c0-0.9-0.3-1.3-1-1.3
				c-0.5,0-0.9,0.3-1.4,0.8v3.2h-0.4V302.1z"/>
			<path d="M64.7,305.3c0-0.9,0.8-1.4,2.7-1.6c0-0.6-0.2-1.3-1-1.3c-0.6,0-1.1,0.3-1.3,0.5l-0.2-0.3c0.3-0.2,0.9-0.5,1.6-0.5
				c1,0,1.3,0.7,1.3,1.6v2.7h-0.3l0-0.5h0c-0.4,0.3-0.9,0.7-1.5,0.7C65.3,306.4,64.7,306.1,64.7,305.3z M67.5,305.4V304
				c-1.7,0.2-2.3,0.6-2.3,1.3c0,0.6,0.4,0.8,0.9,0.8C66.5,306.1,66.9,305.9,67.5,305.4z"/>
		</g>
	</g>
	<g>
		<g class="st0">
			<path d="M35,280.4h0.4v5.5h2.7v0.3H35V280.4z"/>
			<path d="M38.7,284.1c0-1.4,0.9-2.2,1.9-2.2c1,0,1.9,0.8,1.9,2.2c0,1.4-0.9,2.2-1.9,2.2C39.6,286.3,38.7,285.5,38.7,284.1z
				 M42.1,284.1c0-1.1-0.6-1.9-1.5-1.9c-0.9,0-1.5,0.8-1.5,1.9c0,1.1,0.6,1.9,1.5,1.9C41.5,285.9,42.1,285.2,42.1,284.1z"/>
			<path d="M43.7,284.7v-2.7h0.4v2.7c0,0.9,0.3,1.3,1,1.3c0.5,0,0.9-0.3,1.4-0.9v-3.1h0.4v4.2h-0.3l0-0.7h0
				c-0.4,0.5-0.9,0.8-1.4,0.8C44.1,286.3,43.7,285.7,43.7,284.7z"/>
			<path d="M48.3,280.6c0-0.2,0.2-0.3,0.4-0.3s0.4,0.1,0.4,0.3c0,0.2-0.2,0.3-0.4,0.3S48.3,280.8,48.3,280.6z M48.4,281.9h0.4v4.2
				h-0.4V281.9z"/>
			<path d="M49.9,285.7l0.2-0.3c0.4,0.3,0.7,0.5,1.3,0.5c0.7,0,1-0.4,1-0.8c0-0.5-0.5-0.8-1-0.9c-0.6-0.2-1.3-0.5-1.3-1.2
				c0-0.6,0.5-1.1,1.4-1.1c0.5,0,0.9,0.2,1.2,0.4l-0.2,0.3c-0.3-0.2-0.6-0.4-1-0.4c-0.7,0-1,0.4-1,0.8c0,0.5,0.5,0.7,1,0.9
				c0.7,0.2,1.4,0.5,1.4,1.3c0,0.6-0.5,1.2-1.4,1.2C50.8,286.3,50.3,286,49.9,285.7z"/>
			<path d="M53.9,280.6c0-0.2,0.2-0.3,0.4-0.3s0.4,0.1,0.4,0.3c0,0.2-0.2,0.3-0.4,0.3S53.9,280.8,53.9,280.6z M54,281.9h0.4v4.2H54
				V281.9z"/>
			<path d="M55.7,285.1c0-0.9,0.8-1.4,2.7-1.6c0-0.6-0.2-1.3-1-1.3c-0.6,0-1.1,0.3-1.3,0.5l-0.2-0.3c0.3-0.2,0.9-0.5,1.6-0.5
				c1,0,1.3,0.7,1.3,1.6v2.7h-0.3l0-0.5h0c-0.4,0.3-0.9,0.7-1.5,0.7C56.3,286.3,55.7,285.9,55.7,285.1z M58.5,285.3v-1.4
				c-1.7,0.2-2.3,0.6-2.3,1.3c0,0.6,0.4,0.8,0.9,0.8C57.5,285.9,57.9,285.7,58.5,285.3z"/>
			<path d="M60.4,281.9h0.3l0,0.7h0c0.4-0.4,0.9-0.8,1.5-0.8c0.9,0,1.3,0.5,1.3,1.6v2.7h-0.4v-2.7c0-0.9-0.3-1.3-1-1.3
				c-0.5,0-0.9,0.3-1.4,0.8v3.2h-0.4V281.9z"/>
			<path d="M64.7,285.1c0-0.9,0.8-1.4,2.7-1.6c0-0.6-0.2-1.3-1-1.3c-0.6,0-1.1,0.3-1.3,0.5l-0.2-0.3c0.3-0.2,0.9-0.5,1.6-0.5
				c1,0,1.3,0.7,1.3,1.6v2.7h-0.3l0-0.5h0c-0.4,0.3-0.9,0.7-1.5,0.7C65.3,286.3,64.7,285.9,64.7,285.1z M67.5,285.3v-1.4
				c-1.7,0.2-2.3,0.6-2.3,1.3c0,0.6,0.4,0.8,0.9,0.8C66.5,285.9,66.9,285.7,67.5,285.3z"/>
		</g>
	</g>
	<g>
		<g class="st0">
			<path d="M48.7,260.2h0.4v5.8h-0.4V260.2z"/>
			<path d="M50.5,263.9c0-1.4,0.9-2.2,1.9-2.2c0.5,0,0.9,0.2,1.3,0.5l0-0.8v-1.7H54v6.3h-0.3l0-0.5h0c-0.3,0.3-0.8,0.7-1.4,0.7
				C51.1,266.1,50.5,265.3,50.5,263.9z M53.6,265.1v-2.5c-0.4-0.4-0.8-0.5-1.2-0.5c-0.8,0-1.5,0.8-1.5,1.9c0,1.1,0.5,1.9,1.4,1.9
				C52.7,265.8,53.1,265.5,53.6,265.1z"/>
			<path d="M55.3,265c0-0.9,0.8-1.4,2.7-1.6c0-0.6-0.2-1.3-1-1.3c-0.6,0-1.1,0.3-1.3,0.5l-0.2-0.3c0.3-0.2,0.9-0.5,1.6-0.5
				c1,0,1.3,0.7,1.3,1.6v2.7h-0.3l0-0.5h0c-0.4,0.3-0.9,0.7-1.5,0.7C55.9,266.1,55.3,265.8,55.3,265z M58,265.1v-1.4
				c-1.7,0.2-2.3,0.6-2.3,1.3c0,0.6,0.4,0.8,0.9,0.8C57.1,265.8,57.5,265.5,58,265.1z"/>
			<path d="M59.9,259.7h0.4v1.8l0,0.9c0.4-0.4,0.9-0.8,1.5-0.8c0.9,0,1.3,0.5,1.3,1.6v2.7h-0.4v-2.7c0-0.9-0.3-1.3-1-1.3
				c-0.5,0-0.9,0.3-1.4,0.8v3.2h-0.4V259.7z"/>
			<path d="M64.2,263.9c0-1.4,0.9-2.2,1.9-2.2c1,0,1.9,0.8,1.9,2.2c0,1.4-0.9,2.2-1.9,2.2C65.1,266.1,64.2,265.3,64.2,263.9z
				 M67.6,263.9c0-1.1-0.6-1.9-1.5-1.9c-0.9,0-1.5,0.8-1.5,1.9c0,1.1,0.6,1.9,1.5,1.9C67,265.8,67.6,265,67.6,263.9z"/>
		</g>
	</g>
	<g>
		<g class="st0">
			<path d="M37.8,240.1h0.6l1.2,3.4c0.2,0.4,0.3,0.9,0.5,1.3h0c0.2-0.4,0.3-0.9,0.4-1.3l1.2-3.4h0.6v5.8h-0.4V242
				c0-0.5,0-1.1,0.1-1.6h0l-0.5,1.3l-1.3,3.5h-0.4l-1.3-3.5l-0.5-1.3h0c0,0.5,0.1,1.1,0.1,1.6v3.8h-0.4V240.1z"/>
			<path d="M43.6,243.7c0-1.4,0.9-2.2,1.9-2.2c1,0,1.9,0.8,1.9,2.2c0,1.4-0.9,2.2-1.9,2.2C44.5,246,43.6,245.1,43.6,243.7z
				 M47,243.7c0-1.1-0.6-1.9-1.5-1.9c-0.9,0-1.5,0.8-1.5,1.9c0,1.1,0.6,1.9,1.5,1.9C46.4,245.6,47,244.9,47,243.7z"/>
			<path d="M48.7,241.6H49l0,0.7h0c0.4-0.4,0.9-0.8,1.5-0.8c0.9,0,1.3,0.5,1.3,1.6v2.7h-0.4v-2.7c0-0.9-0.3-1.3-1-1.3
				c-0.5,0-0.9,0.3-1.4,0.8v3.2h-0.4V241.6z"/>
			<path d="M53.5,244.7V242h-0.7v-0.3l0.7,0l0-1.2h0.3v1.2h1.2v0.3h-1.2v2.7c0,0.5,0.1,0.9,0.7,0.9c0.2,0,0.4-0.1,0.5-0.1l0.1,0.3
				c-0.2,0.1-0.5,0.2-0.7,0.2C53.7,246,53.5,245.4,53.5,244.7z"/>
			<path d="M55.8,244.8c0-0.9,0.8-1.4,2.7-1.6c0-0.6-0.2-1.3-1-1.3c-0.6,0-1.1,0.3-1.3,0.5l-0.2-0.3c0.3-0.2,0.9-0.5,1.6-0.5
				c1,0,1.3,0.7,1.3,1.6v2.7h-0.3l0-0.5h0c-0.4,0.3-0.9,0.7-1.5,0.7C56.4,246,55.8,245.6,55.8,244.8z M58.6,244.9v-1.4
				c-1.7,0.2-2.3,0.6-2.3,1.3c0,0.6,0.4,0.8,0.9,0.8C57.6,245.6,58,245.4,58.6,244.9z"/>
			<path d="M60.5,241.6h0.3l0,0.7h0c0.4-0.4,0.9-0.8,1.5-0.8c0.9,0,1.3,0.5,1.3,1.6v2.7h-0.4v-2.7c0-0.9-0.3-1.3-1-1.3
				c-0.5,0-0.9,0.3-1.4,0.8v3.2h-0.4V241.6z"/>
			<path d="M64.8,244.8c0-0.9,0.8-1.4,2.7-1.6c0-0.6-0.2-1.3-1-1.3c-0.6,0-1.1,0.3-1.3,0.5l-0.2-0.3c0.3-0.2,0.9-0.5,1.6-0.5
				c1,0,1.3,0.7,1.3,1.6v2.7h-0.3l0-0.5h0c-0.4,0.3-0.9,0.7-1.5,0.7C65.4,246,64.8,245.6,64.8,244.8z M67.6,244.9v-1.4
				c-1.7,0.2-2.3,0.6-2.3,1.3c0,0.6,0.4,0.8,0.9,0.8C66.6,245.6,67,245.4,67.6,244.9z"/>
		</g>
	</g>
	<g>
		<g class="st0">
			<path d="M31.2,219.9h0.6l1.2,3.4c0.2,0.4,0.3,0.9,0.5,1.3h0c0.2-0.4,0.3-0.9,0.4-1.3l1.2-3.4h0.6v5.8h-0.4v-3.8
				c0-0.5,0-1.1,0.1-1.6h0l-0.5,1.3l-1.3,3.5h-0.4l-1.3-3.5l-0.5-1.3h0c0,0.5,0.1,1.1,0.1,1.6v3.8h-0.4V219.9z"/>
			<path d="M37.2,220.1c0-0.2,0.2-0.3,0.4-0.3s0.4,0.1,0.4,0.3c0,0.2-0.2,0.3-0.4,0.3S37.2,220.3,37.2,220.1z M37.4,221.5h0.4v4.2
				h-0.4V221.5z"/>
			<path d="M38.9,225.2l0.2-0.3c0.4,0.3,0.7,0.5,1.3,0.5c0.7,0,1-0.4,1-0.8c0-0.5-0.5-0.8-1-0.9c-0.6-0.2-1.3-0.5-1.3-1.2
				c0-0.6,0.5-1.1,1.4-1.1c0.5,0,0.9,0.2,1.2,0.4l-0.2,0.3c-0.3-0.2-0.6-0.4-1-0.4c-0.7,0-1,0.4-1,0.8c0,0.5,0.5,0.7,1,0.9
				c0.7,0.2,1.4,0.5,1.4,1.3c0,0.6-0.5,1.2-1.4,1.2C39.8,225.8,39.2,225.5,38.9,225.2z"/>
			<path d="M42.4,225.2l0.2-0.3c0.4,0.3,0.7,0.5,1.3,0.5c0.7,0,1-0.4,1-0.8c0-0.5-0.5-0.8-1-0.9c-0.6-0.2-1.3-0.5-1.3-1.2
				c0-0.6,0.5-1.1,1.4-1.1c0.5,0,0.9,0.2,1.2,0.4l-0.2,0.3c-0.3-0.2-0.6-0.4-1-0.4c-0.7,0-1,0.4-1,0.8c0,0.5,0.5,0.7,1,0.9
				c0.7,0.2,1.4,0.5,1.4,1.3c0,0.6-0.5,1.2-1.4,1.2C43.4,225.8,42.8,225.5,42.4,225.2z"/>
			<path d="M46.4,220.1c0-0.2,0.2-0.3,0.4-0.3s0.4,0.1,0.4,0.3c0,0.2-0.2,0.3-0.4,0.3S46.4,220.3,46.4,220.1z M46.5,221.5h0.4v4.2
				h-0.4V221.5z"/>
			<path d="M48,225.2l0.2-0.3c0.4,0.3,0.7,0.5,1.3,0.5c0.7,0,1-0.4,1-0.8c0-0.5-0.5-0.8-1-0.9c-0.6-0.2-1.3-0.5-1.3-1.2
				c0-0.6,0.5-1.1,1.4-1.1c0.5,0,0.9,0.2,1.2,0.4l-0.2,0.3c-0.3-0.2-0.6-0.4-1-0.4c-0.7,0-1,0.4-1,0.8c0,0.5,0.5,0.7,1,0.9
				c0.7,0.2,1.4,0.5,1.4,1.3c0,0.6-0.5,1.2-1.4,1.2C48.9,225.8,48.4,225.5,48,225.2z"/>
			<path d="M51.6,225.2l0.2-0.3c0.4,0.3,0.7,0.5,1.3,0.5c0.7,0,1-0.4,1-0.8c0-0.5-0.5-0.8-1-0.9c-0.6-0.2-1.3-0.5-1.3-1.2
				c0-0.6,0.5-1.1,1.4-1.1c0.5,0,0.9,0.2,1.2,0.4l-0.2,0.3c-0.3-0.2-0.6-0.4-1-0.4c-0.7,0-1,0.4-1,0.8c0,0.5,0.5,0.7,1,0.9
				c0.7,0.2,1.4,0.5,1.4,1.3c0,0.6-0.5,1.2-1.4,1.2C52.5,225.8,51.9,225.5,51.6,225.2z"/>
			<path d="M55.5,220.1c0-0.2,0.2-0.3,0.4-0.3s0.4,0.1,0.4,0.3c0,0.2-0.2,0.3-0.4,0.3S55.5,220.3,55.5,220.1z M55.7,221.5h0.4v4.2
				h-0.4V221.5z"/>
			<path d="M57.7,221.5H58l0,0.5h0c0.4-0.3,0.9-0.6,1.4-0.6c1.1,0,1.7,0.8,1.7,2.2c0,1.4-0.9,2.3-1.9,2.3c-0.4,0-0.8-0.2-1.3-0.5
				l0,0.8v1.5h-0.4V221.5z M60.8,223.5c0-1-0.4-1.8-1.3-1.8c-0.4,0-0.9,0.2-1.4,0.7v2.5c0.5,0.4,0.9,0.5,1.2,0.5
				C60.2,225.5,60.8,224.7,60.8,223.5z"/>
			<path d="M62.5,221.5h0.3l0,0.5h0c0.4-0.3,0.9-0.6,1.4-0.6c1.1,0,1.7,0.8,1.7,2.2c0,1.4-0.9,2.3-1.9,2.3c-0.4,0-0.8-0.2-1.3-0.5
				l0,0.8v1.5h-0.4V221.5z M65.6,223.5c0-1-0.4-1.8-1.3-1.8c-0.4,0-0.9,0.2-1.4,0.7v2.5c0.5,0.4,0.9,0.5,1.2,0.5
				C65,225.5,65.6,224.7,65.6,223.5z"/>
			<path d="M67.1,220.1c0-0.2,0.2-0.3,0.4-0.3s0.4,0.1,0.4,0.3c0,0.2-0.2,0.3-0.4,0.3S67.1,220.3,67.1,220.1z M67.3,221.5h0.4v4.2
				h-0.4V221.5z"/>
		</g>
	</g>
	<g>
		<g class="st0">
			<path d="M32.4,199.7H33l1.2,3.4c0.2,0.4,0.3,0.9,0.5,1.3h0c0.2-0.4,0.3-0.9,0.4-1.3l1.2-3.4h0.6v5.8h-0.4v-3.8
				c0-0.5,0-1.1,0.1-1.6h0l-0.5,1.3l-1.3,3.5h-0.4l-1.3-3.5l-0.5-1.3h0c0,0.5,0.1,1.1,0.1,1.6v3.8h-0.4V199.7z"/>
			<path d="M38.4,199.9c0-0.2,0.2-0.3,0.4-0.3s0.4,0.1,0.4,0.3c0,0.2-0.2,0.3-0.4,0.3S38.4,200.1,38.4,199.9z M38.6,201.3H39v4.2
				h-0.4V201.3z"/>
			<path d="M40.6,201.3h0.3l0,0.7h0c0.4-0.4,0.9-0.8,1.5-0.8c0.9,0,1.3,0.5,1.3,1.6v2.7h-0.4v-2.7c0-0.9-0.3-1.3-1-1.3
				c-0.5,0-0.9,0.3-1.4,0.8v3.2h-0.4V201.3z"/>
			<path d="M45.3,201.3h0.3l0,0.7h0c0.4-0.4,0.9-0.8,1.5-0.8c0.9,0,1.3,0.5,1.3,1.6v2.7H48v-2.7c0-0.9-0.3-1.3-1-1.3
				c-0.5,0-0.9,0.3-1.4,0.8v3.2h-0.4V201.3z"/>
			<path d="M49.6,203.4c0-1.4,0.9-2.2,1.8-2.2c1,0,1.6,0.7,1.6,2c0,0.1,0,0.2,0,0.3h-3c0,1.1,0.6,1.8,1.6,1.8c0.5,0,0.8-0.2,1.1-0.4
				l0.2,0.3c-0.3,0.2-0.7,0.4-1.3,0.4C50.5,205.6,49.6,204.8,49.6,203.4z M52.7,203.2c0-1.1-0.5-1.6-1.2-1.6c-0.7,0-1.4,0.6-1.4,1.6
				H52.7z"/>
			<path d="M53.7,205.1l0.2-0.3c0.4,0.3,0.7,0.5,1.3,0.5c0.7,0,1-0.4,1-0.8c0-0.5-0.5-0.8-1-0.9c-0.6-0.2-1.3-0.5-1.3-1.2
				c0-0.6,0.5-1.1,1.4-1.1c0.5,0,0.9,0.2,1.2,0.4l-0.2,0.3c-0.3-0.2-0.6-0.4-1-0.4c-0.7,0-1,0.4-1,0.8c0,0.5,0.5,0.7,1,0.9
				c0.7,0.2,1.4,0.5,1.4,1.3c0,0.6-0.5,1.2-1.4,1.2C54.6,205.6,54.1,205.4,53.7,205.1z"/>
			<path d="M57.4,203.4c0-1.4,0.9-2.2,1.9-2.2c1,0,1.9,0.8,1.9,2.2c0,1.4-0.9,2.2-1.9,2.2C58.3,205.6,57.4,204.8,57.4,203.4z
				 M60.8,203.4c0-1.1-0.6-1.9-1.5-1.9c-0.9,0-1.5,0.8-1.5,1.9c0,1.1,0.6,1.9,1.5,1.9C60.2,205.3,60.8,204.5,60.8,203.4z"/>
			<path d="M62.6,204.4v-2.7h-0.7v-0.3l0.7,0l0-1.2H63v1.2h1.2v0.3H63v2.7c0,0.5,0.1,0.9,0.7,0.9c0.2,0,0.4-0.1,0.5-0.1l0.1,0.3
				c-0.2,0.1-0.5,0.2-0.7,0.2C62.8,205.6,62.6,205.1,62.6,204.4z"/>
			<path d="M64.9,204.5c0-0.9,0.8-1.4,2.7-1.6c0-0.6-0.2-1.3-1-1.3c-0.6,0-1.1,0.3-1.3,0.5l-0.2-0.3c0.3-0.2,0.9-0.5,1.6-0.5
				c1,0,1.3,0.7,1.3,1.6v2.7h-0.3l0-0.5h0c-0.4,0.3-0.9,0.7-1.5,0.7C65.5,205.6,64.9,205.3,64.9,204.5z M67.7,204.6v-1.4
				c-1.7,0.2-2.3,0.6-2.3,1.3c0,0.6,0.4,0.8,0.9,0.8C66.7,205.3,67.1,205.1,67.7,204.6z"/>
		</g>
	</g>
	<g>
		<g class="st0">
			<path d="M47.8,179.6h0.6l1.2,3.4c0.2,0.4,0.3,0.9,0.5,1.3h0c0.2-0.4,0.3-0.9,0.4-1.3l1.2-3.4h0.6v5.8h-0.4v-3.8
				c0-0.5,0-1.1,0.1-1.6h0l-0.5,1.3l-1.3,3.5h-0.4l-1.3-3.5l-0.5-1.3h0c0,0.5,0.1,1.1,0.1,1.6v3.8h-0.4V179.6z"/>
			<path d="M53.7,184.3c0-0.9,0.8-1.4,2.7-1.6c0-0.6-0.2-1.3-1-1.3c-0.6,0-1.1,0.3-1.3,0.5l-0.2-0.3c0.3-0.2,0.9-0.5,1.6-0.5
				c1,0,1.3,0.7,1.3,1.6v2.7h-0.3l0-0.5h0c-0.4,0.3-0.9,0.7-1.5,0.7C54.3,185.5,53.7,185.1,53.7,184.3z M56.4,184.5V183
				c-1.7,0.2-2.3,0.6-2.3,1.3c0,0.6,0.4,0.8,0.9,0.8C55.5,185.1,55.9,184.9,56.4,184.5z"/>
			<path d="M58.2,179.8c0-0.2,0.2-0.3,0.4-0.3s0.4,0.1,0.4,0.3c0,0.2-0.2,0.3-0.4,0.3S58.2,180,58.2,179.8z M58.3,181.1h0.4v4.2
				h-0.4V181.1z"/>
			<path d="M60.3,181.1h0.3l0,0.7h0c0.4-0.4,0.9-0.8,1.5-0.8c0.9,0,1.3,0.5,1.3,1.6v2.7h-0.4v-2.7c0-0.9-0.3-1.3-1-1.3
				c-0.5,0-0.9,0.3-1.4,0.8v3.2h-0.4V181.1z"/>
			<path d="M64.7,183.3c0-1.4,0.9-2.2,1.8-2.2c1,0,1.6,0.7,1.6,2c0,0.1,0,0.2,0,0.3h-3c0,1.1,0.6,1.8,1.6,1.8c0.5,0,0.8-0.2,1.1-0.4
				l0.2,0.3c-0.3,0.2-0.7,0.4-1.3,0.4C65.5,185.5,64.7,184.7,64.7,183.3z M67.8,183c0-1.1-0.5-1.6-1.2-1.6c-0.7,0-1.4,0.6-1.4,1.6
				H67.8z"/>
		</g>
	</g>
	<g>
		<g class="st0">
			<path d="M51.8,162.3c0-1.8,1-3,2.4-3s2.4,1.2,2.4,3c0,1.8-1,3-2.4,3S51.8,164.1,51.8,162.3z M56.2,162.3c0-1.6-0.8-2.6-2-2.6
				c-1.2,0-2,1-2,2.6s0.8,2.7,2,2.7C55.4,165,56.2,163.9,56.2,162.3z"/>
			<path d="M57.9,158.9h0.4v1.8l0,0.9c0.4-0.4,0.9-0.8,1.5-0.8c0.9,0,1.3,0.5,1.3,1.6v2.7h-0.4v-2.7c0-0.9-0.3-1.3-1-1.3
				c-0.5,0-0.9,0.3-1.4,0.8v3.2h-0.4V158.9z"/>
			<path d="M62.4,159.6c0-0.2,0.2-0.3,0.4-0.3s0.4,0.1,0.4,0.3c0,0.2-0.2,0.3-0.4,0.3S62.4,159.8,62.4,159.6z M62.6,161h0.4v4.2
				h-0.4V161z"/>
			<path d="M64.2,163.1c0-1.4,0.9-2.2,1.9-2.2c1,0,1.9,0.8,1.9,2.2c0,1.4-0.9,2.2-1.9,2.2C65.1,165.3,64.2,164.5,64.2,163.1z
				 M67.6,163.1c0-1.1-0.6-1.9-1.5-1.9c-0.9,0-1.5,0.8-1.5,1.9c0,1.1,0.6,1.9,1.5,1.9C67,165,67.6,164.2,67.6,163.1z"/>
		</g>
	</g>
	<g>
		<g class="st0">
			<path d="M41.3,142.1c0-1.8,1-3,2.6-3c0.8,0,1.3,0.4,1.6,0.7l-0.2,0.3c-0.3-0.3-0.7-0.6-1.3-0.6c-1.3,0-2.1,1-2.1,2.6
				c0,1.6,0.8,2.7,2.1,2.7c0.5,0,1-0.2,1.3-0.4v-1.8h-1.4v-0.3h1.8v2.3c-0.4,0.4-1,0.7-1.7,0.7C42.3,145.2,41.3,144,41.3,142.1z"/>
			<path d="M46.6,142.9c0-1.4,0.9-2.2,1.8-2.2c1,0,1.6,0.7,1.6,2c0,0.1,0,0.2,0,0.3h-3c0,1.1,0.6,1.8,1.6,1.8c0.5,0,0.8-0.2,1.1-0.4
				l0.2,0.3c-0.3,0.2-0.7,0.4-1.3,0.4C47.5,145.2,46.6,144.3,46.6,142.9z M49.7,142.7c0-1.1-0.5-1.6-1.2-1.6c-0.7,0-1.4,0.6-1.4,1.6
				H49.7z"/>
			<path d="M50.9,142.9c0-1.4,0.9-2.2,1.9-2.2c1,0,1.9,0.8,1.9,2.2c0,1.4-0.9,2.2-1.9,2.2C51.8,145.2,50.9,144.3,50.9,142.9z
				 M54.3,142.9c0-1.1-0.6-1.9-1.5-1.9c-0.9,0-1.5,0.8-1.5,1.9c0,1.1,0.6,1.9,1.5,1.9C53.6,144.8,54.3,144.1,54.3,142.9z"/>
			<path d="M55.9,140.8h0.3l0,0.8h0c0.3-0.5,0.7-0.9,1.2-0.9c0.2,0,0.3,0,0.4,0.1l-0.1,0.4c-0.1-0.1-0.2-0.1-0.4-0.1
				c-0.4,0-0.8,0.3-1.2,1.1v2.9h-0.4V140.8z"/>
			<path d="M58.4,145.9c0-0.4,0.2-0.7,0.6-1v0c-0.2-0.1-0.4-0.4-0.4-0.7c0-0.4,0.3-0.6,0.5-0.8v0c-0.3-0.2-0.5-0.6-0.5-1.2
				c0-0.9,0.7-1.5,1.5-1.5c0.2,0,0.4,0.1,0.6,0.1H62v0.3h-1c0.3,0.2,0.5,0.6,0.5,1.1c0,0.9-0.6,1.5-1.5,1.5c-0.2,0-0.5-0.1-0.7-0.2
				c-0.2,0.2-0.3,0.3-0.3,0.6c0,0.3,0.2,0.5,0.8,0.5h0.9c0.9,0,1.4,0.3,1.4,1c0,0.7-0.8,1.4-2,1.4C59,147.1,58.4,146.6,58.4,145.9z
				 M61.7,145.7c0-0.5-0.3-0.6-1-0.6h-0.9c-0.1,0-0.3,0-0.5-0.1c-0.4,0.3-0.6,0.6-0.6,0.9c0,0.5,0.5,0.9,1.4,0.9
				C61.1,146.8,61.7,146.2,61.7,145.7z M61.1,142.2c0-0.7-0.5-1.2-1.1-1.2c-0.6,0-1.1,0.4-1.1,1.2c0,0.7,0.5,1.2,1.1,1.2
				C60.6,143.4,61.1,142.9,61.1,142.2z"/>
			<path d="M62.9,139.5c0-0.2,0.2-0.3,0.4-0.3s0.4,0.1,0.4,0.3c0,0.2-0.2,0.3-0.4,0.3S62.9,139.7,62.9,139.5z M63,140.8h0.4v4.2H63
				V140.8z"/>
			<path d="M64.7,144c0-0.9,0.8-1.4,2.7-1.6c0-0.6-0.2-1.3-1-1.3c-0.6,0-1.1,0.3-1.3,0.5l-0.2-0.3c0.3-0.2,0.9-0.5,1.6-0.5
				c1,0,1.3,0.7,1.3,1.6v2.7h-0.3l0-0.5h0c-0.4,0.3-0.9,0.7-1.5,0.7C65.3,145.2,64.7,144.8,64.7,144z M67.5,144.1v-1.4
				c-1.7,0.2-2.3,0.6-2.3,1.3c0,0.6,0.4,0.8,0.9,0.8C66.5,144.8,66.9,144.6,67.5,144.1z"/>
		</g>
	</g>
	<g>
		<g class="st0">
			<path d="M39.1,119.1h0.4l2,5.8h-0.4l-1.2-3.4c-0.2-0.7-0.4-1.3-0.6-2h0c-0.2,0.7-0.4,1.3-0.6,2l-1.2,3.4h-0.4L39.1,119.1z
				 M38,122.6h2.6v0.3H38V122.6z"/>
			<path d="M42.4,124.3v-5.8h0.4v5.8c0,0.2,0.1,0.3,0.2,0.3c0,0,0.1,0,0.2,0l0.1,0.3c-0.1,0-0.2,0-0.3,0
				C42.6,125,42.4,124.8,42.4,124.3z"/>
			<path d="M44.2,123.8c0-0.9,0.8-1.4,2.7-1.6c0-0.6-0.2-1.3-1-1.3c-0.6,0-1.1,0.3-1.3,0.5l-0.2-0.3c0.3-0.2,0.9-0.5,1.6-0.5
				c1,0,1.3,0.7,1.3,1.6v2.7H47l0-0.5h0c-0.4,0.3-0.9,0.7-1.5,0.7C44.8,125,44.2,124.6,44.2,123.8z M47,124v-1.4
				c-1.7,0.2-2.3,0.6-2.3,1.3c0,0.6,0.4,0.8,0.9,0.8C46,124.7,46.4,124.4,47,124z"/>
			<path d="M49.2,124.5L49.2,124.5l-0.1,0.4h-0.3v-6.3h0.4v1.8l0,0.8c0.4-0.4,0.9-0.7,1.5-0.7c1.1,0,1.7,0.8,1.7,2.2
				c0,1.4-0.9,2.3-1.9,2.3C50.1,125,49.6,124.8,49.2,124.5z M52,122.7c0-1-0.4-1.8-1.3-1.8c-0.4,0-0.9,0.2-1.4,0.7v2.5
				c0.5,0.4,0.9,0.5,1.2,0.5C51.3,124.7,52,123.9,52,122.7z"/>
			<path d="M53.3,123.8c0-0.9,0.8-1.4,2.7-1.6c0-0.6-0.2-1.3-1-1.3c-0.6,0-1.1,0.3-1.3,0.5l-0.2-0.3c0.3-0.2,0.9-0.5,1.6-0.5
				c1,0,1.3,0.7,1.3,1.6v2.7h-0.3l0-0.5h0c-0.4,0.3-0.9,0.7-1.5,0.7C53.9,125,53.3,124.6,53.3,123.8z M56,124v-1.4
				c-1.7,0.2-2.3,0.6-2.3,1.3c0,0.6,0.4,0.8,0.9,0.8C55.1,124.7,55.5,124.4,56,124z"/>
			<path d="M57.9,120.7h0.3l0,0.7h0c0.4-0.4,0.9-0.8,1.3-0.8c0.7,0,1,0.3,1.2,0.9c0.5-0.5,0.9-0.9,1.4-0.9c0.8,0,1.3,0.5,1.3,1.6
				v2.7h-0.4v-2.7c0-0.9-0.3-1.3-0.9-1.3c-0.4,0-0.8,0.3-1.3,0.8v3.2h-0.4v-2.7c0-0.9-0.3-1.3-0.9-1.3c-0.4,0-0.8,0.3-1.3,0.8v3.2
				h-0.4V120.7z"/>
			<path d="M64.8,123.8c0-0.9,0.8-1.4,2.7-1.6c0-0.6-0.2-1.3-1-1.3c-0.6,0-1.1,0.3-1.3,0.5l-0.2-0.3c0.3-0.2,0.9-0.5,1.6-0.5
				c1,0,1.3,0.7,1.3,1.6v2.7h-0.3l0-0.5h0c-0.4,0.3-0.9,0.7-1.5,0.7C65.3,125,64.8,124.6,64.8,123.8z M67.5,124v-1.4
				c-1.7,0.2-2.3,0.6-2.3,1.3c0,0.6,0.4,0.8,0.9,0.8C66.6,124.7,67,124.4,67.5,124z"/>
		</g>
	</g>
	<path class="st1" d="M262.7,132.5v-20.2H425v20.2H262.7z"/>
	<path class="st1" d="M262.7,132.5v-20.2H425v20.2H262.7z"/>
	<path class="st2" d="M100.3,132.5v-20.2h162.3v20.2H100.3z"/>
	<path class="st1" d="M100.3,152.7v-20.2h162.3v20.2H100.3z"/>
	<path class="st1" d="M262.7,152.7v-20.2H425v20.2H262.7z"/>
	<path class="st2" d="M100.3,152.7v-20.2h162.3v20.2H100.3z"/>
	<path class="st1" d="M100.3,152.7v-20.2h162.3v20.2H100.3z"/>
	<path class="st1" d="M262.7,152.7v-20.2H425v20.2H262.7z"/>
	<path class="st1" d="M100.3,273.7v-20.2h162.3v20.2H100.3z"/>
	<path class="st1" d="M100.3,273.7v-20.2h162.3v20.2H100.3z"/>
	<path class="st1" d="M100.3,293.8v-20.2h162.3v20.2H100.3z"/>
	<path class="st1" d="M100.3,293.8v-20.2h162.3v20.2H100.3z"/>
	<path class="st1" d="M100.3,193v-20.2h162.3V193H100.3z"/>
	<path class="st1" d="M262.7,193v-20.2H425V193H262.7z"/>
	<path class="st1" d="M262.7,213.2V193H425v20.2H262.7z"/>
	<path class="st2" d="M100.3,213.2V193h162.3v20.2H100.3z"/>
	<path class="st1" d="M262.7,233.3v-20.2H425v20.2H262.7z"/>
	<path class="st2" d="M100.3,233.3v-20.2h162.3v20.2H100.3z"/>
	<path class="st1" d="M262.7,233.3v-20.2H425v20.2H262.7z"/>
	<path class="st1" d="M262.7,253.5v-20.2H425v20.2H262.7z"/>
	<path class="st1" d="M100.3,172.9v-20.2h162.3v20.2H100.3z"/>
	<path class="st1" d="M262.7,172.9v-20.2H425v20.2H262.7z"/>
	<path class="st1" d="M100.3,172.9v-20.2h162.3v20.2H100.3z"/>
	<path class="st1" d="M100.3,314v-20.2h162.3V314H100.3z"/>
	<path class="st1" d="M100.3,314v-20.2h162.3V314H100.3z"/>
	<path class="st3" d="M262.7,314v-20.2H425V314H262.7z"/>
	<path class="st1" d="M100.3,334.1V314h162.3v20.2H100.3z"/>
	<path class="st1" d="M100.3,354.3v-20.2h162.3v20.2H100.3z"/>
	<path class="st1" d="M100.3,354.3v-20.2h162.3v20.2H100.3z"/>
	<path class="st1" d="M100.3,374.5v-20.2h162.3v20.2H100.3z"/>
	<path class="st2" d="M262.7,374.5v-20.2H425v20.2H262.7z"/>
	<polyline class="st4" points="18.3,92 18.3,76.1 34.1,76.1 34.1,92 	"/>
	<path class="st4" d="M18.3,92h15.8V76.1H18.3V92z"/>
	<polyline class="st4" points="18.3,92 18.3,76.1 34.1,76.1 34.1,92 	"/>
	<path class="st5" d="M17.2,91.7h13v-13h-13V91.7z"/>
	<g>
		<g class="st0">
			<path d="M33.3,82.1h3.2v0.3h-2.8v2.2H36V85h-2.3v2.6h2.9v0.3h-3.3V82.1z"/>
			<path d="M37.8,83.6h0.3l0,0.7h0c0.4-0.4,0.9-0.8,1.5-0.8c0.9,0,1.3,0.5,1.3,1.6v2.7h-0.4v-2.7c0-0.9-0.3-1.3-1-1.3
				c-0.5,0-0.9,0.3-1.4,0.8v3.2h-0.4V83.6z"/>
			<path d="M42.2,86.8c0-0.9,0.8-1.4,2.7-1.6c0-0.6-0.2-1.3-1-1.3c-0.6,0-1.1,0.3-1.3,0.5l-0.2-0.3c0.3-0.2,0.9-0.5,1.6-0.5
				c1,0,1.3,0.7,1.3,1.6v2.7h-0.3l0-0.5h0c-0.4,0.3-0.9,0.7-1.5,0.7C42.7,88,42.2,87.6,42.2,86.8z M44.9,87v-1.4
				c-1.7,0.2-2.3,0.6-2.3,1.3c0,0.6,0.4,0.8,0.9,0.8C43.9,87.6,44.4,87.4,44.9,87z"/>
			<path d="M46.4,85.8c0-1.4,0.9-2.2,1.9-2.2c0.6,0,1,0.3,1.2,0.5l-0.2,0.3c-0.3-0.3-0.6-0.4-1-0.4c-0.9,0-1.5,0.8-1.5,1.9
				c0,1.1,0.6,1.9,1.5,1.9c0.5,0,0.8-0.2,1.1-0.5l0.2,0.3c-0.4,0.3-0.8,0.6-1.4,0.6C47.2,88,46.4,87.2,46.4,85.8z"/>
			<path d="M50.8,86.7V84h-0.7v-0.3l0.7,0l0-1.2h0.3v1.2h1.2V84h-1.2v2.7c0,0.5,0.1,0.9,0.7,0.9c0.2,0,0.4-0.1,0.5-0.1l0.1,0.3
				C52.3,87.9,52,88,51.9,88C51.1,88,50.8,87.5,50.8,86.7z"/>
			<path d="M53.1,85.8c0-1.4,0.9-2.2,1.8-2.2c1,0,1.6,0.7,1.6,2c0,0.1,0,0.2,0,0.3h-3c0,1.1,0.6,1.8,1.6,1.8c0.5,0,0.8-0.2,1.1-0.4
				l0.2,0.3c-0.3,0.2-0.7,0.4-1.3,0.4C54,88,53.1,87.2,53.1,85.8z M56.2,85.5c0-1.1-0.5-1.6-1.2-1.6c-0.7,0-1.4,0.6-1.4,1.6H56.2z"
				/>
			<path d="M57.4,85.8c0-1.4,0.9-2.2,1.9-2.2c0.5,0,0.9,0.2,1.3,0.5l0-0.8v-1.7h0.4v6.3h-0.3l0-0.5h0c-0.3,0.3-0.8,0.7-1.4,0.7
				C58.1,88,57.4,87.2,57.4,85.8z M60.5,86.9v-2.5c-0.4-0.4-0.8-0.5-1.2-0.5c-0.8,0-1.5,0.8-1.5,1.9c0,1.1,0.5,1.9,1.4,1.9
				C59.6,87.6,60.1,87.4,60.5,86.9z"/>
		</g>
	</g>
	<polyline class="st4" points="119.4,92 119.4,76.1 135.2,76.1 135.2,92 	"/>
	<path class="st4" d="M119.4,92h15.8V76.1h-15.8V92z"/>
	<polyline class="st4" points="120.2,91.5 120.2,75.6 136.1,75.6 136.1,91.5 	"/>
	<path class="st6" d="M113.7,91.7h13v-13h-13V91.7z"/>
	<g>
		<g class="st0">
			<path d="M131.4,82.2h3.2v0.3h-2.8v2.3h2.3v0.3h-2.3V88h-0.4V82.2z"/>
			<path d="M135.3,86.9c0-0.9,0.8-1.4,2.7-1.6c0-0.6-0.2-1.3-1-1.3c-0.6,0-1.1,0.3-1.3,0.5l-0.2-0.3c0.3-0.2,0.9-0.5,1.6-0.5
				c1,0,1.3,0.7,1.3,1.6V88H138l0-0.5h0c-0.4,0.3-0.9,0.7-1.5,0.7C135.8,88.1,135.3,87.7,135.3,86.9z M138,87.1v-1.4
				c-1.7,0.2-2.3,0.6-2.3,1.3c0,0.6,0.4,0.8,0.9,0.8C137,87.7,137.5,87.5,138,87.1z"/>
			<path d="M139.7,82.4c0-0.2,0.2-0.3,0.4-0.3c0.2,0,0.4,0.1,0.4,0.3c0,0.2-0.2,0.3-0.4,0.3C139.9,82.7,139.7,82.6,139.7,82.4z
				 M139.9,83.8h0.4V88h-0.4V83.8z"/>
			<path d="M141.9,87.4v-5.8h0.4v5.8c0,0.2,0.1,0.3,0.2,0.3c0,0,0.1,0,0.2,0l0.1,0.3c-0.1,0-0.2,0-0.3,0
				C142.1,88.1,141.9,87.9,141.9,87.4z"/>
			<path d="M143.6,85.9c0-1.4,0.9-2.2,1.8-2.2c1,0,1.6,0.7,1.6,2c0,0.1,0,0.2,0,0.3h-3c0,1.1,0.6,1.8,1.6,1.8c0.5,0,0.8-0.2,1.1-0.4
				l0.2,0.3c-0.3,0.2-0.7,0.4-1.3,0.4C144.5,88.1,143.6,87.3,143.6,85.9z M146.7,85.6c0-1.1-0.5-1.6-1.2-1.6c-0.7,0-1.4,0.6-1.4,1.6
				H146.7z"/>
			<path d="M147.9,85.9c0-1.4,0.9-2.2,1.9-2.2c0.5,0,0.9,0.2,1.3,0.5l0-0.8v-1.7h0.4V88h-0.3l0-0.5h0c-0.3,0.3-0.8,0.7-1.4,0.7
				C148.6,88.1,147.9,87.3,147.9,85.9z M151,87v-2.5c-0.4-0.4-0.8-0.5-1.2-0.5c-0.8,0-1.5,0.8-1.5,1.9c0,1.1,0.5,1.9,1.4,1.9
				C150.1,87.7,150.6,87.5,151,87z"/>
		</g>
	</g>
	<polyline class="st4" points="70,92.7 70,76.9 85.9,76.9 85.9,92.7 	"/>
	<path class="st4" d="M70,92.7h15.8V76.9H70V92.7z"/>
	<polyline class="st4" points="70,92.7 70,76.9 85.9,76.9 85.9,92.7 	"/>
	<path class="st7" d="M65.5,91.7h13v-13h-13V91.7z"/>
	<g>
		<g class="st0">
			<path d="M81.9,82.1h1.5c1.3,0,2.1,0.4,2.1,1.6c0,1.1-0.8,1.7-2.1,1.7h-1.1v2.5h-0.4V82.1z M83.3,85c1.2,0,1.8-0.4,1.8-1.3
				c0-1-0.6-1.3-1.8-1.3h-1V85H83.3z"/>
			<path d="M86.4,85.8c0-1.4,0.9-2.2,1.8-2.2c1,0,1.6,0.7,1.6,2c0,0.1,0,0.2,0,0.3h-3c0,1.1,0.6,1.8,1.6,1.8c0.5,0,0.8-0.2,1.1-0.4
				l0.2,0.3c-0.3,0.2-0.7,0.4-1.3,0.4C87.3,88,86.4,87.2,86.4,85.8z M89.5,85.5c0-1.1-0.5-1.6-1.2-1.6c-0.7,0-1.4,0.6-1.4,1.6H89.5z
				"/>
			<path d="M91,83.6h0.3l0,0.7h0c0.4-0.4,0.9-0.8,1.5-0.8c0.9,0,1.3,0.5,1.3,1.6v2.7h-0.4v-2.7c0-0.9-0.3-1.3-1-1.3
				c-0.5,0-0.9,0.3-1.4,0.8v3.2H91V83.6z"/>
			<path d="M95.3,85.8c0-1.4,0.9-2.2,1.9-2.2c0.5,0,0.9,0.2,1.3,0.5l0-0.8v-1.7h0.4v6.3h-0.3l0-0.5h0c-0.3,0.3-0.8,0.7-1.4,0.7
				C96,88,95.3,87.2,95.3,85.8z M98.4,86.9v-2.5c-0.4-0.4-0.8-0.5-1.2-0.5c-0.8,0-1.5,0.8-1.5,1.9c0,1.1,0.5,1.9,1.4,1.9
				C97.6,87.6,98,87.4,98.4,86.9z"/>
			<path d="M100.3,82.3c0-0.2,0.2-0.3,0.4-0.3s0.4,0.1,0.4,0.3c0,0.2-0.2,0.3-0.4,0.3S100.3,82.5,100.3,82.3z M100.5,83.6h0.4v4.2
				h-0.4V83.6z"/>
			<path d="M102.5,83.6h0.3l0,0.7h0c0.4-0.4,0.9-0.8,1.5-0.8c0.9,0,1.3,0.5,1.3,1.6v2.7h-0.4v-2.7c0-0.9-0.3-1.3-1-1.3
				c-0.5,0-0.9,0.3-1.4,0.8v3.2h-0.4V83.6z"/>
			<path d="M106.8,88.7c0-0.4,0.2-0.7,0.6-1v0c-0.2-0.1-0.4-0.4-0.4-0.7c0-0.4,0.3-0.6,0.5-0.8v0c-0.3-0.2-0.5-0.6-0.5-1.2
				c0-0.9,0.7-1.5,1.5-1.5c0.2,0,0.4,0.1,0.6,0.1h1.4V84h-1c0.3,0.2,0.5,0.6,0.5,1.1c0,0.9-0.6,1.5-1.5,1.5c-0.2,0-0.5-0.1-0.7-0.2
				c-0.2,0.2-0.3,0.3-0.3,0.6c0,0.3,0.2,0.5,0.8,0.5h0.9c0.9,0,1.4,0.3,1.4,1c0,0.7-0.8,1.4-2,1.4C107.5,89.9,106.8,89.5,106.8,88.7
				z M110.1,88.5c0-0.5-0.3-0.6-1-0.6h-0.9c-0.1,0-0.3,0-0.5-0.1c-0.4,0.3-0.6,0.6-0.6,0.9c0,0.5,0.5,0.9,1.4,0.9
				C109.5,89.6,110.1,89.1,110.1,88.5z M109.6,85c0-0.7-0.5-1.2-1.1-1.2c-0.6,0-1.1,0.4-1.1,1.2c0,0.7,0.5,1.2,1.1,1.2
				C109,86.2,109.6,85.7,109.6,85z"/>
		</g>
	</g>
	<g>
		<g class="st0">
			<path d="M17.9,27.9h1.8V23h-1.6v-1.2c0.9-0.2,1.5-0.4,2.1-0.8h1.4v6.8h1.6v1.6h-5.3V27.9z"/>
			<path d="M28.3,22.7h-3.8V21h5.8v1.2c-1.9,2.3-2.2,3.9-2.4,7.2h-2C26.2,26.6,26.7,24.9,28.3,22.7z"/>
			<path d="M33.8,28.7l0.9-1.2c0.6,0.4,1.1,0.7,1.7,0.7c0.6,0,0.8-0.2,0.8-0.6c0-0.4-0.6-0.6-1.3-0.9c-0.8-0.3-1.7-0.8-1.7-1.9
				c0-1.2,1-2,2.5-2c1,0,1.8,0.4,2.3,0.8l-0.9,1.2c-0.5-0.3-0.9-0.6-1.4-0.6c-0.5,0-0.7,0.2-0.7,0.5c0,0.4,0.6,0.6,1.3,0.8
				c0.8,0.3,1.8,0.8,1.8,2c0,1.2-0.9,2.1-2.7,2.1C35.5,29.6,34.5,29.2,33.8,28.7z"/>
			<path d="M40.5,27v-2.6h-0.9V23l1-0.1l0.2-1.7h1.6v1.7H44v1.5h-1.6V27c0,0.7,0.3,1,0.8,1c0.2,0,0.5-0.1,0.6-0.1l0.3,1.4
				c-0.3,0.1-0.8,0.2-1.5,0.2C41.1,29.6,40.5,28.6,40.5,27z"/>
			<path d="M45,27.6c0-1.4,1.1-2.1,3.7-2.4c0-0.6-0.3-0.9-1-0.9c-0.5,0-1.1,0.2-1.7,0.6l-0.7-1.3c0.8-0.5,1.8-0.9,2.8-0.9
				c1.7,0,2.6,1,2.6,3v3.7H49l-0.1-0.7h0c-0.6,0.5-1.2,0.8-1.9,0.8C45.7,29.6,45,28.7,45,27.6z M48.7,27.5v-1.1
				c-1.4,0.2-1.8,0.6-1.8,1.1c0,0.4,0.3,0.6,0.8,0.6C48,28.1,48.3,27.9,48.7,27.5z"/>
			<path d="M52.5,27v-2.6h-0.9V23l1-0.1l0.2-1.7h1.6v1.7H56v1.5h-1.6V27c0,0.7,0.3,1,0.8,1c0.2,0,0.5-0.1,0.6-0.1l0.3,1.4
				c-0.3,0.1-0.8,0.2-1.5,0.2C53.2,29.6,52.5,28.6,52.5,27z"/>
			<path d="M56.9,26.2c0-2.1,1.5-3.4,3.1-3.4c1.9,0,2.8,1.4,2.8,3.1c0,0.3,0,0.7-0.1,0.9h-3.9c0.2,0.9,0.8,1.4,1.7,1.4
				c0.5,0,0.9-0.2,1.4-0.4l0.6,1.2c-0.7,0.5-1.5,0.7-2.3,0.7C58.4,29.6,56.9,28.3,56.9,26.2z M61.1,25.4c0-0.7-0.3-1.2-1.1-1.2
				c-0.6,0-1.1,0.4-1.3,1.2H61.1z"/>
			<path d="M63.6,28.7l0.9-1.2c0.6,0.4,1.1,0.7,1.7,0.7c0.6,0,0.8-0.2,0.8-0.6c0-0.4-0.6-0.6-1.3-0.9c-0.8-0.3-1.7-0.8-1.7-1.9
				c0-1.2,1-2,2.5-2c1,0,1.8,0.4,2.3,0.8l-0.9,1.2c-0.5-0.3-0.9-0.6-1.4-0.6c-0.5,0-0.7,0.2-0.7,0.5c0,0.4,0.6,0.6,1.3,0.8
				c0.8,0.3,1.8,0.8,1.8,2c0,1.2-0.9,2.1-2.7,2.1C65.2,29.6,64.2,29.2,63.6,28.7z"/>
			<path d="M72.6,20.2h1.9v2.3l-0.1,1.2c0.5-0.4,1.1-0.9,2-0.9c1.4,0,2,1,2,2.6v4.1h-1.9v-3.8c0-0.9-0.3-1.2-0.8-1.2
				c-0.5,0-0.8,0.2-1.2,0.6v4.4h-1.9V20.2z"/>
			<path d="M79.9,27.6c0-1.4,1.1-2.1,3.7-2.4c0-0.6-0.3-0.9-1-0.9c-0.5,0-1.1,0.2-1.7,0.6l-0.7-1.3c0.8-0.5,1.8-0.9,2.8-0.9
				c1.7,0,2.6,1,2.6,3v3.7h-1.6l-0.1-0.7h0c-0.6,0.5-1.2,0.8-1.9,0.8C80.6,29.6,79.9,28.7,79.9,27.6z M83.5,27.5v-1.1
				c-1.4,0.2-1.8,0.6-1.8,1.1c0,0.4,0.3,0.6,0.8,0.6C82.9,28.1,83.2,27.9,83.5,27.5z"/>
			<path d="M86.4,22.9h1.9l0.9,3.1c0.2,0.7,0.3,1.3,0.5,2h0.1c0.2-0.7,0.3-1.4,0.5-2l0.9-3.1H93l-2.1,6.5h-2.2L86.4,22.9z"/>
			<path d="M93.6,26.2c0-2.1,1.5-3.4,3.1-3.4c1.9,0,2.8,1.4,2.8,3.1c0,0.3,0,0.7-0.1,0.9h-3.9c0.2,0.9,0.8,1.4,1.7,1.4
				c0.5,0,0.9-0.2,1.4-0.4l0.6,1.2c-0.7,0.5-1.5,0.7-2.3,0.7C95.1,29.6,93.6,28.3,93.6,26.2z M97.9,25.4c0-0.7-0.3-1.2-1.1-1.2
				c-0.6,0-1.1,0.4-1.3,1.2H97.9z"/>
			<path d="M103.2,27.6c0-1.4,1.1-2.1,3.7-2.4c0-0.6-0.3-0.9-1-0.9c-0.5,0-1.1,0.2-1.7,0.6l-0.7-1.3c0.8-0.5,1.8-0.9,2.8-0.9
				c1.7,0,2.6,1,2.6,3v3.7h-1.6l-0.1-0.7h0c-0.6,0.5-1.2,0.8-1.9,0.8C104,29.6,103.2,28.7,103.2,27.6z M106.9,27.5v-1.1
				c-1.4,0.2-1.8,0.6-1.8,1.1c0,0.4,0.3,0.6,0.8,0.6C106.2,28.1,106.5,27.9,106.9,27.5z"/>
			<path d="M110.1,26.2c0-2.1,1.3-3.4,2.7-3.4c0.7,0,1.2,0.3,1.6,0.7l-0.1-1v-2.2h1.9v9.2h-1.6l-0.1-0.6h0c-0.5,0.5-1.1,0.8-1.7,0.8
				C111.2,29.6,110.1,28.3,110.1,26.2z M114.4,27.4v-2.7c-0.3-0.3-0.7-0.4-1.1-0.4c-0.6,0-1.2,0.6-1.2,1.8c0,1.3,0.4,1.9,1.2,1.9
				C113.7,28,114.1,27.8,114.4,27.4z"/>
			<path d="M117.6,26.2c0-2.2,1.5-3.4,3.2-3.4c1.7,0,3.2,1.3,3.2,3.4c0,2.2-1.5,3.4-3.2,3.4C119.2,29.6,117.6,28.3,117.6,26.2z
				 M122,26.2c0-1.1-0.4-1.9-1.2-1.9c-0.8,0-1.2,0.7-1.2,1.9c0,1.1,0.4,1.9,1.2,1.9C121.6,28,122,27.3,122,26.2z"/>
			<path d="M125.3,22.9h1.6l0.1,0.6h0c0.5-0.5,1.2-0.8,1.9-0.8c1.6,0,2.6,1.3,2.6,3.3c0,2.2-1.3,3.5-2.8,3.5c-0.6,0-1.1-0.2-1.6-0.7
				l0.1,1v1.9h-1.9V22.9z M129.5,26.1c0-1.2-0.4-1.8-1.1-1.8c-0.4,0-0.7,0.2-1.1,0.6v2.7c0.4,0.3,0.7,0.4,1,0.4
				C129,28,129.5,27.4,129.5,26.1z"/>
			<path d="M133.2,27v-2.6h-0.9V23l1-0.1l0.2-1.7h1.6v1.7h1.6v1.5h-1.6V27c0,0.7,0.3,1,0.8,1c0.2,0,0.5-0.1,0.6-0.1l0.3,1.4
				c-0.3,0.1-0.8,0.2-1.5,0.2C133.8,29.6,133.2,28.6,133.2,27z"/>
			<path d="M137.6,26.2c0-2.1,1.5-3.4,3.1-3.4c1.9,0,2.8,1.4,2.8,3.1c0,0.3,0,0.7-0.1,0.9h-3.9c0.2,0.9,0.8,1.4,1.7,1.4
				c0.5,0,0.9-0.2,1.4-0.4l0.6,1.2c-0.7,0.5-1.5,0.7-2.3,0.7C139,29.6,137.6,28.3,137.6,26.2z M141.8,25.4c0-0.7-0.3-1.2-1.1-1.2
				c-0.6,0-1.1,0.4-1.3,1.2H141.8z"/>
			<path d="M144.5,26.2c0-2.1,1.3-3.4,2.7-3.4c0.7,0,1.2,0.3,1.6,0.7l-0.1-1v-2.2h1.9v9.2h-1.6l-0.1-0.6h0c-0.5,0.5-1.1,0.8-1.7,0.8
				C145.5,29.6,144.5,28.3,144.5,26.2z M148.7,27.4v-2.7c-0.3-0.3-0.7-0.4-1.1-0.4c-0.6,0-1.2,0.6-1.2,1.8c0,1.3,0.4,1.9,1.2,1.9
				C148.1,28,148.4,27.8,148.7,27.4z"/>
			<path d="M154.6,26.2c0-2.2,1.5-3.4,3.2-3.4s3.2,1.3,3.2,3.4c0,2.2-1.5,3.4-3.2,3.4S154.6,28.3,154.6,26.2z M159,26.2
				c0-1.1-0.4-1.9-1.2-1.9s-1.2,0.7-1.2,1.9c0,1.1,0.4,1.9,1.2,1.9S159,27.3,159,26.2z"/>
			<path d="M162.3,22.9h1.6l0.1,1.1h0c0.5-0.9,1.2-1.3,1.9-1.3c0.4,0,0.6,0,0.8,0.1l-0.3,1.7c-0.2-0.1-0.4-0.1-0.7-0.1
				c-0.5,0-1.1,0.3-1.4,1.2v3.8h-1.9V22.9z"/>
			<path d="M169.8,26.2c0-2.1,1.5-3.4,3.1-3.4c1.9,0,2.8,1.4,2.8,3.1c0,0.3,0,0.7-0.1,0.9h-3.9c0.2,0.9,0.8,1.4,1.7,1.4
				c0.5,0,0.9-0.2,1.4-0.4l0.6,1.2c-0.7,0.5-1.5,0.7-2.3,0.7C171.3,29.6,169.8,28.3,169.8,26.2z M174.1,25.4c0-0.7-0.3-1.2-1.1-1.2
				c-0.6,0-1.1,0.4-1.3,1.2H174.1z"/>
			<path d="M177.1,22.9h1.6l0.1,0.8h0c0.6-0.5,1.2-1,2.1-1c1.4,0,2,1,2,2.6v4.1H181v-3.8c0-0.9-0.3-1.2-0.8-1.2
				c-0.5,0-0.8,0.2-1.2,0.6v4.4h-1.9V22.9z"/>
			<path d="M184.3,27.6c0-1.4,1.1-2.1,3.7-2.4c0-0.6-0.3-0.9-1-0.9c-0.5,0-1.1,0.2-1.7,0.6l-0.7-1.3c0.8-0.5,1.8-0.9,2.8-0.9
				c1.7,0,2.6,1,2.6,3v3.7h-1.6l-0.1-0.7h0c-0.6,0.5-1.2,0.8-1.9,0.8C185.1,29.6,184.3,28.7,184.3,27.6z M188,27.5v-1.1
				c-1.4,0.2-1.8,0.6-1.8,1.1c0,0.4,0.3,0.6,0.8,0.6C187.4,28.1,187.7,27.9,188,27.5z"/>
			<path d="M191.2,26.2c0-2.2,1.6-3.4,3.4-3.4c0.8,0,1.4,0.3,1.9,0.7l-0.9,1.2c-0.3-0.3-0.6-0.4-0.9-0.4c-0.9,0-1.5,0.7-1.5,1.9
				c0,1.1,0.6,1.9,1.5,1.9c0.4,0,0.8-0.2,1.2-0.5l0.8,1.3c-0.6,0.6-1.4,0.8-2.2,0.8C192.6,29.6,191.2,28.3,191.2,26.2z"/>
			<path d="M198,27v-2.6h-0.9V23l1-0.1l0.2-1.7h1.6v1.7h1.6v1.5h-1.6V27c0,0.7,0.3,1,0.8,1c0.2,0,0.5-0.1,0.6-0.1l0.3,1.4
				c-0.3,0.1-0.8,0.2-1.5,0.2C198.6,29.6,198,28.6,198,27z"/>
			<path d="M202.4,26.2c0-2.1,1.5-3.4,3.1-3.4c1.9,0,2.8,1.4,2.8,3.1c0,0.3,0,0.7-0.1,0.9h-3.9c0.2,0.9,0.8,1.4,1.7,1.4
				c0.5,0,0.9-0.2,1.4-0.4l0.6,1.2c-0.7,0.5-1.5,0.7-2.3,0.7C203.9,29.6,202.4,28.3,202.4,26.2z M206.6,25.4c0-0.7-0.3-1.2-1.1-1.2
				c-0.6,0-1.1,0.4-1.3,1.2H206.6z"/>
			<path d="M209.3,26.2c0-2.1,1.3-3.4,2.7-3.4c0.7,0,1.2,0.3,1.6,0.7l-0.1-1v-2.2h1.9v9.2h-1.6l-0.1-0.6h0c-0.5,0.5-1.1,0.8-1.7,0.8
				C210.3,29.6,209.3,28.3,209.3,26.2z M213.5,27.4v-2.7c-0.3-0.3-0.7-0.4-1.1-0.4c-0.6,0-1.2,0.6-1.2,1.8c0,1.3,0.4,1.9,1.2,1.9
				C212.9,28,213.2,27.8,213.5,27.4z"/>
			<path d="M219.8,27.4v-7.2h1.9v7.3c0,0.4,0.2,0.5,0.4,0.5c0.1,0,0.1,0,0.2,0l0.2,1.4c-0.2,0.1-0.5,0.2-1,0.2
				C220.3,29.6,219.8,28.7,219.8,27.4z"/>
			<path d="M223.2,26.2c0-2.1,1.5-3.4,3.1-3.4c1.9,0,2.8,1.4,2.8,3.1c0,0.3,0,0.7-0.1,0.9h-3.9c0.2,0.9,0.8,1.4,1.7,1.4
				c0.5,0,0.9-0.2,1.4-0.4l0.6,1.2c-0.7,0.5-1.5,0.7-2.3,0.7C224.7,29.6,223.2,28.3,223.2,26.2z M227.4,25.4c0-0.7-0.3-1.2-1.1-1.2
				c-0.6,0-1.1,0.4-1.3,1.2H227.4z"/>
			<path d="M230,30.6c0-0.5,0.3-1,0.9-1.3v-0.1c-0.3-0.2-0.6-0.6-0.6-1.1c0-0.5,0.3-0.9,0.7-1.2v-0.1c-0.5-0.3-0.9-0.9-0.9-1.7
				c0-1.6,1.3-2.4,2.7-2.4c0.4,0,0.7,0.1,1,0.2h2.4v1.4h-1.1c0.1,0.2,0.2,0.5,0.2,0.9c0,1.5-1.1,2.2-2.6,2.2c-0.2,0-0.5,0-0.8-0.1
				c-0.2,0.1-0.2,0.3-0.2,0.5c0,0.3,0.3,0.5,1,0.5h1.1c1.6,0,2.5,0.5,2.5,1.7c0,1.4-1.4,2.4-3.7,2.4C231.3,32.2,230,31.7,230,30.6z
				 M234.6,30.2c0-0.4-0.4-0.5-1-0.5h-0.7c-0.4,0-0.7,0-0.9-0.1c-0.2,0.2-0.4,0.4-0.4,0.6c0,0.5,0.6,0.8,1.5,0.8
				C234,31,234.6,30.6,234.6,30.2z M233.8,25.1c0-0.7-0.4-1.1-0.9-1.1c-0.5,0-0.9,0.4-0.9,1.1c0,0.7,0.4,1.1,0.9,1.1
				S233.8,25.8,233.8,25.1z"/>
			<path d="M237.3,20.9c0-0.6,0.5-1,1.1-1c0.7,0,1.1,0.4,1.1,1c0,0.6-0.5,1-1.1,1C237.8,21.9,237.3,21.5,237.3,20.9z M237.5,22.9
				h1.9v6.5h-1.9V22.9z"/>
			<path d="M240.6,28.7l0.9-1.2c0.6,0.4,1.1,0.7,1.7,0.7c0.6,0,0.8-0.2,0.8-0.6c0-0.4-0.6-0.6-1.3-0.9c-0.8-0.3-1.7-0.8-1.7-1.9
				c0-1.2,1-2,2.5-2c1,0,1.8,0.4,2.3,0.8l-0.9,1.2c-0.5-0.3-0.9-0.6-1.4-0.6c-0.5,0-0.7,0.2-0.7,0.5c0,0.4,0.6,0.6,1.3,0.8
				c0.8,0.3,1.8,0.8,1.8,2c0,1.2-0.9,2.1-2.7,2.1C242.2,29.6,241.2,29.2,240.6,28.7z"/>
			<path d="M247,27.4v-7.2h1.9v7.3c0,0.4,0.2,0.5,0.4,0.5c0.1,0,0.1,0,0.2,0l0.2,1.4c-0.2,0.1-0.5,0.2-1,0.2
				C247.4,29.6,247,28.7,247,27.4z"/>
			<path d="M250.5,27.6c0-1.4,1.1-2.1,3.7-2.4c0-0.6-0.3-0.9-1-0.9c-0.5,0-1.1,0.2-1.7,0.6l-0.7-1.3c0.8-0.5,1.8-0.9,2.8-0.9
				c1.7,0,2.6,1,2.6,3v3.7h-1.6l-0.1-0.7h0c-0.6,0.5-1.2,0.8-1.9,0.8C251.2,29.6,250.5,28.7,250.5,27.6z M254.1,27.5v-1.1
				c-1.4,0.2-1.8,0.6-1.8,1.1c0,0.4,0.3,0.6,0.8,0.6C253.5,28.1,253.8,27.9,254.1,27.5z"/>
			<path d="M258,27v-2.6h-0.9V23l1-0.1l0.2-1.7h1.6v1.7h1.6v1.5h-1.6V27c0,0.7,0.3,1,0.8,1c0.2,0,0.5-0.1,0.6-0.1l0.3,1.4
				c-0.3,0.1-0.8,0.2-1.5,0.2C258.6,29.6,258,28.6,258,27z"/>
			<path d="M262.6,20.9c0-0.6,0.5-1,1.1-1c0.7,0,1.1,0.4,1.1,1c0,0.6-0.5,1-1.1,1C263.1,21.9,262.6,21.5,262.6,20.9z M262.8,22.9
				h1.9v6.5h-1.9V22.9z"/>
			<path d="M266,26.2c0-2.2,1.5-3.4,3.2-3.4s3.2,1.3,3.2,3.4c0,2.2-1.5,3.4-3.2,3.4S266,28.3,266,26.2z M270.4,26.2
				c0-1.1-0.4-1.9-1.2-1.9S268,25,268,26.2c0,1.1,0.4,1.9,1.2,1.9S270.4,27.3,270.4,26.2z"/>
			<path d="M273.7,22.9h1.6l0.1,0.8h0c0.6-0.5,1.2-1,2.1-1c1.4,0,2,1,2,2.6v4.1h-1.9v-3.8c0-0.9-0.3-1.2-0.8-1.2
				c-0.5,0-0.8,0.2-1.2,0.6v4.4h-1.9V22.9z"/>
			<path d="M283.5,26.2c0-2.2,1.5-3.4,3.2-3.4c1.7,0,3.2,1.3,3.2,3.4c0,2.2-1.5,3.4-3.2,3.4C285.1,29.6,283.5,28.3,283.5,26.2z
				 M287.9,26.2c0-1.1-0.4-1.9-1.2-1.9c-0.8,0-1.2,0.7-1.2,1.9c0,1.1,0.4,1.9,1.2,1.9C287.5,28,287.9,27.3,287.9,26.2z"/>
			<path d="M291.3,22.9h1.6l0.1,0.8h0c0.6-0.5,1.2-1,2.1-1c1.4,0,2,1,2,2.6v4.1h-1.9v-3.8c0-0.9-0.3-1.2-0.8-1.2
				c-0.5,0-0.8,0.2-1.2,0.6v4.4h-1.9V22.9z"/>
			<path d="M301.6,20.8h2.4c2.6,0,4.3,1.3,4.3,4.3c0,3-1.7,4.3-4.2,4.3h-2.5V20.8z M303.9,27.9c1.5,0,2.4-0.7,2.4-2.8
				c0-2.1-1-2.7-2.4-2.7h-0.4v5.5H303.9z"/>
			<path d="M309.5,27.6c0-1.4,1.1-2.1,3.7-2.4c0-0.6-0.3-0.9-1-0.9c-0.5,0-1.1,0.2-1.7,0.6l-0.7-1.3c0.8-0.5,1.8-0.9,2.8-0.9
				c1.7,0,2.6,1,2.6,3v3.7h-1.6l-0.1-0.7h0c-0.6,0.5-1.2,0.8-1.9,0.8C310.3,29.6,309.5,28.7,309.5,27.6z M313.2,27.5v-1.1
				c-1.4,0.2-1.8,0.6-1.8,1.1c0,0.4,0.3,0.6,0.8,0.6C312.6,28.1,312.9,27.9,313.2,27.5z"/>
			<path d="M316.6,31.9l0.3-1.5c0.1,0,0.3,0.1,0.4,0.1c0.6,0,1-0.4,1.1-0.9l0.1-0.3l-2.5-6.4h1.9l0.9,2.8c0.2,0.6,0.3,1.2,0.5,1.9
				h0.1c0.1-0.6,0.3-1.2,0.5-1.9l0.8-2.8h1.9l-2.3,6.6c-0.6,1.6-1.3,2.5-2.9,2.5C317.1,32,316.9,31.9,316.6,31.9z"/>
			<path d="M323.7,27.4v-7.2h1.9v7.3c0,0.4,0.2,0.5,0.4,0.5c0.1,0,0.1,0,0.2,0l0.2,1.4c-0.2,0.1-0.5,0.2-1,0.2
				C324.1,29.6,323.7,28.7,323.7,27.4z"/>
			<path d="M327.3,20.9c0-0.6,0.5-1,1.1-1c0.7,0,1.1,0.4,1.1,1c0,0.6-0.5,1-1.1,1C327.8,21.9,327.3,21.5,327.3,20.9z M327.4,22.9
				h1.9v6.5h-1.9V22.9z"/>
			<path d="M330.7,30.6c0-0.5,0.3-1,0.9-1.3v-0.1c-0.3-0.2-0.6-0.6-0.6-1.1c0-0.5,0.3-0.9,0.7-1.2v-0.1c-0.5-0.3-0.9-0.9-0.9-1.7
				c0-1.6,1.3-2.4,2.7-2.4c0.4,0,0.7,0.1,1,0.2h2.4v1.4h-1.1c0.1,0.2,0.2,0.5,0.2,0.9c0,1.5-1.1,2.2-2.6,2.2c-0.2,0-0.5,0-0.8-0.1
				c-0.2,0.1-0.2,0.3-0.2,0.5c0,0.3,0.3,0.5,1,0.5h1.1c1.6,0,2.5,0.5,2.5,1.7c0,1.4-1.4,2.4-3.7,2.4
				C331.9,32.2,330.7,31.7,330.7,30.6z M335.2,30.2c0-0.4-0.4-0.5-1-0.5h-0.7c-0.4,0-0.7,0-0.9-0.1c-0.2,0.2-0.4,0.4-0.4,0.6
				c0,0.5,0.6,0.8,1.5,0.8C334.6,31,335.2,30.6,335.2,30.2z M334.5,25.1c0-0.7-0.4-1.1-0.9-1.1c-0.5,0-0.9,0.4-0.9,1.1
				c0,0.7,0.4,1.1,0.9,1.1S334.5,25.8,334.5,25.1z"/>
			<path d="M338.1,20.2h1.9v2.3l-0.1,1.2c0.5-0.4,1.1-0.9,2-0.9c1.4,0,2,1,2,2.6v4.1h-1.9v-3.8c0-0.9-0.3-1.2-0.8-1.2
				c-0.5,0-0.8,0.2-1.2,0.6v4.4h-1.9V20.2z"/>
			<path d="M345.9,27v-2.6H345V23l1-0.1l0.2-1.7h1.6v1.7h1.6v1.5h-1.6V27c0,0.7,0.3,1,0.8,1c0.2,0,0.5-0.1,0.6-0.1l0.3,1.4
				c-0.3,0.1-0.8,0.2-1.5,0.2C346.6,29.6,345.9,28.6,345.9,27z"/>
			<path d="M353,28.3l1.1-1.3c0.6,0.5,1.4,0.9,2.1,0.9c0.8,0,1.2-0.3,1.2-0.8c0-0.5-0.5-0.7-1.2-1l-1.1-0.5
				c-0.9-0.4-1.7-1.1-1.7-2.3c0-1.4,1.3-2.6,3.1-2.6c1,0,2,0.4,2.8,1.1l-1,1.2c-0.6-0.4-1.1-0.7-1.8-0.7c-0.7,0-1.1,0.3-1.1,0.8
				c0,0.5,0.6,0.7,1.3,1l1.1,0.4c1.1,0.4,1.7,1.1,1.7,2.3c0,1.4-1.2,2.7-3.2,2.7C355,29.6,353.8,29.2,353,28.3z"/>
			<path d="M360.4,27.6c0-1.4,1.1-2.1,3.7-2.4c0-0.6-0.3-0.9-1-0.9c-0.5,0-1.1,0.2-1.7,0.6l-0.7-1.3c0.8-0.5,1.8-0.9,2.8-0.9
				c1.7,0,2.6,1,2.6,3v3.7h-1.6l-0.1-0.7h0c-0.6,0.5-1.2,0.8-1.9,0.8C361.2,29.6,360.4,28.7,360.4,27.6z M364.1,27.5v-1.1
				c-1.4,0.2-1.8,0.6-1.8,1.1c0,0.4,0.3,0.6,0.8,0.6C363.4,28.1,363.7,27.9,364.1,27.5z"/>
			<path d="M367,22.9h1.9l0.9,3.1c0.2,0.7,0.3,1.3,0.5,2h0.1c0.2-0.7,0.3-1.4,0.5-2l0.9-3.1h1.9l-2.1,6.5h-2.2L367,22.9z"/>
			<path d="M374.4,20.9c0-0.6,0.5-1,1.1-1c0.7,0,1.1,0.4,1.1,1c0,0.6-0.5,1-1.1,1C374.9,21.9,374.4,21.5,374.4,20.9z M374.6,22.9
				h1.9v6.5h-1.9V22.9z"/>
			<path d="M378.2,22.9h1.6l0.1,0.8h0c0.6-0.5,1.2-1,2.1-1c1.4,0,2,1,2,2.6v4.1h-1.9v-3.8c0-0.9-0.3-1.2-0.8-1.2
				c-0.5,0-0.8,0.2-1.2,0.6v4.4h-1.9V22.9z"/>
			<path d="M385.4,30.6c0-0.5,0.3-1,0.9-1.3v-0.1c-0.3-0.2-0.6-0.6-0.6-1.1c0-0.5,0.3-0.9,0.7-1.2v-0.1c-0.5-0.3-0.9-0.9-0.9-1.7
				c0-1.6,1.3-2.4,2.7-2.4c0.4,0,0.7,0.1,1,0.2h2.4v1.4h-1.1c0.1,0.2,0.2,0.5,0.2,0.9c0,1.5-1.1,2.2-2.6,2.2c-0.2,0-0.5,0-0.8-0.1
				c-0.2,0.1-0.2,0.3-0.2,0.5c0,0.3,0.3,0.5,1,0.5h1.1c1.6,0,2.5,0.5,2.5,1.7c0,1.4-1.4,2.4-3.7,2.4
				C386.6,32.2,385.4,31.7,385.4,30.6z M389.9,30.2c0-0.4-0.4-0.5-1-0.5h-0.7c-0.4,0-0.7,0-0.9-0.1c-0.2,0.2-0.4,0.4-0.4,0.6
				c0,0.5,0.6,0.8,1.5,0.8C389.3,31,389.9,30.6,389.9,30.2z M389.1,25.1c0-0.7-0.4-1.1-0.9-1.1c-0.5,0-0.9,0.4-0.9,1.1
				c0,0.7,0.4,1.1,0.9,1.1S389.1,25.8,389.1,25.1z"/>
			<path d="M397.3,22.5h-2.4v-1.6h6.7v1.6h-2.4v7h-1.9V22.5z"/>
			<path d="M402.6,20.9c0-0.6,0.5-1,1.1-1c0.7,0,1.1,0.4,1.1,1c0,0.6-0.5,1-1.1,1C403.1,21.9,402.6,21.5,402.6,20.9z M402.8,22.9
				h1.9v6.5h-1.9V22.9z"/>
			<path d="M406.4,22.9h1.6l0.1,0.8h0c0.5-0.5,1.1-1,2-1c0.9,0,1.5,0.4,1.8,1.1c0.6-0.6,1.2-1.1,2.1-1.1c1.4,0,2,1,2,2.6v4.1h-1.9
				v-3.8c0-0.9-0.3-1.2-0.8-1.2c-0.3,0-0.7,0.2-1.1,0.6v4.4h-1.9v-3.8c0-0.9-0.3-1.2-0.8-1.2c-0.3,0-0.7,0.2-1.1,0.6v4.4h-1.9V22.9z
				"/>
			<path d="M417.4,26.2c0-2.1,1.5-3.4,3.1-3.4c1.9,0,2.8,1.4,2.8,3.1c0,0.3,0,0.7-0.1,0.9h-3.9c0.2,0.9,0.8,1.4,1.7,1.4
				c0.5,0,0.9-0.2,1.4-0.4l0.6,1.2c-0.7,0.5-1.5,0.7-2.3,0.7C418.8,29.6,417.4,28.3,417.4,26.2z M421.6,25.4c0-0.7-0.3-1.2-1.1-1.2
				c-0.6,0-1.1,0.4-1.3,1.2H421.6z"/>
			<path d="M17.4,42c0-2.2,1.5-3.4,3.2-3.4s3.2,1.3,3.2,3.4c0,2.2-1.5,3.4-3.2,3.4S17.4,44.2,17.4,42z M21.8,42
				c0-1.1-0.4-1.9-1.2-1.9s-1.2,0.7-1.2,1.9c0,1.1,0.4,1.9,1.2,1.9S21.8,43.1,21.8,42z"/>
			<path d="M24.4,38.7h2l0.9,3.1c0.2,0.7,0.3,1.3,0.5,2h0.1c0.2-0.7,0.3-1.4,0.5-2l0.9-3.1H31l-2.1,6.5h-2.2L24.4,38.7z"/>
			<path d="M31.7,42c0-2.1,1.5-3.4,3.1-3.4c1.9,0,2.8,1.4,2.8,3.1c0,0.3,0,0.7-0.1,0.9h-3.9c0.2,0.9,0.8,1.4,1.7,1.4
				c0.5,0,0.9-0.2,1.4-0.4l0.6,1.2c-0.7,0.5-1.5,0.7-2.3,0.7C33.1,45.4,31.7,44.2,31.7,42z M35.9,41.3c0-0.7-0.3-1.2-1.1-1.2
				c-0.6,0-1.1,0.4-1.3,1.2H35.9z"/>
			<path d="M38.9,38.7h1.6l0.1,1.1h0c0.5-0.9,1.2-1.3,1.9-1.3c0.4,0,0.6,0,0.8,0.1L43,40.4c-0.2-0.1-0.4-0.1-0.7-0.1
				c-0.5,0-1.1,0.3-1.4,1.2v3.8h-1.9V38.7z"/>
			<path d="M47,42.9v-2.6h-0.9v-1.4l1-0.1l0.2-1.7H49v1.7h1.6v1.5H49v2.6c0,0.7,0.3,1,0.8,1c0.2,0,0.5-0.1,0.6-0.1l0.3,1.4
				c-0.3,0.1-0.8,0.2-1.5,0.2C47.7,45.4,47,44.4,47,42.9z"/>
			<path d="M51.8,36h1.9v2.3l-0.1,1.2c0.5-0.4,1.1-0.9,2-0.9c1.4,0,2,1,2,2.6v4.1h-1.9v-3.8c0-0.9-0.3-1.2-0.8-1.2
				c-0.5,0-0.8,0.2-1.2,0.6v4.4h-1.9V36z"/>
			<path d="M59,42c0-2.1,1.5-3.4,3.1-3.4c1.9,0,2.8,1.4,2.8,3.1c0,0.3,0,0.7-0.1,0.9h-3.9c0.2,0.9,0.8,1.4,1.7,1.4
				c0.5,0,0.9-0.2,1.4-0.4l0.6,1.2c-0.7,0.5-1.5,0.7-2.3,0.7C60.4,45.4,59,44.2,59,42z M63.2,41.3c0-0.7-0.3-1.2-1.1-1.2
				c-0.6,0-1.1,0.4-1.3,1.2H63.2z"/>
			<path d="M68.8,38.7h1.6l0.1,0.6h0c0.5-0.5,1.2-0.8,1.9-0.8c1.6,0,2.6,1.3,2.6,3.3c0,2.2-1.3,3.5-2.8,3.5c-0.6,0-1.1-0.2-1.6-0.7
				l0.1,1v1.9h-1.9V38.7z M73,41.9c0-1.2-0.4-1.8-1.1-1.8c-0.4,0-0.7,0.2-1.1,0.6v2.7c0.4,0.3,0.7,0.4,1,0.4
				C72.5,43.8,73,43.3,73,41.9z"/>
			<path d="M76.1,43.5c0-1.4,1.1-2.1,3.7-2.4c0-0.6-0.3-0.9-1-0.9c-0.5,0-1.1,0.2-1.7,0.6l-0.7-1.3c0.8-0.5,1.8-0.9,2.8-0.9
				c1.7,0,2.6,1,2.6,3v3.7h-1.6L80,44.6h0c-0.6,0.5-1.2,0.8-1.9,0.8C76.9,45.4,76.1,44.6,76.1,43.5z M79.8,43.4v-1.1
				c-1.4,0.2-1.8,0.6-1.8,1.1c0,0.4,0.3,0.6,0.8,0.6C79.1,43.9,79.4,43.7,79.8,43.4z"/>
			<path d="M82.8,44.5l0.9-1.2c0.6,0.4,1.1,0.7,1.7,0.7c0.6,0,0.8-0.2,0.8-0.6c0-0.4-0.6-0.6-1.3-0.9c-0.8-0.3-1.7-0.8-1.7-1.9
				c0-1.2,1-2,2.5-2c1,0,1.8,0.4,2.3,0.8l-0.9,1.2c-0.5-0.3-0.9-0.6-1.4-0.6c-0.5,0-0.7,0.2-0.7,0.5c0,0.4,0.6,0.6,1.3,0.8
				c0.8,0.3,1.8,0.8,1.8,2c0,1.2-0.9,2.1-2.7,2.1C84.4,45.4,83.4,45.1,82.8,44.5z"/>
			<path d="M89.5,42.9v-2.6h-0.9v-1.4l1-0.1l0.2-1.7h1.6v1.7H93v1.5h-1.6v2.6c0,0.7,0.3,1,0.8,1c0.2,0,0.5-0.1,0.6-0.1l0.3,1.4
				c-0.3,0.1-0.8,0.2-1.5,0.2C90.1,45.4,89.5,44.4,89.5,42.9z"/>
			<path d="M97.2,42.9v-2.6h-0.9v-1.4l1-0.1l0.2-1.7h1.6v1.7h1.6v1.5h-1.6v2.6c0,0.7,0.3,1,0.8,1c0.2,0,0.5-0.1,0.6-0.1l0.3,1.4
				c-0.3,0.1-0.8,0.2-1.5,0.2C97.8,45.4,97.2,44.4,97.2,42.9z"/>
			<path d="M101.4,38.7h1.9l0.6,3c0.1,0.6,0.2,1.3,0.3,1.9h0.1c0.1-0.7,0.2-1.3,0.4-1.9l0.7-3h1.7l0.7,3c0.2,0.6,0.3,1.3,0.4,1.9
				h0.1c0.1-0.7,0.2-1.3,0.3-1.9l0.6-3h1.8l-1.6,6.5h-2.3l-0.6-2.6c-0.1-0.6-0.2-1.2-0.3-1.9h-0.1c-0.1,0.7-0.2,1.3-0.3,1.9
				l-0.6,2.6h-2.2L101.4,38.7z"/>
			<path d="M111.8,42c0-2.2,1.5-3.4,3.2-3.4c1.7,0,3.2,1.3,3.2,3.4c0,2.2-1.5,3.4-3.2,3.4C113.4,45.4,111.8,44.2,111.8,42z
				 M116.2,42c0-1.1-0.4-1.9-1.2-1.9c-0.8,0-1.2,0.7-1.2,1.9c0,1.1,0.4,1.9,1.2,1.9C115.8,43.9,116.2,43.1,116.2,42z"/>
			<path d="M122,47.7l0.3-1.5c0.1,0,0.3,0.1,0.4,0.1c0.6,0,1-0.4,1.1-0.9l0.1-0.3l-2.5-6.4h2l0.9,2.8c0.2,0.6,0.3,1.2,0.5,1.9h0.1
				c0.1-0.6,0.3-1.2,0.5-1.9l0.8-2.8h1.9l-2.3,6.6c-0.6,1.6-1.3,2.5-2.9,2.5C122.5,47.8,122.2,47.8,122,47.7z"/>
			<path d="M128.7,42c0-2.1,1.5-3.4,3.1-3.4c1.9,0,2.8,1.4,2.8,3.1c0,0.3,0,0.7-0.1,0.9h-3.9c0.2,0.9,0.8,1.4,1.7,1.4
				c0.5,0,0.9-0.2,1.4-0.4l0.6,1.2c-0.7,0.5-1.5,0.7-2.3,0.7C130.1,45.4,128.7,44.2,128.7,42z M132.9,41.3c0-0.7-0.3-1.2-1.1-1.2
				c-0.6,0-1.1,0.4-1.3,1.2H132.9z"/>
			<path d="M135.6,43.5c0-1.4,1.1-2.1,3.7-2.4c0-0.6-0.3-0.9-1-0.9c-0.5,0-1.1,0.2-1.7,0.6l-0.7-1.3c0.8-0.5,1.8-0.9,2.8-0.9
				c1.7,0,2.6,1,2.6,3v3.7h-1.6l-0.1-0.7h0c-0.6,0.5-1.2,0.8-1.9,0.8C136.3,45.4,135.6,44.6,135.6,43.5z M139.3,43.4v-1.1
				c-1.4,0.2-1.8,0.6-1.8,1.1c0,0.4,0.3,0.6,0.8,0.6C138.6,43.9,138.9,43.7,139.3,43.4z"/>
			<path d="M142.8,38.7h1.6l0.1,1.1h0c0.5-0.9,1.2-1.3,1.9-1.3c0.4,0,0.6,0,0.8,0.1l-0.3,1.7c-0.2-0.1-0.4-0.1-0.7-0.1
				c-0.5,0-1.1,0.3-1.4,1.2v3.8h-1.9V38.7z"/>
			<path d="M147.5,44.5l0.9-1.2c0.6,0.4,1.1,0.7,1.7,0.7c0.6,0,0.8-0.2,0.8-0.6c0-0.4-0.6-0.6-1.3-0.9c-0.8-0.3-1.7-0.8-1.7-1.9
				c0-1.2,1-2,2.5-2c1,0,1.8,0.4,2.3,0.8l-0.9,1.2c-0.5-0.3-0.9-0.6-1.4-0.6c-0.5,0-0.7,0.2-0.7,0.5c0,0.4,0.6,0.6,1.3,0.8
				c0.8,0.3,1.8,0.8,1.8,2c0,1.2-0.9,2.1-2.7,2.1C149.2,45.4,148.2,45.1,147.5,44.5z"/>
		</g>
	</g>
	<g>
		<g>
			<path d="M22.2,58.9h0.5l2.6,7.2h-0.5l-1.4-4.3c-0.3-0.9-0.6-1.6-0.8-2.5h0c-0.3,0.9-0.5,1.6-0.8,2.5l-1.5,4.3h-0.5L22.2,58.9z
				 M20.8,63.2H24v0.4h-3.3V63.2z"/>
			<path d="M26.3,65.4v-7.2h0.5v7.3c0,0.2,0.1,0.3,0.2,0.3c0,0,0.1,0,0.2,0l0.1,0.4c-0.1,0-0.2,0.1-0.3,0.1
				C26.5,66.2,26.3,66,26.3,65.4z"/>
			<path d="M28.9,65.4v-7.2h0.5v7.3c0,0.2,0.1,0.3,0.2,0.3c0,0,0.1,0,0.2,0l0.1,0.4c-0.1,0-0.2,0.1-0.3,0.1
				C29.1,66.2,28.9,66,28.9,65.4z"/>
			<path d="M33.1,65.5l0.3-0.4c0.4,0.4,0.9,0.7,1.7,0.7c0.8,0,1.3-0.5,1.3-1c0-0.7-0.7-1-1.3-1.2c-0.8-0.3-1.7-0.6-1.7-1.5
				c0-0.8,0.6-1.4,1.7-1.4c0.6,0,1.1,0.2,1.5,0.5l-0.3,0.4c-0.4-0.3-0.7-0.5-1.3-0.5c-0.8,0-1.2,0.5-1.2,1c0,0.6,0.6,0.8,1.3,1.1
				c0.8,0.3,1.7,0.6,1.7,1.6c0,0.8-0.6,1.5-1.8,1.5C34.2,66.2,33.5,65.9,33.1,65.5z"/>
			<path d="M38.1,64.2v-3.4h0.5v3.3c0,1.1,0.4,1.7,1.2,1.7c0.6,0,1.1-0.3,1.7-1.1v-3.9H42v5.3h-0.4l-0.1-0.9h0c-0.5,0.6-1.1,1-1.8,1
				C38.6,66.2,38.1,65.6,38.1,64.2z"/>
			<path d="M43.6,63.5c0-1.8,1.1-2.8,2.4-2.8c0.7,0,1.2,0.3,1.5,0.7l-0.3,0.3c-0.3-0.3-0.7-0.6-1.2-0.6c-1.1,0-1.9,1-1.9,2.4
				s0.8,2.3,1.9,2.3c0.6,0,1.1-0.3,1.4-0.6l0.3,0.3c-0.5,0.4-1,0.7-1.7,0.7C44.6,66.2,43.6,65.2,43.6,63.5z"/>
			<path d="M48.5,63.5c0-1.8,1.1-2.8,2.4-2.8c0.7,0,1.2,0.3,1.5,0.7l-0.3,0.3c-0.3-0.3-0.7-0.6-1.2-0.6c-1.1,0-1.9,1-1.9,2.4
				s0.8,2.3,1.9,2.3c0.6,0,1.1-0.3,1.4-0.6l0.3,0.3c-0.5,0.4-1,0.7-1.7,0.7C49.5,66.2,48.5,65.2,48.5,63.5z"/>
			<path d="M53.4,63.5c0-1.7,1.1-2.8,2.3-2.8c1.3,0,2,0.9,2,2.4c0,0.1,0,0.3,0,0.4h-3.8c0,1.3,0.8,2.3,2,2.3c0.6,0,1-0.2,1.4-0.5
				l0.2,0.4c-0.4,0.3-0.9,0.5-1.7,0.5C54.5,66.2,53.4,65.2,53.4,63.5z M57.3,63.1c0-1.3-0.6-2-1.6-2c-0.9,0-1.7,0.8-1.8,2H57.3z"/>
			<path d="M58.5,65.5l0.3-0.4c0.4,0.4,0.9,0.7,1.7,0.7c0.8,0,1.3-0.5,1.3-1c0-0.7-0.7-1-1.3-1.2c-0.8-0.3-1.7-0.6-1.7-1.5
				c0-0.8,0.6-1.4,1.7-1.4c0.6,0,1.1,0.2,1.5,0.5l-0.3,0.4c-0.4-0.3-0.7-0.5-1.3-0.5c-0.8,0-1.2,0.5-1.2,1c0,0.6,0.6,0.8,1.3,1.1
				c0.8,0.3,1.7,0.6,1.7,1.6c0,0.8-0.6,1.5-1.8,1.5C59.7,66.2,59,65.9,58.5,65.5z"/>
			<path d="M63,65.5l0.3-0.4c0.4,0.4,0.9,0.7,1.7,0.7c0.8,0,1.3-0.5,1.3-1c0-0.7-0.7-1-1.3-1.2c-0.8-0.3-1.7-0.6-1.7-1.5
				c0-0.8,0.6-1.4,1.7-1.4c0.6,0,1.1,0.2,1.5,0.5l-0.3,0.4c-0.4-0.3-0.7-0.5-1.3-0.5c-0.8,0-1.2,0.5-1.2,1c0,0.6,0.6,0.8,1.3,1.1
				c0.8,0.3,1.7,0.6,1.7,1.6c0,0.8-0.6,1.5-1.8,1.5C64.1,66.2,63.5,65.9,63,65.5z"/>
			<path d="M67.4,60.9l0.7,0h1.7v0.4h-2.4V60.9z M68.2,59.7c0-1,0.5-1.6,1.3-1.6c0.2,0,0.5,0.1,0.8,0.2l-0.1,0.4
				c-0.2-0.1-0.4-0.1-0.6-0.1c-0.6,0-0.8,0.4-0.8,1.2v6.4h-0.5V59.7z"/>
			<path d="M70.9,64.2v-3.4h0.5v3.3c0,1.1,0.4,1.7,1.2,1.7c0.6,0,1.1-0.3,1.7-1.1v-3.9h0.5v5.3h-0.4l-0.1-0.9h0
				c-0.5,0.6-1.1,1-1.8,1C71.4,66.2,70.9,65.6,70.9,64.2z"/>
			<path d="M76.8,65.4v-7.2h0.5v7.3c0,0.2,0.1,0.3,0.2,0.3c0,0,0.1,0,0.2,0l0.1,0.4c-0.1,0-0.2,0.1-0.3,0.1
				C77,66.2,76.8,66,76.8,65.4z"/>
			<path d="M82.1,65.6L82.1,65.6L82,66.1h-0.4v-7.9h0.5v2.3l0,1c0.5-0.5,1.2-0.8,1.8-0.8c1.4,0,2.1,1.1,2.1,2.7
				c0,1.8-1.1,2.9-2.3,2.9C83.2,66.2,82.6,66,82.1,65.6z M85.5,63.4c0-1.3-0.5-2.3-1.7-2.3c-0.5,0-1.1,0.3-1.7,0.9v3.1
				c0.6,0.5,1.2,0.7,1.6,0.7C84.7,65.8,85.5,64.8,85.5,63.4z"/>
			<path d="M87.4,59.1c0-0.3,0.2-0.4,0.4-0.4c0.2,0,0.4,0.2,0.4,0.4c0,0.3-0.2,0.4-0.4,0.4C87.6,59.6,87.4,59.4,87.4,59.1z
				 M87.6,60.8h0.5v5.3h-0.5V60.8z"/>
			<path d="M90.1,65.4v-7.2h0.5v7.3c0,0.2,0.1,0.3,0.2,0.3c0,0,0.1,0,0.2,0l0.1,0.4c-0.1,0-0.2,0.1-0.3,0.1
				C90.3,66.2,90.1,66,90.1,65.4z"/>
			<path d="M92.7,65.4v-7.2h0.5v7.3c0,0.2,0.1,0.3,0.2,0.3c0,0,0.1,0,0.2,0l0.1,0.4c-0.1,0-0.2,0.1-0.3,0.1
				C92.9,66.2,92.7,66,92.7,65.4z"/>
			<path d="M94.7,65.5l0.3-0.4c0.4,0.4,0.9,0.7,1.7,0.7c0.8,0,1.3-0.5,1.3-1c0-0.7-0.7-1-1.3-1.2c-0.8-0.3-1.7-0.6-1.7-1.5
				c0-0.8,0.6-1.4,1.7-1.4c0.6,0,1.1,0.2,1.5,0.5l-0.3,0.4c-0.4-0.3-0.7-0.5-1.3-0.5c-0.8,0-1.2,0.5-1.2,1c0,0.6,0.6,0.8,1.3,1.1
				c0.8,0.3,1.7,0.6,1.7,1.6c0,0.8-0.6,1.5-1.8,1.5C95.8,66.2,95.1,65.9,94.7,65.5z"/>
			<path d="M101.5,63.5c0-1.8,1.1-2.8,2.4-2.8c0.7,0,1.2,0.3,1.5,0.7l-0.3,0.3c-0.3-0.3-0.7-0.6-1.2-0.6c-1.1,0-1.9,1-1.9,2.4
				s0.8,2.3,1.9,2.3c0.6,0,1.1-0.3,1.4-0.6l0.3,0.3c-0.5,0.4-1,0.7-1.7,0.7C102.6,66.2,101.5,65.2,101.5,63.5z"/>
			<path d="M106.5,64.8c0-1.2,1.1-1.7,3.4-2c0-0.8-0.2-1.7-1.2-1.7c-0.7,0-1.3,0.4-1.7,0.6l-0.2-0.4c0.4-0.3,1.1-0.7,2-0.7
				c1.3,0,1.7,0.9,1.7,2v3.4H110l-0.1-0.7h0c-0.5,0.4-1.2,0.8-1.9,0.8C107.2,66.2,106.5,65.8,106.5,64.8z M109.9,65v-1.8
				c-2.2,0.3-2.9,0.8-2.9,1.6c0,0.8,0.5,1,1.1,1C108.8,65.8,109.3,65.5,109.9,65z"/>
			<path d="M112.3,65.4v-7.2h0.5v7.3c0,0.2,0.1,0.3,0.2,0.3c0,0,0.1,0,0.2,0l0.1,0.4c-0.1,0-0.2,0.1-0.3,0.1
				C112.5,66.2,112.3,66,112.3,65.4z"/>
			<path d="M114.9,65.4v-7.2h0.5v7.3c0,0.2,0.1,0.3,0.2,0.3c0,0,0.1,0,0.2,0l0.1,0.4c-0.1,0-0.2,0.1-0.3,0.1
				C115.1,66.2,114.9,66,114.9,65.4z"/>
			<path d="M119.1,60.9l0.7,0h1.7v0.4h-2.4V60.9z M119.8,59.7c0-1,0.5-1.6,1.3-1.6c0.2,0,0.5,0.1,0.8,0.2l-0.1,0.4
				c-0.2-0.1-0.4-0.1-0.6-0.1c-0.6,0-0.8,0.4-0.8,1.2v6.4h-0.5V59.7z"/>
			<path d="M122.2,63.5c0-1.8,1.1-2.8,2.4-2.8s2.4,1,2.4,2.8c0,1.7-1.1,2.8-2.4,2.8S122.2,65.2,122.2,63.5z M126.4,63.5
				c0-1.4-0.8-2.4-1.9-2.4c-1.1,0-1.9,1-1.9,2.4s0.8,2.3,1.9,2.3C125.6,65.8,126.4,64.9,126.4,63.5z"/>
			<path d="M128.5,60.8h0.4l0.1,1h0c0.4-0.6,0.9-1.1,1.5-1.1c0.2,0,0.4,0,0.5,0.1l-0.1,0.4c-0.2-0.1-0.3-0.1-0.5-0.1
				c-0.5,0-1,0.4-1.4,1.4v3.6h-0.5V60.8z"/>
			<path d="M133.8,64.8c0-1.2,1.1-1.7,3.4-2c0-0.8-0.2-1.7-1.2-1.7c-0.7,0-1.3,0.4-1.7,0.6l-0.2-0.4c0.4-0.3,1.1-0.7,2-0.7
				c1.3,0,1.7,0.9,1.7,2v3.4h-0.4l-0.1-0.7h0c-0.5,0.4-1.2,0.8-1.9,0.8C134.5,66.2,133.8,65.8,133.8,64.8z M137.2,65v-1.8
				c-2.2,0.3-2.9,0.8-2.9,1.6c0,0.8,0.5,1,1.1,1C136,65.8,136.6,65.5,137.2,65z"/>
			<path d="M141,68.4l0.1-0.4c0.1,0,0.3,0.1,0.4,0.1c0.6,0,1.1-0.6,1.4-1.4l0.1-0.5l-2.2-5.4h0.5l1.3,3.3c0.2,0.4,0.4,1,0.6,1.5h0
				c0.2-0.5,0.3-1,0.5-1.5l1.1-3.3h0.5l-2.1,5.9c-0.3,0.9-0.8,1.7-1.8,1.7C141.4,68.5,141.2,68.5,141,68.4z"/>
			<path d="M146.1,63.5c0-1.7,1.1-2.8,2.3-2.8c1.3,0,2,0.9,2,2.4c0,0.1,0,0.3,0,0.4h-3.8c0,1.3,0.8,2.3,2,2.3c0.6,0,1-0.2,1.4-0.5
				l0.2,0.4c-0.4,0.3-0.9,0.5-1.7,0.5C147.2,66.2,146.1,65.2,146.1,63.5z M150,63.1c0-1.3-0.6-2-1.6-2c-0.9,0-1.7,0.8-1.8,2H150z"/>
			<path d="M151.5,64.8c0-1.2,1.1-1.7,3.4-2c0-0.8-0.2-1.7-1.2-1.7c-0.7,0-1.3,0.4-1.7,0.6l-0.2-0.4c0.4-0.3,1.1-0.7,2-0.7
				c1.3,0,1.7,0.9,1.7,2v3.4H155l-0.1-0.7h0c-0.5,0.4-1.2,0.8-1.9,0.8C152.2,66.2,151.5,65.8,151.5,64.8z M154.9,65v-1.8
				c-2.2,0.3-2.9,0.8-2.9,1.6c0,0.8,0.5,1,1.1,1C153.7,65.8,154.3,65.5,154.9,65z"/>
			<path d="M157.3,60.8h0.4l0.1,1h0c0.4-0.6,0.9-1.1,1.5-1.1c0.2,0,0.4,0,0.5,0.1l-0.1,0.4c-0.2-0.1-0.3-0.1-0.5-0.1
				c-0.5,0-1,0.4-1.4,1.4v3.6h-0.5V60.8z"/>
			<path d="M160.2,63.2h2.4v0.4h-2.4V63.2z"/>
			<path d="M164.1,60.8h0.4l0.1,1h0c0.4-0.6,0.9-1.1,1.5-1.1c0.2,0,0.4,0,0.5,0.1l-0.1,0.4c-0.2-0.1-0.3-0.1-0.5-0.1
				c-0.5,0-1,0.4-1.4,1.4v3.6h-0.5V60.8z"/>
			<path d="M167.1,63.5c0-1.8,1.1-2.8,2.4-2.8s2.4,1,2.4,2.8c0,1.7-1.1,2.8-2.4,2.8S167.1,65.2,167.1,63.5z M171.4,63.5
				c0-1.4-0.8-2.4-1.9-2.4c-1.1,0-1.9,1-1.9,2.4s0.8,2.3,1.9,2.3C170.6,65.8,171.4,64.9,171.4,63.5z"/>
			<path d="M173.4,64.2v-3.4h0.5v3.3c0,1.1,0.4,1.7,1.2,1.7c0.6,0,1.1-0.3,1.7-1.1v-3.9h0.5v5.3h-0.4l-0.1-0.9h0
				c-0.5,0.6-1.1,1-1.8,1C173.9,66.2,173.4,65.6,173.4,64.2z"/>
			<path d="M179.3,60.8h0.4l0.1,0.8h0c0.5-0.5,1.1-1,1.8-1c1.1,0,1.6,0.7,1.6,2v3.4h-0.5v-3.3c0-1.1-0.4-1.7-1.2-1.7
				c-0.6,0-1.1,0.3-1.7,1v4h-0.5V60.8z"/>
			<path d="M184.7,63.5c0-1.7,1.1-2.8,2.3-2.8c0.6,0,1.1,0.2,1.6,0.6l0-1v-2.2h0.5v7.9h-0.4l-0.1-0.7h0c-0.4,0.4-1,0.8-1.7,0.8
				C185.5,66.2,184.7,65.3,184.7,63.5z M188.6,64.9v-3.1c-0.6-0.5-1-0.7-1.5-0.7c-1,0-1.9,1-1.9,2.4c0,1.4,0.6,2.3,1.7,2.3
				C187.5,65.8,188,65.5,188.6,64.9z"/>
			<path d="M193.4,58.9h1.7c2.2,0,3.3,1.4,3.3,3.6c0,2.2-1.1,3.6-3.3,3.6h-1.7V58.9z M195,65.7c2,0,2.8-1.3,2.8-3.2
				s-0.9-3.2-2.8-3.2h-1.1v6.4H195z"/>
			<path d="M199.4,65.2l0.3-0.3c0.5,0.6,1.3,1,2.1,1c1.1,0,1.8-0.6,1.8-1.5c0-0.9-0.6-1.2-1.3-1.5l-1.1-0.5
				c-0.6-0.3-1.5-0.7-1.5-1.8c0-1.1,0.9-1.8,2.1-1.8c0.9,0,1.6,0.4,2,0.9l-0.3,0.3c-0.4-0.5-1-0.7-1.7-0.7c-1,0-1.6,0.5-1.6,1.3
				c0,0.8,0.7,1.2,1.3,1.4l1.1,0.5c0.8,0.4,1.5,0.8,1.5,1.9c0,1.1-0.9,2-2.3,2C200.8,66.2,200,65.8,199.4,65.2z"/>
			<path d="M207.3,59.3H205v-0.4h5.1v0.4h-2.3v6.8h-0.5V59.3z"/>
			<path d="M213.6,60.8h0.4l0.1,0.7h0c0.5-0.4,1.1-0.8,1.8-0.8c1.4,0,2.1,1.1,2.1,2.7c0,1.8-1.1,2.9-2.3,2.9c-0.5,0-1-0.2-1.6-0.6
				l0,1v1.9h-0.5V60.8z M217.5,63.4c0-1.3-0.5-2.3-1.7-2.3c-0.5,0-1.1,0.3-1.7,0.9v3.1c0.6,0.5,1.2,0.7,1.6,0.7
				C216.8,65.8,217.5,64.8,217.5,63.4z"/>
			<path d="M219.2,63.5c0-1.7,1.1-2.8,2.3-2.8c1.3,0,2,0.9,2,2.4c0,0.1,0,0.3,0,0.4h-3.8c0,1.3,0.8,2.3,2,2.3c0.6,0,1-0.2,1.4-0.5
				l0.2,0.4c-0.4,0.3-0.9,0.5-1.7,0.5C220.3,66.2,219.2,65.2,219.2,63.5z M223,63.1c0-1.3-0.6-2-1.6-2c-0.9,0-1.7,0.8-1.8,2H223z"/>
			<path d="M224.9,60.8h0.4l0.1,0.8h0c0.5-0.5,1.1-1,1.8-1c1.1,0,1.6,0.7,1.6,2v3.4h-0.5v-3.3c0-1.1-0.4-1.7-1.2-1.7
				c-0.6,0-1.1,0.3-1.7,1v4h-0.5V60.8z"/>
			<path d="M230.3,63.5c0-1.7,1.1-2.8,2.3-2.8c0.6,0,1.1,0.2,1.6,0.6l0-1v-2.2h0.5v7.9h-0.4l-0.1-0.7h0c-0.4,0.4-1,0.8-1.7,0.8
				C231.2,66.2,230.3,65.3,230.3,63.5z M234.3,64.9v-3.1c-0.6-0.5-1-0.7-1.5-0.7c-1,0-1.9,1-1.9,2.4c0,1.4,0.6,2.3,1.7,2.3
				C233.2,65.8,233.7,65.5,234.3,64.9z"/>
			<path d="M236.6,59.1c0-0.3,0.2-0.4,0.4-0.4c0.2,0,0.4,0.2,0.4,0.4c0,0.3-0.2,0.4-0.4,0.4C236.8,59.6,236.6,59.4,236.6,59.1z
				 M236.8,60.8h0.5v5.3h-0.5V60.8z"/>
			<path d="M239.3,60.8h0.4l0.1,0.8h0c0.5-0.5,1.1-1,1.8-1c1.1,0,1.6,0.7,1.6,2v3.4h-0.5v-3.3c0-1.1-0.4-1.7-1.2-1.7
				c-0.6,0-1.1,0.3-1.7,1v4h-0.5V60.8z"/>
			<path d="M244.7,67.2c0-0.5,0.3-0.9,0.8-1.3v0c-0.3-0.2-0.5-0.4-0.5-0.8c0-0.5,0.3-0.8,0.6-1v0c-0.3-0.3-0.7-0.8-0.7-1.4
				c0-1.1,0.8-1.9,1.9-1.9c0.3,0,0.5,0.1,0.7,0.1h1.8v0.4h-1.2c0.3,0.3,0.6,0.8,0.6,1.3c0,1.1-0.8,1.9-1.8,1.9
				c-0.3,0-0.6-0.1-0.9-0.2c-0.2,0.2-0.4,0.4-0.4,0.8c0,0.4,0.2,0.7,1,0.7h1.1c1.2,0,1.7,0.4,1.7,1.2c0,0.9-1,1.8-2.5,1.8
				C245.5,68.7,244.7,68.1,244.7,67.2z M248.9,66.9c0-0.6-0.4-0.8-1.2-0.8h-1.1c-0.1,0-0.4,0-0.7-0.1c-0.5,0.3-0.7,0.7-0.7,1.1
				c0,0.7,0.6,1.1,1.8,1.1C248.1,68.3,248.9,67.6,248.9,66.9z M248.2,62.6c0-0.9-0.6-1.5-1.4-1.5c-0.7,0-1.4,0.6-1.4,1.5
				c0,0.9,0.6,1.5,1.4,1.5C247.5,64,248.2,63.4,248.2,62.6z"/>
			<path d="M252.3,62.5c0-2.3,1.3-3.7,3.1-3.7c0.8,0,1.5,0.4,1.9,0.9l-0.3,0.3c-0.4-0.4-0.9-0.7-1.6-0.7c-1.6,0-2.6,1.3-2.6,3.3
				c0,2,1,3.3,2.5,3.3c0.7,0,1.3-0.3,1.8-0.9l0.3,0.3c-0.6,0.6-1.2,1-2.2,1C253.5,66.2,252.3,64.8,252.3,62.5z"/>
			<path d="M258.5,63.5c0-1.8,1.1-2.8,2.4-2.8s2.4,1,2.4,2.8c0,1.7-1.1,2.8-2.4,2.8S258.5,65.2,258.5,63.5z M262.7,63.5
				c0-1.4-0.8-2.4-1.9-2.4c-1.1,0-1.9,1-1.9,2.4s0.8,2.3,1.9,2.3C261.9,65.8,262.7,64.9,262.7,63.5z"/>
			<path d="M264.8,60.8h0.4l0.1,0.8h0c0.5-0.5,1.1-1,1.8-1c1.1,0,1.6,0.7,1.6,2v3.4h-0.5v-3.3c0-1.1-0.4-1.7-1.2-1.7
				c-0.6,0-1.1,0.3-1.7,1v4h-0.5V60.8z"/>
			<path d="M270.2,67.2c0-0.5,0.3-0.9,0.8-1.3v0c-0.3-0.2-0.5-0.4-0.5-0.8c0-0.5,0.3-0.8,0.6-1v0c-0.3-0.3-0.7-0.8-0.7-1.4
				c0-1.1,0.8-1.9,1.9-1.9c0.3,0,0.5,0.1,0.7,0.1h1.8v0.4h-1.2c0.3,0.3,0.6,0.8,0.6,1.3c0,1.1-0.8,1.9-1.8,1.9
				c-0.3,0-0.6-0.1-0.9-0.2c-0.2,0.2-0.4,0.4-0.4,0.8c0,0.4,0.2,0.7,1,0.7h1.1c1.2,0,1.7,0.4,1.7,1.2c0,0.9-1,1.8-2.5,1.8
				C271,68.7,270.2,68.1,270.2,67.2z M274.4,66.9c0-0.6-0.4-0.8-1.2-0.8H272c-0.1,0-0.4,0-0.7-0.1c-0.5,0.3-0.7,0.7-0.7,1.1
				c0,0.7,0.6,1.1,1.8,1.1C273.6,68.3,274.4,67.6,274.4,66.9z M273.7,62.6c0-0.9-0.6-1.5-1.4-1.5c-0.7,0-1.4,0.6-1.4,1.5
				c0,0.9,0.6,1.5,1.4,1.5C273,64,273.7,63.4,273.7,62.6z"/>
			<path d="M276,60.8h0.4l0.1,1h0c0.4-0.6,0.9-1.1,1.5-1.1c0.2,0,0.4,0,0.5,0.1l-0.1,0.4c-0.2-0.1-0.3-0.1-0.5-0.1
				c-0.5,0-1,0.4-1.4,1.4v3.6H276V60.8z"/>
			<path d="M279,63.5c0-1.7,1.1-2.8,2.3-2.8c1.3,0,2,0.9,2,2.4c0,0.1,0,0.3,0,0.4h-3.8c0,1.3,0.8,2.3,2,2.3c0.6,0,1-0.2,1.4-0.5
				l0.2,0.4c-0.4,0.3-0.9,0.5-1.7,0.5C280.1,66.2,279,65.2,279,63.5z M282.9,63.1c0-1.3-0.6-2-1.6-2c-0.9,0-1.7,0.8-1.8,2H282.9z"/>
			<path d="M284.1,65.5l0.3-0.4c0.4,0.4,0.9,0.7,1.7,0.7c0.8,0,1.3-0.5,1.3-1c0-0.7-0.7-1-1.3-1.2c-0.8-0.3-1.7-0.6-1.7-1.5
				c0-0.8,0.6-1.4,1.7-1.4c0.6,0,1.1,0.2,1.5,0.5l-0.3,0.4c-0.4-0.3-0.7-0.5-1.3-0.5c-0.8,0-1.2,0.5-1.2,1c0,0.6,0.6,0.8,1.3,1.1
				c0.8,0.3,1.7,0.6,1.7,1.6c0,0.8-0.6,1.5-1.8,1.5C285.3,66.2,284.6,65.9,284.1,65.5z"/>
			<path d="M288.6,65.5l0.3-0.4c0.4,0.4,0.9,0.7,1.7,0.7c0.8,0,1.3-0.5,1.3-1c0-0.7-0.7-1-1.3-1.2c-0.8-0.3-1.7-0.6-1.7-1.5
				c0-0.8,0.6-1.4,1.7-1.4c0.6,0,1.1,0.2,1.5,0.5l-0.3,0.4c-0.4-0.3-0.7-0.5-1.3-0.5c-0.8,0-1.2,0.5-1.2,1c0,0.6,0.6,0.8,1.3,1.1
				c0.8,0.3,1.7,0.6,1.7,1.6c0,0.8-0.6,1.5-1.8,1.5C289.7,66.2,289.1,65.9,288.6,65.5z"/>
			<path d="M293.5,59.1c0-0.3,0.2-0.4,0.4-0.4c0.2,0,0.4,0.2,0.4,0.4c0,0.3-0.2,0.4-0.4,0.4C293.7,59.6,293.5,59.4,293.5,59.1z
				 M293.7,60.8h0.5v5.3h-0.5V60.8z"/>
			<path d="M295.8,63.5c0-1.8,1.1-2.8,2.4-2.8s2.4,1,2.4,2.8c0,1.7-1.1,2.8-2.4,2.8S295.8,65.2,295.8,63.5z M300,63.5
				c0-1.4-0.8-2.4-1.9-2.4c-1.1,0-1.9,1-1.9,2.4s0.8,2.3,1.9,2.3C299.2,65.8,300,64.9,300,63.5z"/>
			<path d="M302.1,60.8h0.4l0.1,0.8h0c0.5-0.5,1.1-1,1.8-1c1.1,0,1.6,0.7,1.6,2v3.4h-0.5v-3.3c0-1.1-0.4-1.7-1.2-1.7
				c-0.6,0-1.1,0.3-1.7,1v4h-0.5V60.8z"/>
			<path d="M307.6,64.8c0-1.2,1.1-1.7,3.4-2c0-0.8-0.2-1.7-1.2-1.7c-0.7,0-1.3,0.4-1.7,0.6l-0.2-0.4c0.4-0.3,1.1-0.7,2-0.7
				c1.3,0,1.7,0.9,1.7,2v3.4h-0.4l-0.1-0.7h0c-0.5,0.4-1.2,0.8-1.9,0.8C308.3,66.2,307.6,65.8,307.6,64.8z M311,65v-1.8
				c-2.2,0.3-2.9,0.8-2.9,1.6c0,0.8,0.5,1,1.1,1C309.8,65.8,310.3,65.5,311,65z"/>
			<path d="M313.4,65.4v-7.2h0.5v7.3c0,0.2,0.1,0.3,0.2,0.3c0,0,0.1,0,0.2,0l0.1,0.4c-0.1,0-0.2,0.1-0.3,0.1
				C313.6,66.2,313.4,66,313.4,65.4z"/>
			<path d="M317.8,64.8c0-1.2,1.1-1.7,3.4-2c0-0.8-0.2-1.7-1.2-1.7c-0.7,0-1.3,0.4-1.7,0.6l-0.2-0.4c0.4-0.3,1.1-0.7,2-0.7
				c1.3,0,1.7,0.9,1.7,2v3.4h-0.4l-0.1-0.7h0c-0.5,0.4-1.2,0.8-1.9,0.8C318.5,66.2,317.8,65.8,317.8,64.8z M321.2,65v-1.8
				c-2.2,0.3-2.9,0.8-2.9,1.6c0,0.8,0.5,1,1.1,1C320,65.8,320.5,65.5,321.2,65z"/>
			<path d="M323.6,60.8h0.4l0.1,0.7h0c0.5-0.4,1.1-0.8,1.8-0.8c1.4,0,2.1,1.1,2.1,2.7c0,1.8-1.1,2.9-2.3,2.9c-0.5,0-1-0.2-1.6-0.6
				l0,1v1.9h-0.5V60.8z M327.5,63.4c0-1.3-0.5-2.3-1.7-2.3c-0.5,0-1.1,0.3-1.7,0.9v3.1c0.6,0.5,1.2,0.7,1.6,0.7
				C326.7,65.8,327.5,64.8,327.5,63.4z"/>
			<path d="M329.6,60.8h0.4l0.1,0.7h0c0.5-0.4,1.1-0.8,1.8-0.8c1.4,0,2.1,1.1,2.1,2.7c0,1.8-1.1,2.9-2.3,2.9c-0.5,0-1-0.2-1.6-0.6
				l0,1v1.9h-0.5V60.8z M333.4,63.4c0-1.3-0.5-2.3-1.7-2.3c-0.5,0-1.1,0.3-1.7,0.9v3.1c0.6,0.5,1.2,0.7,1.6,0.7
				C332.7,65.8,333.4,64.8,333.4,63.4z"/>
			<path d="M335.5,60.8h0.4l0.1,1h0c0.4-0.6,0.9-1.1,1.5-1.1c0.2,0,0.3,0,0.5,0.1l-0.1,0.4c-0.2-0.1-0.3-0.1-0.5-0.1
				c-0.5,0-1,0.4-1.4,1.4v3.6h-0.5V60.8z"/>
			<path d="M338.6,63.5c0-1.8,1.1-2.8,2.4-2.8s2.4,1,2.4,2.8c0,1.7-1.1,2.8-2.4,2.8S338.6,65.2,338.6,63.5z M342.8,63.5
				c0-1.4-0.8-2.4-1.9-2.4c-1.1,0-1.9,1-1.9,2.4s0.8,2.3,1.9,2.3C342,65.8,342.8,64.9,342.8,63.5z"/>
			<path d="M344,60.8h0.5l1.2,3.3c0.2,0.5,0.4,1,0.5,1.5h0c0.2-0.5,0.4-1,0.5-1.5l1.2-3.3h0.5l-2,5.3H346L344,60.8z"/>
			<path d="M349.3,64.8c0-1.2,1.1-1.7,3.4-2c0-0.8-0.2-1.7-1.2-1.7c-0.7,0-1.3,0.4-1.7,0.6l-0.2-0.4c0.4-0.3,1.1-0.7,2-0.7
				c1.3,0,1.7,0.9,1.7,2v3.4h-0.4l-0.1-0.7h0c-0.5,0.4-1.2,0.8-1.9,0.8C350,66.2,349.3,65.8,349.3,64.8z M352.7,65v-1.8
				c-2.2,0.3-2.9,0.8-2.9,1.6c0,0.8,0.5,1,1.1,1C351.5,65.8,352.1,65.5,352.7,65z"/>
			<path d="M355.1,65.4v-7.2h0.5v7.3c0,0.2,0.1,0.3,0.2,0.3c0,0,0.1,0,0.2,0l0.1,0.4c-0.1,0-0.2,0.1-0.3,0.1
				C355.3,66.2,355.1,66,355.1,65.4z"/>
			<path d="M357.4,65.8c0-0.3,0.2-0.5,0.5-0.5s0.5,0.2,0.5,0.5c0,0.3-0.2,0.5-0.5,0.5S357.4,66.1,357.4,65.8z"/>
		</g>
	</g>
	<g>
		<g>
			<path d="M252.6,388.6l0.3-0.3c0.4,0.5,1,0.8,1.7,0.8c0.9,0,1.4-0.5,1.4-1.2c0-0.7-0.5-1-1-1.2l-0.9-0.4c-0.5-0.2-1.2-0.6-1.2-1.4
				c0-0.8,0.7-1.4,1.7-1.4c0.7,0,1.3,0.3,1.6,0.7l-0.2,0.3c-0.3-0.4-0.8-0.6-1.4-0.6c-0.8,0-1.3,0.4-1.3,1c0,0.7,0.6,0.9,1,1.1
				l0.9,0.4c0.6,0.3,1.2,0.6,1.2,1.5c0,0.9-0.7,1.6-1.9,1.6C253.7,389.5,253.1,389.1,252.6,388.6z"/>
			<path d="M257.2,387.2c0-1.4,0.9-2.2,1.9-2.2c1,0,1.9,0.8,1.9,2.2c0,1.4-0.9,2.2-1.9,2.2C258.1,389.5,257.2,388.6,257.2,387.2z
				 M260.6,387.2c0-1.1-0.6-1.9-1.5-1.9c-0.9,0-1.5,0.8-1.5,1.9c0,1.1,0.6,1.9,1.5,1.9C260,389.1,260.6,388.4,260.6,387.2z"/>
			<path d="M262.2,387.8v-2.7h0.4v2.7c0,0.9,0.3,1.3,1,1.3c0.5,0,0.9-0.3,1.4-0.9v-3.1h0.4v4.2H265l0-0.7h0
				c-0.4,0.5-0.9,0.8-1.4,0.8C262.6,389.5,262.2,388.9,262.2,387.8z"/>
			<path d="M266.9,385.1h0.3l0,0.8h0c0.3-0.5,0.7-0.9,1.2-0.9c0.2,0,0.3,0,0.4,0.1l-0.1,0.4c-0.1-0.1-0.2-0.1-0.4-0.1
				c-0.4,0-0.8,0.3-1.2,1.1v2.9h-0.4V385.1z"/>
			<path d="M269.4,387.2c0-1.4,0.9-2.2,1.9-2.2c0.6,0,1,0.3,1.2,0.5l-0.2,0.3c-0.3-0.3-0.6-0.4-1-0.4c-0.9,0-1.5,0.8-1.5,1.9
				c0,1.1,0.6,1.9,1.5,1.9c0.5,0,0.8-0.2,1.1-0.5l0.2,0.3c-0.4,0.3-0.8,0.6-1.4,0.6C270.2,389.5,269.4,388.6,269.4,387.2z"/>
			<path d="M273.3,387.2c0-1.4,0.9-2.2,1.8-2.2c1,0,1.6,0.7,1.6,2c0,0.1,0,0.2,0,0.3h-3c0,1.1,0.6,1.8,1.6,1.8
				c0.5,0,0.8-0.2,1.1-0.4l0.2,0.3c-0.3,0.2-0.7,0.4-1.3,0.4C274.2,389.5,273.3,388.6,273.3,387.2z M276.4,387
				c0-1.1-0.5-1.6-1.2-1.6c-0.7,0-1.4,0.6-1.4,1.6H276.4z"/>
			<path d="M277.7,385.7c0-0.3,0.2-0.4,0.4-0.4c0.2,0,0.4,0.2,0.4,0.4c0,0.2-0.2,0.4-0.4,0.4C277.9,386.1,277.7,385.9,277.7,385.7z
				 M277.7,389.1c0-0.3,0.2-0.4,0.4-0.4c0.2,0,0.4,0.2,0.4,0.4c0,0.2-0.2,0.4-0.4,0.4C277.9,389.5,277.7,389.3,277.7,389.1z"/>
			<path d="M281.7,383.5h0.4l2.4,4.1l0.7,1.2h0c0-0.6-0.1-1.1-0.1-1.7v-3.6h0.4v5.8h-0.4l-2.4-4.1l-0.7-1.2h0c0,0.6,0.1,1.1,0.1,1.6
				v3.6h-0.4V383.5z"/>
			<path d="M286.9,388.3c0-0.9,0.8-1.4,2.7-1.6c0-0.6-0.2-1.3-1-1.3c-0.6,0-1.1,0.3-1.3,0.5l-0.2-0.3c0.3-0.2,0.9-0.5,1.6-0.5
				c1,0,1.3,0.7,1.3,1.6v2.7h-0.3l0-0.5h0c-0.4,0.3-0.9,0.7-1.5,0.7C287.5,389.5,286.9,389.1,286.9,388.3z M289.6,388.4V387
				c-1.7,0.2-2.3,0.6-2.3,1.3c0,0.6,0.4,0.8,0.9,0.8C288.7,389.1,289.1,388.9,289.6,388.4z"/>
			<path d="M291.6,388.2v-2.7H291v-0.3l0.7,0l0-1.2h0.3v1.2h1.2v0.3H292v2.7c0,0.5,0.1,0.9,0.7,0.9c0.2,0,0.4-0.1,0.5-0.1l0.1,0.3
				c-0.2,0.1-0.5,0.2-0.7,0.2C291.9,389.5,291.6,388.9,291.6,388.2z"/>
			<path d="M294.1,383.8c0-0.2,0.2-0.3,0.4-0.3c0.2,0,0.4,0.1,0.4,0.3c0,0.2-0.2,0.3-0.4,0.3C294.3,384.1,294.1,384,294.1,383.8z
				 M294.3,385.1h0.4v4.2h-0.4V385.1z"/>
			<path d="M295.9,387.2c0-1.4,0.9-2.2,1.9-2.2c1,0,1.9,0.8,1.9,2.2c0,1.4-0.9,2.2-1.9,2.2C296.8,389.5,295.9,388.6,295.9,387.2z
				 M299.3,387.2c0-1.1-0.6-1.9-1.5-1.9c-0.9,0-1.5,0.8-1.5,1.9c0,1.1,0.6,1.9,1.5,1.9C298.7,389.1,299.3,388.4,299.3,387.2z"/>
			<path d="M301,385.1h0.3l0,0.7h0c0.4-0.4,0.9-0.8,1.5-0.8c0.9,0,1.3,0.5,1.3,1.6v2.7h-0.4v-2.7c0-0.9-0.3-1.3-1-1.3
				c-0.5,0-0.9,0.3-1.4,0.8v3.2H301V385.1z"/>
			<path d="M305.4,388.3c0-0.9,0.8-1.4,2.7-1.6c0-0.6-0.2-1.3-1-1.3c-0.6,0-1.1,0.3-1.3,0.5l-0.2-0.3c0.3-0.2,0.9-0.5,1.6-0.5
				c1,0,1.3,0.7,1.3,1.6v2.7h-0.3l0-0.5h0c-0.4,0.3-0.9,0.7-1.5,0.7C305.9,389.5,305.4,389.1,305.4,388.3z M308.1,388.4V387
				c-1.7,0.2-2.3,0.6-2.3,1.3c0,0.6,0.4,0.8,0.9,0.8C307.2,389.1,307.6,388.9,308.1,388.4z"/>
			<path d="M310,388.8V383h0.4v5.8c0,0.2,0.1,0.3,0.2,0.3c0,0,0.1,0,0.2,0l0.1,0.3c-0.1,0-0.2,0-0.3,0
				C310.2,389.5,310,389.2,310,388.8z"/>
			<path d="M313.5,386.4c0-1.8,1-3,2.5-3c0.7,0,1.2,0.3,1.5,0.7l-0.2,0.3c-0.3-0.4-0.7-0.6-1.3-0.6c-1.3,0-2.1,1-2.1,2.6
				c0,1.6,0.8,2.7,2,2.7c0.6,0,1-0.2,1.5-0.7l0.2,0.3c-0.4,0.5-1,0.8-1.7,0.8C314.5,389.5,313.5,388.3,313.5,386.4z"/>
			<path d="M318.5,387.2c0-1.4,0.9-2.2,1.9-2.2s1.9,0.8,1.9,2.2c0,1.4-0.9,2.2-1.9,2.2S318.5,388.6,318.5,387.2z M321.9,387.2
				c0-1.1-0.6-1.9-1.5-1.9s-1.5,0.8-1.5,1.9c0,1.1,0.6,1.9,1.5,1.9S321.9,388.4,321.9,387.2z"/>
			<path d="M323.5,385.1h0.3l0,0.7h0c0.4-0.4,0.9-0.8,1.5-0.8c0.9,0,1.3,0.5,1.3,1.6v2.7h-0.4v-2.7c0-0.9-0.3-1.3-1-1.3
				c-0.5,0-0.9,0.3-1.4,0.8v3.2h-0.4V385.1z"/>
			<path d="M327.7,385.2l0.6,0h1.4v0.3h-1.9V385.2z M328.3,384.2c0-0.8,0.4-1.3,1-1.3c0.2,0,0.4,0.1,0.6,0.1l-0.1,0.3
				c-0.2-0.1-0.3-0.1-0.5-0.1c-0.5,0-0.7,0.3-0.7,1v5.1h-0.4V384.2z"/>
			<path d="M330.2,387.2c0-1.4,0.9-2.2,1.8-2.2c1,0,1.6,0.7,1.6,2c0,0.1,0,0.2,0,0.3h-3c0,1.1,0.6,1.8,1.6,1.8
				c0.5,0,0.8-0.2,1.1-0.4l0.2,0.3c-0.3,0.2-0.7,0.4-1.3,0.4C331,389.5,330.2,388.6,330.2,387.2z M333.3,387c0-1.1-0.5-1.6-1.2-1.6
				c-0.7,0-1.4,0.6-1.4,1.6H333.3z"/>
			<path d="M334.8,385.1h0.3l0,0.8h0c0.3-0.5,0.7-0.9,1.2-0.9c0.2,0,0.3,0,0.4,0.1l-0.1,0.4c-0.1-0.1-0.2-0.1-0.4-0.1
				c-0.4,0-0.8,0.3-1.2,1.1v2.9h-0.4V385.1z"/>
			<path d="M337.2,387.2c0-1.4,0.9-2.2,1.8-2.2c1,0,1.6,0.7,1.6,2c0,0.1,0,0.2,0,0.3h-3c0,1.1,0.6,1.8,1.6,1.8
				c0.5,0,0.8-0.2,1.1-0.4l0.2,0.3c-0.3,0.2-0.7,0.4-1.3,0.4C338.1,389.5,337.2,388.6,337.2,387.2z M340.3,387
				c0-1.1-0.5-1.6-1.2-1.6c-0.7,0-1.4,0.6-1.4,1.6H340.3z"/>
			<path d="M341.8,385.1h0.3l0,0.7h0c0.4-0.4,0.9-0.8,1.5-0.8c0.9,0,1.3,0.5,1.3,1.6v2.7h-0.4v-2.7c0-0.9-0.3-1.3-1-1.3
				c-0.5,0-0.9,0.3-1.4,0.8v3.2h-0.4V385.1z"/>
			<path d="M346.1,387.2c0-1.4,0.9-2.2,1.9-2.2c0.6,0,1,0.3,1.2,0.5l-0.2,0.3c-0.3-0.3-0.6-0.4-1-0.4c-0.9,0-1.5,0.8-1.5,1.9
				c0,1.1,0.6,1.9,1.5,1.9c0.5,0,0.8-0.2,1.1-0.5l0.2,0.3c-0.4,0.3-0.8,0.6-1.4,0.6C347,389.5,346.1,388.6,346.1,387.2z"/>
			<path d="M350.1,387.2c0-1.4,0.9-2.2,1.8-2.2c1,0,1.6,0.7,1.6,2c0,0.1,0,0.2,0,0.3h-3c0,1.1,0.6,1.8,1.6,1.8
				c0.5,0,0.8-0.2,1.1-0.4l0.2,0.3c-0.3,0.2-0.7,0.4-1.3,0.4C351,389.5,350.1,388.6,350.1,387.2z M353.2,387c0-1.1-0.5-1.6-1.2-1.6
				c-0.7,0-1.4,0.6-1.4,1.6H353.2z"/>
			<path d="M356.1,387.2c0-1.4,0.9-2.2,1.9-2.2s1.9,0.8,1.9,2.2c0,1.4-0.9,2.2-1.9,2.2S356.1,388.6,356.1,387.2z M359.5,387.2
				c0-1.1-0.6-1.9-1.5-1.9s-1.5,0.8-1.5,1.9c0,1.1,0.6,1.9,1.5,1.9S359.5,388.4,359.5,387.2z"/>
			<path d="M360.6,385.2l0.6,0h1.4v0.3h-1.9V385.2z M361.2,384.2c0-0.8,0.4-1.3,1-1.3c0.2,0,0.4,0.1,0.6,0.1l-0.1,0.3
				c-0.2-0.1-0.3-0.1-0.5-0.1c-0.5,0-0.7,0.3-0.7,1v5.1h-0.4V384.2z"/>
			<path d="M364.8,388.6l0.3-0.3c0.4,0.5,1,0.8,1.7,0.8c0.9,0,1.4-0.5,1.4-1.2c0-0.7-0.5-1-1-1.2l-0.9-0.4c-0.5-0.2-1.2-0.6-1.2-1.4
				c0-0.8,0.7-1.4,1.7-1.4c0.7,0,1.3,0.3,1.6,0.7l-0.2,0.3c-0.3-0.4-0.8-0.6-1.4-0.6c-0.8,0-1.3,0.4-1.3,1c0,0.7,0.6,0.9,1,1.1
				l0.9,0.4c0.7,0.3,1.2,0.6,1.2,1.5c0,0.9-0.7,1.6-1.9,1.6C365.9,389.5,365.3,389.1,364.8,388.6z"/>
			<path d="M369.9,388.2v-2.7h-0.7v-0.3l0.7,0l0-1.2h0.3v1.2h1.2v0.3h-1.2v2.7c0,0.5,0.1,0.9,0.7,0.9c0.2,0,0.4-0.1,0.5-0.1l0.1,0.3
				c-0.2,0.1-0.5,0.2-0.7,0.2C370.2,389.5,369.9,388.9,369.9,388.2z"/>
			<path d="M372.3,388.3c0-0.9,0.8-1.4,2.7-1.6c0-0.6-0.2-1.3-1-1.3c-0.6,0-1.1,0.3-1.3,0.5l-0.2-0.3c0.3-0.2,0.9-0.5,1.6-0.5
				c1,0,1.3,0.7,1.3,1.6v2.7h-0.3l0-0.5h0c-0.4,0.3-0.9,0.7-1.5,0.7C372.8,389.5,372.3,389.1,372.3,388.3z M375,388.4V387
				c-1.7,0.2-2.3,0.6-2.3,1.3c0,0.6,0.4,0.8,0.9,0.8C374,389.1,374.5,388.9,375,388.4z"/>
			<path d="M377,388.2v-2.7h-0.7v-0.3l0.7,0l0-1.2h0.3v1.2h1.2v0.3h-1.2v2.7c0,0.5,0.1,0.9,0.7,0.9c0.2,0,0.4-0.1,0.5-0.1l0.1,0.3
				c-0.2,0.1-0.5,0.2-0.7,0.2C377.2,389.5,377,388.9,377,388.2z"/>
			<path d="M379.3,387.2c0-1.4,0.9-2.2,1.8-2.2c1,0,1.6,0.7,1.6,2c0,0.1,0,0.2,0,0.3h-3c0,1.1,0.6,1.8,1.6,1.8
				c0.5,0,0.8-0.2,1.1-0.4l0.2,0.3c-0.3,0.2-0.7,0.4-1.3,0.4C380.2,389.5,379.3,388.6,379.3,387.2z M382.4,387
				c0-1.1-0.5-1.6-1.2-1.6c-0.7,0-1.4,0.6-1.4,1.6H382.4z"/>
			<path d="M385.7,383.5h0.4v5.5h2.7v0.3h-3.1V383.5z"/>
			<path d="M389.4,387.2c0-1.4,0.9-2.2,1.8-2.2c1,0,1.6,0.7,1.6,2c0,0.1,0,0.2,0,0.3h-3c0,1.1,0.6,1.8,1.6,1.8
				c0.5,0,0.8-0.2,1.1-0.4l0.2,0.3c-0.3,0.2-0.7,0.4-1.3,0.4C390.3,389.5,389.4,388.6,389.4,387.2z M392.5,387
				c0-1.1-0.5-1.6-1.2-1.6c-0.7,0-1.4,0.6-1.4,1.6H392.5z"/>
			<path d="M393.6,390.2c0-0.4,0.2-0.7,0.6-1v0c-0.2-0.1-0.4-0.4-0.4-0.7c0-0.4,0.3-0.6,0.5-0.8v0c-0.3-0.2-0.5-0.6-0.5-1.2
				c0-0.9,0.7-1.5,1.5-1.5c0.2,0,0.4,0.1,0.6,0.1h1.4v0.3h-1c0.3,0.2,0.5,0.6,0.5,1.1c0,0.9-0.6,1.5-1.5,1.5c-0.2,0-0.5-0.1-0.7-0.2
				c-0.2,0.2-0.3,0.3-0.3,0.6c0,0.3,0.2,0.5,0.8,0.5h0.9c0.9,0,1.4,0.3,1.4,1c0,0.7-0.8,1.4-2,1.4
				C394.3,391.4,393.6,390.9,393.6,390.2z M397,390c0-0.5-0.3-0.6-1-0.6h-0.9c-0.1,0-0.3,0-0.5-0.1c-0.4,0.3-0.6,0.6-0.6,0.9
				c0,0.5,0.5,0.9,1.4,0.9C396.4,391.1,397,390.5,397,390z M396.4,386.5c0-0.7-0.5-1.2-1.1-1.2s-1.1,0.4-1.1,1.2
				c0,0.7,0.5,1.2,1.1,1.2C395.9,387.7,396.4,387.2,396.4,386.5z"/>
			<path d="M398.1,383.8c0-0.2,0.2-0.3,0.4-0.3c0.2,0,0.4,0.1,0.4,0.3c0,0.2-0.2,0.3-0.4,0.3C398.3,384.1,398.1,384,398.1,383.8z
				 M398.3,385.1h0.4v4.2h-0.4V385.1z"/>
			<path d="M399.8,388.9l0.2-0.3c0.4,0.3,0.7,0.5,1.3,0.5c0.7,0,1-0.4,1-0.8c0-0.5-0.5-0.8-1-0.9c-0.6-0.2-1.3-0.5-1.3-1.2
				c0-0.6,0.5-1.1,1.4-1.1c0.5,0,0.9,0.2,1.2,0.4l-0.2,0.3c-0.3-0.2-0.6-0.4-1-0.4c-0.7,0-1,0.4-1,0.8c0,0.5,0.5,0.7,1,0.9
				c0.7,0.2,1.4,0.5,1.4,1.3c0,0.6-0.5,1.2-1.4,1.2C400.7,389.5,400.2,389.2,399.8,388.9z"/>
			<path d="M403.9,388.8V383h0.4v5.8c0,0.2,0.1,0.3,0.2,0.3c0,0,0.1,0,0.2,0l0.1,0.3c-0.1,0-0.2,0-0.3,0
				C404,389.5,403.9,389.2,403.9,388.8z"/>
			<path d="M405.7,388.3c0-0.9,0.8-1.4,2.7-1.6c0-0.6-0.2-1.3-1-1.3c-0.6,0-1.1,0.3-1.3,0.5l-0.2-0.3c0.3-0.2,0.9-0.5,1.6-0.5
				c1,0,1.3,0.7,1.3,1.6v2.7h-0.3l0-0.5h0c-0.4,0.3-0.9,0.7-1.5,0.7C406.2,389.5,405.7,389.1,405.7,388.3z M408.4,388.4V387
				c-1.7,0.2-2.3,0.6-2.3,1.3c0,0.6,0.4,0.8,0.9,0.8C407.4,389.1,407.9,388.9,408.4,388.4z"/>
			<path d="M410.4,388.2v-2.7h-0.7v-0.3l0.7,0l0-1.2h0.3v1.2h1.2v0.3h-1.2v2.7c0,0.5,0.1,0.9,0.7,0.9c0.2,0,0.4-0.1,0.5-0.1l0.1,0.3
				c-0.2,0.1-0.5,0.2-0.7,0.2C410.6,389.5,410.4,388.9,410.4,388.2z"/>
			<path d="M413,387.8v-2.7h0.4v2.7c0,0.9,0.3,1.3,1,1.3c0.5,0,0.9-0.3,1.4-0.9v-3.1h0.4v4.2h-0.3l0-0.7h0c-0.4,0.5-0.9,0.8-1.4,0.8
				C413.4,389.5,413,388.9,413,387.8z"/>
			<path d="M417.7,385.1h0.3l0,0.8h0c0.3-0.5,0.7-0.9,1.2-0.9c0.2,0,0.3,0,0.4,0.1l-0.1,0.4c-0.1-0.1-0.2-0.1-0.4-0.1
				c-0.4,0-0.8,0.3-1.2,1.1v2.9h-0.4V385.1z"/>
			<path d="M420.1,387.2c0-1.4,0.9-2.2,1.8-2.2c1,0,1.6,0.7,1.6,2c0,0.1,0,0.2,0,0.3h-3c0,1.1,0.6,1.8,1.6,1.8
				c0.5,0,0.8-0.2,1.1-0.4l0.2,0.3c-0.3,0.2-0.7,0.4-1.3,0.4C421,389.5,420.1,388.6,420.1,387.2z M423.2,387c0-1.1-0.5-1.6-1.2-1.6
				c-0.7,0-1.4,0.6-1.4,1.6H423.2z"/>
			<path d="M424.2,388.9l0.2-0.3c0.4,0.3,0.7,0.5,1.3,0.5c0.7,0,1-0.4,1-0.8c0-0.5-0.5-0.8-1-0.9c-0.6-0.2-1.3-0.5-1.3-1.2
				c0-0.6,0.5-1.1,1.4-1.1c0.5,0,0.9,0.2,1.2,0.4l-0.2,0.3c-0.3-0.2-0.6-0.4-1-0.4c-0.7,0-1,0.4-1,0.8c0,0.5,0.5,0.7,1,0.9
				c0.7,0.2,1.4,0.5,1.4,1.3c0,0.6-0.5,1.2-1.4,1.2C425.1,389.5,424.6,389.2,424.2,388.9z"/>
		</g>
	</g>
</g>
<g id="ai2html-settings">
	<rect x="-480.7" y="-5" class="st4" width="400" height="418"/>
	<text id="ai2html-settings_00000163756207883275076400000004925975349771317900_" transform="matrix(1 0 0 1 -480.7299 5.6372)"><tspan x="0" y="0" style="font-family:'MyriadPro-Regular'; font-size:15px;">ai2html-settings</tspan><tspan x="0" y="19" style="font-family:'MyriadPro-Regular'; font-size:15px;">settings_version: 0.106.0</tspan><tspan x="0" y="38" style="font-family:'MyriadPro-Regular'; font-size:15px;">image_format: auto</tspan><tspan x="0" y="57" style="font-family:'MyriadPro-Regular'; font-size:15px;">responsiveness: fixed</tspan><tspan x="0" y="76" style="font-family:'MyriadPro-Regular'; font-size:15px;">output: one-file</tspan><tspan x="0" y="95" style="font-family:'MyriadPro-Regular'; font-size:15px;">html_output_path: /ai2html-output/</tspan><tspan x="0" y="114" style="font-family:'MyriadPro-Regular'; font-size:15px;">html_output_extension: .html</tspan><tspan x="0" y="133" style="font-family:'MyriadPro-Regular'; font-size:15px;">image_output_path: </tspan><tspan x="0" y="152" style="font-family:'MyriadPro-Regular'; font-size:15px;">local_preview_template: </tspan><tspan x="0" y="171" style="font-family:'MyriadPro-Regular'; font-size:15px;">png_number_of_colors: 128</tspan><tspan x="0" y="190" style="font-family:'MyriadPro-Regular'; font-size:15px;">jpg_quality: 60</tspan><tspan x="0" y="209" style="font-family:'MyriadPro-Regular'; font-size:15px;">headline: </tspan><tspan x="0" y="228" style="font-family:'MyriadPro-Regular'; font-size:15px;">leadin: </tspan><tspan x="0" y="247" style="font-family:'MyriadPro-Regular'; font-size:15px;">notes: </tspan><tspan x="0" y="266" style="font-family:'MyriadPro-Regular'; font-size:15px;">sources: </tspan><tspan x="0" y="285" style="font-family:'MyriadPro-Regular'; font-size:15px;">credit: </tspan></text>
</g>
</svg>
