<?xml version="1.0" encoding="utf-8"?>
<!-- Generator: Adobe Illustrator 26.0.2, SVG Export Plug-In . SVG Version: 6.00 Build 0)  -->
<svg version="1.1" id="Layer_1" xmlns="http://www.w3.org/2000/svg" xmlns:xlink="http://www.w3.org/1999/xlink" x="0px" y="0px"
	 viewBox="0 0 541.6 322.1" style="enable-background:new 0 0 541.6 322.1;" xml:space="preserve">
<style type="text/css">
	.st0{fill:none;}
	.st1{fill:#4D4D4D;}
	.st2{font-family:'ArialMT';}
	.st3{font-size:8.8px;}
	.st4{fill:#A8E799;stroke:#FFFFFF;stroke-width:0.3545;stroke-linejoin:round;}
	.st5{fill:#F89176;stroke:#FFFFFF;stroke-width:0.3545;stroke-linejoin:round;}
	.st6{fill:#FAE688;stroke:#FFFFFF;stroke-width:0.3545;stroke-linejoin:round;}
	.st7{font-size:11px;}
	.st8{fill:#A8E799;stroke:#FFFFFF;stroke-width:0.3545;stroke-linecap:square;}
	.st9{fill:#F89176;stroke:#FFFFFF;stroke-width:0.3545;stroke-linecap:square;}
	.st10{fill:#FAE688;stroke:#FFFFFF;stroke-width:0.3545;stroke-linecap:square;}
	.st11{font-size:13.2px;}
</style>
<path class="st0" d="M0,322.1h541.6V0H0V322.1z"/>
<path class="st0" d="M91,292.2h357.1V26.1H91V292.2z"/>
<text transform="matrix(1 0 0 1 151.5547 313.104)" class="st1 st2 st3">2020</text>
<text transform="matrix(1 0 0 1 259.7729 313.104)" class="st1 st2 st3">2021</text>
<text transform="matrix(1 0 0 1 367.991 313.104)" class="st1 st2 st3">2022</text>
<text transform="matrix(1 0 0 1 24.4566 288.9837)" class="st1 st2 st3">Pennsylvania</text>
<text transform="matrix(1 0 0 1 36.6941 279.5471)" class="st1 st2 st3">Oklahoma</text>
<text transform="matrix(1 0 0 1 39.6246 270.1105)" class="st1 st2 st3">New York</text>
<text transform="matrix(1 0 0 1 52.3476 260.6739)" class="st1 st2 st3">Illinois</text>
<text transform="matrix(1 0 0 1 45.4941 251.2373)" class="st1 st2 st3">Georgia</text>
<text transform="matrix(1 0 0 1 25.2816 241.8007)" class="st1 st2 st3">West Virginia</text>
<text transform="matrix(1 0 0 1 30.657 232.3641)" class="st1 st2 st3">Washington</text>
<text transform="matrix(1 0 0 1 47.6125 222.9275)" class="st1 st2 st3">Virginia</text>
<text transform="matrix(1 0 0 1 44.0289 213.4909)" class="st1 st2 st3">Vermont</text>
<text transform="matrix(1 0 0 1 44.0417 204.0543)" class="st1 st2 st3">Missouri</text>
<text transform="matrix(1 0 0 1 41.0898 194.6177)" class="st1 st2 st3">Colorado</text>
<text transform="matrix(1 0 0 1 58.2128 185.1811)" class="st1 st2 st3">Utah</text>
<text transform="matrix(1 0 0 1 23.4769 175.7445)" class="st1 st2 st3">South Dakota</text>
<text transform="matrix(1 0 0 1 18.5871 166.3079)" class="st1 st2 st3">South Carolina</text>
<text transform="matrix(1 0 0 1 58.2128 156.8713)" class="st1 st2 st3">Ohio</text>
<text transform="matrix(1 0 0 1 20.0652 147.4347)" class="st1 st2 st3">North Carolina</text>
<text transform="matrix(1 0 0 1 30.8331 137.9981)" class="st1 st2 st3">New Jersey</text>
<text transform="matrix(1 0 0 1 14.2042 128.5615)" class="st1 st2 st3">New Hampshire</text>
<text transform="matrix(1 0 0 1 39.139 119.1249)" class="st1 st2 st3">Nebraska</text>
<text transform="matrix(1 0 0 1 36.2 109.6884)" class="st1 st2 st3">Minnesota</text>
<text transform="matrix(1 0 0 1 41.5839 100.2517)" class="st1 st2 st3">Michigan</text>
<text transform="matrix(1 0 0 1 18.1101 90.8152)" class="st1 st2 st3">Massachusetts</text>
<text transform="matrix(1 0 0 1 40.6085 81.3785)" class="st1 st2 st3">Maryland</text>
<text transform="matrix(1 0 0 1 40.6042 71.942)" class="st1 st2 st3">Kentucky</text>
<text transform="matrix(1 0 0 1 47.4492 62.5054)" class="st1 st2 st3">Kansas</text>
<text transform="matrix(1 0 0 1 58.2128 53.0688)" class="st1 st2 st3">Iowa</text>
<text transform="matrix(1 0 0 1 39.6288 43.6322)" class="st1 st2 st3">California</text>
<text transform="matrix(1 0 0 1 50.3882 34.1956)" class="st1 st2 st3">Alaska</text>
<rect x="91" y="26.1" class="st0" width="357.1" height="266.1"/>
<path class="st4" d="M107.2,253.5v-9.4h108.2v9.4H107.2z"/>
<rect x="91" y="26.1" class="st0" width="357.1" height="266.1"/>
<path class="st4" d="M215.5,253.5v-9.4h108.2v9.4H215.5z"/>
<rect x="91" y="26.1" class="st0" width="357.1" height="266.1"/>
<path class="st5" d="M107.2,253.5v-9.4h108.2v9.4H107.2z"/>
<rect x="91" y="26.1" class="st0" width="357.1" height="266.1"/>
<path class="st5" d="M107.2,253.5v-9.4h108.2v9.4H107.2z"/>
<rect x="91" y="26.1" class="st0" width="357.1" height="266.1"/>
<path class="st6" d="M215.5,253.5v-9.4h108.2v9.4H215.5z"/>
<rect x="91" y="26.1" class="st0" width="357.1" height="266.1"/>
<path class="st6" d="M323.7,253.5v-9.4h108.2v9.4H323.7z"/>
<rect x="91" y="26.1" class="st0" width="357.1" height="266.1"/>
<path class="st4" d="M107.2,187.5V178h108.2v9.4H107.2z"/>
<rect x="91" y="26.1" class="st0" width="357.1" height="266.1"/>
<path class="st6" d="M323.7,187.5V178h108.2v9.4H323.7z"/>
<rect x="91" y="26.1" class="st0" width="357.1" height="266.1"/>
<path class="st4" d="M215.5,112v-9.4h108.2v9.4H215.5z"/>
<rect x="91" y="26.1" class="st0" width="357.1" height="266.1"/>
<path class="st5" d="M107.2,112v-9.4h108.2v9.4H107.2z"/>
<rect x="91" y="26.1" class="st0" width="357.1" height="266.1"/>
<path class="st6" d="M323.7,112v-9.4h108.2v9.4H323.7z"/>
<rect x="91" y="26.1" class="st0" width="357.1" height="266.1"/>
<path class="st4" d="M215.5,159.2v-9.4h108.2v9.4H215.5z"/>
<rect x="91" y="26.1" class="st0" width="357.1" height="266.1"/>
<path class="st4" d="M107.2,159.2v-9.4h108.2v9.4H107.2z"/>
<rect x="91" y="26.1" class="st0" width="357.1" height="266.1"/>
<path class="st5" d="M107.2,159.2v-9.4h108.2v9.4H107.2z"/>
<rect x="91" y="26.1" class="st0" width="357.1" height="266.1"/>
<path class="st6" d="M323.7,159.2v-9.4h108.2v9.4H323.7z"/>
<rect x="91" y="26.1" class="st0" width="357.1" height="266.1"/>
<path class="st4" d="M107.2,234.7v-9.4h108.2v9.4H107.2z"/>
<rect x="91" y="26.1" class="st0" width="357.1" height="266.1"/>
<path class="st5" d="M107.2,234.7v-9.4h108.2v9.4H107.2z"/>
<rect x="91" y="26.1" class="st0" width="357.1" height="266.1"/>
<path class="st6" d="M323.7,234.7v-9.4h108.2v9.4H323.7z"/>
<rect x="91" y="26.1" class="st0" width="357.1" height="266.1"/>
<path class="st4" d="M107.2,168.6v-9.4h108.2v9.4H107.2z"/>
<rect x="91" y="26.1" class="st0" width="357.1" height="266.1"/>
<path class="st5" d="M107.2,168.6v-9.4h108.2v9.4H107.2z"/>
<rect x="91" y="26.1" class="st0" width="357.1" height="266.1"/>
<path class="st6" d="M215.5,168.6v-9.4h108.2v9.4H215.5z"/>
<rect x="91" y="26.1" class="st0" width="357.1" height="266.1"/>
<path class="st6" d="M323.7,168.6v-9.4h108.2v9.4H323.7z"/>
<rect x="91" y="26.1" class="st0" width="357.1" height="266.1"/>
<path class="st5" d="M215.5,140.3v-9.4h108.2v9.4H215.5z"/>
<rect x="91" y="26.1" class="st0" width="357.1" height="266.1"/>
<path class="st6" d="M323.7,140.3v-9.4h108.2v9.4H323.7z"/>
<rect x="91" y="26.1" class="st0" width="357.1" height="266.1"/>
<path class="st6" d="M107.2,140.3v-9.4h108.2v9.4H107.2z"/>
<rect x="91" y="26.1" class="st0" width="357.1" height="266.1"/>
<path class="st5" d="M215.5,130.9v-9.4h108.2v9.4H215.5z"/>
<rect x="91" y="26.1" class="st0" width="357.1" height="266.1"/>
<path class="st6" d="M323.7,130.9v-9.4h108.2v9.4H323.7z"/>
<rect x="91" y="26.1" class="st0" width="357.1" height="266.1"/>
<path class="st5" d="M107.2,121.4V112h108.2v9.4H107.2z"/>
<rect x="91" y="26.1" class="st0" width="357.1" height="266.1"/>
<path class="st6" d="M215.5,121.4V112h108.2v9.4H215.5z"/>
<rect x="91" y="26.1" class="st0" width="357.1" height="266.1"/>
<path class="st6" d="M323.7,121.4V112h108.2v9.4H323.7z"/>
<rect x="91" y="26.1" class="st0" width="357.1" height="266.1"/>
<path class="st5" d="M107.2,206.3v-9.4h108.2v9.4H107.2z"/>
<rect x="91" y="26.1" class="st0" width="357.1" height="266.1"/>
<path class="st5" d="M215.5,206.3v-9.4h108.2v9.4H215.5z"/>
<rect x="91" y="26.1" class="st0" width="357.1" height="266.1"/>
<path class="st6" d="M323.7,206.3v-9.4h108.2v9.4H323.7z"/>
<rect x="91" y="26.1" class="st0" width="357.1" height="266.1"/>
<path class="st5" d="M107.2,149.7v-9.4h108.2v9.4H107.2z"/>
<rect x="91" y="26.1" class="st0" width="357.1" height="266.1"/>
<path class="st6" d="M215.5,149.7v-9.4h108.2v9.4H215.5z"/>
<rect x="91" y="26.1" class="st0" width="357.1" height="266.1"/>
<path class="st6" d="M323.7,149.7v-9.4h108.2v9.4H323.7z"/>
<rect x="91" y="26.1" class="st0" width="357.1" height="266.1"/>
<path class="st5" d="M107.2,244.1v-9.4h108.2v9.4H107.2z"/>
<rect x="91" y="26.1" class="st0" width="357.1" height="266.1"/>
<path class="st6" d="M323.7,244.1v-9.4h108.2v9.4H323.7z"/>
<rect x="91" y="26.1" class="st0" width="357.1" height="266.1"/>
<path class="st5" d="M323.7,225.2v-9.4h108.2v9.4H323.7z"/>
<rect x="91" y="26.1" class="st0" width="357.1" height="266.1"/>
<path class="st5" d="M215.5,225.2v-9.4h108.2v9.4H215.5z"/>
<rect x="91" y="26.1" class="st0" width="357.1" height="266.1"/>
<path class="st5" d="M107.2,272.4V263h108.2v9.4H107.2z"/>
<rect x="91" y="26.1" class="st0" width="357.1" height="266.1"/>
<path class="st6" d="M323.7,272.4V263h108.2v9.4H323.7z"/>
<rect x="91" y="26.1" class="st0" width="357.1" height="266.1"/>
<path class="st6" d="M215.5,272.4V263h108.2v9.4H215.5z"/>
<rect x="91" y="26.1" class="st0" width="357.1" height="266.1"/>
<path class="st5" d="M107.2,215.8v-9.4h108.2v9.4H107.2z"/>
<rect x="91" y="26.1" class="st0" width="357.1" height="266.1"/>
<path class="st6" d="M323.7,215.8v-9.4h108.2v9.4H323.7z"/>
<rect x="91" y="26.1" class="st0" width="357.1" height="266.1"/>
<path class="st6" d="M215.5,215.8v-9.4h108.2v9.4H215.5z"/>
<rect x="91" y="26.1" class="st0" width="357.1" height="266.1"/>
<path class="st5" d="M215.5,178v-9.4h108.2v9.4H215.5z"/>
<rect x="91" y="26.1" class="st0" width="357.1" height="266.1"/>
<path class="st5" d="M107.2,178v-9.4h108.2v9.4H107.2z"/>
<rect x="91" y="26.1" class="st0" width="357.1" height="266.1"/>
<path class="st6" d="M323.7,178v-9.4h108.2v9.4H323.7z"/>
<rect x="91" y="26.1" class="st0" width="357.1" height="266.1"/>
<path class="st5" d="M107.2,291.3v-9.4h108.2v9.4H107.2z"/>
<rect x="91" y="26.1" class="st0" width="357.1" height="266.1"/>
<path class="st6" d="M323.7,291.3v-9.4h108.2v9.4H323.7z"/>
<rect x="91" y="26.1" class="st0" width="357.1" height="266.1"/>
<path class="st6" d="M215.5,291.3v-9.4h108.2v9.4H215.5z"/>
<rect x="91" y="26.1" class="st0" width="357.1" height="266.1"/>
<path class="st5" d="M107.2,281.8v-9.4h108.2v9.4H107.2z"/>
<rect x="91" y="26.1" class="st0" width="357.1" height="266.1"/>
<path class="st6" d="M323.7,281.8v-9.4h108.2v9.4H323.7z"/>
<rect x="91" y="26.1" class="st0" width="357.1" height="266.1"/>
<path class="st6" d="M215.5,281.8v-9.4h108.2v9.4H215.5z"/>
<rect x="91" y="26.1" class="st0" width="357.1" height="266.1"/>
<path class="st5" d="M107.2,263v-9.4h108.2v9.4H107.2z"/>
<rect x="91" y="26.1" class="st0" width="357.1" height="266.1"/>
<path class="st6" d="M323.7,263v-9.4h108.2v9.4H323.7z"/>
<rect x="91" y="26.1" class="st0" width="357.1" height="266.1"/>
<path class="st6" d="M215.5,263v-9.4h108.2v9.4H215.5z"/>
<rect x="91" y="26.1" class="st0" width="357.1" height="266.1"/>
<path class="st5" d="M107.2,64.8v-9.4h108.2v9.4H107.2z"/>
<rect x="91" y="26.1" class="st0" width="357.1" height="266.1"/>
<path class="st6" d="M323.7,64.8v-9.4h108.2v9.4H323.7z"/>
<rect x="91" y="26.1" class="st0" width="357.1" height="266.1"/>
<path class="st6" d="M215.5,64.8v-9.4h108.2v9.4H215.5z"/>
<rect x="91" y="26.1" class="st0" width="357.1" height="266.1"/>
<path class="st5" d="M107.2,74.2v-9.4h108.2v9.4H107.2z"/>
<rect x="91" y="26.1" class="st0" width="357.1" height="266.1"/>
<path class="st5" d="M107.2,74.2v-9.4h108.2v9.4H107.2z"/>
<rect x="91" y="26.1" class="st0" width="357.1" height="266.1"/>
<path class="st6" d="M323.7,74.2v-9.4h108.2v9.4H323.7z"/>
<rect x="91" y="26.1" class="st0" width="357.1" height="266.1"/>
<path class="st5" d="M107.2,196.9v-9.4h108.2v9.4H107.2z"/>
<rect x="91" y="26.1" class="st0" width="357.1" height="266.1"/>
<path class="st6" d="M323.7,196.9v-9.4h108.2v9.4H323.7z"/>
<rect x="91" y="26.1" class="st0" width="357.1" height="266.1"/>
<path class="st5" d="M107.2,45.9v-9.4h108.2v9.4H107.2z"/>
<rect x="91" y="26.1" class="st0" width="357.1" height="266.1"/>
<path class="st6" d="M323.7,45.9v-9.4h108.2v9.4H323.7z"/>
<rect x="91" y="26.1" class="st0" width="357.1" height="266.1"/>
<path class="st5" d="M107.2,55.4v-9.4h108.2v9.4H107.2z"/>
<rect x="91" y="26.1" class="st0" width="357.1" height="266.1"/>
<path class="st6" d="M215.5,55.4v-9.4h108.2v9.4H215.5z"/>
<rect x="91" y="26.1" class="st0" width="357.1" height="266.1"/>
<path class="st6" d="M323.7,55.4v-9.4h108.2v9.4H323.7z"/>
<rect x="91" y="26.1" class="st0" width="357.1" height="266.1"/>
<path class="st5" d="M107.2,83.7v-9.4h108.2v9.4H107.2z"/>
<rect x="91" y="26.1" class="st0" width="357.1" height="266.1"/>
<path class="st5" d="M215.5,83.7v-9.4h108.2v9.4H215.5z"/>
<rect x="91" y="26.1" class="st0" width="357.1" height="266.1"/>
<path class="st6" d="M323.7,83.7v-9.4h108.2v9.4H323.7z"/>
<rect x="91" y="26.1" class="st0" width="357.1" height="266.1"/>
<path class="st5" d="M107.2,36.5V27h108.2v9.4H107.2z"/>
<rect x="91" y="26.1" class="st0" width="357.1" height="266.1"/>
<path class="st6" d="M215.5,36.5V27h108.2v9.4H215.5z"/>
<rect x="91" y="26.1" class="st0" width="357.1" height="266.1"/>
<path class="st6" d="M323.7,36.5V27h108.2v9.4H323.7z"/>
<rect x="91" y="26.1" class="st0" width="357.1" height="266.1"/>
<path class="st5" d="M107.2,93.1v-9.4h108.2v9.4H107.2z"/>
<rect x="91" y="26.1" class="st0" width="357.1" height="266.1"/>
<path class="st6" d="M215.5,93.1v-9.4h108.2v9.4H215.5z"/>
<rect x="91" y="26.1" class="st0" width="357.1" height="266.1"/>
<path class="st6" d="M323.7,93.1v-9.4h108.2v9.4H323.7z"/>
<rect x="91" y="26.1" class="st0" width="357.1" height="266.1"/>
<path class="st5" d="M107.2,102.5v-9.4h108.2v9.4H107.2z"/>
<rect x="91" y="26.1" class="st0" width="357.1" height="266.1"/>
<path class="st6" d="M215.5,102.5v-9.4h108.2v9.4H215.5z"/>
<rect x="91" y="26.1" class="st0" width="357.1" height="266.1"/>
<path class="st6" d="M323.7,102.5v-9.4h108.2v9.4H323.7z"/>
<path class="st0" d="M455.3,202.9h79.1v-91h-79.1V202.9z"/>
<text transform="matrix(1 0 0 1 467.5211 135.544)" class="st2 st7">status</text>
<polyline class="st0" points="467.5,155 467.5,139.2 483.4,139.2 483.4,155 "/>
<path class="st0" d="M467.5,155h15.8v-15.8h-15.8V155z"/>
<polyline class="st0" points="467.5,155 467.5,139.2 483.4,139.2 483.4,155 "/>
<path class="st8" d="M467.7,154.9h15.5v-15.5h-15.5V154.9z"/>
<text transform="matrix(1 0 0 1 486.3611 149.5446)" class="st2 st3">Enacted</text>
<polyline class="st0" points="467.5,172.9 467.5,157 483.4,157 483.4,172.9 "/>
<path class="st0" d="M467.5,172.9h15.8V157h-15.8V172.9z"/>
<polyline class="st0" points="467.5,172.9 467.5,157 483.4,157 483.4,172.9 "/>
<path class="st9" d="M467.7,172.7h15.5v-15.5h-15.5V172.7z"/>
<text transform="matrix(1 0 0 1 486.3611 167.3846)" class="st2 st3">Failed</text>
<polyline class="st0" points="467.5,190.7 467.5,174.9 483.4,174.9 483.4,190.7 "/>
<path class="st0" d="M467.5,190.7h15.8v-15.8h-15.8V190.7z"/>
<polyline class="st0" points="467.5,190.7 467.5,174.9 483.4,174.9 483.4,190.7 "/>
<path class="st10" d="M467.7,190.5h15.5v-15.5h-15.5V190.5z"/>
<text transform="matrix(1 0 0 1 486.3611 185.2246)" class="st2 st3">Pending</text>
<text transform="matrix(1 0 0 1 62.3818 17.2299)" class="st2 st11">28 states are considering legislation on Daylight Saving Time in 2022</text>
</svg>
