<?xml version="1.0" encoding="utf-8"?>
<!-- Generator: Adobe Illustrator 26.0.2, SVG Export Plug-In . SVG Version: 6.00 Build 0)  -->
<svg version="1.1" id="Layer_1" xmlns="http://www.w3.org/2000/svg" xmlns:xlink="http://www.w3.org/1999/xlink" x="0px" y="0px"
	 viewBox="0 0 644.9 322.1" style="enable-background:new 0 0 644.9 322.1;" xml:space="preserve">
<style type="text/css">
	.st0{fill:none;}
	.st1{fill:#4D4D4D;}
	.st2{font-family:'ArialMT';}
	.st3{font-size:8.8px;}
	.st4{fill:#A8E799;stroke:#FFFFFF;stroke-width:0.3545;stroke-linejoin:round;}
	.st5{fill:#F89176;stroke:#FFFFFF;stroke-width:0.3545;stroke-linejoin:round;}
	.st6{fill:#FAE688;stroke:#FFFFFF;stroke-width:0.3545;stroke-linejoin:round;}
	.st7{font-size:11px;}
	.st8{clip-path:url(#SVGID_00000005968549035290020410000015113275938818651538_);fill:none;}
	
		.st9{clip-path:url(#SVGID_00000080888806459230880150000010412107565589200771_);fill:#A8E799;stroke:#FFFFFF;stroke-width:0.3545;stroke-linecap:square;}
	.st10{clip-path:url(#SVGID_00000134954233454558557030000017064618460177529991_);fill:none;}
	
		.st11{clip-path:url(#SVGID_00000024003966841234569180000015693029257760182961_);fill:#F89176;stroke:#FFFFFF;stroke-width:0.3545;stroke-linecap:square;}
	.st12{clip-path:url(#SVGID_00000101798323721343071150000014046056076094206642_);fill:none;}
	
		.st13{clip-path:url(#SVGID_00000168099294495933586040000005697278160244825779_);fill:#FAE688;stroke:#FFFFFF;stroke-width:0.3545;stroke-linecap:square;}
	.st14{enable-background:new    ;}
</style>
<path class="st0" d="M0,322.1h644.9V0H0V322.1z"/>
<path class="st0" d="M149.7,292.2h357.1V26.1H149.7V292.2z"/>
<text transform="matrix(1 0 0 1 152.4476 313.104)" class="st1 st2 st3">2019.5</text>
<text transform="matrix(1 0 0 1 237.2808 313.104)" class="st1 st2 st3">2020</text>
<text transform="matrix(1 0 0 1 314.7749 313.104)" class="st1 st2 st3">2020.5</text>
<text transform="matrix(1 0 0 1 399.6081 313.104)" class="st1 st2 st3">2021</text>
<text transform="matrix(1 0 0 1 477.1022 313.104)" class="st1 st2 st3">2021.5</text>
<text transform="matrix(1 0 0 1 98.8762 282.5496)" class="st1 st2 st3">Wyoming</text>
<text transform="matrix(1 0 0 1 89.3286 262.3896)" class="st1 st2 st3">Washington</text>
<text transform="matrix(1 0 0 1 116.8844 242.2296)" class="st1 st2 st3">Utah</text>
<text transform="matrix(1 0 0 1 77.2587 222.0696)" class="st1 st2 st3">South Carolina</text>
<text transform="matrix(1 0 0 1 97.7977 201.9096)" class="st1 st2 st3">Louisiana</text>
<text transform="matrix(1 0 0 1 113.4512 181.7496)" class="st1 st2 st3">Idaho</text>
<text transform="matrix(1 0 0 1 101.2266 161.5896)" class="st1 st2 st3">Montana</text>
<text transform="matrix(1 0 0 1 92.9337 141.4296)" class="st1 st2 st3">Mississippi</text>
<text transform="matrix(1 0 0 1 94.8715 121.2696)" class="st1 st2 st3">Minnesota</text>
<text transform="matrix(1 0 0 1 111.5048 101.1096)" class="st1 st2 st3">Maine</text>
<text transform="matrix(1 0 0 1 116.8844 80.9496)" class="st1 st2 st3">Ohio</text>
<text transform="matrix(1 0 0 1 104.1657 60.7896)" class="st1 st2 st3">Georgia</text>
<text transform="matrix(1 0 0 1 100.7411 40.6296)" class="st1 st2 st3">Alabama</text>
<rect x="149.7" y="26.1" class="st0" width="357.1" height="266.1"/>
<path class="st4" d="M328.2,48.3V28.1h162.3v20.2H328.2z"/>
<rect x="149.7" y="26.1" class="st0" width="357.1" height="266.1"/>
<path class="st5" d="M328.2,48.3V28.1h162.3v20.2H328.2z"/>
<rect x="149.7" y="26.1" class="st0" width="357.1" height="266.1"/>
<path class="st5" d="M165.9,48.3V28.1h162.3v20.2H165.9z"/>
<rect x="149.7" y="26.1" class="st0" width="357.1" height="266.1"/>
<path class="st4" d="M165.9,68.4V48.3h162.3v20.2H165.9z"/>
<rect x="149.7" y="26.1" class="st0" width="357.1" height="266.1"/>
<path class="st4" d="M328.2,68.4V48.3h162.3v20.2H328.2z"/>
<rect x="149.7" y="26.1" class="st0" width="357.1" height="266.1"/>
<path class="st5" d="M165.9,68.4V48.3h162.3v20.2H165.9z"/>
<rect x="149.7" y="26.1" class="st0" width="357.1" height="266.1"/>
<path class="st5" d="M165.9,68.4V48.3h162.3v20.2H165.9z"/>
<rect x="149.7" y="26.1" class="st0" width="357.1" height="266.1"/>
<path class="st6" d="M328.2,68.4V48.3h162.3v20.2H328.2z"/>
<rect x="149.7" y="26.1" class="st0" width="357.1" height="266.1"/>
<path class="st4" d="M165.9,189.4v-20.2h162.3v20.2H165.9z"/>
<rect x="149.7" y="26.1" class="st0" width="357.1" height="266.1"/>
<path class="st5" d="M165.9,189.4v-20.2h162.3v20.2H165.9z"/>
<rect x="149.7" y="26.1" class="st0" width="357.1" height="266.1"/>
<path class="st4" d="M165.9,209.6v-20.2h162.3v20.2H165.9z"/>
<rect x="149.7" y="26.1" class="st0" width="357.1" height="266.1"/>
<path class="st5" d="M165.9,209.6v-20.2h162.3v20.2H165.9z"/>
<rect x="149.7" y="26.1" class="st0" width="357.1" height="266.1"/>
<path class="st4" d="M165.9,108.8V88.6h162.3v20.2H165.9z"/>
<rect x="149.7" y="26.1" class="st0" width="357.1" height="266.1"/>
<path class="st4" d="M328.2,108.8V88.6h162.3v20.2H328.2z"/>
<rect x="149.7" y="26.1" class="st0" width="357.1" height="266.1"/>
<path class="st4" d="M328.2,128.9v-20.2h162.3v20.2H328.2z"/>
<rect x="149.7" y="26.1" class="st0" width="357.1" height="266.1"/>
<path class="st5" d="M165.9,128.9v-20.2h162.3v20.2H165.9z"/>
<rect x="149.7" y="26.1" class="st0" width="357.1" height="266.1"/>
<path class="st4" d="M328.2,149.1v-20.2h162.3v20.2H328.2z"/>
<rect x="149.7" y="26.1" class="st0" width="357.1" height="266.1"/>
<path class="st5" d="M165.9,149.1v-20.2h162.3v20.2H165.9z"/>
<rect x="149.7" y="26.1" class="st0" width="357.1" height="266.1"/>
<path class="st5" d="M328.2,149.1v-20.2h162.3v20.2H328.2z"/>
<rect x="149.7" y="26.1" class="st0" width="357.1" height="266.1"/>
<path class="st4" d="M328.2,169.2v-20.2h162.3v20.2H328.2z"/>
<rect x="149.7" y="26.1" class="st0" width="357.1" height="266.1"/>
<path class="st4" d="M165.9,88.6V68.4h162.3v20.2H165.9z"/>
<rect x="149.7" y="26.1" class="st0" width="357.1" height="266.1"/>
<path class="st4" d="M328.2,88.6V68.4h162.3v20.2H328.2z"/>
<rect x="149.7" y="26.1" class="st0" width="357.1" height="266.1"/>
<path class="st5" d="M165.9,88.6V68.4h162.3v20.2H165.9z"/>
<rect x="149.7" y="26.1" class="st0" width="357.1" height="266.1"/>
<path class="st4" d="M165.9,229.7v-20.2h162.3v20.2H165.9z"/>
<rect x="149.7" y="26.1" class="st0" width="357.1" height="266.1"/>
<path class="st5" d="M165.9,229.7v-20.2h162.3v20.2H165.9z"/>
<rect x="149.7" y="26.1" class="st0" width="357.1" height="266.1"/>
<path class="st6" d="M328.2,229.7v-20.2h162.3v20.2H328.2z"/>
<rect x="149.7" y="26.1" class="st0" width="357.1" height="266.1"/>
<path class="st4" d="M165.9,249.9v-20.2h162.3v20.2H165.9z"/>
<rect x="149.7" y="26.1" class="st0" width="357.1" height="266.1"/>
<path class="st4" d="M165.9,270v-20.2h162.3V270H165.9z"/>
<rect x="149.7" y="26.1" class="st0" width="357.1" height="266.1"/>
<path class="st5" d="M165.9,270v-20.2h162.3V270H165.9z"/>
<rect x="149.7" y="26.1" class="st0" width="357.1" height="266.1"/>
<path class="st4" d="M165.9,290.2V270h162.3v20.2H165.9z"/>
<rect x="149.7" y="26.1" class="st0" width="357.1" height="266.1"/>
<path class="st5" d="M328.2,290.2V270h162.3v20.2H328.2z"/>
<path class="st0" d="M514,202.9h79.1v-91H514V202.9z"/>
<text transform="matrix(1 0 0 1 526.1927 135.544)" class="st2 st7">status</text>
<g>
	<defs>
		<polyline id="SVGID_1_" points="526.2,155 526.2,139.2 542,139.2 542,155 		"/>
	</defs>
	<clipPath id="SVGID_00000033355073899995779350000009815879893339329683_">
		<use xlink:href="#SVGID_1_"  style="overflow:visible;"/>
	</clipPath>
	<path style="clip-path:url(#SVGID_00000033355073899995779350000009815879893339329683_);fill:none;" d="M526.2,155H542v-15.8
		h-15.8V155z"/>
</g>
<g>
	<defs>
		<polyline id="SVGID_00000021092088531968892070000013298291643750795654_" points="526.2,155 526.2,139.2 542,139.2 542,155 		"/>
	</defs>
	<clipPath id="SVGID_00000000197542872095163570000007083230662139883406_">
		<use xlink:href="#SVGID_00000021092088531968892070000013298291643750795654_"  style="overflow:visible;"/>
	</clipPath>
	
		<path style="clip-path:url(#SVGID_00000000197542872095163570000007083230662139883406_);fill:#A8E799;stroke:#FFFFFF;stroke-width:0.3545;stroke-linecap:square;" d="
		M526.4,154.9h15.5v-15.5h-15.5V154.9z"/>
</g>
<text transform="matrix(1 0 0 1 545.0327 149.5446)" class="st2 st3">Enacted</text>
<g>
	<defs>
		<polyline id="SVGID_00000155829910430919015220000018086079007583766686_" points="526.2,172.9 526.2,157 542,157 542,172.9 		"/>
	</defs>
	<clipPath id="SVGID_00000083068974755353485670000009692580236021621949_">
		<use xlink:href="#SVGID_00000155829910430919015220000018086079007583766686_"  style="overflow:visible;"/>
	</clipPath>
	<path style="clip-path:url(#SVGID_00000083068974755353485670000009692580236021621949_);fill:none;" d="M526.2,172.9H542V157
		h-15.8V172.9z"/>
</g>
<g>
	<defs>
		<polyline id="SVGID_00000181785857760196725100000011320648513966650546_" points="526.2,172.9 526.2,157 542,157 542,172.9 		"/>
	</defs>
	<clipPath id="SVGID_00000023987933063706869090000002572420915765360271_">
		<use xlink:href="#SVGID_00000181785857760196725100000011320648513966650546_"  style="overflow:visible;"/>
	</clipPath>
	
		<path style="clip-path:url(#SVGID_00000023987933063706869090000002572420915765360271_);fill:#F89176;stroke:#FFFFFF;stroke-width:0.3545;stroke-linecap:square;" d="
		M526.4,172.7h15.5v-15.5h-15.5V172.7z"/>
</g>
<text transform="matrix(1 0 0 1 545.0327 167.3846)" class="st2 st3">Failed</text>
<g>
	<defs>
		<polyline id="SVGID_00000047756681206318811740000000581268944738830469_" points="526.2,190.7 526.2,174.9 542,174.9 542,190.7 
					"/>
	</defs>
	<clipPath id="SVGID_00000017486103317723784610000017639668845851145375_">
		<use xlink:href="#SVGID_00000047756681206318811740000000581268944738830469_"  style="overflow:visible;"/>
	</clipPath>
	<path style="clip-path:url(#SVGID_00000017486103317723784610000017639668845851145375_);fill:none;" d="M526.2,190.7H542v-15.8
		h-15.8V190.7z"/>
</g>
<g>
	<defs>
		<polyline id="SVGID_00000129175923302695506820000015622776829484494003_" points="526.2,190.7 526.2,174.9 542,174.9 542,190.7 
					"/>
	</defs>
	<clipPath id="SVGID_00000149360073651595785010000017952613927048624303_">
		<use xlink:href="#SVGID_00000129175923302695506820000015622776829484494003_"  style="overflow:visible;"/>
	</clipPath>
	
		<path style="clip-path:url(#SVGID_00000149360073651595785010000017952613927048624303_);fill:#FAE688;stroke:#FFFFFF;stroke-width:0.3545;stroke-linecap:square;" d="
		M526.4,190.5h15.5v-15.5h-15.5V190.5z"/>
</g>
<text transform="matrix(1 0 0 1 545.0327 185.2246)" class="st2 st3">Pending</text>
<g>
	<g class="st14">
		<path d="M47.7,16.7h2v-7h-1.5V9.3c0.7-0.1,1.2-0.3,1.6-0.5h0.5v7.9h1.8v0.5h-4.4V16.7z"/>
		<path d="M57.9,9.3h-4.4V8.8h5.2v0.4c-2,2.7-2.5,4.8-2.7,8.1h-0.6C55.5,13.8,56.2,11.7,57.9,9.3z"/>
		<path d="M62.3,16.5l0.3-0.4c0.5,0.4,1.1,0.8,2,0.8c1,0,1.5-0.6,1.5-1.3c0-0.8-0.8-1.1-1.6-1.4c-1-0.3-2-0.7-2-1.8
			c0-0.9,0.7-1.7,2-1.7c0.7,0,1.3,0.3,1.8,0.7l-0.3,0.4c-0.4-0.3-0.9-0.6-1.5-0.6c-1,0-1.4,0.6-1.4,1.2c0,0.7,0.7,1,1.5,1.3
			c1,0.4,2.1,0.7,2.1,1.9c0,1-0.8,1.8-2.1,1.8C63.7,17.4,62.9,17,62.3,16.5z"/>
		<path d="M68.6,15.5v-4.1h-1v-0.5l1-0.1l0.1-1.8h0.5v1.8H71v0.5h-1.8v4.1c0,0.8,0.2,1.4,1.1,1.4c0.2,0,0.6-0.1,0.8-0.2l0.2,0.5
			c-0.4,0.1-0.8,0.2-1,0.2C68.9,17.4,68.6,16.6,68.6,15.5z"/>
		<path d="M72.1,15.7c0-1.4,1.3-2.1,4.1-2.4c0-1-0.2-2-1.5-2c-0.9,0-1.6,0.4-2,0.7l-0.3-0.4c0.4-0.3,1.3-0.8,2.4-0.8
			c1.5,0,2,1.1,2,2.4v4h-0.5l-0.1-0.8h0c-0.6,0.5-1.4,1-2.2,1C72.9,17.4,72.1,16.8,72.1,15.7z M76.2,15.9v-2.2
			c-2.6,0.3-3.5,0.9-3.5,1.9c0,0.9,0.6,1.3,1.3,1.3C74.8,16.9,75.4,16.5,76.2,15.9z"/>
		<path d="M79.2,15.5v-4.1h-1v-0.5l1-0.1l0.1-1.8h0.5v1.8h1.8v0.5h-1.8v4.1c0,0.8,0.2,1.4,1.1,1.4c0.2,0,0.6-0.1,0.8-0.2l0.2,0.5
			c-0.4,0.1-0.8,0.2-1,0.2C79.5,17.4,79.2,16.6,79.2,15.5z"/>
		<path d="M82.6,14.1c0-2.1,1.3-3.3,2.8-3.3c1.5,0,2.4,1.1,2.4,2.9c0,0.2,0,0.3,0,0.5h-4.6c0,1.6,1,2.7,2.4,2.7
			c0.7,0,1.2-0.2,1.7-0.6l0.2,0.4c-0.5,0.3-1.1,0.6-2,0.6C83.9,17.4,82.6,16.1,82.6,14.1z M87.2,13.7c0-1.6-0.7-2.4-1.9-2.4
			c-1.1,0-2,0.9-2.2,2.4H87.2z"/>
		<path d="M88.7,16.5l0.3-0.4c0.5,0.4,1.1,0.8,2,0.8c1,0,1.5-0.6,1.5-1.3c0-0.8-0.8-1.1-1.6-1.4c-1-0.3-2-0.7-2-1.8
			c0-0.9,0.7-1.7,2-1.7c0.7,0,1.3,0.3,1.8,0.7l-0.3,0.4c-0.4-0.3-0.9-0.6-1.5-0.6c-1,0-1.4,0.6-1.4,1.2c0,0.7,0.7,1,1.5,1.3
			c1,0.4,2.1,0.7,2.1,1.9c0,1-0.8,1.8-2.1,1.8C90.1,17.4,89.3,17,88.7,16.5z"/>
		<path d="M97.5,7.7h0.6v2.8l0,1.4c0.7-0.7,1.3-1.2,2.2-1.2c1.3,0,1.9,0.8,1.9,2.4v4.1h-0.6v-4c0-1.3-0.4-2-1.4-2
			c-0.8,0-1.3,0.4-2.1,1.2v4.8h-0.6V7.7z"/>
		<path d="M104,15.7c0-1.4,1.3-2.1,4.1-2.4c0-1-0.2-2-1.5-2c-0.9,0-1.6,0.4-2,0.7l-0.3-0.4c0.4-0.3,1.3-0.8,2.4-0.8
			c1.5,0,2,1.1,2,2.4v4h-0.5l-0.1-0.8h0c-0.6,0.5-1.4,1-2.2,1C104.9,17.4,104,16.8,104,15.7z M108.1,15.9v-2.2
			c-2.6,0.3-3.5,0.9-3.5,1.9c0,0.9,0.6,1.3,1.3,1.3C106.7,16.9,107.3,16.5,108.1,15.9z"/>
		<path d="M109.9,10.9h0.6l1.4,4c0.2,0.6,0.4,1.3,0.6,1.8h0.1c0.2-0.6,0.4-1.2,0.6-1.8l1.4-4h0.6l-2.3,6.3h-0.7L109.9,10.9z"/>
		<path d="M116.1,14.1c0-2.1,1.3-3.3,2.8-3.3c1.5,0,2.4,1.1,2.4,2.9c0,0.2,0,0.3,0,0.5h-4.6c0,1.6,1,2.7,2.4,2.7
			c0.7,0,1.2-0.2,1.7-0.6l0.2,0.4c-0.5,0.3-1.1,0.6-2,0.6C117.5,17.4,116.1,16.1,116.1,14.1z M120.8,13.7c0-1.6-0.7-2.4-1.9-2.4
			c-1.1,0-2,0.9-2.2,2.4H120.8z"/>
		<path d="M125.2,15.7c0-1.4,1.3-2.1,4.1-2.4c0-1-0.2-2-1.5-2c-0.9,0-1.6,0.4-2,0.7l-0.3-0.4c0.4-0.3,1.3-0.8,2.4-0.8
			c1.5,0,2,1.1,2,2.4v4h-0.5l-0.1-0.8h0c-0.6,0.5-1.4,1-2.2,1C126.1,17.4,125.2,16.8,125.2,15.7z M129.3,15.9v-2.2
			c-2.6,0.3-3.5,0.9-3.5,1.9c0,0.9,0.6,1.3,1.3,1.3C127.9,16.9,128.5,16.5,129.3,15.9z"/>
		<path d="M131.6,14.1c0-2,1.3-3.3,2.8-3.3c0.8,0,1.3,0.3,1.9,0.8l0-1.2V7.7h0.6v9.5h-0.5l-0.1-0.8h0c-0.5,0.5-1.2,1-2.1,1
			C132.7,17.4,131.6,16.2,131.6,14.1z M136.3,15.8v-3.8c-0.7-0.6-1.2-0.8-1.8-0.8c-1.3,0-2.2,1.2-2.2,2.8c0,1.7,0.8,2.8,2.1,2.8
			C135.1,16.9,135.7,16.5,136.3,15.8z"/>
		<path d="M138.8,14.1c0-2.1,1.3-3.3,2.8-3.3c1.5,0,2.8,1.2,2.8,3.3c0,2.1-1.3,3.3-2.8,3.3C140.1,17.4,138.8,16.2,138.8,14.1z
			 M143.9,14.1c0-1.7-1-2.8-2.2-2.8s-2.2,1.2-2.2,2.8s1,2.8,2.2,2.8S143.9,15.7,143.9,14.1z"/>
		<path d="M146.4,10.9h0.5l0.1,0.8h0c0.6-0.5,1.4-1,2.2-1c1.7,0,2.5,1.3,2.5,3.2c0,2.2-1.3,3.4-2.8,3.4c-0.6,0-1.2-0.3-1.9-0.8
			l0,1.2v2.3h-0.6V10.9z M151.1,14c0-1.6-0.6-2.7-2-2.7c-0.6,0-1.3,0.4-2.1,1v3.8c0.7,0.6,1.4,0.8,1.9,0.8
			C150.2,16.9,151.1,15.7,151.1,14z"/>
		<path d="M153.7,15.5v-4.1h-1v-0.5l1-0.1l0.1-1.8h0.5v1.8h1.8v0.5h-1.8v4.1c0,0.8,0.2,1.4,1.1,1.4c0.2,0,0.6-0.1,0.8-0.2l0.2,0.5
			c-0.4,0.1-0.8,0.2-1,0.2C154.1,17.4,153.7,16.6,153.7,15.5z"/>
		<path d="M157.2,14.1c0-2.1,1.3-3.3,2.8-3.3c1.5,0,2.4,1.1,2.4,2.9c0,0.2,0,0.3,0,0.5h-4.6c0,1.6,1,2.7,2.4,2.7
			c0.7,0,1.2-0.2,1.7-0.6l0.2,0.4c-0.5,0.3-1.1,0.6-2,0.6C158.5,17.4,157.2,16.1,157.2,14.1z M161.8,13.7c0-1.6-0.7-2.4-1.9-2.4
			c-1.1,0-2,0.9-2.2,2.4H161.8z"/>
		<path d="M163.6,14.1c0-2,1.3-3.3,2.8-3.3c0.8,0,1.3,0.3,1.9,0.8l0-1.2V7.7h0.6v9.5h-0.5l-0.1-0.8h0c-0.5,0.5-1.2,1-2.1,1
			C164.6,17.4,163.6,16.2,163.6,14.1z M168.3,15.8v-3.8c-0.7-0.6-1.2-0.8-1.8-0.8c-1.3,0-2.2,1.2-2.2,2.8c0,1.7,0.8,2.8,2.1,2.8
			C167,16.9,167.6,16.5,168.3,15.8z"/>
		<path d="M173.4,14.1c0-2.1,1.3-3.3,2.8-3.3c1.5,0,2.8,1.2,2.8,3.3c0,2.1-1.3,3.3-2.8,3.3C174.7,17.4,173.4,16.2,173.4,14.1z
			 M178.5,14.1c0-1.7-1-2.8-2.2-2.8s-2.2,1.2-2.2,2.8s1,2.8,2.2,2.8S178.5,15.7,178.5,14.1z"/>
		<path d="M181,10.9h0.5l0.1,1.2h0c0.4-0.8,1-1.3,1.8-1.3c0.2,0,0.4,0,0.6,0.1l-0.1,0.5c-0.2-0.1-0.3-0.1-0.6-0.1
			c-0.6,0-1.2,0.4-1.7,1.6v4.3H181V10.9z"/>
		<path d="M187.3,14.1c0-2.1,1.3-3.3,2.8-3.3c1.5,0,2.4,1.1,2.4,2.9c0,0.2,0,0.3,0,0.5h-4.6c0,1.6,1,2.7,2.4,2.7
			c0.7,0,1.2-0.2,1.7-0.6l0.2,0.4c-0.5,0.3-1.1,0.6-2,0.6C188.6,17.4,187.3,16.1,187.3,14.1z M191.9,13.7c0-1.6-0.7-2.4-1.9-2.4
			c-1.1,0-2,0.9-2.2,2.4H191.9z"/>
		<path d="M194.2,10.9h0.5l0.1,1h0c0.6-0.6,1.3-1.1,2.2-1.1c1.3,0,1.9,0.8,1.9,2.4v4.1h-0.6v-4c0-1.3-0.4-2-1.4-2
			c-0.8,0-1.3,0.4-2.1,1.2v4.8h-0.6V10.9z"/>
		<path d="M200.7,15.7c0-1.4,1.3-2.1,4.1-2.4c0-1-0.2-2-1.5-2c-0.9,0-1.6,0.4-2,0.7l-0.3-0.4c0.4-0.3,1.3-0.8,2.4-0.8
			c1.5,0,2,1.1,2,2.4v4h-0.5l-0.1-0.8h0c-0.6,0.5-1.4,1-2.2,1C201.6,17.4,200.7,16.8,200.7,15.7z M204.8,15.9v-2.2
			c-2.6,0.3-3.5,0.9-3.5,1.9c0,0.9,0.6,1.3,1.3,1.3C203.4,16.9,204.1,16.5,204.8,15.9z"/>
		<path d="M207.1,14.1c0-2.1,1.4-3.3,2.9-3.3c0.9,0,1.4,0.4,1.9,0.8l-0.3,0.4c-0.4-0.4-0.9-0.7-1.5-0.7c-1.3,0-2.3,1.2-2.3,2.8
			s0.9,2.8,2.3,2.8c0.7,0,1.3-0.3,1.7-0.7l0.3,0.4c-0.5,0.5-1.2,0.8-2,0.8C208.4,17.4,207.1,16.2,207.1,14.1z"/>
		<path d="M213.8,15.5v-4.1h-1v-0.5l1-0.1l0.1-1.8h0.5v1.8h1.8v0.5h-1.8v4.1c0,0.8,0.2,1.4,1.1,1.4c0.2,0,0.6-0.1,0.8-0.2l0.2,0.5
			c-0.4,0.1-0.8,0.2-1,0.2C214.1,17.4,213.8,16.6,213.8,15.5z"/>
		<path d="M217.2,14.1c0-2.1,1.3-3.3,2.8-3.3c1.5,0,2.4,1.1,2.4,2.9c0,0.2,0,0.3,0,0.5h-4.6c0,1.6,1,2.7,2.4,2.7
			c0.7,0,1.2-0.2,1.7-0.6l0.2,0.4c-0.5,0.3-1.1,0.6-2,0.6C218.5,17.4,217.2,16.1,217.2,14.1z M221.8,13.7c0-1.6-0.7-2.4-1.9-2.4
			c-1.1,0-2,0.9-2.2,2.4H221.8z"/>
		<path d="M223.6,14.1c0-2,1.3-3.3,2.8-3.3c0.8,0,1.3,0.3,1.9,0.8l0-1.2V7.7h0.6v9.5h-0.5l-0.1-0.8h0c-0.5,0.5-1.2,1-2.1,1
			C224.6,17.4,223.6,16.2,223.6,14.1z M228.3,15.8v-3.8c-0.7-0.6-1.2-0.8-1.8-0.8c-1.3,0-2.2,1.2-2.2,2.8c0,1.7,0.8,2.8,2.1,2.8
			C227,16.9,227.6,16.5,228.3,15.8z"/>
		<path d="M233.9,16.4V7.7h0.6v8.7c0,0.3,0.1,0.4,0.3,0.4c0.1,0,0.1,0,0.2,0l0.1,0.5c-0.1,0-0.2,0.1-0.4,0.1
			C234.2,17.4,233.9,17.1,233.9,16.4z"/>
		<path d="M236.5,14.1c0-2.1,1.3-3.3,2.8-3.3c1.5,0,2.4,1.1,2.4,2.9c0,0.2,0,0.3,0,0.5h-4.6c0,1.6,1,2.7,2.4,2.7
			c0.7,0,1.2-0.2,1.7-0.6l0.2,0.4c-0.5,0.3-1.1,0.6-2,0.6C237.8,17.4,236.5,16.1,236.5,14.1z M241.2,13.7c0-1.6-0.7-2.4-1.9-2.4
			c-1.1,0-2,0.9-2.2,2.4H241.2z"/>
		<path d="M242.9,18.5c0-0.6,0.4-1.1,0.9-1.5v-0.1c-0.3-0.2-0.6-0.5-0.6-1c0-0.6,0.4-1,0.7-1.2v-0.1c-0.4-0.3-0.8-1-0.8-1.7
			c0-1.3,1-2.2,2.2-2.2c0.3,0,0.6,0.1,0.8,0.2h2.1v0.5h-1.5c0.4,0.3,0.7,0.9,0.7,1.6c0,1.3-1,2.2-2.2,2.2c-0.4,0-0.8-0.1-1-0.3
			c-0.3,0.2-0.5,0.5-0.5,0.9c0,0.5,0.3,0.8,1.2,0.8h1.4c1.4,0,2.1,0.5,2.1,1.5c0,1.1-1.2,2.1-3,2.1
			C243.9,20.3,242.9,19.6,242.9,18.5z M247.9,18.2c0-0.7-0.5-1-1.5-1h-1.4c-0.1,0-0.5,0-0.8-0.1c-0.6,0.4-0.8,0.9-0.8,1.3
			c0,0.8,0.8,1.3,2.1,1.3C247,19.8,247.9,19,247.9,18.2z M247,13c0-1.1-0.7-1.8-1.6-1.8s-1.6,0.7-1.6,1.8c0,1.1,0.8,1.8,1.6,1.8
			C246.3,14.7,247,14,247,13z"/>
		<path d="M249.6,8.8c0-0.3,0.2-0.5,0.5-0.5s0.5,0.2,0.5,0.5c0,0.3-0.2,0.5-0.5,0.5S249.6,9.1,249.6,8.8z M249.9,10.9h0.6v6.3h-0.6
			V10.9z"/>
		<path d="M252.1,16.5l0.3-0.4c0.5,0.4,1.1,0.8,2,0.8c1,0,1.5-0.6,1.5-1.3c0-0.8-0.8-1.1-1.6-1.4c-1-0.3-2-0.7-2-1.8
			c0-0.9,0.7-1.7,2-1.7c0.7,0,1.3,0.3,1.8,0.7l-0.3,0.4c-0.4-0.3-0.9-0.6-1.5-0.6c-1,0-1.4,0.6-1.4,1.2c0,0.7,0.7,1,1.5,1.3
			c1,0.4,2.1,0.7,2.1,1.9c0,1-0.8,1.8-2.1,1.8C253.5,17.4,252.7,17,252.1,16.5z"/>
		<path d="M258.2,16.4V7.7h0.6v8.7c0,0.3,0.1,0.4,0.3,0.4c0.1,0,0.1,0,0.2,0l0.1,0.5c-0.1,0-0.2,0.1-0.4,0.1
			C258.5,17.4,258.2,17.1,258.2,16.4z"/>
		<path d="M260.9,15.7c0-1.4,1.3-2.1,4.1-2.4c0-1-0.2-2-1.5-2c-0.9,0-1.6,0.4-2,0.7l-0.3-0.4c0.4-0.3,1.3-0.8,2.4-0.8
			c1.5,0,2,1.1,2,2.4v4h-0.5l-0.1-0.8h0c-0.6,0.5-1.4,1-2.2,1C261.7,17.4,260.9,16.8,260.9,15.7z M265,15.9v-2.2
			c-2.6,0.3-3.5,0.9-3.5,1.9c0,0.9,0.6,1.3,1.3,1.3C263.6,16.9,264.2,16.5,265,15.9z"/>
		<path d="M268,15.5v-4.1h-1v-0.5l1-0.1l0.1-1.8h0.5v1.8h1.8v0.5h-1.8v4.1c0,0.8,0.2,1.4,1.1,1.4c0.2,0,0.6-0.1,0.8-0.2l0.2,0.5
			c-0.4,0.1-0.8,0.2-1,0.2C268.3,17.4,268,16.6,268,15.5z"/>
		<path d="M271.7,8.8c0-0.3,0.2-0.5,0.5-0.5s0.5,0.2,0.5,0.5c0,0.3-0.2,0.5-0.5,0.5S271.7,9.1,271.7,8.8z M272,10.9h0.6v6.3H272
			V10.9z"/>
		<path d="M274.4,14.1c0-2.1,1.3-3.3,2.8-3.3c1.5,0,2.8,1.2,2.8,3.3c0,2.1-1.3,3.3-2.8,3.3C275.8,17.4,274.4,16.2,274.4,14.1z
			 M279.5,14.1c0-1.7-1-2.8-2.2-2.8s-2.2,1.2-2.2,2.8s1,2.8,2.2,2.8S279.5,15.7,279.5,14.1z"/>
		<path d="M282,10.9h0.5l0.1,1h0c0.6-0.6,1.3-1.1,2.2-1.1c1.3,0,1.9,0.8,1.9,2.4v4.1h-0.6v-4c0-1.3-0.4-2-1.4-2
			c-0.8,0-1.3,0.4-2.1,1.2v4.8H282V10.9z"/>
		<path d="M291.2,14.1c0-2.1,1.3-3.3,2.8-3.3c1.5,0,2.8,1.2,2.8,3.3c0,2.1-1.3,3.3-2.8,3.3C292.5,17.4,291.2,16.2,291.2,14.1z
			 M296.2,14.1c0-1.7-1-2.8-2.2-2.8s-2.2,1.2-2.2,2.8s1,2.8,2.2,2.8S296.2,15.7,296.2,14.1z"/>
		<path d="M298.8,10.9h0.5l0.1,1h0c0.6-0.6,1.3-1.1,2.2-1.1c1.3,0,1.9,0.8,1.9,2.4v4.1h-0.6v-4c0-1.3-0.4-2-1.4-2
			c-0.8,0-1.3,0.4-2.1,1.2v4.8h-0.6V10.9z"/>
		<path d="M308.5,8.5h2c2.7,0,4,1.7,4,4.3s-1.3,4.4-3.9,4.4h-2V8.5z M310.4,16.7c2.4,0,3.4-1.6,3.4-3.9s-1-3.8-3.4-3.8h-1.3v7.7
			H310.4z"/>
		<path d="M315.9,15.7c0-1.4,1.3-2.1,4.1-2.4c0-1-0.2-2-1.5-2c-0.9,0-1.6,0.4-2,0.7l-0.3-0.4c0.4-0.3,1.3-0.8,2.4-0.8
			c1.5,0,2,1.1,2,2.4v4h-0.5l-0.1-0.8h0c-0.6,0.5-1.4,1-2.2,1C316.8,17.4,315.9,16.8,315.9,15.7z M320,15.9v-2.2
			c-2.6,0.3-3.5,0.9-3.5,1.9c0,0.9,0.6,1.3,1.3,1.3C318.6,16.9,319.2,16.5,320,15.9z"/>
		<path d="M322,20l0.1-0.5c0.1,0,0.3,0.1,0.5,0.1c0.8,0,1.3-0.7,1.6-1.7l0.2-0.6l-2.6-6.5h0.6l1.5,4c0.2,0.5,0.5,1.2,0.7,1.8h0.1
			c0.2-0.6,0.4-1.2,0.6-1.8l1.3-4h0.6l-2.5,7.1c-0.4,1.1-1,2.1-2.1,2.1C322.4,20.1,322.1,20.1,322,20z"/>
		<path d="M328.6,16.4V7.7h0.6v8.7c0,0.3,0.1,0.4,0.3,0.4c0.1,0,0.1,0,0.2,0l0.1,0.5c-0.1,0-0.2,0.1-0.4,0.1
			C328.9,17.4,328.6,17.1,328.6,16.4z"/>
		<path d="M331.5,8.8c0-0.3,0.2-0.5,0.5-0.5c0.3,0,0.5,0.2,0.5,0.5c0,0.3-0.2,0.5-0.5,0.5C331.8,9.4,331.5,9.1,331.5,8.8z
			 M331.8,10.9h0.6v6.3h-0.6V10.9z"/>
		<path d="M334.2,18.5c0-0.6,0.4-1.1,0.9-1.5v-0.1c-0.3-0.2-0.6-0.5-0.6-1c0-0.6,0.4-1,0.7-1.2v-0.1c-0.4-0.3-0.8-1-0.8-1.7
			c0-1.3,1-2.2,2.2-2.2c0.3,0,0.6,0.1,0.8,0.2h2.1v0.5h-1.5c0.4,0.3,0.7,0.9,0.7,1.6c0,1.3-1,2.2-2.2,2.2c-0.4,0-0.8-0.1-1-0.3
			c-0.3,0.2-0.5,0.5-0.5,0.9c0,0.5,0.3,0.8,1.2,0.8h1.4c1.4,0,2.1,0.5,2.1,1.5c0,1.1-1.2,2.1-3,2.1
			C335.3,20.3,334.2,19.6,334.2,18.5z M339.2,18.2c0-0.7-0.5-1-1.5-1h-1.4c-0.1,0-0.5,0-0.8-0.1c-0.6,0.4-0.8,0.9-0.8,1.3
			c0,0.8,0.8,1.3,2.1,1.3C338.3,19.8,339.2,19,339.2,18.2z M338.4,13c0-1.1-0.7-1.8-1.6-1.8s-1.6,0.7-1.6,1.8c0,1.1,0.8,1.8,1.6,1.8
			C337.6,14.7,338.4,14,338.4,13z"/>
		<path d="M341.2,7.7h0.6v2.8l0,1.4c0.7-0.7,1.3-1.2,2.2-1.2c1.3,0,1.9,0.8,1.9,2.4v4.1h-0.6v-4c0-1.3-0.4-2-1.4-2
			c-0.8,0-1.3,0.4-2.1,1.2v4.8h-0.6V7.7z"/>
		<path d="M348.3,15.5v-4.1h-1v-0.5l1-0.1l0.1-1.8h0.5v1.8h1.8v0.5h-1.8v4.1c0,0.8,0.2,1.4,1.1,1.4c0.2,0,0.6-0.1,0.8-0.2l0.2,0.5
			c-0.4,0.1-0.8,0.2-1,0.2C348.7,17.4,348.3,16.6,348.3,15.5z"/>
		<path d="M354.3,16.1l0.4-0.4c0.6,0.7,1.5,1.2,2.6,1.2c1.3,0,2.2-0.7,2.2-1.7c0-1.1-0.7-1.4-1.6-1.8l-1.3-0.6
			c-0.8-0.3-1.8-0.9-1.8-2.2c0-1.3,1.1-2.1,2.5-2.1c1,0,1.9,0.5,2.4,1l-0.4,0.4c-0.5-0.5-1.2-0.9-2.1-0.9c-1.1,0-1.9,0.6-1.9,1.6
			c0,1,0.9,1.4,1.5,1.7l1.3,0.6c1,0.4,1.8,1,1.8,2.3c0,1.3-1.1,2.3-2.8,2.3C356,17.4,355,16.9,354.3,16.1z"/>
		<path d="M361.4,15.7c0-1.4,1.3-2.1,4.1-2.4c0-1-0.2-2-1.5-2c-0.9,0-1.6,0.4-2,0.7l-0.3-0.4c0.4-0.3,1.3-0.8,2.4-0.8
			c1.5,0,2,1.1,2,2.4v4h-0.5l-0.1-0.8h0c-0.6,0.5-1.4,1-2.2,1C362.2,17.4,361.4,16.8,361.4,15.7z M365.4,15.9v-2.2
			c-2.6,0.3-3.5,0.9-3.5,1.9c0,0.9,0.6,1.3,1.3,1.3C364,16.9,364.7,16.5,365.4,15.9z"/>
		<path d="M367.2,10.9h0.6l1.4,4c0.2,0.6,0.4,1.3,0.6,1.8h0.1c0.2-0.6,0.4-1.2,0.6-1.8l1.4-4h0.6l-2.3,6.3h-0.7L367.2,10.9z"/>
		<path d="M373.8,8.8c0-0.3,0.2-0.5,0.5-0.5c0.3,0,0.5,0.2,0.5,0.5c0,0.3-0.2,0.5-0.5,0.5C374,9.4,373.8,9.1,373.8,8.8z M374,10.9
			h0.6v6.3H374V10.9z"/>
		<path d="M377,10.9h0.5l0.1,1h0c0.6-0.6,1.3-1.1,2.2-1.1c1.3,0,1.9,0.8,1.9,2.4v4.1h-0.6v-4c0-1.3-0.4-2-1.4-2
			c-0.8,0-1.3,0.4-2.1,1.2v4.8H377V10.9z"/>
		<path d="M383.5,18.5c0-0.6,0.4-1.1,0.9-1.5v-0.1c-0.3-0.2-0.6-0.5-0.6-1c0-0.6,0.4-1,0.7-1.2v-0.1c-0.4-0.3-0.8-1-0.8-1.7
			c0-1.3,1-2.2,2.2-2.2c0.3,0,0.6,0.1,0.8,0.2h2.1v0.5h-1.5c0.4,0.3,0.7,0.9,0.7,1.6c0,1.3-1,2.2-2.2,2.2c-0.4,0-0.8-0.1-1-0.3
			c-0.3,0.2-0.5,0.5-0.5,0.9c0,0.5,0.3,0.8,1.2,0.8h1.4c1.4,0,2.1,0.5,2.1,1.5c0,1.1-1.2,2.1-3,2.1
			C384.5,20.3,383.5,19.6,383.5,18.5z M388.5,18.2c0-0.7-0.5-1-1.5-1h-1.4c-0.1,0-0.5,0-0.8-0.1c-0.6,0.4-0.8,0.9-0.8,1.3
			c0,0.8,0.8,1.3,2.1,1.3C387.6,19.8,388.5,19,388.5,18.2z M387.7,13c0-1.1-0.7-1.8-1.6-1.8s-1.6,0.7-1.6,1.8c0,1.1,0.8,1.8,1.6,1.8
			S387.7,14,387.7,13z"/>
		<path d="M395.1,9.1h-2.8V8.5h6.1v0.5h-2.8v8.2h-0.6V9.1z"/>
		<path d="M399.8,8.8c0-0.3,0.2-0.5,0.5-0.5c0.3,0,0.5,0.2,0.5,0.5c0,0.3-0.2,0.5-0.5,0.5C400.1,9.4,399.8,9.1,399.8,8.8z
			 M400.1,10.9h0.6v6.3h-0.6V10.9z"/>
		<path d="M403.1,10.9h0.5l0.1,1h0c0.6-0.6,1.3-1.1,2-1.1c1,0,1.5,0.5,1.8,1.3c0.7-0.8,1.4-1.3,2.2-1.3c1.3,0,1.9,0.8,1.9,2.4v4.1
			h-0.6v-4c0-1.3-0.4-2-1.4-2c-0.6,0-1.2,0.4-1.9,1.2v4.8H407v-4c0-1.3-0.4-2-1.4-2c-0.6,0-1.2,0.4-1.9,1.2v4.8h-0.6V10.9z"/>
		<path d="M413.3,14.1c0-2.1,1.3-3.3,2.8-3.3c1.5,0,2.4,1.1,2.4,2.9c0,0.2,0,0.3,0,0.5h-4.6c0,1.6,1,2.7,2.4,2.7
			c0.7,0,1.2-0.2,1.7-0.6l0.2,0.4c-0.5,0.3-1.1,0.6-2,0.6C414.6,17.4,413.3,16.1,413.3,14.1z M417.9,13.7c0-1.6-0.7-2.4-1.9-2.4
			c-1.1,0-2,0.9-2.2,2.4H417.9z"/>
		<path d="M422.3,14.1c0-2.1,1.3-3.3,2.8-3.3s2.8,1.2,2.8,3.3c0,2.1-1.3,3.3-2.8,3.3S422.3,16.2,422.3,14.1z M427.4,14.1
			c0-1.7-1-2.8-2.2-2.8s-2.2,1.2-2.2,2.8s1,2.8,2.2,2.8S427.4,15.7,427.4,14.1z"/>
		<path d="M428.8,10.9h0.6l1.4,4c0.2,0.6,0.4,1.3,0.6,1.8h0.1c0.2-0.6,0.4-1.2,0.6-1.8l1.4-4h0.6l-2.3,6.3h-0.7L428.8,10.9z"/>
		<path d="M435.1,14.1c0-2.1,1.3-3.3,2.8-3.3c1.5,0,2.4,1.1,2.4,2.9c0,0.2,0,0.3,0,0.5h-4.6c0,1.6,1,2.7,2.4,2.7
			c0.7,0,1.2-0.2,1.7-0.6l0.2,0.4c-0.5,0.3-1.1,0.6-2,0.6C436.4,17.4,435.1,16.1,435.1,14.1z M439.7,13.7c0-1.6-0.7-2.4-1.9-2.4
			c-1.1,0-2,0.9-2.2,2.4H439.7z"/>
		<path d="M442,10.9h0.5l0.1,1.2h0c0.4-0.8,1-1.3,1.8-1.3c0.2,0,0.4,0,0.6,0.1l-0.1,0.5c-0.2-0.1-0.3-0.1-0.6-0.1
			c-0.6,0-1.2,0.4-1.7,1.6v4.3H442V10.9z"/>
		<path d="M448.9,15.5v-4.1h-1v-0.5l1-0.1l0.1-1.8h0.5v1.8h1.8v0.5h-1.8v4.1c0,0.8,0.2,1.4,1.1,1.4c0.2,0,0.6-0.1,0.8-0.2l0.2,0.5
			c-0.4,0.1-0.8,0.2-1,0.2C449.3,17.4,448.9,16.6,448.9,15.5z"/>
		<path d="M452.9,7.7h0.6v2.8l0,1.4c0.7-0.7,1.3-1.2,2.2-1.2c1.3,0,1.9,0.8,1.9,2.4v4.1H457v-4c0-1.3-0.4-2-1.4-2
			c-0.8,0-1.3,0.4-2.1,1.2v4.8h-0.6V7.7z"/>
		<path d="M459.4,14.1c0-2.1,1.3-3.3,2.8-3.3c1.5,0,2.4,1.1,2.4,2.9c0,0.2,0,0.3,0,0.5H460c0,1.6,1,2.7,2.4,2.7
			c0.7,0,1.2-0.2,1.7-0.6l0.2,0.4c-0.5,0.3-1.1,0.6-2,0.6C460.7,17.4,459.4,16.1,459.4,14.1z M464,13.7c0-1.6-0.7-2.4-1.9-2.4
			c-1.1,0-2,0.9-2.2,2.4H464z"/>
		<path d="M468.9,10.9h0.5l0.1,0.8h0c0.6-0.5,1.4-1,2.2-1c1.7,0,2.5,1.3,2.5,3.2c0,2.2-1.3,3.4-2.8,3.4c-0.6,0-1.2-0.3-1.9-0.8
			l0,1.2v2.3h-0.6V10.9z M473.6,14c0-1.6-0.6-2.7-2-2.7c-0.6,0-1.3,0.4-2.1,1v3.8c0.7,0.6,1.4,0.8,1.9,0.8
			C472.6,16.9,473.6,15.7,473.6,14z"/>
		<path d="M475.6,15.7c0-1.4,1.3-2.1,4.1-2.4c0-1-0.2-2-1.5-2c-0.9,0-1.6,0.4-2,0.7l-0.3-0.4c0.4-0.3,1.3-0.8,2.4-0.8
			c1.5,0,2,1.1,2,2.4v4h-0.5l-0.1-0.8h0c-0.6,0.5-1.4,1-2.2,1C476.5,17.4,475.6,16.8,475.6,15.7z M479.7,15.9v-2.2
			c-2.6,0.3-3.5,0.9-3.5,1.9c0,0.9,0.6,1.3,1.3,1.3C478.3,16.9,478.9,16.5,479.7,15.9z"/>
		<path d="M481.8,16.5l0.3-0.4c0.5,0.4,1.1,0.8,2,0.8c1,0,1.5-0.6,1.5-1.3c0-0.8-0.8-1.1-1.6-1.4c-1-0.3-2-0.7-2-1.8
			c0-0.9,0.7-1.7,2-1.7c0.7,0,1.3,0.3,1.8,0.7l-0.3,0.4c-0.4-0.3-0.9-0.6-1.5-0.6c-1,0-1.4,0.6-1.4,1.2c0,0.7,0.7,1,1.5,1.3
			c1,0.4,2.1,0.7,2.1,1.9c0,1-0.8,1.8-2.1,1.8C483.2,17.4,482.3,17,481.8,16.5z"/>
		<path d="M488.1,15.5v-4.1h-1v-0.5l1-0.1l0.1-1.8h0.5v1.8h1.8v0.5h-1.8v4.1c0,0.8,0.2,1.4,1.1,1.4c0.2,0,0.6-0.1,0.8-0.2l0.2,0.5
			c-0.4,0.1-0.8,0.2-1,0.2C488.4,17.4,488.1,16.6,488.1,15.5z"/>
		<path d="M494.8,15.5v-4.1h-1v-0.5l1-0.1l0.1-1.8h0.5v1.8h1.8v0.5h-1.8v4.1c0,0.8,0.2,1.4,1.1,1.4c0.2,0,0.6-0.1,0.8-0.2l0.2,0.5
			c-0.4,0.1-0.8,0.2-1,0.2C495.2,17.4,494.8,16.6,494.8,15.5z"/>
		<path d="M497.9,10.9h0.6l1.1,4.1c0.2,0.6,0.3,1.1,0.4,1.7h0.1c0.2-0.6,0.3-1.1,0.5-1.7l1.2-4.1h0.7l1.2,4.1
			c0.2,0.6,0.3,1.1,0.5,1.7h0.1c0.2-0.6,0.3-1.1,0.5-1.7l1.1-4.1h0.6l-1.8,6.3h-0.8l-1.1-3.9c-0.2-0.6-0.3-1.2-0.5-1.8h-0.1
			c-0.2,0.6-0.3,1.2-0.5,1.8l-1.1,3.9h-0.7L497.9,10.9z"/>
		<path d="M507.3,14.1c0-2.1,1.3-3.3,2.8-3.3c1.5,0,2.8,1.2,2.8,3.3c0,2.1-1.3,3.3-2.8,3.3C508.6,17.4,507.3,16.2,507.3,14.1z
			 M512.4,14.1c0-1.7-1-2.8-2.2-2.8s-2.2,1.2-2.2,2.8s1,2.8,2.2,2.8S512.4,15.7,512.4,14.1z"/>
		<path d="M516.6,20l0.1-0.5c0.1,0,0.3,0.1,0.5,0.1c0.8,0,1.3-0.7,1.6-1.7l0.2-0.6l-2.6-6.5h0.6l1.5,4c0.2,0.5,0.5,1.2,0.7,1.8h0.1
			c0.2-0.6,0.4-1.2,0.6-1.8l1.3-4h0.6l-2.5,7.1c-0.4,1.1-1,2.1-2.1,2.1C517,20.1,516.8,20.1,516.6,20z"/>
		<path d="M522.8,14.1c0-2.1,1.3-3.3,2.8-3.3c1.5,0,2.4,1.1,2.4,2.9c0,0.2,0,0.3,0,0.5h-4.6c0,1.6,1,2.7,2.4,2.7
			c0.7,0,1.2-0.2,1.7-0.6l0.2,0.4c-0.5,0.3-1.1,0.6-2,0.6C524.1,17.4,522.8,16.1,522.8,14.1z M527.4,13.7c0-1.6-0.7-2.4-1.9-2.4
			c-1.1,0-2,0.9-2.2,2.4H527.4z"/>
		<path d="M529.2,15.7c0-1.4,1.3-2.1,4.1-2.4c0-1-0.2-2-1.5-2c-0.9,0-1.6,0.4-2,0.7l-0.3-0.4c0.4-0.3,1.3-0.8,2.4-0.8
			c1.5,0,2,1.1,2,2.4v4h-0.5l-0.1-0.8h0c-0.6,0.5-1.4,1-2.2,1C530,17.4,529.2,16.8,529.2,15.7z M533.3,15.9v-2.2
			c-2.6,0.3-3.5,0.9-3.5,1.9c0,0.9,0.6,1.3,1.3,1.3C531.9,16.9,532.5,16.5,533.3,15.9z"/>
		<path d="M536.1,10.9h0.5l0.1,1.2h0c0.4-0.8,1-1.3,1.8-1.3c0.2,0,0.4,0,0.6,0.1l-0.1,0.5c-0.2-0.1-0.3-0.1-0.6-0.1
			c-0.6,0-1.2,0.4-1.7,1.6v4.3h-0.6V10.9z"/>
		<path d="M539.5,16.5l0.3-0.4c0.5,0.4,1.1,0.8,2,0.8c1,0,1.5-0.6,1.5-1.3c0-0.8-0.8-1.1-1.6-1.4c-1-0.3-2-0.7-2-1.8
			c0-0.9,0.7-1.7,2-1.7c0.7,0,1.3,0.3,1.8,0.7l-0.3,0.4c-0.4-0.3-0.9-0.6-1.5-0.6c-1,0-1.4,0.6-1.4,1.2c0,0.7,0.7,1,1.5,1.3
			c1,0.4,2.1,0.7,2.1,1.9c0,1-0.8,1.8-2.1,1.8C540.9,17.4,540.1,17,539.5,16.5z"/>
	</g>
</g>
</svg>
