<?xml version="1.0" encoding="utf-8"?>
<!-- Generator: Adobe Illustrator 26.0.2, SVG Export Plug-In . SVG Version: 6.00 Build 0)  -->
<svg version="1.1" id="Layer_1" xmlns="http://www.w3.org/2000/svg" xmlns:xlink="http://www.w3.org/1999/xlink" x="0px" y="0px"
	 viewBox="0 0 644.9 506" style="enable-background:new 0 0 644.9 506;" xml:space="preserve">
<style type="text/css">
	.st0{enable-background:new    ;}
	.st1{fill:#A8E799;stroke:#FFFFFF;stroke-width:0.3545;stroke-linejoin:round;}
	.st2{fill:#F89176;stroke:#FFFFFF;stroke-width:0.3545;stroke-linejoin:round;}
	.st3{fill:#FAE688;stroke:#FFFFFF;stroke-width:0.3545;stroke-linejoin:round;}
	.st4{fill:none;}
	.st5{fill:#A8E799;stroke:#FFFFFF;stroke-width:0.3545;stroke-linecap:square;}
	.st6{fill:#F89176;stroke:#FFFFFF;stroke-width:0.3545;stroke-linecap:square;}
	.st7{fill:#FAE688;stroke:#FFFFFF;stroke-width:0.3545;stroke-linecap:square;}
</style>
<g>
	<g class="st0">
		<path d="M203.2,109.2c1.8-1.9,2.8-2.9,2.8-3.9c0-0.7-0.4-1.2-1.2-1.2c-0.5,0-1,0.3-1.3,0.7l-0.3-0.2c0.4-0.5,0.9-0.8,1.6-0.8
			c1,0,1.6,0.6,1.6,1.6c0,1.1-1,2.2-2.6,3.8c0.3,0,0.6,0,0.9,0h1.9v0.3h-3.4V109.2z"/>
		<path d="M207.4,106.6c0-1.9,0.6-2.9,1.7-2.9c1.1,0,1.7,1,1.7,2.9c0,1.9-0.6,2.9-1.7,2.9C208,109.6,207.4,108.5,207.4,106.6z
			 M210.4,106.6c0-1.7-0.5-2.6-1.3-2.6c-0.8,0-1.3,0.8-1.3,2.6s0.5,2.6,1.3,2.6C209.9,109.2,210.4,108.3,210.4,106.6z"/>
		<path d="M211.6,109.2c1.8-1.9,2.8-2.9,2.8-3.9c0-0.7-0.4-1.2-1.2-1.2c-0.5,0-1,0.3-1.3,0.7l-0.3-0.2c0.4-0.5,0.9-0.8,1.6-0.8
			c1,0,1.6,0.6,1.6,1.6c0,1.1-1,2.2-2.6,3.8c0.3,0,0.6,0,0.9,0h1.9v0.3h-3.4V109.2z"/>
		<path d="M215.9,106.6c0-1.9,0.6-2.9,1.7-2.9c1.1,0,1.7,1,1.7,2.9c0,1.9-0.6,2.9-1.7,2.9C216.5,109.6,215.9,108.5,215.9,106.6z
			 M218.8,106.6c0-1.7-0.5-2.6-1.3-2.6c-0.8,0-1.3,0.8-1.3,2.6s0.5,2.6,1.3,2.6C218.3,109.2,218.8,108.3,218.8,106.6z"/>
	</g>
</g>
<g>
	<g class="st0">
		<path d="M365.5,109.2c1.8-1.9,2.8-2.9,2.8-3.9c0-0.7-0.4-1.2-1.2-1.2c-0.5,0-1,0.3-1.3,0.7l-0.3-0.2c0.4-0.5,0.9-0.8,1.6-0.8
			c1,0,1.6,0.6,1.6,1.6c0,1.1-1,2.2-2.6,3.8c0.3,0,0.6,0,0.9,0h1.9v0.3h-3.4V109.2z"/>
		<path d="M369.8,106.6c0-1.9,0.6-2.9,1.7-2.9c1.1,0,1.7,1,1.7,2.9c0,1.9-0.6,2.9-1.7,2.9C370.4,109.6,369.8,108.5,369.8,106.6z
			 M372.7,106.6c0-1.7-0.5-2.6-1.3-2.6c-0.8,0-1.3,0.8-1.3,2.6s0.5,2.6,1.3,2.6C372.2,109.2,372.7,108.3,372.7,106.6z"/>
		<path d="M373.9,109.2c1.8-1.9,2.8-2.9,2.8-3.9c0-0.7-0.4-1.2-1.2-1.2c-0.5,0-1,0.3-1.3,0.7l-0.3-0.2c0.4-0.5,0.9-0.8,1.6-0.8
			c1,0,1.6,0.6,1.6,1.6c0,1.1-1,2.2-2.6,3.8c0.3,0,0.6,0,0.9,0h1.9v0.3h-3.4V109.2z"/>
		<path d="M378.5,109.1h1.3v-4.7h-1v-0.3c0.5-0.1,0.8-0.2,1.1-0.4h0.3v5.3h1.2v0.3h-2.9V109.1z"/>
	</g>
</g>
<g>
	<g class="st0">
		<path d="M66,366h0.4l0.7,3.4c0.1,0.6,0.3,1.3,0.4,1.9h0c0.1-0.6,0.3-1.3,0.4-1.9l0.9-3.4h0.4l0.9,3.4c0.2,0.6,0.3,1.3,0.5,1.9h0
			c0.1-0.6,0.3-1.3,0.4-1.9l0.7-3.4h0.4l-1.3,5.8h-0.4l-1.1-4c-0.1-0.5-0.2-0.9-0.3-1.3h0c-0.1,0.5-0.2,0.9-0.3,1.3l-1,4h-0.4
			L66,366z"/>
		<path d="M72.7,373.7l0.1-0.3c0.1,0,0.2,0.1,0.3,0.1c0.5,0,0.9-0.5,1.1-1.1l0.1-0.4l-1.7-4.3H73l1,2.7c0.1,0.4,0.3,0.8,0.5,1.2h0
			c0.1-0.4,0.3-0.8,0.4-1.2l0.9-2.7h0.4l-1.7,4.8c-0.2,0.7-0.7,1.4-1.4,1.4C73,373.8,72.8,373.7,72.7,373.7z"/>
		<path d="M76.8,369.7c0-1.4,0.9-2.2,1.9-2.2c1,0,1.9,0.8,1.9,2.2c0,1.4-0.9,2.2-1.9,2.2C77.7,371.9,76.8,371.1,76.8,369.7z
			 M80.2,369.7c0-1.1-0.6-1.9-1.5-1.9c-0.9,0-1.5,0.8-1.5,1.9c0,1.1,0.6,1.9,1.5,1.9C79.6,371.6,80.2,370.8,80.2,369.7z"/>
		<path d="M81.9,367.6h0.3l0,0.7h0c0.4-0.4,0.9-0.8,1.3-0.8c0.7,0,1,0.3,1.2,0.9c0.5-0.5,0.9-0.9,1.4-0.9c0.8,0,1.3,0.5,1.3,1.6v2.7
			h-0.4v-2.7c0-0.9-0.3-1.3-0.9-1.3c-0.4,0-0.8,0.3-1.3,0.8v3.2h-0.4v-2.7c0-0.9-0.3-1.3-0.9-1.3c-0.4,0-0.8,0.3-1.3,0.8v3.2h-0.4
			V367.6z"/>
		<path d="M88.9,366.2c0-0.2,0.2-0.3,0.4-0.3s0.4,0.1,0.4,0.3c0,0.2-0.2,0.3-0.4,0.3S88.9,366.4,88.9,366.2z M89,367.6h0.4v4.2H89
			V367.6z"/>
		<path d="M91,367.6h0.3l0,0.7h0c0.4-0.4,0.9-0.8,1.5-0.8c0.9,0,1.3,0.5,1.3,1.6v2.7h-0.4v-2.7c0-0.9-0.3-1.3-1-1.3
			c-0.5,0-0.9,0.3-1.4,0.8v3.2H91V367.6z"/>
		<path d="M95.4,372.7c0-0.4,0.2-0.7,0.6-1v0c-0.2-0.1-0.4-0.4-0.4-0.7c0-0.4,0.3-0.6,0.5-0.8v0c-0.3-0.2-0.5-0.6-0.5-1.2
			c0-0.9,0.7-1.5,1.5-1.5c0.2,0,0.4,0.1,0.6,0.1H99v0.3h-1c0.3,0.2,0.5,0.6,0.5,1.1c0,0.9-0.6,1.5-1.5,1.5c-0.2,0-0.5-0.1-0.7-0.2
			c-0.2,0.2-0.3,0.3-0.3,0.6c0,0.3,0.2,0.5,0.8,0.5h0.9c0.9,0,1.4,0.3,1.4,1c0,0.7-0.8,1.4-2,1.4C96,373.9,95.4,373.4,95.4,372.7z
			 M98.7,372.5c0-0.5-0.3-0.6-1-0.6h-0.9c-0.1,0-0.3,0-0.5-0.1c-0.4,0.3-0.6,0.6-0.6,0.9c0,0.5,0.5,0.9,1.4,0.9
			C98.1,373.5,98.7,373,98.7,372.5z M98.1,369c0-0.7-0.5-1.2-1.1-1.2c-0.6,0-1.1,0.4-1.1,1.2c0,0.7,0.5,1.2,1.1,1.2
			C97.6,370.2,98.1,369.7,98.1,369z"/>
	</g>
</g>
<g>
	<g class="st0">
		<path d="M57.3,345.9h0.4l0.7,3.4c0.1,0.6,0.3,1.3,0.4,1.9h0c0.1-0.6,0.3-1.3,0.4-1.9l0.9-3.4h0.4l0.9,3.4c0.2,0.6,0.3,1.3,0.5,1.9
			h0c0.1-0.6,0.3-1.3,0.4-1.9l0.7-3.4h0.4l-1.3,5.8h-0.4l-1.1-4c-0.1-0.5-0.2-0.9-0.3-1.3h0c-0.1,0.5-0.2,0.9-0.3,1.3l-1,4h-0.4
			L57.3,345.9z"/>
		<path d="M64.3,350.6c0-0.9,0.8-1.4,2.7-1.6c0-0.6-0.2-1.3-1-1.3c-0.6,0-1.1,0.3-1.3,0.5l-0.2-0.3c0.3-0.2,0.9-0.5,1.6-0.5
			c1,0,1.3,0.7,1.3,1.6v2.7h-0.3l0-0.5h0c-0.4,0.3-0.9,0.7-1.5,0.7C64.9,351.8,64.3,351.4,64.3,350.6z M67,350.8v-1.4
			c-1.7,0.2-2.3,0.6-2.3,1.3c0,0.6,0.4,0.8,0.9,0.8C66.1,351.4,66.5,351.2,67,350.8z"/>
		<path d="M68.4,351.2l0.2-0.3c0.4,0.3,0.7,0.5,1.3,0.5c0.7,0,1-0.4,1-0.8c0-0.5-0.5-0.8-1-0.9c-0.6-0.2-1.3-0.5-1.3-1.2
			c0-0.6,0.5-1.1,1.4-1.1c0.5,0,0.9,0.2,1.2,0.4l-0.2,0.3c-0.3-0.2-0.6-0.4-1-0.4c-0.7,0-1,0.4-1,0.8c0,0.5,0.5,0.7,1,0.9
			c0.7,0.2,1.4,0.5,1.4,1.3c0,0.6-0.5,1.2-1.4,1.2C69.3,351.8,68.8,351.5,68.4,351.2z"/>
		<path d="M72.5,345.3h0.4v1.8l0,0.9c0.4-0.4,0.9-0.8,1.5-0.8c0.9,0,1.3,0.5,1.3,1.6v2.7h-0.4V349c0-0.9-0.3-1.3-1-1.3
			c-0.5,0-0.9,0.3-1.4,0.8v3.2h-0.4V345.3z"/>
		<path d="M77,346.1c0-0.2,0.2-0.3,0.4-0.3s0.4,0.1,0.4,0.3c0,0.2-0.2,0.3-0.4,0.3S77,346.3,77,346.1z M77.1,347.4h0.4v4.2h-0.4
			V347.4z"/>
		<path d="M79.2,347.4h0.3l0,0.7h0c0.4-0.4,0.9-0.8,1.5-0.8c0.9,0,1.3,0.5,1.3,1.6v2.7h-0.4V349c0-0.9-0.3-1.3-1-1.3
			c-0.5,0-0.9,0.3-1.4,0.8v3.2h-0.4V347.4z"/>
		<path d="M83.5,352.5c0-0.4,0.2-0.7,0.6-1v0c-0.2-0.1-0.4-0.4-0.4-0.7c0-0.4,0.3-0.6,0.5-0.8v0c-0.3-0.2-0.5-0.6-0.5-1.2
			c0-0.9,0.7-1.5,1.5-1.5c0.2,0,0.4,0.1,0.6,0.1h1.4v0.3h-1c0.3,0.2,0.5,0.6,0.5,1.1c0,0.9-0.6,1.5-1.5,1.5c-0.2,0-0.5-0.1-0.7-0.2
			c-0.2,0.2-0.3,0.3-0.3,0.6c0,0.3,0.2,0.5,0.8,0.5h0.9c0.9,0,1.4,0.3,1.4,1c0,0.7-0.8,1.4-2,1.4C84.2,353.7,83.5,353.2,83.5,352.5z
			 M86.8,352.3c0-0.5-0.3-0.6-1-0.6h-0.9c-0.1,0-0.3,0-0.5-0.1c-0.4,0.3-0.6,0.6-0.6,0.9c0,0.5,0.5,0.9,1.4,0.9
			C86.2,353.4,86.8,352.8,86.8,352.3z M86.2,348.8c0-0.7-0.5-1.2-1.1-1.2s-1.1,0.4-1.1,1.2c0,0.7,0.5,1.2,1.1,1.2
			C85.7,350,86.2,349.5,86.2,348.8z"/>
		<path d="M88.2,350.5v-2.7h-0.7v-0.3l0.7,0l0-1.2h0.3v1.2h1.2v0.3h-1.2v2.7c0,0.5,0.1,0.9,0.7,0.9c0.2,0,0.4-0.1,0.5-0.1l0.1,0.3
			c-0.2,0.1-0.5,0.2-0.7,0.2C88.5,351.8,88.2,351.3,88.2,350.5z"/>
		<path d="M90.5,349.6c0-1.4,0.9-2.2,1.9-2.2c1,0,1.9,0.8,1.9,2.2c0,1.4-0.9,2.2-1.9,2.2C91.4,351.8,90.5,351,90.5,349.6z
			 M93.9,349.6c0-1.1-0.6-1.9-1.5-1.9c-0.9,0-1.5,0.8-1.5,1.9c0,1.1,0.6,1.9,1.5,1.9C93.3,351.4,93.9,350.7,93.9,349.6z"/>
		<path d="M95.6,347.4h0.3l0,0.7h0c0.4-0.4,0.9-0.8,1.5-0.8c0.9,0,1.3,0.5,1.3,1.6v2.7h-0.4V349c0-0.9-0.3-1.3-1-1.3
			c-0.5,0-0.9,0.3-1.4,0.8v3.2h-0.4V347.4z"/>
	</g>
</g>
<g>
	<g class="st0">
		<path d="M82.9,329.3v-3.6h0.4v3.5c0,1.5,0.7,2,1.5,2c0.8,0,1.6-0.5,1.6-2v-3.5h0.4v3.6c0,1.8-1,2.3-2,2.3S82.9,331.1,82.9,329.3z"
			/>
		<path d="M88.6,330.3v-2.7h-0.7v-0.3l0.7,0l0-1.2H89v1.2h1.2v0.3H89v2.7c0,0.5,0.1,0.9,0.7,0.9c0.2,0,0.4-0.1,0.5-0.1l0.1,0.3
			c-0.2,0.1-0.5,0.2-0.7,0.2C88.8,331.6,88.6,331.1,88.6,330.3z"/>
		<path d="M90.9,330.5c0-0.9,0.8-1.4,2.7-1.6c0-0.6-0.2-1.3-1-1.3c-0.6,0-1.1,0.3-1.3,0.5l-0.2-0.3c0.3-0.2,0.9-0.5,1.6-0.5
			c1,0,1.3,0.7,1.3,1.6v2.7h-0.3l0-0.5h0c-0.4,0.3-0.9,0.7-1.5,0.7C91.5,331.6,90.9,331.2,90.9,330.5z M93.6,330.6v-1.4
			c-1.7,0.2-2.3,0.6-2.3,1.3c0,0.6,0.4,0.8,0.9,0.8C92.7,331.3,93.1,331,93.6,330.6z"/>
		<path d="M95.5,325.2h0.4v1.8l0,0.9c0.4-0.4,0.9-0.8,1.5-0.8c0.9,0,1.3,0.5,1.3,1.6v2.7h-0.4v-2.7c0-0.9-0.3-1.3-1-1.3
			c-0.5,0-0.9,0.3-1.4,0.8v3.2h-0.4V325.2z"/>
	</g>
</g>
<g>
	<g class="st0">
		<path d="M46.7,310.6l0.3-0.3c0.4,0.5,1,0.8,1.7,0.8c0.9,0,1.4-0.5,1.4-1.2c0-0.7-0.5-1-1-1.2l-0.9-0.4c-0.5-0.2-1.2-0.6-1.2-1.4
			c0-0.8,0.7-1.4,1.7-1.4c0.7,0,1.3,0.3,1.6,0.7l-0.2,0.3c-0.3-0.4-0.8-0.6-1.4-0.6c-0.8,0-1.3,0.4-1.3,1c0,0.7,0.6,0.9,1,1.1
			l0.9,0.4c0.6,0.3,1.2,0.6,1.2,1.5c0,0.9-0.7,1.6-1.9,1.6C47.8,311.5,47.2,311.1,46.7,310.6z"/>
		<path d="M51.3,309.2c0-1.4,0.9-2.2,1.9-2.2c1,0,1.9,0.8,1.9,2.2c0,1.4-0.9,2.2-1.9,2.2C52.2,311.5,51.3,310.6,51.3,309.2z
			 M54.7,309.2c0-1.1-0.6-1.9-1.5-1.9c-0.9,0-1.5,0.8-1.5,1.9c0,1.1,0.6,1.9,1.5,1.9C54.1,311.1,54.7,310.4,54.7,309.2z"/>
		<path d="M56.3,309.8v-2.7h0.4v2.7c0,0.9,0.3,1.3,1,1.3c0.5,0,0.9-0.3,1.4-0.9v-3.1h0.4v4.2h-0.3l0-0.7h0c-0.4,0.5-0.9,0.8-1.4,0.8
			C56.7,311.5,56.3,310.9,56.3,309.8z"/>
		<path d="M61.2,310.2v-2.7h-0.7v-0.3l0.7,0l0-1.2h0.3v1.2h1.2v0.3h-1.2v2.7c0,0.5,0.1,0.9,0.7,0.9c0.2,0,0.4-0.1,0.5-0.1l0.1,0.3
			c-0.2,0.1-0.5,0.2-0.7,0.2C61.4,311.5,61.2,310.9,61.2,310.2z"/>
		<path d="M63.8,305h0.4v1.8l0,0.9c0.4-0.4,0.9-0.8,1.5-0.8c0.9,0,1.3,0.5,1.3,1.6v2.7h-0.4v-2.7c0-0.9-0.3-1.3-1-1.3
			c-0.5,0-0.9,0.3-1.4,0.8v3.2h-0.4V305z"/>
		<path d="M69.9,308.4c0-1.8,1-3,2.5-3c0.7,0,1.2,0.3,1.5,0.7l-0.2,0.3c-0.3-0.4-0.7-0.6-1.3-0.6c-1.3,0-2.1,1-2.1,2.6
			c0,1.6,0.8,2.7,2,2.7c0.6,0,1-0.2,1.5-0.7l0.2,0.3c-0.4,0.5-1,0.8-1.7,0.8C70.9,311.5,69.9,310.3,69.9,308.4z"/>
		<path d="M74.9,310.3c0-0.9,0.8-1.4,2.7-1.6c0-0.6-0.2-1.3-1-1.3c-0.6,0-1.1,0.3-1.3,0.5l-0.2-0.3c0.3-0.2,0.9-0.5,1.6-0.5
			c1,0,1.3,0.7,1.3,1.6v2.7h-0.3l0-0.5h0c-0.4,0.3-0.9,0.7-1.5,0.7C75.4,311.5,74.9,311.1,74.9,310.3z M77.6,310.4V309
			c-1.7,0.2-2.3,0.6-2.3,1.3c0,0.6,0.4,0.8,0.9,0.8C76.6,311.1,77.1,310.9,77.6,310.4z"/>
		<path d="M79.5,307.1h0.3l0,0.8h0c0.3-0.5,0.7-0.9,1.2-0.9c0.2,0,0.3,0,0.4,0.1l-0.1,0.4c-0.1-0.1-0.2-0.1-0.4-0.1
			c-0.4,0-0.8,0.3-1.2,1.1v2.9h-0.4V307.1z"/>
		<path d="M81.9,309.2c0-1.4,0.9-2.2,1.9-2.2c1,0,1.9,0.8,1.9,2.2c0,1.4-0.9,2.2-1.9,2.2C82.8,311.5,81.9,310.6,81.9,309.2z
			 M85.3,309.2c0-1.1-0.6-1.9-1.5-1.9c-0.9,0-1.5,0.8-1.5,1.9c0,1.1,0.6,1.9,1.5,1.9C84.7,311.1,85.3,310.4,85.3,309.2z"/>
		<path d="M87,310.8V305h0.4v5.8c0,0.2,0.1,0.3,0.2,0.3c0,0,0.1,0,0.2,0l0.1,0.3c-0.1,0-0.2,0-0.3,0C87.2,311.5,87,311.2,87,310.8z"
			/>
		<path d="M88.9,305.8c0-0.2,0.2-0.3,0.4-0.3s0.4,0.1,0.4,0.3c0,0.2-0.2,0.3-0.4,0.3S88.9,306,88.9,305.8z M89.1,307.1h0.4v4.2h-0.4
			V307.1z"/>
		<path d="M91.1,307.1h0.3l0,0.7h0c0.4-0.4,0.9-0.8,1.5-0.8c0.9,0,1.3,0.5,1.3,1.6v2.7h-0.4v-2.7c0-0.9-0.3-1.3-1-1.3
			c-0.5,0-0.9,0.3-1.4,0.8v3.2h-0.4V307.1z"/>
		<path d="M95.5,310.3c0-0.9,0.8-1.4,2.7-1.6c0-0.6-0.2-1.3-1-1.3c-0.6,0-1.1,0.3-1.3,0.5l-0.2-0.3c0.3-0.2,0.9-0.5,1.6-0.5
			c1,0,1.3,0.7,1.3,1.6v2.7h-0.3l0-0.5h0c-0.4,0.3-0.9,0.7-1.5,0.7C96,311.5,95.5,311.1,95.5,310.3z M98.2,310.4V309
			c-1.7,0.2-2.3,0.6-2.3,1.3c0,0.6,0.4,0.8,0.9,0.8C97.2,311.1,97.7,310.9,98.2,310.4z"/>
	</g>
</g>
<g>
	<g class="st0">
		<path d="M65.7,285.4h0.4v5.5h2.7v0.3h-3.1V285.4z"/>
		<path d="M69.4,289.1c0-1.4,0.9-2.2,1.9-2.2c1,0,1.9,0.8,1.9,2.2c0,1.4-0.9,2.2-1.9,2.2C70.3,291.3,69.4,290.5,69.4,289.1z
			 M72.8,289.1c0-1.1-0.6-1.9-1.5-1.9c-0.9,0-1.5,0.8-1.5,1.9c0,1.1,0.6,1.9,1.5,1.9C72.2,290.9,72.8,290.2,72.8,289.1z"/>
		<path d="M74.4,289.7V287h0.4v2.7c0,0.9,0.3,1.3,1,1.3c0.5,0,0.9-0.3,1.4-0.9V287h0.4v4.2h-0.3l0-0.7h0c-0.4,0.5-0.9,0.8-1.4,0.8
			C74.8,291.3,74.4,290.8,74.4,289.7z"/>
		<path d="M79,285.6c0-0.2,0.2-0.3,0.4-0.3s0.4,0.1,0.4,0.3c0,0.2-0.2,0.3-0.4,0.3S79,285.8,79,285.6z M79.2,287h0.4v4.2h-0.4V287z"
			/>
		<path d="M80.7,290.7l0.2-0.3c0.4,0.3,0.7,0.5,1.3,0.5c0.7,0,1-0.4,1-0.8c0-0.5-0.5-0.8-1-0.9c-0.6-0.2-1.3-0.5-1.3-1.2
			c0-0.6,0.5-1.1,1.4-1.1c0.5,0,0.9,0.2,1.2,0.4l-0.2,0.3c-0.3-0.2-0.6-0.4-1-0.4c-0.7,0-1,0.4-1,0.8c0,0.5,0.5,0.7,1,0.9
			c0.7,0.2,1.4,0.5,1.4,1.3c0,0.6-0.5,1.2-1.4,1.2C81.6,291.3,81,291,80.7,290.7z"/>
		<path d="M84.6,285.6c0-0.2,0.2-0.3,0.4-0.3s0.4,0.1,0.4,0.3c0,0.2-0.2,0.3-0.4,0.3S84.6,285.8,84.6,285.6z M84.7,287h0.4v4.2h-0.4
			V287z"/>
		<path d="M86.5,290.1c0-0.9,0.8-1.4,2.7-1.6c0-0.6-0.2-1.3-1-1.3c-0.6,0-1.1,0.3-1.3,0.5l-0.2-0.3c0.3-0.2,0.9-0.5,1.6-0.5
			c1,0,1.3,0.7,1.3,1.6v2.7h-0.3l0-0.5h0c-0.4,0.3-0.9,0.7-1.5,0.7C87,291.3,86.5,290.9,86.5,290.1z M89.2,290.3v-1.4
			c-1.7,0.2-2.3,0.6-2.3,1.3c0,0.6,0.4,0.8,0.9,0.8C88.2,291,88.7,290.7,89.2,290.3z"/>
		<path d="M91.1,287h0.3l0,0.7h0c0.4-0.4,0.9-0.8,1.5-0.8c0.9,0,1.3,0.5,1.3,1.6v2.7h-0.4v-2.7c0-0.9-0.3-1.3-1-1.3
			c-0.5,0-0.9,0.3-1.4,0.8v3.2h-0.4V287z"/>
		<path d="M95.5,290.1c0-0.9,0.8-1.4,2.7-1.6c0-0.6-0.2-1.3-1-1.3c-0.6,0-1.1,0.3-1.3,0.5l-0.2-0.3c0.3-0.2,0.9-0.5,1.6-0.5
			c1,0,1.3,0.7,1.3,1.6v2.7h-0.3l0-0.5h0c-0.4,0.3-0.9,0.7-1.5,0.7C96,291.3,95.5,290.9,95.5,290.1z M98.2,290.3v-1.4
			c-1.7,0.2-2.3,0.6-2.3,1.3c0,0.6,0.4,0.8,0.9,0.8C97.2,291,97.7,290.7,98.2,290.3z"/>
	</g>
</g>
<g>
	<g class="st0">
		<path d="M79.5,265.2h0.4v5.8h-0.4V265.2z"/>
		<path d="M81.2,268.9c0-1.4,0.9-2.2,1.9-2.2c0.5,0,0.9,0.2,1.3,0.5l0-0.8v-1.7h0.4v6.3h-0.3l0-0.5h0c-0.3,0.3-0.8,0.7-1.4,0.7
			C81.9,271.1,81.2,270.3,81.2,268.9z M84.3,270.1v-2.5c-0.4-0.4-0.8-0.5-1.2-0.5c-0.8,0-1.5,0.8-1.5,1.9c0,1.1,0.5,1.9,1.4,1.9
			C83.5,270.8,83.9,270.5,84.3,270.1z"/>
		<path d="M86,270c0-0.9,0.8-1.4,2.7-1.6c0-0.6-0.2-1.3-1-1.3c-0.6,0-1.1,0.3-1.3,0.5l-0.2-0.3c0.3-0.2,0.9-0.5,1.6-0.5
			c1,0,1.3,0.7,1.3,1.6v2.7h-0.3l0-0.5h0c-0.4,0.3-0.9,0.7-1.5,0.7C86.6,271.1,86,270.8,86,270z M88.8,270.1v-1.4
			c-1.7,0.2-2.3,0.6-2.3,1.3c0,0.6,0.4,0.8,0.9,0.8C87.8,270.8,88.2,270.6,88.8,270.1z"/>
		<path d="M90.6,264.7H91v1.8l0,0.9c0.4-0.4,0.9-0.8,1.5-0.8c0.9,0,1.3,0.5,1.3,1.6v2.7h-0.4v-2.7c0-0.9-0.3-1.3-1-1.3
			c-0.5,0-0.9,0.3-1.4,0.8v3.2h-0.4V264.7z"/>
		<path d="M94.9,268.9c0-1.4,0.9-2.2,1.9-2.2c1,0,1.9,0.8,1.9,2.2c0,1.4-0.9,2.2-1.9,2.2C95.8,271.1,94.9,270.3,94.9,268.9z
			 M98.3,268.9c0-1.1-0.6-1.9-1.5-1.9c-0.9,0-1.5,0.8-1.5,1.9c0,1.1,0.6,1.9,1.5,1.9C97.7,270.8,98.3,270,98.3,268.9z"/>
	</g>
</g>
<g>
	<g class="st0">
		<path d="M68.6,245.1h0.6l1.2,3.4c0.2,0.4,0.3,0.9,0.5,1.3h0c0.2-0.4,0.3-0.9,0.4-1.3l1.2-3.4h0.6v5.8h-0.4v-3.8
			c0-0.5,0-1.1,0.1-1.6h0l-0.5,1.3l-1.3,3.5h-0.4l-1.3-3.5l-0.5-1.3h0c0,0.5,0.1,1.1,0.1,1.6v3.8h-0.4V245.1z"/>
		<path d="M74.4,248.8c0-1.4,0.9-2.2,1.9-2.2c1,0,1.9,0.8,1.9,2.2c0,1.4-0.9,2.2-1.9,2.2C75.3,251,74.4,250.2,74.4,248.8z
			 M77.8,248.8c0-1.1-0.6-1.9-1.5-1.9c-0.9,0-1.5,0.8-1.5,1.9c0,1.1,0.6,1.9,1.5,1.9C77.1,250.6,77.8,249.9,77.8,248.8z"/>
		<path d="M79.4,246.6h0.3l0,0.7h0c0.4-0.4,0.9-0.8,1.5-0.8c0.9,0,1.3,0.5,1.3,1.6v2.7h-0.4v-2.7c0-0.9-0.3-1.3-1-1.3
			c-0.5,0-0.9,0.3-1.4,0.8v3.2h-0.4V246.6z"/>
		<path d="M84.2,249.7V247h-0.7v-0.3l0.7,0l0-1.2h0.3v1.2h1.2v0.3h-1.2v2.7c0,0.5,0.1,0.9,0.7,0.9c0.2,0,0.4-0.1,0.5-0.1l0.1,0.3
			c-0.2,0.1-0.5,0.2-0.7,0.2C84.5,251,84.2,250.5,84.2,249.7z"/>
		<path d="M86.6,249.8c0-0.9,0.8-1.4,2.7-1.6c0-0.6-0.2-1.3-1-1.3c-0.6,0-1.1,0.3-1.3,0.5l-0.2-0.3c0.3-0.2,0.9-0.5,1.6-0.5
			c1,0,1.3,0.7,1.3,1.6v2.7h-0.3l0-0.5h0c-0.4,0.3-0.9,0.7-1.5,0.7C87.1,251,86.6,250.6,86.6,249.8z M89.3,250v-1.4
			c-1.7,0.2-2.3,0.6-2.3,1.3c0,0.6,0.4,0.8,0.9,0.8C88.3,250.6,88.8,250.4,89.3,250z"/>
		<path d="M91.2,246.6h0.3l0,0.7h0c0.4-0.4,0.9-0.8,1.5-0.8c0.9,0,1.3,0.5,1.3,1.6v2.7h-0.4v-2.7c0-0.9-0.3-1.3-1-1.3
			c-0.5,0-0.9,0.3-1.4,0.8v3.2h-0.4V246.6z"/>
		<path d="M95.6,249.8c0-0.9,0.8-1.4,2.7-1.6c0-0.6-0.2-1.3-1-1.3c-0.6,0-1.1,0.3-1.3,0.5l-0.2-0.3c0.3-0.2,0.9-0.5,1.6-0.5
			c1,0,1.3,0.7,1.3,1.6v2.7h-0.3l0-0.5h0c-0.4,0.3-0.9,0.7-1.5,0.7C96.1,251,95.6,250.6,95.6,249.8z M98.3,250v-1.4
			c-1.7,0.2-2.3,0.6-2.3,1.3c0,0.6,0.4,0.8,0.9,0.8C97.3,250.6,97.8,250.4,98.3,250z"/>
	</g>
</g>
<g>
	<g class="st0">
		<path d="M61.9,224.9h0.6l1.2,3.4c0.2,0.4,0.3,0.9,0.5,1.3h0c0.2-0.4,0.3-0.9,0.4-1.3l1.2-3.4h0.6v5.8H66v-3.8c0-0.5,0-1.1,0.1-1.6
			h0l-0.5,1.3l-1.3,3.5H64l-1.3-3.5l-0.5-1.3h0c0,0.5,0.1,1.1,0.1,1.6v3.8h-0.4V224.9z"/>
		<path d="M68,225.1c0-0.2,0.2-0.3,0.4-0.3s0.4,0.1,0.4,0.3c0,0.2-0.2,0.3-0.4,0.3S68,225.3,68,225.1z M68.1,226.5h0.4v4.2h-0.4
			V226.5z"/>
		<path d="M69.6,230.2l0.2-0.3c0.4,0.3,0.7,0.5,1.3,0.5c0.7,0,1-0.4,1-0.8c0-0.5-0.5-0.8-1-0.9c-0.6-0.2-1.3-0.5-1.3-1.2
			c0-0.6,0.5-1.1,1.4-1.1c0.5,0,0.9,0.2,1.2,0.4l-0.2,0.3c-0.3-0.2-0.6-0.4-1-0.4c-0.7,0-1,0.4-1,0.8c0,0.5,0.5,0.7,1,0.9
			c0.7,0.2,1.4,0.5,1.4,1.3c0,0.6-0.5,1.2-1.4,1.2C70.5,230.8,70,230.6,69.6,230.2z"/>
		<path d="M73.2,230.2l0.2-0.3c0.4,0.3,0.7,0.5,1.3,0.5c0.7,0,1-0.4,1-0.8c0-0.5-0.5-0.8-1-0.9c-0.6-0.2-1.3-0.5-1.3-1.2
			c0-0.6,0.5-1.1,1.4-1.1c0.5,0,0.9,0.2,1.2,0.4l-0.2,0.3c-0.3-0.2-0.6-0.4-1-0.4c-0.7,0-1,0.4-1,0.8c0,0.5,0.5,0.7,1,0.9
			c0.7,0.2,1.4,0.5,1.4,1.3c0,0.6-0.5,1.2-1.4,1.2C74.1,230.8,73.5,230.6,73.2,230.2z"/>
		<path d="M77.1,225.1c0-0.2,0.2-0.3,0.4-0.3s0.4,0.1,0.4,0.3c0,0.2-0.2,0.3-0.4,0.3S77.1,225.3,77.1,225.1z M77.2,226.5h0.4v4.2
			h-0.4V226.5z"/>
		<path d="M78.7,230.2l0.2-0.3c0.4,0.3,0.7,0.5,1.3,0.5c0.7,0,1-0.4,1-0.8c0-0.5-0.5-0.8-1-0.9c-0.6-0.2-1.3-0.5-1.3-1.2
			c0-0.6,0.5-1.1,1.4-1.1c0.5,0,0.9,0.2,1.2,0.4l-0.2,0.3c-0.3-0.2-0.6-0.4-1-0.4c-0.7,0-1,0.4-1,0.8c0,0.5,0.5,0.7,1,0.9
			c0.7,0.2,1.4,0.5,1.4,1.3c0,0.6-0.5,1.2-1.4,1.2C79.7,230.8,79.1,230.6,78.7,230.2z"/>
		<path d="M82.3,230.2l0.2-0.3c0.4,0.3,0.7,0.5,1.3,0.5c0.7,0,1-0.4,1-0.8c0-0.5-0.5-0.8-1-0.9c-0.6-0.2-1.3-0.5-1.3-1.2
			c0-0.6,0.5-1.1,1.4-1.1c0.5,0,0.9,0.2,1.2,0.4l-0.2,0.3c-0.3-0.2-0.6-0.4-1-0.4c-0.7,0-1,0.4-1,0.8c0,0.5,0.5,0.7,1,0.9
			c0.7,0.2,1.4,0.5,1.4,1.3c0,0.6-0.5,1.2-1.4,1.2C83.2,230.8,82.7,230.6,82.3,230.2z"/>
		<path d="M86.2,225.1c0-0.2,0.2-0.3,0.4-0.3s0.4,0.1,0.4,0.3c0,0.2-0.2,0.3-0.4,0.3S86.2,225.3,86.2,225.1z M86.4,226.5h0.4v4.2
			h-0.4V226.5z"/>
		<path d="M88.4,226.5h0.3l0,0.5h0c0.4-0.3,0.9-0.6,1.4-0.6c1.1,0,1.7,0.8,1.7,2.2c0,1.4-0.9,2.3-1.9,2.3c-0.4,0-0.8-0.2-1.3-0.5
			l0,0.8v1.5h-0.4V226.5z M91.5,228.5c0-1-0.4-1.8-1.3-1.8c-0.4,0-0.9,0.2-1.4,0.7v2.5c0.5,0.4,0.9,0.5,1.2,0.5
			C90.9,230.5,91.5,229.7,91.5,228.5z"/>
		<path d="M93.2,226.5h0.3l0,0.5h0c0.4-0.3,0.9-0.6,1.4-0.6c1.1,0,1.7,0.8,1.7,2.2c0,1.4-0.9,2.3-1.9,2.3c-0.4,0-0.8-0.2-1.3-0.5
			l0,0.8v1.5h-0.4V226.5z M96.3,228.5c0-1-0.4-1.8-1.3-1.8c-0.4,0-0.9,0.2-1.4,0.7v2.5c0.5,0.4,0.9,0.5,1.2,0.5
			C95.7,230.5,96.3,229.7,96.3,228.5z"/>
		<path d="M97.8,225.1c0-0.2,0.2-0.3,0.4-0.3s0.4,0.1,0.4,0.3c0,0.2-0.2,0.3-0.4,0.3S97.8,225.3,97.8,225.1z M98,226.5h0.4v4.2H98
			V226.5z"/>
	</g>
</g>
<g>
	<g class="st0">
		<path d="M63.2,204.7h0.6l1.2,3.4c0.2,0.4,0.3,0.9,0.5,1.3h0c0.2-0.4,0.3-0.9,0.4-1.3l1.2-3.4h0.6v5.8h-0.4v-3.8
			c0-0.5,0-1.1,0.1-1.6h0l-0.5,1.3l-1.3,3.5h-0.4l-1.3-3.5l-0.5-1.3h0c0,0.5,0.1,1.1,0.1,1.6v3.8h-0.4V204.7z"/>
		<path d="M69.2,205c0-0.2,0.2-0.3,0.4-0.3s0.4,0.1,0.4,0.3c0,0.2-0.2,0.3-0.4,0.3S69.2,205.2,69.2,205z M69.3,206.3h0.4v4.2h-0.4
			V206.3z"/>
		<path d="M71.3,206.3h0.3l0,0.7h0c0.4-0.4,0.9-0.8,1.5-0.8c0.9,0,1.3,0.5,1.3,1.6v2.7h-0.4v-2.7c0-0.9-0.3-1.3-1-1.3
			c-0.5,0-0.9,0.3-1.4,0.8v3.2h-0.4V206.3z"/>
		<path d="M76,206.3h0.3l0,0.7h0c0.4-0.4,0.9-0.8,1.5-0.8c0.9,0,1.3,0.5,1.3,1.6v2.7h-0.4v-2.7c0-0.9-0.3-1.3-1-1.3
			c-0.5,0-0.9,0.3-1.4,0.8v3.2H76V206.3z"/>
		<path d="M80.4,208.4c0-1.4,0.9-2.2,1.8-2.2c1,0,1.6,0.7,1.6,2c0,0.1,0,0.2,0,0.3h-3c0,1.1,0.6,1.8,1.6,1.8c0.5,0,0.8-0.2,1.1-0.4
			l0.2,0.3c-0.3,0.2-0.7,0.4-1.3,0.4C81.2,210.7,80.4,209.8,80.4,208.4z M83.4,208.2c0-1.1-0.5-1.6-1.2-1.6c-0.7,0-1.4,0.6-1.4,1.6
			H83.4z"/>
		<path d="M84.4,210.1l0.2-0.3c0.4,0.3,0.7,0.5,1.3,0.5c0.7,0,1-0.4,1-0.8c0-0.5-0.5-0.8-1-0.9c-0.6-0.2-1.3-0.5-1.3-1.2
			c0-0.6,0.5-1.1,1.4-1.1c0.5,0,0.9,0.2,1.2,0.4l-0.2,0.3c-0.3-0.2-0.6-0.4-1-0.4c-0.7,0-1,0.4-1,0.8c0,0.5,0.5,0.7,1,0.9
			c0.7,0.2,1.4,0.5,1.4,1.3c0,0.6-0.5,1.2-1.4,1.2C85.4,210.7,84.8,210.4,84.4,210.1z"/>
		<path d="M88.2,208.4c0-1.4,0.9-2.2,1.9-2.2c1,0,1.9,0.8,1.9,2.2c0,1.4-0.9,2.2-1.9,2.2C89,210.7,88.2,209.8,88.2,208.4z
			 M91.6,208.4c0-1.1-0.6-1.9-1.5-1.9c-0.9,0-1.5,0.8-1.5,1.9c0,1.1,0.6,1.9,1.5,1.9C90.9,210.3,91.6,209.6,91.6,208.4z"/>
		<path d="M93.3,209.4v-2.7h-0.7v-0.3l0.7,0l0-1.2h0.3v1.2h1.2v0.3h-1.2v2.7c0,0.5,0.1,0.9,0.7,0.9c0.2,0,0.4-0.1,0.5-0.1l0.1,0.3
			c-0.2,0.1-0.5,0.2-0.7,0.2C93.6,210.7,93.3,210.1,93.3,209.4z"/>
		<path d="M95.7,209.5c0-0.9,0.8-1.4,2.7-1.6c0-0.6-0.2-1.3-1-1.3c-0.6,0-1.1,0.3-1.3,0.5l-0.2-0.3c0.3-0.2,0.9-0.5,1.6-0.5
			c1,0,1.3,0.7,1.3,1.6v2.7h-0.3l0-0.5h0c-0.4,0.3-0.9,0.7-1.5,0.7C96.2,210.7,95.7,210.3,95.7,209.5z M98.4,209.6v-1.4
			c-1.7,0.2-2.3,0.6-2.3,1.3c0,0.6,0.4,0.8,0.9,0.8C97.4,210.3,97.9,210.1,98.4,209.6z"/>
	</g>
</g>
<g>
	<g class="st0">
		<path d="M78.6,184.6h0.6l1.2,3.4c0.2,0.4,0.3,0.9,0.5,1.3h0c0.2-0.4,0.3-0.9,0.4-1.3l1.2-3.4h0.6v5.8h-0.4v-3.8
			c0-0.5,0-1.1,0.1-1.6h0l-0.5,1.3l-1.3,3.5h-0.4l-1.3-3.5l-0.5-1.3h0c0,0.5,0.1,1.1,0.1,1.6v3.8h-0.4V184.6z"/>
		<path d="M84.4,189.3c0-0.9,0.8-1.4,2.7-1.6c0-0.6-0.2-1.3-1-1.3c-0.6,0-1.1,0.3-1.3,0.5l-0.2-0.3c0.3-0.2,0.9-0.5,1.6-0.5
			c1,0,1.3,0.7,1.3,1.6v2.7h-0.3l0-0.5h0c-0.4,0.3-0.9,0.7-1.5,0.7C85,190.5,84.4,190.1,84.4,189.3z M87.2,189.5V188
			c-1.7,0.2-2.3,0.6-2.3,1.3c0,0.6,0.4,0.8,0.9,0.8C86.2,190.2,86.6,189.9,87.2,189.5z"/>
		<path d="M88.9,184.8c0-0.2,0.2-0.3,0.4-0.3s0.4,0.1,0.4,0.3c0,0.2-0.2,0.3-0.4,0.3S88.9,185,88.9,184.8z M89,186.2h0.4v4.2H89
			V186.2z"/>
		<path d="M91.1,186.2h0.3l0,0.7h0c0.4-0.4,0.9-0.8,1.5-0.8c0.9,0,1.3,0.5,1.3,1.6v2.7h-0.4v-2.7c0-0.9-0.3-1.3-1-1.3
			c-0.5,0-0.9,0.3-1.4,0.8v3.2h-0.4V186.2z"/>
		<path d="M95.4,188.3c0-1.4,0.9-2.2,1.8-2.2c1,0,1.6,0.7,1.6,2c0,0.1,0,0.2,0,0.3h-3c0,1.1,0.6,1.8,1.6,1.8c0.5,0,0.8-0.2,1.1-0.4
			l0.2,0.3c-0.3,0.2-0.7,0.4-1.3,0.4C96.3,190.5,95.4,189.7,95.4,188.3z M98.5,188c0-1.1-0.5-1.6-1.2-1.6c-0.7,0-1.4,0.6-1.4,1.6
			H98.5z"/>
	</g>
</g>
<g>
	<g class="st0">
		<path d="M82.6,167.3c0-1.8,1-3,2.4-3s2.4,1.2,2.4,3c0,1.8-1,3-2.4,3S82.6,169.1,82.6,167.3z M86.9,167.3c0-1.6-0.8-2.6-2-2.6
			c-1.2,0-2,1-2,2.6s0.8,2.7,2,2.7C86.1,170,86.9,168.9,86.9,167.3z"/>
		<path d="M88.6,163.9H89v1.8l0,0.9c0.4-0.4,0.9-0.8,1.5-0.8c0.9,0,1.3,0.5,1.3,1.6v2.7h-0.4v-2.7c0-0.9-0.3-1.3-1-1.3
			c-0.5,0-0.9,0.3-1.4,0.8v3.2h-0.4V163.9z"/>
		<path d="M93.1,164.6c0-0.2,0.2-0.3,0.4-0.3s0.4,0.1,0.4,0.3c0,0.2-0.2,0.3-0.4,0.3S93.1,164.8,93.1,164.6z M93.3,166h0.4v4.2h-0.4
			V166z"/>
		<path d="M94.9,168.1c0-1.4,0.9-2.2,1.9-2.2c1,0,1.9,0.8,1.9,2.2c0,1.4-0.9,2.2-1.9,2.2C95.8,170.3,94.9,169.5,94.9,168.1z
			 M98.3,168.1c0-1.1-0.6-1.9-1.5-1.9c-0.9,0-1.5,0.8-1.5,1.9c0,1.1,0.6,1.9,1.5,1.9C97.7,170,98.3,169.2,98.3,168.1z"/>
	</g>
</g>
<g>
	<g class="st0">
		<path d="M72.1,147.2c0-1.8,1-3,2.6-3c0.8,0,1.3,0.4,1.6,0.7l-0.2,0.3c-0.3-0.3-0.7-0.6-1.3-0.6c-1.3,0-2.1,1-2.1,2.6
			c0,1.6,0.8,2.7,2.1,2.7c0.5,0,1-0.2,1.3-0.4v-1.8h-1.4v-0.3h1.8v2.3c-0.4,0.4-1,0.7-1.7,0.7C73.1,150.2,72.1,149,72.1,147.2z"/>
		<path d="M77.4,148c0-1.4,0.9-2.2,1.8-2.2c1,0,1.6,0.7,1.6,2c0,0.1,0,0.2,0,0.3h-3c0,1.1,0.6,1.8,1.6,1.8c0.5,0,0.8-0.2,1.1-0.4
			l0.2,0.3c-0.3,0.2-0.7,0.4-1.3,0.4C78.2,150.2,77.4,149.3,77.4,148z M80.5,147.7c0-1.1-0.5-1.6-1.2-1.6c-0.7,0-1.4,0.6-1.4,1.6
			H80.5z"/>
		<path d="M81.6,148c0-1.4,0.9-2.2,1.9-2.2c1,0,1.9,0.8,1.9,2.2c0,1.4-0.9,2.2-1.9,2.2C82.5,150.2,81.6,149.4,81.6,148z M85,148
			c0-1.1-0.6-1.9-1.5-1.9c-0.9,0-1.5,0.8-1.5,1.9c0,1.1,0.6,1.9,1.5,1.9C84.4,149.8,85,149.1,85,148z"/>
		<path d="M86.7,145.8H87l0,0.8h0c0.3-0.5,0.7-0.9,1.2-0.9c0.2,0,0.3,0,0.4,0.1l-0.1,0.4c-0.1-0.1-0.2-0.1-0.4-0.1
			c-0.4,0-0.8,0.3-1.2,1.1v2.9h-0.4V145.8z"/>
		<path d="M89.1,150.9c0-0.4,0.2-0.7,0.6-1v0c-0.2-0.1-0.4-0.4-0.4-0.7c0-0.4,0.3-0.6,0.5-0.8v0c-0.3-0.2-0.5-0.6-0.5-1.2
			c0-0.9,0.7-1.5,1.5-1.5c0.2,0,0.4,0.1,0.6,0.1h1.4v0.3h-1c0.3,0.2,0.5,0.6,0.5,1.1c0,0.9-0.6,1.5-1.5,1.5c-0.2,0-0.5-0.1-0.7-0.2
			c-0.2,0.2-0.3,0.3-0.3,0.6c0,0.3,0.2,0.5,0.8,0.5h0.9c0.9,0,1.4,0.3,1.4,1c0,0.7-0.8,1.4-2,1.4C89.8,152.1,89.1,151.6,89.1,150.9z
			 M92.4,150.7c0-0.5-0.3-0.6-1-0.6h-0.9c-0.1,0-0.3,0-0.5-0.1c-0.4,0.3-0.6,0.6-0.6,0.9c0,0.5,0.5,0.9,1.4,0.9
			C91.8,151.8,92.4,151.2,92.4,150.7z M91.9,147.2c0-0.7-0.5-1.2-1.1-1.2c-0.6,0-1.1,0.4-1.1,1.2c0,0.7,0.5,1.2,1.1,1.2
			C91.4,148.4,91.9,147.9,91.9,147.2z"/>
		<path d="M93.6,144.5c0-0.2,0.2-0.3,0.4-0.3s0.4,0.1,0.4,0.3c0,0.2-0.2,0.3-0.4,0.3S93.6,144.7,93.6,144.5z M93.7,145.8h0.4v4.2
			h-0.4V145.8z"/>
		<path d="M95.5,149c0-0.9,0.8-1.4,2.7-1.6c0-0.6-0.2-1.3-1-1.3c-0.6,0-1.1,0.3-1.3,0.5l-0.2-0.3c0.3-0.2,0.9-0.5,1.6-0.5
			c1,0,1.3,0.7,1.3,1.6v2.7h-0.3l0-0.5h0c-0.4,0.3-0.9,0.7-1.5,0.7C96,150.2,95.5,149.8,95.5,149z M98.2,149.2v-1.4
			c-1.7,0.2-2.3,0.6-2.3,1.3c0,0.6,0.4,0.8,0.9,0.8C97.2,149.8,97.7,149.6,98.2,149.2z"/>
	</g>
</g>
<g>
	<g class="st0">
		<path d="M69.8,124.1h0.4l2,5.8h-0.4l-1.2-3.4c-0.2-0.7-0.4-1.3-0.6-2h0c-0.2,0.7-0.4,1.3-0.6,2l-1.2,3.4h-0.4L69.8,124.1z
			 M68.7,127.6h2.6v0.3h-2.6V127.6z"/>
		<path d="M73.2,129.3v-5.8h0.4v5.8c0,0.2,0.1,0.3,0.2,0.3c0,0,0.1,0,0.2,0L74,130c-0.1,0-0.2,0-0.3,0
			C73.3,130,73.2,129.8,73.2,129.3z"/>
		<path d="M75,128.9c0-0.9,0.8-1.4,2.7-1.6c0-0.6-0.2-1.3-1-1.3c-0.6,0-1.1,0.3-1.3,0.5l-0.2-0.3c0.3-0.2,0.9-0.5,1.6-0.5
			c1,0,1.3,0.7,1.3,1.6v2.7h-0.3l0-0.5h0c-0.4,0.3-0.9,0.7-1.5,0.7C75.5,130,75,129.6,75,128.9z M77.7,129v-1.4
			c-1.7,0.2-2.3,0.6-2.3,1.3c0,0.6,0.4,0.8,0.9,0.8C76.7,129.7,77.2,129.4,77.7,129z"/>
		<path d="M80,129.5L80,129.5l-0.1,0.4h-0.3v-6.3H80v1.8l0,0.8c0.4-0.4,0.9-0.7,1.5-0.7c1.1,0,1.7,0.8,1.7,2.2
			c0,1.4-0.9,2.3-1.9,2.3C80.8,130,80.4,129.8,80,129.5z M82.7,127.7c0-1-0.4-1.8-1.3-1.8c-0.4,0-0.9,0.2-1.4,0.7v2.5
			c0.5,0.4,0.9,0.5,1.2,0.5C82.1,129.7,82.7,128.9,82.7,127.7z"/>
		<path d="M84,128.9c0-0.9,0.8-1.4,2.7-1.6c0-0.6-0.2-1.3-1-1.3c-0.6,0-1.1,0.3-1.3,0.5l-0.2-0.3c0.3-0.2,0.9-0.5,1.6-0.5
			c1,0,1.3,0.7,1.3,1.6v2.7h-0.3l0-0.5h0c-0.4,0.3-0.9,0.7-1.5,0.7C84.6,130,84,129.6,84,128.9z M86.8,129v-1.4
			c-1.7,0.2-2.3,0.6-2.3,1.3c0,0.6,0.4,0.8,0.9,0.8C85.8,129.7,86.3,129.4,86.8,129z"/>
		<path d="M88.7,125.7H89l0,0.7h0c0.4-0.4,0.9-0.8,1.3-0.8c0.7,0,1,0.3,1.2,0.9c0.5-0.5,0.9-0.9,1.4-0.9c0.8,0,1.3,0.5,1.3,1.6v2.7
			h-0.4v-2.7c0-0.9-0.3-1.3-0.9-1.3c-0.4,0-0.8,0.3-1.3,0.8v3.2h-0.4v-2.7c0-0.9-0.3-1.3-0.9-1.3c-0.4,0-0.8,0.3-1.3,0.8v3.2h-0.4
			V125.7z"/>
		<path d="M95.5,128.9c0-0.9,0.8-1.4,2.7-1.6c0-0.6-0.2-1.3-1-1.3c-0.6,0-1.1,0.3-1.3,0.5l-0.2-0.3c0.3-0.2,0.9-0.5,1.6-0.5
			c1,0,1.3,0.7,1.3,1.6v2.7h-0.3l0-0.5h0c-0.4,0.3-0.9,0.7-1.5,0.7C96.1,130,95.5,129.6,95.5,128.9z M98.2,129v-1.4
			c-1.7,0.2-2.3,0.6-2.3,1.3c0,0.6,0.4,0.8,0.9,0.8C97.3,129.7,97.7,129.4,98.2,129z"/>
	</g>
</g>
<path class="st1" d="M293.4,137.6v-20.2h162.3v20.2H293.4z"/>
<path class="st1" d="M293.4,137.6v-20.2h162.3v20.2H293.4z"/>
<path class="st2" d="M131.1,137.6v-20.2h162.3v20.2H131.1z"/>
<path class="st1" d="M131.1,157.7v-20.2h162.3v20.2H131.1z"/>
<path class="st1" d="M293.4,157.7v-20.2h162.3v20.2H293.4z"/>
<path class="st2" d="M131.1,157.7v-20.2h162.3v20.2H131.1z"/>
<path class="st1" d="M131.1,157.7v-20.2h162.3v20.2H131.1z"/>
<path class="st1" d="M293.4,157.7v-20.2h162.3v20.2H293.4z"/>
<path class="st1" d="M131.1,278.7v-20.2h162.3v20.2H131.1z"/>
<path class="st1" d="M131.1,278.7v-20.2h162.3v20.2H131.1z"/>
<path class="st1" d="M131.1,298.8v-20.2h162.3v20.2H131.1z"/>
<path class="st1" d="M131.1,298.8v-20.2h162.3v20.2H131.1z"/>
<path class="st1" d="M131.1,198v-20.2h162.3V198H131.1z"/>
<path class="st1" d="M293.4,198v-20.2h162.3V198H293.4z"/>
<path class="st1" d="M293.4,218.2V198h162.3v20.2H293.4z"/>
<path class="st2" d="M131.1,218.2V198h162.3v20.2H131.1z"/>
<path class="st1" d="M293.4,238.4v-20.2h162.3v20.2H293.4z"/>
<path class="st2" d="M131.1,238.4v-20.2h162.3v20.2H131.1z"/>
<path class="st1" d="M293.4,238.4v-20.2h162.3v20.2H293.4z"/>
<path class="st1" d="M293.4,258.5v-20.2h162.3v20.2H293.4z"/>
<path class="st1" d="M131.1,177.9v-20.2h162.3v20.2H131.1z"/>
<path class="st1" d="M293.4,177.9v-20.2h162.3v20.2H293.4z"/>
<path class="st1" d="M131.1,177.9v-20.2h162.3v20.2H131.1z"/>
<path class="st1" d="M131.1,319v-20.2h162.3V319H131.1z"/>
<path class="st1" d="M131.1,319v-20.2h162.3V319H131.1z"/>
<path class="st3" d="M293.4,319v-20.2h162.3V319H293.4z"/>
<path class="st1" d="M131.1,339.2V319h162.3v20.2H131.1z"/>
<path class="st1" d="M131.1,359.3v-20.2h162.3v20.2H131.1z"/>
<path class="st1" d="M131.1,359.3v-20.2h162.3v20.2H131.1z"/>
<path class="st1" d="M131.1,379.5v-20.2h162.3v20.2H131.1z"/>
<path class="st2" d="M293.4,379.5v-20.2h162.3v20.2H293.4z"/>
<polyline class="st4" points="49,97 49,81.1 64.8,81.1 64.8,97 "/>
<path class="st4" d="M49,97h15.8V81.1H49V97z"/>
<polyline class="st4" points="49,97 49,81.1 64.8,81.1 64.8,97 "/>
<path class="st5" d="M49,97.3h14v-14H49V97.3z"/>
<g>
	<g class="st0">
		<path d="M66.2,87.1h3.2v0.3h-2.8v2.2h2.3V90h-2.3v2.6h2.9v0.3h-3.3V87.1z"/>
		<path d="M70.6,88.7H71l0,0.7h0c0.4-0.4,0.9-0.8,1.5-0.8c0.9,0,1.3,0.5,1.3,1.6v2.7h-0.4v-2.7c0-0.9-0.3-1.3-1-1.3
			c-0.5,0-0.9,0.3-1.4,0.8v3.2h-0.4V88.7z"/>
		<path d="M75,91.8c0-0.9,0.8-1.4,2.7-1.6c0-0.6-0.2-1.3-1-1.3c-0.6,0-1.1,0.3-1.3,0.5l-0.2-0.3c0.3-0.2,0.9-0.5,1.6-0.5
			c1,0,1.3,0.7,1.3,1.6v2.7h-0.3l0-0.5h0c-0.4,0.3-0.9,0.7-1.5,0.7C75.6,93,75,92.6,75,91.8z M77.7,92v-1.4
			c-1.7,0.2-2.3,0.6-2.3,1.3c0,0.6,0.4,0.8,0.9,0.8C76.8,92.7,77.2,92.4,77.7,92z"/>
		<path d="M79.3,90.8c0-1.4,0.9-2.2,1.9-2.2c0.6,0,1,0.3,1.2,0.5l-0.2,0.3c-0.3-0.3-0.6-0.4-1-0.4c-0.9,0-1.5,0.8-1.5,1.9
			c0,1.1,0.6,1.9,1.5,1.9c0.5,0,0.8-0.2,1.1-0.5l0.2,0.3c-0.4,0.3-0.8,0.6-1.4,0.6C80.1,93,79.3,92.2,79.3,90.8z"/>
		<path d="M83.7,91.7V89H83v-0.3l0.7,0l0-1.2h0.3v1.2h1.2V89h-1.2v2.7c0,0.5,0.1,0.9,0.7,0.9c0.2,0,0.4-0.1,0.5-0.1l0.1,0.3
			c-0.2,0.1-0.5,0.2-0.7,0.2C83.9,93,83.7,92.5,83.7,91.7z"/>
		<path d="M86,90.8c0-1.4,0.9-2.2,1.8-2.2c1,0,1.6,0.7,1.6,2c0,0.1,0,0.2,0,0.3h-3c0,1.1,0.6,1.8,1.6,1.8c0.5,0,0.8-0.2,1.1-0.4
			l0.2,0.3c-0.3,0.2-0.7,0.4-1.3,0.4C86.9,93,86,92.2,86,90.8z M89.1,90.5c0-1.1-0.5-1.6-1.2-1.6c-0.7,0-1.4,0.6-1.4,1.6H89.1z"/>
		<path d="M90.2,90.8c0-1.4,0.9-2.2,1.9-2.2c0.5,0,0.9,0.2,1.3,0.5l0-0.8v-1.7h0.4v6.3h-0.3l0-0.5h0C93,92.7,92.5,93,92,93
			C90.9,93,90.2,92.2,90.2,90.8z M93.4,92v-2.5c-0.4-0.4-0.8-0.5-1.2-0.5c-0.8,0-1.5,0.8-1.5,1.9c0,1.1,0.5,1.9,1.4,1.9
			C92.5,92.6,92.9,92.4,93.4,92z"/>
	</g>
</g>
<polyline class="st4" points="150.1,97 150.1,81.2 165.9,81.2 165.9,97 "/>
<path class="st4" d="M150.1,97h15.8V81.2h-15.8V97z"/>
<polyline class="st4" points="151,96.5 151,80.7 166.8,80.7 166.8,96.5 "/>
<path class="st6" d="M148.8,97.3h14v-14h-14V97.3z"/>
<g>
	<g class="st0">
		<path d="M166.8,87.1h3.2v0.3h-2.8v2.3h2.3v0.3h-2.3v2.8h-0.4V87.1z"/>
		<path d="M170.6,91.8c0-0.9,0.8-1.4,2.7-1.6c0-0.6-0.2-1.3-1-1.3c-0.6,0-1.1,0.3-1.3,0.5l-0.2-0.3c0.3-0.2,0.9-0.5,1.6-0.5
			c1,0,1.3,0.7,1.3,1.6v2.7h-0.3l0-0.5h0c-0.4,0.3-0.9,0.7-1.5,0.7C171.2,93,170.6,92.6,170.6,91.8z M173.4,92v-1.4
			c-1.7,0.2-2.3,0.6-2.3,1.3c0,0.6,0.4,0.8,0.9,0.8C172.4,92.7,172.8,92.4,173.4,92z"/>
		<path d="M175.1,87.3c0-0.2,0.2-0.3,0.4-0.3s0.4,0.1,0.4,0.3c0,0.2-0.2,0.3-0.4,0.3S175.1,87.5,175.1,87.3z M175.3,88.7h0.4v4.2
			h-0.4V88.7z"/>
		<path d="M177.3,92.3v-5.8h0.4v5.8c0,0.2,0.1,0.3,0.2,0.3c0,0,0.1,0,0.2,0l0.1,0.3c-0.1,0-0.2,0-0.3,0
			C177.5,93,177.3,92.8,177.3,92.3z"/>
		<path d="M179,90.8c0-1.4,0.9-2.2,1.8-2.2c1,0,1.6,0.7,1.6,2c0,0.1,0,0.2,0,0.3h-3c0,1.1,0.6,1.8,1.6,1.8c0.5,0,0.8-0.2,1.1-0.4
			l0.2,0.3c-0.3,0.2-0.7,0.4-1.3,0.4C179.9,93,179,92.2,179,90.8z M182.1,90.5c0-1.1-0.5-1.6-1.2-1.6c-0.7,0-1.4,0.6-1.4,1.6H182.1z
			"/>
		<path d="M183.3,90.8c0-1.4,0.9-2.2,1.9-2.2c0.5,0,0.9,0.2,1.3,0.5l0-0.8v-1.7h0.4v6.3h-0.3l0-0.5h0c-0.3,0.3-0.8,0.7-1.4,0.7
			C184,93,183.3,92.2,183.3,90.8z M186.4,92v-2.5c-0.4-0.4-0.8-0.5-1.2-0.5c-0.8,0-1.5,0.8-1.5,1.9c0,1.1,0.5,1.9,1.4,1.9
			C185.5,92.6,185.9,92.4,186.4,92z"/>
	</g>
</g>
<polyline class="st4" points="100.7,97.7 100.7,81.9 116.6,81.9 116.6,97.7 "/>
<path class="st4" d="M100.7,97.7h15.8V81.9h-15.8V97.7z"/>
<polyline class="st4" points="100.7,97.7 100.7,81.9 116.6,81.9 116.6,97.7 "/>
<path class="st7" d="M97.6,97.3h14v-14h-14V97.3z"/>
<g>
	<g class="st0">
		<path d="M115.1,87.1h1.5c1.3,0,2.1,0.4,2.1,1.6c0,1.1-0.8,1.7-2.1,1.7h-1.1v2.5h-0.4V87.1z M116.5,90.1c1.2,0,1.8-0.4,1.8-1.3
			c0-1-0.6-1.3-1.8-1.3h-1v2.6H116.5z"/>
		<path d="M119.6,90.8c0-1.4,0.9-2.2,1.8-2.2c1,0,1.6,0.7,1.6,2c0,0.1,0,0.2,0,0.3h-3c0,1.1,0.6,1.8,1.6,1.8c0.5,0,0.8-0.2,1.1-0.4
			l0.2,0.3c-0.3,0.2-0.7,0.4-1.3,0.4C120.4,93,119.6,92.2,119.6,90.8z M122.7,90.5c0-1.1-0.5-1.6-1.2-1.6c-0.7,0-1.4,0.6-1.4,1.6
			H122.7z"/>
		<path d="M124.2,88.7h0.3l0,0.7h0c0.4-0.4,0.9-0.8,1.5-0.8c0.9,0,1.3,0.5,1.3,1.6v2.7h-0.4v-2.7c0-0.9-0.3-1.3-1-1.3
			c-0.5,0-0.9,0.3-1.4,0.8v3.2h-0.4V88.7z"/>
		<path d="M128.5,90.8c0-1.4,0.9-2.2,1.9-2.2c0.5,0,0.9,0.2,1.3,0.5l0-0.8v-1.7h0.4v6.3h-0.3l0-0.5h0c-0.3,0.3-0.8,0.7-1.4,0.7
			C129.2,93,128.5,92.2,128.5,90.8z M131.6,92v-2.5c-0.4-0.4-0.8-0.5-1.2-0.5c-0.8,0-1.5,0.8-1.5,1.9c0,1.1,0.5,1.9,1.4,1.9
			C130.8,92.6,131.2,92.4,131.6,92z"/>
		<path d="M133.5,87.3c0-0.2,0.2-0.3,0.4-0.3s0.4,0.1,0.4,0.3c0,0.2-0.2,0.3-0.4,0.3S133.5,87.5,133.5,87.3z M133.6,88.7h0.4v4.2
			h-0.4V88.7z"/>
		<path d="M135.6,88.7h0.3l0,0.7h0c0.4-0.4,0.9-0.8,1.5-0.8c0.9,0,1.3,0.5,1.3,1.6v2.7h-0.4v-2.7c0-0.9-0.3-1.3-1-1.3
			c-0.5,0-0.9,0.3-1.4,0.8v3.2h-0.4V88.7z"/>
		<path d="M140,93.8c0-0.4,0.2-0.7,0.6-1v0c-0.2-0.1-0.4-0.4-0.4-0.7c0-0.4,0.3-0.6,0.5-0.8v0c-0.3-0.2-0.5-0.6-0.5-1.2
			c0-0.9,0.7-1.5,1.5-1.5c0.2,0,0.4,0.1,0.6,0.1h1.4V89h-1c0.3,0.2,0.5,0.6,0.5,1.1c0,0.9-0.6,1.5-1.5,1.5c-0.2,0-0.5-0.1-0.7-0.2
			c-0.2,0.2-0.3,0.3-0.3,0.6c0,0.3,0.2,0.5,0.8,0.5h0.9c0.9,0,1.4,0.3,1.4,1c0,0.7-0.8,1.4-2,1.4C140.6,94.9,140,94.5,140,93.8z
			 M143.3,93.5c0-0.5-0.3-0.6-1-0.6h-0.9c-0.1,0-0.3,0-0.5-0.1c-0.4,0.3-0.6,0.6-0.6,0.9c0,0.5,0.5,0.9,1.4,0.9
			C142.7,94.6,143.3,94.1,143.3,93.5z M142.7,90c0-0.7-0.5-1.2-1.1-1.2c-0.6,0-1.1,0.4-1.1,1.2c0,0.7,0.5,1.2,1.1,1.2
			C142.2,91.2,142.7,90.8,142.7,90z"/>
	</g>
</g>
<g>
	<g class="st0">
		<path d="M48.6,32.9h1.8V28h-1.6v-1.2c0.9-0.2,1.5-0.4,2.1-0.8h1.4v6.8h1.6v1.6h-5.3V32.9z"/>
		<path d="M59,27.7h-3.8v-1.6h5.8v1.2c-1.9,2.3-2.2,3.9-2.4,7.2h-2C56.9,31.7,57.4,29.9,59,27.7z"/>
		<path d="M64.5,33.7l0.9-1.2c0.6,0.4,1.1,0.7,1.7,0.7c0.6,0,0.8-0.2,0.8-0.6c0-0.4-0.6-0.6-1.3-0.9c-0.8-0.3-1.7-0.8-1.7-1.9
			c0-1.2,1-2,2.5-2c1,0,1.8,0.4,2.3,0.8l-0.9,1.2c-0.5-0.3-0.9-0.6-1.4-0.6c-0.5,0-0.7,0.2-0.7,0.5c0,0.4,0.6,0.6,1.3,0.8
			c0.8,0.3,1.8,0.8,1.8,2c0,1.2-0.9,2.1-2.7,2.1C66.2,34.6,65.2,34.2,64.5,33.7z"/>
		<path d="M71.2,32.1v-2.6h-0.9V28l1-0.1l0.2-1.7h1.6v1.7h1.6v1.5h-1.6V32c0,0.7,0.3,1,0.8,1c0.2,0,0.5-0.1,0.6-0.1l0.3,1.4
			c-0.3,0.1-0.8,0.2-1.5,0.2C71.9,34.6,71.2,33.6,71.2,32.1z"/>
		<path d="M75.7,32.6c0-1.4,1.1-2.1,3.7-2.4c0-0.6-0.3-0.9-1-0.9c-0.5,0-1.1,0.2-1.7,0.6l-0.7-1.3c0.8-0.5,1.8-0.9,2.8-0.9
			c1.7,0,2.6,1,2.6,3v3.7h-1.6l-0.1-0.7h0c-0.6,0.5-1.2,0.8-1.9,0.8C76.5,34.6,75.7,33.7,75.7,32.6z M79.4,32.5v-1.1
			c-1.4,0.2-1.8,0.6-1.8,1.1c0,0.4,0.3,0.6,0.8,0.6C78.8,33.1,79.1,32.9,79.4,32.5z"/>
		<path d="M83.2,32.1v-2.6h-0.9V28l1-0.1l0.2-1.7h1.6v1.7h1.6v1.5h-1.6V32c0,0.7,0.3,1,0.8,1c0.2,0,0.5-0.1,0.6-0.1l0.3,1.4
			c-0.3,0.1-0.8,0.2-1.5,0.2C83.9,34.6,83.2,33.6,83.2,32.1z"/>
		<path d="M87.7,31.2c0-2.1,1.5-3.4,3.1-3.4c1.9,0,2.8,1.4,2.8,3.1c0,0.3,0,0.7-0.1,0.9h-3.9c0.2,0.9,0.8,1.4,1.7,1.4
			c0.5,0,0.9-0.2,1.4-0.4l0.6,1.2c-0.7,0.5-1.5,0.7-2.3,0.7C89.1,34.6,87.7,33.3,87.7,31.2z M91.9,30.5c0-0.7-0.3-1.2-1.1-1.2
			c-0.6,0-1.1,0.4-1.3,1.2H91.9z"/>
		<path d="M94.3,33.7l0.9-1.2c0.6,0.4,1.1,0.7,1.7,0.7c0.6,0,0.8-0.2,0.8-0.6c0-0.4-0.6-0.6-1.3-0.9c-0.8-0.3-1.7-0.8-1.7-1.9
			c0-1.2,1-2,2.5-2c1,0,1.8,0.4,2.3,0.8l-0.9,1.2c-0.5-0.3-0.9-0.6-1.4-0.6c-0.5,0-0.7,0.2-0.7,0.5c0,0.4,0.6,0.6,1.3,0.8
			c0.8,0.3,1.8,0.8,1.8,2c0,1.2-0.9,2.1-2.7,2.1C95.9,34.6,95,34.2,94.3,33.7z"/>
		<path d="M103.4,25.2h1.9v2.3l-0.1,1.2c0.5-0.4,1.1-0.9,2-0.9c1.4,0,2,1,2,2.6v4.1h-1.9v-3.8c0-0.9-0.3-1.2-0.8-1.2
			c-0.5,0-0.8,0.2-1.2,0.6v4.4h-1.9V25.2z"/>
		<path d="M110.6,32.6c0-1.4,1.1-2.1,3.7-2.4c0-0.6-0.3-0.9-1-0.9c-0.5,0-1.1,0.2-1.7,0.6l-0.7-1.3c0.8-0.5,1.8-0.9,2.8-0.9
			c1.7,0,2.6,1,2.6,3v3.7h-1.6l-0.1-0.7h0c-0.6,0.5-1.2,0.8-1.9,0.8C111.3,34.6,110.6,33.7,110.6,32.6z M114.3,32.5v-1.1
			c-1.4,0.2-1.8,0.6-1.8,1.1c0,0.4,0.3,0.6,0.8,0.6C113.6,33.1,113.9,32.9,114.3,32.5z"/>
		<path d="M117.2,27.9h1.9L120,31c0.2,0.7,0.3,1.3,0.5,2h0.1c0.2-0.7,0.3-1.4,0.5-2l0.9-3.1h1.9l-2.1,6.5h-2.2L117.2,27.9z"/>
		<path d="M124.4,31.2c0-2.1,1.5-3.4,3.1-3.4c1.9,0,2.8,1.4,2.8,3.1c0,0.3,0,0.7-0.1,0.9h-3.9c0.2,0.9,0.8,1.4,1.7,1.4
			c0.5,0,0.9-0.2,1.4-0.4l0.6,1.2c-0.7,0.5-1.5,0.7-2.3,0.7C125.8,34.6,124.4,33.3,124.4,31.2z M128.6,30.5c0-0.7-0.3-1.2-1.1-1.2
			c-0.6,0-1.1,0.4-1.3,1.2H128.6z"/>
		<path d="M133.9,32.6c0-1.4,1.1-2.1,3.7-2.4c0-0.6-0.3-0.9-1-0.9c-0.5,0-1.1,0.2-1.7,0.6l-0.7-1.3c0.8-0.5,1.8-0.9,2.8-0.9
			c1.7,0,2.6,1,2.6,3v3.7H138l-0.1-0.7h0c-0.6,0.5-1.2,0.8-1.9,0.8C134.7,34.6,133.9,33.7,133.9,32.6z M137.6,32.5v-1.1
			c-1.4,0.2-1.8,0.6-1.8,1.1c0,0.4,0.3,0.6,0.8,0.6C137,33.1,137.3,32.9,137.6,32.5z"/>
		<path d="M140.8,31.2c0-2.1,1.3-3.4,2.7-3.4c0.7,0,1.2,0.3,1.6,0.7l-0.1-1v-2.2h1.9v9.2h-1.6l-0.1-0.6h0c-0.5,0.5-1.1,0.8-1.7,0.8
			C141.9,34.6,140.8,33.3,140.8,31.2z M145.1,32.4v-2.7c-0.3-0.3-0.7-0.4-1.1-0.4c-0.6,0-1.2,0.6-1.2,1.8c0,1.3,0.4,1.9,1.2,1.9
			C144.4,33,144.8,32.9,145.1,32.4z"/>
		<path d="M148.4,31.2c0-2.2,1.5-3.4,3.2-3.4c1.7,0,3.2,1.3,3.2,3.4c0,2.2-1.5,3.4-3.2,3.4C149.9,34.6,148.4,33.3,148.4,31.2z
			 M152.8,31.2c0-1.1-0.4-1.9-1.2-1.9c-0.8,0-1.2,0.7-1.2,1.9c0,1.1,0.4,1.9,1.2,1.9C152.4,33,152.8,32.3,152.8,31.2z"/>
		<path d="M156.1,27.9h1.6l0.1,0.6h0c0.5-0.5,1.2-0.8,1.9-0.8c1.6,0,2.6,1.3,2.6,3.3c0,2.2-1.3,3.5-2.8,3.5c-0.6,0-1.1-0.2-1.6-0.7
			l0.1,1v1.9h-1.9V27.9z M160.3,31.1c0-1.2-0.4-1.8-1.1-1.8c-0.4,0-0.7,0.2-1.1,0.6v2.7c0.4,0.3,0.7,0.4,1,0.4
			C159.7,33,160.3,32.4,160.3,31.1z"/>
		<path d="M163.9,32.1v-2.6H163V28l1-0.1l0.2-1.7h1.6v1.7h1.6v1.5h-1.6V32c0,0.7,0.3,1,0.8,1c0.2,0,0.5-0.1,0.6-0.1l0.3,1.4
			c-0.3,0.1-0.8,0.2-1.5,0.2C164.5,34.6,163.9,33.6,163.9,32.1z"/>
		<path d="M168.3,31.2c0-2.1,1.5-3.4,3.1-3.4c1.9,0,2.8,1.4,2.8,3.1c0,0.3,0,0.7-0.1,0.9h-3.9c0.2,0.9,0.8,1.4,1.7,1.4
			c0.5,0,0.9-0.2,1.4-0.4l0.6,1.2c-0.7,0.5-1.5,0.7-2.3,0.7C169.8,34.6,168.3,33.3,168.3,31.2z M172.5,30.5c0-0.7-0.3-1.2-1.1-1.2
			c-0.6,0-1.1,0.4-1.3,1.2H172.5z"/>
		<path d="M175.2,31.2c0-2.1,1.3-3.4,2.7-3.4c0.7,0,1.2,0.3,1.6,0.7l-0.1-1v-2.2h1.9v9.2h-1.6l-0.1-0.6h0c-0.5,0.5-1.1,0.8-1.7,0.8
			C176.2,34.6,175.2,33.3,175.2,31.2z M179.4,32.4v-2.7c-0.3-0.3-0.7-0.4-1.1-0.4c-0.6,0-1.2,0.6-1.2,1.8c0,1.3,0.4,1.9,1.2,1.9
			C178.8,33,179.1,32.9,179.4,32.4z"/>
		<path d="M185.4,31.2c0-2.2,1.5-3.4,3.2-3.4s3.2,1.3,3.2,3.4c0,2.2-1.5,3.4-3.2,3.4S185.4,33.3,185.4,31.2z M189.7,31.2
			c0-1.1-0.4-1.9-1.2-1.9s-1.2,0.7-1.2,1.9c0,1.1,0.4,1.9,1.2,1.9S189.7,32.3,189.7,31.2z"/>
		<path d="M193.1,27.9h1.6l0.1,1.1h0c0.5-0.9,1.2-1.3,1.9-1.3c0.4,0,0.6,0,0.8,0.1l-0.3,1.7c-0.2-0.1-0.4-0.1-0.7-0.1
			c-0.5,0-1.1,0.3-1.4,1.2v3.8h-1.9V27.9z"/>
		<path d="M200.6,31.2c0-2.1,1.5-3.4,3.1-3.4c1.9,0,2.8,1.4,2.8,3.1c0,0.3,0,0.7-0.1,0.9h-3.9c0.2,0.9,0.8,1.4,1.7,1.4
			c0.5,0,0.9-0.2,1.4-0.4l0.6,1.2c-0.7,0.5-1.5,0.7-2.3,0.7C202,34.6,200.6,33.3,200.6,31.2z M204.8,30.5c0-0.7-0.3-1.2-1.1-1.2
			c-0.6,0-1.1,0.4-1.3,1.2H204.8z"/>
		<path d="M207.8,27.9h1.6l0.1,0.8h0c0.6-0.5,1.2-1,2.1-1c1.4,0,2,1,2,2.6v4.1h-1.9v-3.8c0-0.9-0.3-1.2-0.8-1.2
			c-0.5,0-0.8,0.2-1.2,0.6v4.4h-1.9V27.9z"/>
		<path d="M215,32.6c0-1.4,1.1-2.1,3.7-2.4c0-0.6-0.3-0.9-1-0.9c-0.5,0-1.1,0.2-1.7,0.6l-0.7-1.3c0.8-0.5,1.8-0.9,2.8-0.9
			c1.7,0,2.6,1,2.6,3v3.7h-1.6l-0.1-0.7h0c-0.6,0.5-1.2,0.8-1.9,0.8C215.8,34.6,215,33.7,215,32.6z M218.7,32.5v-1.1
			c-1.4,0.2-1.8,0.6-1.8,1.1c0,0.4,0.3,0.6,0.8,0.6C218.1,33.1,218.4,32.9,218.7,32.5z"/>
		<path d="M221.9,31.2c0-2.2,1.6-3.4,3.4-3.4c0.8,0,1.4,0.3,1.9,0.7l-0.9,1.2c-0.3-0.3-0.6-0.4-0.9-0.4c-0.9,0-1.5,0.7-1.5,1.9
			c0,1.1,0.6,1.9,1.5,1.9c0.4,0,0.8-0.2,1.2-0.5l0.8,1.3c-0.6,0.6-1.4,0.8-2.2,0.8C223.3,34.6,221.9,33.3,221.9,31.2z"/>
		<path d="M228.7,32.1v-2.6h-0.9V28l1-0.1l0.2-1.7h1.6v1.7h1.6v1.5h-1.6V32c0,0.7,0.3,1,0.8,1c0.2,0,0.5-0.1,0.6-0.1l0.3,1.4
			c-0.3,0.1-0.8,0.2-1.5,0.2C229.4,34.6,228.7,33.6,228.7,32.1z"/>
		<path d="M233.1,31.2c0-2.1,1.5-3.4,3.1-3.4c1.9,0,2.8,1.4,2.8,3.1c0,0.3,0,0.7-0.1,0.9H235c0.2,0.9,0.8,1.4,1.7,1.4
			c0.5,0,0.9-0.2,1.4-0.4l0.6,1.2c-0.7,0.5-1.5,0.7-2.3,0.7C234.6,34.6,233.1,33.3,233.1,31.2z M237.4,30.5c0-0.7-0.3-1.2-1.1-1.2
			c-0.6,0-1.1,0.4-1.3,1.2H237.4z"/>
		<path d="M240,31.2c0-2.1,1.3-3.4,2.7-3.4c0.7,0,1.2,0.3,1.6,0.7l-0.1-1v-2.2h1.9v9.2h-1.6l-0.1-0.6h0c-0.5,0.5-1.1,0.8-1.7,0.8
			C241.1,34.6,240,33.3,240,31.2z M244.3,32.4v-2.7c-0.3-0.3-0.7-0.4-1.1-0.4c-0.6,0-1.2,0.6-1.2,1.8c0,1.3,0.4,1.9,1.2,1.9
			C243.6,33,244,32.9,244.3,32.4z"/>
		<path d="M250.6,32.4v-7.2h1.9v7.3c0,0.4,0.2,0.5,0.4,0.5c0.1,0,0.1,0,0.2,0l0.2,1.4c-0.2,0.1-0.5,0.2-1,0.2
			C251,34.6,250.6,33.7,250.6,32.4z"/>
		<path d="M254,31.2c0-2.1,1.5-3.4,3.1-3.4c1.9,0,2.8,1.4,2.8,3.1c0,0.3,0,0.7-0.1,0.9h-3.9c0.2,0.9,0.8,1.4,1.7,1.4
			c0.5,0,0.9-0.2,1.4-0.4l0.6,1.2c-0.7,0.5-1.5,0.7-2.3,0.7C255.4,34.6,254,33.3,254,31.2z M258.2,30.5c0-0.7-0.3-1.2-1.1-1.2
			c-0.6,0-1.1,0.4-1.3,1.2H258.2z"/>
		<path d="M260.8,35.6c0-0.5,0.3-1,0.9-1.3v-0.1c-0.3-0.2-0.6-0.6-0.6-1.1c0-0.5,0.3-0.9,0.7-1.2v-0.1c-0.5-0.3-0.9-0.9-0.9-1.7
			c0-1.6,1.3-2.4,2.7-2.4c0.4,0,0.7,0.1,1,0.2h2.4v1.4H266c0.1,0.2,0.2,0.5,0.2,0.9c0,1.5-1.1,2.2-2.6,2.2c-0.2,0-0.5,0-0.8-0.1
			c-0.2,0.1-0.2,0.3-0.2,0.5c0,0.3,0.3,0.5,1,0.5h1.1c1.6,0,2.5,0.5,2.5,1.7c0,1.4-1.4,2.4-3.7,2.4C262,37.2,260.8,36.7,260.8,35.6z
			 M265.3,35.2c0-0.4-0.4-0.5-1-0.5h-0.7c-0.4,0-0.7,0-0.9-0.1c-0.2,0.2-0.4,0.4-0.4,0.6c0,0.5,0.6,0.8,1.5,0.8
			C264.7,36,265.3,35.7,265.3,35.2z M264.6,30.1c0-0.7-0.4-1.1-0.9-1.1c-0.5,0-0.9,0.4-0.9,1.1c0,0.7,0.4,1.1,0.9,1.1
			S264.6,30.8,264.6,30.1z"/>
		<path d="M268.1,25.9c0-0.6,0.5-1,1.1-1c0.7,0,1.1,0.4,1.1,1c0,0.6-0.5,1-1.1,1C268.5,26.9,268.1,26.5,268.1,25.9z M268.2,27.9h1.9
			v6.5h-1.9V27.9z"/>
		<path d="M271.3,33.7l0.9-1.2c0.6,0.4,1.1,0.7,1.7,0.7c0.6,0,0.8-0.2,0.8-0.6c0-0.4-0.6-0.6-1.3-0.9c-0.8-0.3-1.7-0.8-1.7-1.9
			c0-1.2,1-2,2.5-2c1,0,1.8,0.4,2.3,0.8l-0.9,1.2c-0.5-0.3-0.9-0.6-1.4-0.6c-0.5,0-0.7,0.2-0.7,0.5c0,0.4,0.6,0.6,1.3,0.8
			c0.8,0.3,1.8,0.8,1.8,2c0,1.2-0.9,2.1-2.7,2.1C272.9,34.6,271.9,34.2,271.3,33.7z"/>
		<path d="M277.7,32.4v-7.2h1.9v7.3c0,0.4,0.2,0.5,0.4,0.5c0.1,0,0.1,0,0.2,0l0.2,1.4c-0.2,0.1-0.5,0.2-1,0.2
			C278.2,34.6,277.7,33.7,277.7,32.4z"/>
		<path d="M281.2,32.6c0-1.4,1.1-2.1,3.7-2.4c0-0.6-0.3-0.9-1-0.9c-0.5,0-1.1,0.2-1.7,0.6l-0.7-1.3c0.8-0.5,1.8-0.9,2.8-0.9
			c1.7,0,2.6,1,2.6,3v3.7h-1.6l-0.1-0.7h0c-0.6,0.5-1.2,0.8-1.9,0.8C281.9,34.6,281.2,33.7,281.2,32.6z M284.9,32.5v-1.1
			c-1.4,0.2-1.8,0.6-1.8,1.1c0,0.4,0.3,0.6,0.8,0.6C284.2,33.1,284.5,32.9,284.9,32.5z"/>
		<path d="M288.7,32.1v-2.6h-0.9V28l1-0.1l0.2-1.7h1.6v1.7h1.6v1.5h-1.6V32c0,0.7,0.3,1,0.8,1c0.2,0,0.5-0.1,0.6-0.1l0.3,1.4
			c-0.3,0.1-0.8,0.2-1.5,0.2C289.3,34.6,288.7,33.6,288.7,32.1z"/>
		<path d="M293.3,25.9c0-0.6,0.5-1,1.1-1c0.7,0,1.1,0.4,1.1,1c0,0.6-0.5,1-1.1,1C293.8,26.9,293.3,26.5,293.3,25.9z M293.5,27.9h1.9
			v6.5h-1.9V27.9z"/>
		<path d="M296.8,31.2c0-2.2,1.5-3.4,3.2-3.4s3.2,1.3,3.2,3.4c0,2.2-1.5,3.4-3.2,3.4S296.8,33.3,296.8,31.2z M301.2,31.2
			c0-1.1-0.4-1.9-1.2-1.9s-1.2,0.7-1.2,1.9c0,1.1,0.4,1.9,1.2,1.9S301.2,32.3,301.2,31.2z"/>
		<path d="M304.5,27.9h1.6l0.1,0.8h0c0.6-0.5,1.2-1,2.1-1c1.4,0,2,1,2,2.6v4.1h-1.9v-3.8c0-0.9-0.3-1.2-0.8-1.2
			c-0.5,0-0.8,0.2-1.2,0.6v4.4h-1.9V27.9z"/>
		<path d="M314.3,31.2c0-2.2,1.5-3.4,3.2-3.4c1.7,0,3.2,1.3,3.2,3.4c0,2.2-1.5,3.4-3.2,3.4C315.8,34.6,314.3,33.3,314.3,31.2z
			 M318.7,31.2c0-1.1-0.4-1.9-1.2-1.9c-0.8,0-1.2,0.7-1.2,1.9c0,1.1,0.4,1.9,1.2,1.9C318.3,33,318.7,32.3,318.7,31.2z"/>
		<path d="M322,27.9h1.6l0.1,0.8h0c0.6-0.5,1.2-1,2.1-1c1.4,0,2,1,2,2.6v4.1H326v-3.8c0-0.9-0.3-1.2-0.8-1.2c-0.5,0-0.8,0.2-1.2,0.6
			v4.4H322V27.9z"/>
		<path d="M332.3,25.8h2.4c2.6,0,4.3,1.3,4.3,4.3c0,3-1.7,4.3-4.2,4.3h-2.5V25.8z M334.7,32.9c1.5,0,2.4-0.7,2.4-2.8
			c0-2.1-1-2.7-2.4-2.7h-0.4v5.5H334.7z"/>
		<path d="M340.3,32.6c0-1.4,1.1-2.1,3.7-2.4c0-0.6-0.3-0.9-1-0.9c-0.5,0-1.1,0.2-1.7,0.6l-0.7-1.3c0.8-0.5,1.8-0.9,2.8-0.9
			c1.7,0,2.6,1,2.6,3v3.7h-1.6l-0.1-0.7h0c-0.6,0.5-1.2,0.8-1.9,0.8C341,34.6,340.3,33.7,340.3,32.6z M343.9,32.5v-1.1
			c-1.4,0.2-1.8,0.6-1.8,1.1c0,0.4,0.3,0.6,0.8,0.6C343.3,33.1,343.6,32.9,343.9,32.5z"/>
		<path d="M347.3,36.9l0.3-1.5c0.1,0,0.3,0.1,0.4,0.1c0.6,0,1-0.4,1.1-0.9l0.1-0.3l-2.5-6.4h1.9l0.9,2.8c0.2,0.6,0.3,1.2,0.5,1.9
			h0.1c0.1-0.6,0.3-1.2,0.5-1.9l0.8-2.8h1.9l-2.3,6.6c-0.6,1.6-1.3,2.5-2.9,2.5C347.8,37,347.6,36.9,347.3,36.9z"/>
		<path d="M354.4,32.4v-7.2h1.9v7.3c0,0.4,0.2,0.5,0.4,0.5c0.1,0,0.1,0,0.2,0l0.2,1.4c-0.2,0.1-0.5,0.2-1,0.2
			C354.8,34.6,354.4,33.7,354.4,32.4z"/>
		<path d="M358,25.9c0-0.6,0.5-1,1.1-1c0.7,0,1.1,0.4,1.1,1c0,0.6-0.5,1-1.1,1C358.5,26.9,358,26.5,358,25.9z M358.2,27.9h1.9v6.5
			h-1.9V27.9z"/>
		<path d="M361.4,35.6c0-0.5,0.3-1,0.9-1.3v-0.1c-0.3-0.2-0.6-0.6-0.6-1.1c0-0.5,0.3-0.9,0.7-1.2v-0.1c-0.5-0.3-0.9-0.9-0.9-1.7
			c0-1.6,1.3-2.4,2.7-2.4c0.4,0,0.7,0.1,1,0.2h2.4v1.4h-1.1c0.1,0.2,0.2,0.5,0.2,0.9c0,1.5-1.1,2.2-2.6,2.2c-0.2,0-0.5,0-0.8-0.1
			c-0.2,0.1-0.2,0.3-0.2,0.5c0,0.3,0.3,0.5,1,0.5h1.1c1.6,0,2.5,0.5,2.5,1.7c0,1.4-1.4,2.4-3.7,2.4
			C362.6,37.2,361.4,36.7,361.4,35.6z M366,35.2c0-0.4-0.4-0.5-1-0.5h-0.7c-0.4,0-0.7,0-0.9-0.1c-0.2,0.2-0.4,0.4-0.4,0.6
			c0,0.5,0.6,0.8,1.5,0.8C365.3,36,366,35.7,366,35.2z M365.2,30.1c0-0.7-0.4-1.1-0.9-1.1c-0.5,0-0.9,0.4-0.9,1.1
			c0,0.7,0.4,1.1,0.9,1.1S365.2,30.8,365.2,30.1z"/>
		<path d="M368.9,25.2h1.9v2.3l-0.1,1.2c0.5-0.4,1.1-0.9,2-0.9c1.4,0,2,1,2,2.6v4.1h-1.9v-3.8c0-0.9-0.3-1.2-0.8-1.2
			c-0.5,0-0.8,0.2-1.2,0.6v4.4h-1.9V25.2z"/>
		<path d="M376.7,32.1v-2.6h-0.9V28l1-0.1l0.2-1.7h1.6v1.7h1.6v1.5h-1.6V32c0,0.7,0.3,1,0.8,1c0.2,0,0.5-0.1,0.6-0.1l0.3,1.4
			c-0.3,0.1-0.8,0.2-1.5,0.2C377.3,34.6,376.7,33.6,376.7,32.1z"/>
		<path d="M383.7,33.4l1.1-1.3c0.6,0.5,1.4,0.9,2.1,0.9c0.8,0,1.2-0.3,1.2-0.8c0-0.5-0.5-0.7-1.2-1l-1.1-0.5
			c-0.9-0.4-1.7-1.1-1.7-2.3c0-1.4,1.3-2.6,3.1-2.6c1,0,2,0.4,2.8,1.1l-1,1.2c-0.6-0.4-1.1-0.7-1.8-0.7c-0.7,0-1.1,0.3-1.1,0.8
			c0,0.5,0.6,0.7,1.3,1l1.1,0.4c1.1,0.4,1.7,1.1,1.7,2.3c0,1.4-1.2,2.7-3.2,2.7C385.8,34.6,384.6,34.2,383.7,33.4z"/>
		<path d="M391.1,32.6c0-1.4,1.1-2.1,3.7-2.4c0-0.6-0.3-0.9-1-0.9c-0.5,0-1.1,0.2-1.7,0.6l-0.7-1.3c0.8-0.5,1.8-0.9,2.8-0.9
			c1.7,0,2.6,1,2.6,3v3.7h-1.6l-0.1-0.7h0c-0.6,0.5-1.2,0.8-1.9,0.8C391.9,34.6,391.1,33.7,391.1,32.6z M394.8,32.5v-1.1
			c-1.4,0.2-1.8,0.6-1.8,1.1c0,0.4,0.3,0.6,0.8,0.6C394.2,33.1,394.5,32.9,394.8,32.5z"/>
		<path d="M397.7,27.9h1.9l0.9,3.1c0.2,0.7,0.3,1.3,0.5,2h0.1c0.2-0.7,0.3-1.4,0.5-2l0.9-3.1h1.9l-2.1,6.5h-2.2L397.7,27.9z"/>
		<path d="M405.1,25.9c0-0.6,0.5-1,1.1-1c0.7,0,1.1,0.4,1.1,1c0,0.6-0.5,1-1.1,1C405.6,26.9,405.1,26.5,405.1,25.9z M405.3,27.9h1.9
			v6.5h-1.9V27.9z"/>
		<path d="M408.9,27.9h1.6l0.1,0.8h0c0.6-0.5,1.2-1,2.1-1c1.4,0,2,1,2,2.6v4.1h-1.9v-3.8c0-0.9-0.3-1.2-0.8-1.2
			c-0.5,0-0.8,0.2-1.2,0.6v4.4h-1.9V27.9z"/>
		<path d="M416.1,35.6c0-0.5,0.3-1,0.9-1.3v-0.1c-0.3-0.2-0.6-0.6-0.6-1.1c0-0.5,0.3-0.9,0.7-1.2v-0.1c-0.5-0.3-0.9-0.9-0.9-1.7
			c0-1.6,1.3-2.4,2.7-2.4c0.4,0,0.7,0.1,1,0.2h2.4v1.4h-1.1c0.1,0.2,0.2,0.5,0.2,0.9c0,1.5-1.1,2.2-2.6,2.2c-0.2,0-0.5,0-0.8-0.1
			c-0.2,0.1-0.2,0.3-0.2,0.5c0,0.3,0.3,0.5,1,0.5h1.1c1.6,0,2.5,0.5,2.5,1.7c0,1.4-1.4,2.4-3.7,2.4
			C417.3,37.2,416.1,36.7,416.1,35.6z M420.6,35.2c0-0.4-0.4-0.5-1-0.5h-0.7c-0.4,0-0.7,0-0.9-0.1c-0.2,0.2-0.4,0.4-0.4,0.6
			c0,0.5,0.6,0.8,1.5,0.8C420,36,420.6,35.7,420.6,35.2z M419.9,30.1c0-0.7-0.4-1.1-0.9-1.1c-0.5,0-0.9,0.4-0.9,1.1
			c0,0.7,0.4,1.1,0.9,1.1S419.9,30.8,419.9,30.1z"/>
		<path d="M428,27.5h-2.4v-1.6h6.7v1.6H430v7H428V27.5z"/>
		<path d="M433.4,25.9c0-0.6,0.5-1,1.1-1c0.7,0,1.1,0.4,1.1,1c0,0.6-0.5,1-1.1,1C433.8,26.9,433.4,26.5,433.4,25.9z M433.5,27.9h1.9
			v6.5h-1.9V27.9z"/>
		<path d="M437.2,27.9h1.6l0.1,0.8h0c0.5-0.5,1.1-1,2-1c0.9,0,1.5,0.4,1.8,1.1c0.6-0.6,1.2-1.1,2.1-1.1c1.4,0,2,1,2,2.6v4.1h-1.9
			v-3.8c0-0.9-0.3-1.2-0.8-1.2c-0.3,0-0.7,0.2-1.1,0.6v4.4H441v-3.8c0-0.9-0.3-1.2-0.8-1.2c-0.3,0-0.7,0.2-1.1,0.6v4.4h-1.9V27.9z"
			/>
		<path d="M448.1,31.2c0-2.1,1.5-3.4,3.1-3.4c1.9,0,2.8,1.4,2.8,3.1c0,0.3,0,0.7-0.1,0.9H450c0.2,0.9,0.8,1.4,1.7,1.4
			c0.5,0,0.9-0.2,1.4-0.4l0.6,1.2c-0.7,0.5-1.5,0.7-2.3,0.7C449.5,34.6,448.1,33.3,448.1,31.2z M452.3,30.5c0-0.7-0.3-1.2-1.1-1.2
			c-0.6,0-1.1,0.4-1.3,1.2H452.3z"/>
		<path d="M48.2,47c0-2.2,1.5-3.4,3.2-3.4s3.2,1.3,3.2,3.4c0,2.2-1.5,3.4-3.2,3.4S48.2,49.2,48.2,47z M52.5,47
			c0-1.1-0.4-1.9-1.2-1.9s-1.2,0.7-1.2,1.9c0,1.1,0.4,1.9,1.2,1.9S52.5,48.1,52.5,47z"/>
		<path d="M55.2,43.7h2l0.9,3.1c0.2,0.7,0.3,1.3,0.5,2h0.1c0.2-0.7,0.3-1.4,0.5-2l0.9-3.1h1.9l-2.1,6.5h-2.2L55.2,43.7z"/>
		<path d="M62.4,47c0-2.1,1.5-3.4,3.1-3.4c1.9,0,2.8,1.4,2.8,3.1c0,0.3,0,0.7-0.1,0.9h-3.9c0.2,0.9,0.8,1.4,1.7,1.4
			c0.5,0,0.9-0.2,1.4-0.4l0.6,1.2c-0.7,0.5-1.5,0.7-2.3,0.7C63.8,50.4,62.4,49.2,62.4,47z M66.6,46.3c0-0.7-0.3-1.2-1.1-1.2
			c-0.6,0-1.1,0.4-1.3,1.2H66.6z"/>
		<path d="M69.6,43.7h1.6l0.1,1.1h0c0.5-0.9,1.2-1.3,1.9-1.3c0.4,0,0.6,0,0.8,0.1l-0.3,1.7c-0.2-0.1-0.4-0.1-0.7-0.1
			c-0.5,0-1.1,0.3-1.4,1.2v3.8h-1.9V43.7z"/>
		<path d="M77.8,47.9v-2.6h-0.9v-1.4l1-0.1l0.2-1.7h1.6v1.7h1.6v1.5h-1.6v2.6c0,0.7,0.3,1,0.8,1c0.2,0,0.5-0.1,0.6-0.1l0.3,1.4
			c-0.3,0.1-0.8,0.2-1.5,0.2C78.4,50.4,77.8,49.4,77.8,47.9z"/>
		<path d="M82.6,41h1.9v2.3l-0.1,1.2c0.5-0.4,1.1-0.9,2-0.9c1.4,0,2,1,2,2.6v4.1h-1.9v-3.8c0-0.9-0.3-1.2-0.8-1.2
			c-0.5,0-0.8,0.2-1.2,0.6v4.4h-1.9V41z"/>
		<path d="M89.7,47c0-2.1,1.5-3.4,3.1-3.4c1.9,0,2.8,1.4,2.8,3.1c0,0.3,0,0.7-0.1,0.9h-3.9c0.2,0.9,0.8,1.4,1.7,1.4
			c0.5,0,0.9-0.2,1.4-0.4l0.6,1.2c-0.7,0.5-1.5,0.7-2.3,0.7C91.2,50.4,89.7,49.2,89.7,47z M93.9,46.3c0-0.7-0.3-1.2-1.1-1.2
			c-0.6,0-1.1,0.4-1.3,1.2H93.9z"/>
		<path d="M99.6,43.7h1.6l0.1,0.6h0c0.5-0.5,1.2-0.8,1.9-0.8c1.6,0,2.6,1.3,2.6,3.3c0,2.2-1.3,3.5-2.8,3.5c-0.6,0-1.1-0.2-1.6-0.7
			l0.1,1v1.9h-1.9V43.7z M103.8,46.9c0-1.2-0.4-1.8-1.1-1.8c-0.4,0-0.7,0.2-1.1,0.6v2.7c0.4,0.3,0.7,0.4,1,0.4
			C103.2,48.9,103.8,48.3,103.8,46.9z"/>
		<path d="M106.8,48.5c0-1.4,1.1-2.1,3.7-2.4c0-0.6-0.3-0.9-1-0.9c-0.5,0-1.1,0.2-1.7,0.6l-0.7-1.3c0.8-0.5,1.8-0.9,2.8-0.9
			c1.7,0,2.6,1,2.6,3v3.7h-1.6l-0.1-0.7h0c-0.6,0.5-1.2,0.8-1.9,0.8C107.6,50.4,106.8,49.6,106.8,48.5z M110.5,48.4v-1.1
			c-1.4,0.2-1.8,0.6-1.8,1.1c0,0.4,0.3,0.6,0.8,0.6C109.9,48.9,110.2,48.7,110.5,48.4z"/>
		<path d="M113.5,49.5l0.9-1.2c0.6,0.4,1.1,0.7,1.7,0.7c0.6,0,0.8-0.2,0.8-0.6c0-0.4-0.6-0.6-1.3-0.9c-0.8-0.3-1.7-0.8-1.7-1.9
			c0-1.2,1-2,2.5-2c1,0,1.8,0.4,2.3,0.8l-0.9,1.2c-0.5-0.3-0.9-0.6-1.4-0.6c-0.5,0-0.7,0.2-0.7,0.5c0,0.4,0.6,0.6,1.3,0.8
			c0.8,0.3,1.8,0.8,1.8,2c0,1.2-0.9,2.1-2.7,2.1C115.2,50.4,114.2,50.1,113.5,49.5z"/>
		<path d="M120.2,47.9v-2.6h-0.9v-1.4l1-0.1l0.2-1.7h1.6v1.7h1.6v1.5h-1.6v2.6c0,0.7,0.3,1,0.8,1c0.2,0,0.5-0.1,0.6-0.1l0.3,1.4
			c-0.3,0.1-0.8,0.2-1.5,0.2C120.8,50.4,120.2,49.4,120.2,47.9z"/>
		<path d="M127.9,47.9v-2.6H127v-1.4l1-0.1l0.2-1.7h1.6v1.7h1.6v1.5h-1.6v2.6c0,0.7,0.3,1,0.8,1c0.2,0,0.5-0.1,0.6-0.1l0.3,1.4
			c-0.3,0.1-0.8,0.2-1.5,0.2C128.5,50.4,127.9,49.4,127.9,47.9z"/>
		<path d="M132.1,43.7h1.9l0.6,3c0.1,0.6,0.2,1.3,0.3,1.9h0.1c0.1-0.7,0.2-1.3,0.4-1.9l0.7-3h1.7l0.7,3c0.2,0.6,0.3,1.3,0.4,1.9h0.1
			c0.1-0.7,0.2-1.3,0.3-1.9l0.6-3h1.8l-1.6,6.5h-2.3l-0.6-2.6c-0.1-0.6-0.2-1.2-0.3-1.9h-0.1c-0.1,0.7-0.2,1.3-0.3,1.9l-0.6,2.6
			h-2.2L132.1,43.7z"/>
		<path d="M142.5,47c0-2.2,1.5-3.4,3.2-3.4c1.7,0,3.2,1.3,3.2,3.4c0,2.2-1.5,3.4-3.2,3.4C144.1,50.4,142.5,49.2,142.5,47z M146.9,47
			c0-1.1-0.4-1.9-1.2-1.9c-0.8,0-1.2,0.7-1.2,1.9c0,1.1,0.4,1.9,1.2,1.9C146.5,48.9,146.9,48.1,146.9,47z"/>
		<path d="M152.7,52.7l0.3-1.5c0.1,0,0.3,0.1,0.4,0.1c0.6,0,1-0.4,1.1-0.9l0.1-0.3l-2.5-6.4h2l0.9,2.8c0.2,0.6,0.3,1.2,0.5,1.9h0.1
			c0.1-0.6,0.3-1.2,0.5-1.9l0.8-2.8h1.9l-2.3,6.6c-0.6,1.6-1.3,2.5-2.9,2.5C153.2,52.8,153,52.8,152.7,52.7z"/>
		<path d="M159.4,47c0-2.1,1.5-3.4,3.1-3.4c1.9,0,2.8,1.4,2.8,3.1c0,0.3,0,0.7-0.1,0.9h-3.9c0.2,0.9,0.8,1.4,1.7,1.4
			c0.5,0,0.9-0.2,1.4-0.4l0.6,1.2c-0.7,0.5-1.5,0.7-2.3,0.7C160.8,50.4,159.4,49.2,159.4,47z M163.6,46.3c0-0.7-0.3-1.2-1.1-1.2
			c-0.6,0-1.1,0.4-1.3,1.2H163.6z"/>
		<path d="M166.3,48.5c0-1.4,1.1-2.1,3.7-2.4c0-0.6-0.3-0.9-1-0.9c-0.5,0-1.1,0.2-1.7,0.6l-0.7-1.3c0.8-0.5,1.8-0.9,2.8-0.9
			c1.7,0,2.6,1,2.6,3v3.7h-1.6l-0.1-0.7h0c-0.6,0.5-1.2,0.8-1.9,0.8C167.1,50.4,166.3,49.6,166.3,48.5z M170,48.4v-1.1
			c-1.4,0.2-1.8,0.6-1.8,1.1c0,0.4,0.3,0.6,0.8,0.6C169.4,48.9,169.7,48.7,170,48.4z"/>
		<path d="M173.6,43.7h1.6l0.1,1.1h0c0.5-0.9,1.2-1.3,1.9-1.3c0.4,0,0.6,0,0.8,0.1l-0.3,1.7c-0.2-0.1-0.4-0.1-0.7-0.1
			c-0.5,0-1.1,0.3-1.4,1.2v3.8h-1.9V43.7z"/>
		<path d="M178.2,49.5l0.9-1.2c0.6,0.4,1.1,0.7,1.7,0.7c0.6,0,0.8-0.2,0.8-0.6c0-0.4-0.6-0.6-1.3-0.9c-0.8-0.3-1.7-0.8-1.7-1.9
			c0-1.2,1-2,2.5-2c1,0,1.8,0.4,2.3,0.8l-0.9,1.2c-0.5-0.3-0.9-0.6-1.4-0.6c-0.5,0-0.7,0.2-0.7,0.5c0,0.4,0.6,0.6,1.3,0.8
			c0.8,0.3,1.8,0.8,1.8,2c0,1.2-0.9,2.1-2.7,2.1C179.9,50.4,178.9,50.1,178.2,49.5z"/>
	</g>
</g>
<g>
	<g>
		<path d="M52.9,63.9h0.5l2.6,7.2h-0.5L54,66.9c-0.3-0.9-0.6-1.6-0.8-2.5h0c-0.3,0.9-0.5,1.6-0.8,2.5l-1.5,4.3h-0.5L52.9,63.9z
			 M51.5,68.2h3.3v0.4h-3.3V68.2z"/>
		<path d="M57,70.4v-7.2h0.5v7.3c0,0.2,0.1,0.3,0.2,0.3c0,0,0.1,0,0.2,0l0.1,0.4c-0.1,0-0.2,0.1-0.3,0.1C57.3,71.3,57,71,57,70.4z"
			/>
		<path d="M59.7,70.4v-7.2h0.5v7.3c0,0.2,0.1,0.3,0.2,0.3c0,0,0.1,0,0.2,0l0.1,0.4c-0.1,0-0.2,0.1-0.3,0.1
			C59.9,71.3,59.7,71,59.7,70.4z"/>
		<path d="M63.8,70.5l0.3-0.4c0.4,0.4,0.9,0.7,1.7,0.7c0.8,0,1.3-0.5,1.3-1c0-0.7-0.7-1-1.3-1.2C64.9,68.3,64,68,64,67.1
			c0-0.8,0.6-1.4,1.7-1.4c0.6,0,1.1,0.2,1.5,0.5L67,66.6c-0.4-0.3-0.7-0.5-1.3-0.5c-0.8,0-1.2,0.5-1.2,1c0,0.6,0.6,0.8,1.3,1.1
			c0.8,0.3,1.7,0.6,1.7,1.6c0,0.8-0.6,1.5-1.8,1.5C65,71.3,64.3,70.9,63.8,70.5z"/>
		<path d="M68.8,69.2v-3.4h0.5v3.3c0,1.1,0.4,1.7,1.2,1.7c0.6,0,1.1-0.3,1.7-1.1v-3.9h0.5v5.3h-0.4l-0.1-0.9h0c-0.5,0.6-1.1,1-1.8,1
			C69.3,71.3,68.8,70.6,68.8,69.2z"/>
		<path d="M74.3,68.5c0-1.8,1.1-2.8,2.4-2.8c0.7,0,1.2,0.3,1.5,0.7L78,66.7c-0.3-0.3-0.7-0.6-1.2-0.6c-1.1,0-1.9,1-1.9,2.4
			s0.8,2.3,1.9,2.3c0.6,0,1.1-0.3,1.4-0.6l0.3,0.3c-0.5,0.4-1,0.7-1.7,0.7C75.3,71.3,74.3,70.2,74.3,68.5z"/>
		<path d="M79.2,68.5c0-1.8,1.1-2.8,2.4-2.8c0.7,0,1.2,0.3,1.5,0.7l-0.3,0.3c-0.3-0.3-0.7-0.6-1.2-0.6c-1.1,0-1.9,1-1.9,2.4
			s0.8,2.3,1.9,2.3c0.6,0,1.1-0.3,1.4-0.6l0.3,0.3c-0.5,0.4-1,0.7-1.7,0.7C80.3,71.3,79.2,70.2,79.2,68.5z"/>
		<path d="M84.2,68.5c0-1.7,1.1-2.8,2.3-2.8c1.3,0,2,0.9,2,2.4c0,0.1,0,0.3,0,0.4h-3.8c0,1.3,0.8,2.3,2,2.3c0.6,0,1-0.2,1.4-0.5
			l0.2,0.4c-0.4,0.3-0.9,0.5-1.7,0.5C85.3,71.3,84.2,70.2,84.2,68.5z M88,68.2c0-1.3-0.6-2-1.6-2c-0.9,0-1.7,0.8-1.8,2H88z"/>
		<path d="M89.3,70.5l0.3-0.4c0.4,0.4,0.9,0.7,1.7,0.7c0.8,0,1.3-0.5,1.3-1c0-0.7-0.7-1-1.3-1.2c-0.8-0.3-1.7-0.6-1.7-1.5
			c0-0.8,0.6-1.4,1.7-1.4c0.6,0,1.1,0.2,1.5,0.5l-0.3,0.4c-0.4-0.3-0.7-0.5-1.3-0.5c-0.8,0-1.2,0.5-1.2,1c0,0.6,0.6,0.8,1.3,1.1
			c0.8,0.3,1.7,0.6,1.7,1.6c0,0.8-0.6,1.5-1.8,1.5C90.4,71.3,89.7,70.9,89.3,70.5z"/>
		<path d="M93.7,70.5l0.3-0.4c0.4,0.4,0.9,0.7,1.7,0.7c0.8,0,1.3-0.5,1.3-1c0-0.7-0.7-1-1.3-1.2C94.9,68.3,94,68,94,67.1
			c0-0.8,0.6-1.4,1.7-1.4c0.6,0,1.1,0.2,1.5,0.5l-0.3,0.4c-0.4-0.3-0.7-0.5-1.3-0.5c-0.8,0-1.2,0.5-1.2,1c0,0.6,0.6,0.8,1.3,1.1
			c0.8,0.3,1.7,0.6,1.7,1.6c0,0.8-0.6,1.5-1.8,1.5C94.9,71.3,94.2,70.9,93.7,70.5z"/>
		<path d="M98.2,65.9l0.7,0h1.7v0.4h-2.4V65.9z M98.9,64.7c0-1,0.5-1.6,1.3-1.6c0.2,0,0.5,0.1,0.8,0.2l-0.1,0.4
			c-0.2-0.1-0.4-0.1-0.6-0.1c-0.6,0-0.8,0.4-0.8,1.2v6.4h-0.5V64.7z"/>
		<path d="M101.6,69.2v-3.4h0.5v3.3c0,1.1,0.4,1.7,1.2,1.7c0.6,0,1.1-0.3,1.7-1.1v-3.9h0.5v5.3h-0.4l-0.1-0.9h0
			c-0.5,0.6-1.1,1-1.8,1C102.1,71.3,101.6,70.6,101.6,69.2z"/>
		<path d="M107.5,70.4v-7.2h0.5v7.3c0,0.2,0.1,0.3,0.2,0.3c0,0,0.1,0,0.2,0l0.1,0.4c-0.1,0-0.2,0.1-0.3,0.1
			C107.8,71.3,107.5,71,107.5,70.4z"/>
		<path d="M112.8,70.6L112.8,70.6l-0.1,0.5h-0.4v-7.9h0.5v2.3l0,1c0.5-0.5,1.2-0.8,1.8-0.8c1.4,0,2.1,1.1,2.1,2.7
			c0,1.8-1.1,2.9-2.3,2.9C113.9,71.3,113.3,71,112.8,70.6z M116.2,68.4c0-1.3-0.5-2.3-1.7-2.3c-0.5,0-1.1,0.3-1.7,0.9v3.1
			c0.6,0.5,1.2,0.7,1.6,0.7C115.5,70.8,116.2,69.8,116.2,68.4z"/>
		<path d="M118.1,64.1c0-0.3,0.2-0.4,0.4-0.4c0.2,0,0.4,0.2,0.4,0.4c0,0.3-0.2,0.4-0.4,0.4C118.3,64.6,118.1,64.4,118.1,64.1z
			 M118.3,65.8h0.5v5.3h-0.5V65.8z"/>
		<path d="M120.8,70.4v-7.2h0.5v7.3c0,0.2,0.1,0.3,0.2,0.3c0,0,0.1,0,0.2,0l0.1,0.4c-0.1,0-0.2,0.1-0.3,0.1
			C121.1,71.3,120.8,71,120.8,70.4z"/>
		<path d="M123.4,70.4v-7.2h0.5v7.3c0,0.2,0.1,0.3,0.2,0.3c0,0,0.1,0,0.2,0l0.1,0.4c-0.1,0-0.2,0.1-0.3,0.1
			C123.7,71.3,123.4,71,123.4,70.4z"/>
		<path d="M125.4,70.5l0.3-0.4c0.4,0.4,0.9,0.7,1.7,0.7c0.8,0,1.3-0.5,1.3-1c0-0.7-0.7-1-1.3-1.2c-0.8-0.3-1.7-0.6-1.7-1.5
			c0-0.8,0.6-1.4,1.7-1.4c0.6,0,1.1,0.2,1.5,0.5l-0.3,0.4c-0.4-0.3-0.7-0.5-1.3-0.5c-0.8,0-1.2,0.5-1.2,1c0,0.6,0.6,0.8,1.3,1.1
			c0.8,0.3,1.7,0.6,1.7,1.6c0,0.8-0.6,1.5-1.8,1.5C126.5,71.3,125.9,70.9,125.4,70.5z"/>
		<path d="M132.3,68.5c0-1.8,1.1-2.8,2.4-2.8c0.7,0,1.2,0.3,1.5,0.7l-0.3,0.3c-0.3-0.3-0.7-0.6-1.2-0.6c-1.1,0-1.9,1-1.9,2.4
			s0.8,2.3,1.9,2.3c0.6,0,1.1-0.3,1.4-0.6l0.3,0.3c-0.5,0.4-1,0.7-1.7,0.7C133.3,71.3,132.3,70.2,132.3,68.5z"/>
		<path d="M137.3,69.8c0-1.2,1.1-1.7,3.4-2c0-0.8-0.2-1.7-1.2-1.7c-0.7,0-1.3,0.4-1.7,0.6l-0.2-0.4c0.4-0.3,1.1-0.7,2-0.7
			c1.3,0,1.7,0.9,1.7,2v3.4h-0.4l-0.1-0.7h0c-0.5,0.4-1.2,0.8-1.9,0.8C138,71.3,137.3,70.8,137.3,69.8z M140.7,70v-1.8
			c-2.2,0.3-2.9,0.8-2.9,1.6c0,0.8,0.5,1,1.1,1C139.5,70.8,140,70.5,140.7,70z"/>
		<path d="M143,70.4v-7.2h0.5v7.3c0,0.2,0.1,0.3,0.2,0.3c0,0,0.1,0,0.2,0l0.1,0.4c-0.1,0-0.2,0.1-0.3,0.1
			C143.3,71.3,143,71,143,70.4z"/>
		<path d="M145.6,70.4v-7.2h0.5v7.3c0,0.2,0.1,0.3,0.2,0.3c0,0,0.1,0,0.2,0l0.1,0.4c-0.1,0-0.2,0.1-0.3,0.1
			C145.9,71.3,145.6,71,145.6,70.4z"/>
		<path d="M149.8,65.9l0.7,0h1.7v0.4h-2.4V65.9z M150.5,64.7c0-1,0.5-1.6,1.3-1.6c0.2,0,0.5,0.1,0.8,0.2l-0.1,0.4
			c-0.2-0.1-0.4-0.1-0.6-0.1c-0.6,0-0.8,0.4-0.8,1.2v6.4h-0.5V64.7z"/>
		<path d="M152.9,68.5c0-1.8,1.1-2.8,2.4-2.8s2.4,1,2.4,2.8c0,1.7-1.1,2.8-2.4,2.8S152.9,70.2,152.9,68.5z M157.1,68.5
			c0-1.4-0.8-2.4-1.9-2.4c-1.1,0-1.9,1-1.9,2.4s0.8,2.3,1.9,2.3C156.3,70.8,157.1,69.9,157.1,68.5z"/>
		<path d="M159.2,65.8h0.4l0.1,1h0c0.4-0.6,0.9-1.1,1.5-1.1c0.2,0,0.4,0,0.5,0.1l-0.1,0.4c-0.2-0.1-0.3-0.1-0.5-0.1
			c-0.5,0-1,0.4-1.4,1.4v3.6h-0.5V65.8z"/>
		<path d="M164.5,69.8c0-1.2,1.1-1.7,3.4-2c0-0.8-0.2-1.7-1.2-1.7c-0.7,0-1.3,0.4-1.7,0.6l-0.2-0.4c0.4-0.3,1.1-0.7,2-0.7
			c1.3,0,1.7,0.9,1.7,2v3.4H168l-0.1-0.7h0c-0.5,0.4-1.2,0.8-1.9,0.8C165.2,71.3,164.5,70.8,164.5,69.8z M167.9,70v-1.8
			c-2.2,0.3-2.9,0.8-2.9,1.6c0,0.8,0.5,1,1.1,1C166.8,70.8,167.3,70.5,167.9,70z"/>
		<path d="M171.8,73.4l0.1-0.4c0.1,0,0.3,0.1,0.4,0.1c0.6,0,1.1-0.6,1.4-1.4l0.1-0.5l-2.2-5.4h0.5l1.3,3.3c0.2,0.4,0.4,1,0.6,1.5h0
			c0.2-0.5,0.3-1,0.5-1.5l1.1-3.3h0.5l-2.1,5.9c-0.3,0.9-0.8,1.7-1.8,1.7C172.1,73.5,171.9,73.5,171.8,73.4z"/>
		<path d="M176.9,68.5c0-1.7,1.1-2.8,2.3-2.8c1.3,0,2,0.9,2,2.4c0,0.1,0,0.3,0,0.4h-3.8c0,1.3,0.8,2.3,2,2.3c0.6,0,1-0.2,1.4-0.5
			l0.2,0.4c-0.4,0.3-0.9,0.5-1.7,0.5C178,71.3,176.9,70.2,176.9,68.5z M180.7,68.2c0-1.3-0.6-2-1.6-2c-0.9,0-1.7,0.8-1.8,2H180.7z"
			/>
		<path d="M182.3,69.8c0-1.2,1.1-1.7,3.4-2c0-0.8-0.2-1.7-1.2-1.7c-0.7,0-1.3,0.4-1.7,0.6l-0.2-0.4c0.4-0.3,1.1-0.7,2-0.7
			c1.3,0,1.7,0.9,1.7,2v3.4h-0.4l-0.1-0.7h0c-0.5,0.4-1.2,0.8-1.9,0.8C182.9,71.3,182.3,70.8,182.3,69.8z M185.7,70v-1.8
			c-2.2,0.3-2.9,0.8-2.9,1.6c0,0.8,0.5,1,1.1,1C184.5,70.8,185,70.5,185.7,70z"/>
		<path d="M188,65.8h0.4l0.1,1h0c0.4-0.6,0.9-1.1,1.5-1.1c0.2,0,0.4,0,0.5,0.1l-0.1,0.4c-0.2-0.1-0.3-0.1-0.5-0.1
			c-0.5,0-1,0.4-1.4,1.4v3.6H188V65.8z"/>
		<path d="M190.9,68.2h2.4v0.4h-2.4V68.2z"/>
		<path d="M194.8,65.8h0.4l0.1,1h0c0.4-0.6,0.9-1.1,1.5-1.1c0.2,0,0.4,0,0.5,0.1l-0.1,0.4c-0.2-0.1-0.3-0.1-0.5-0.1
			c-0.5,0-1,0.4-1.4,1.4v3.6h-0.5V65.8z"/>
		<path d="M197.8,68.5c0-1.8,1.1-2.8,2.4-2.8s2.4,1,2.4,2.8c0,1.7-1.1,2.8-2.4,2.8S197.8,70.2,197.8,68.5z M202.1,68.5
			c0-1.4-0.8-2.4-1.9-2.4c-1.1,0-1.9,1-1.9,2.4s0.8,2.3,1.9,2.3C201.3,70.8,202.1,69.9,202.1,68.5z"/>
		<path d="M204.1,69.2v-3.4h0.5v3.3c0,1.1,0.4,1.7,1.2,1.7c0.6,0,1.1-0.3,1.7-1.1v-3.9h0.5v5.3h-0.4l-0.1-0.9h0
			c-0.5,0.6-1.1,1-1.8,1C204.6,71.3,204.1,70.6,204.1,69.2z"/>
		<path d="M210,65.8h0.4l0.1,0.8h0c0.5-0.5,1.1-1,1.8-1c1.1,0,1.6,0.7,1.6,2v3.4h-0.5v-3.3c0-1.1-0.4-1.7-1.2-1.7
			c-0.6,0-1.1,0.3-1.7,1v4H210V65.8z"/>
		<path d="M215.4,68.5c0-1.7,1.1-2.8,2.3-2.8c0.6,0,1.1,0.2,1.6,0.6l0-1v-2.2h0.5v7.9h-0.4l-0.1-0.7h0c-0.4,0.4-1,0.8-1.7,0.8
			C216.3,71.3,215.4,70.3,215.4,68.5z M219.3,70v-3.1c-0.6-0.5-1-0.7-1.5-0.7c-1,0-1.9,1-1.9,2.4c0,1.4,0.6,2.3,1.7,2.3
			C218.2,70.8,218.8,70.5,219.3,70z"/>
		<path d="M224.1,63.9h1.7c2.2,0,3.3,1.4,3.3,3.6c0,2.2-1.1,3.6-3.3,3.6h-1.7V63.9z M225.7,70.7c2,0,2.8-1.3,2.8-3.2
			s-0.9-3.2-2.8-3.2h-1.1v6.4H225.7z"/>
		<path d="M230.2,70.2l0.3-0.3c0.5,0.6,1.3,1,2.1,1c1.1,0,1.8-0.6,1.8-1.5c0-0.9-0.6-1.2-1.3-1.5l-1.1-0.5c-0.6-0.3-1.5-0.7-1.5-1.8
			c0-1.1,0.9-1.8,2.1-1.8c0.9,0,1.6,0.4,2,0.9l-0.3,0.3c-0.4-0.5-1-0.7-1.7-0.7c-1,0-1.6,0.5-1.6,1.3c0,0.8,0.7,1.2,1.3,1.4l1.1,0.5
			c0.8,0.4,1.5,0.8,1.5,1.9c0,1.1-0.9,2-2.3,2C231.6,71.3,230.7,70.8,230.2,70.2z"/>
		<path d="M238,64.3h-2.3v-0.4h5.1v0.4h-2.3v6.8H238V64.3z"/>
		<path d="M244.4,65.8h0.4l0.1,0.7h0c0.5-0.4,1.1-0.8,1.8-0.8c1.4,0,2.1,1.1,2.1,2.7c0,1.8-1.1,2.9-2.3,2.9c-0.5,0-1-0.2-1.6-0.6
			l0,1v1.9h-0.5V65.8z M248.3,68.4c0-1.3-0.5-2.3-1.7-2.3c-0.5,0-1.1,0.3-1.7,0.9v3.1c0.6,0.5,1.2,0.7,1.6,0.7
			C247.5,70.8,248.3,69.8,248.3,68.4z"/>
		<path d="M249.9,68.5c0-1.7,1.1-2.8,2.3-2.8c1.3,0,2,0.9,2,2.4c0,0.1,0,0.3,0,0.4h-3.8c0,1.3,0.8,2.3,2,2.3c0.6,0,1-0.2,1.4-0.5
			l0.2,0.4c-0.4,0.3-0.9,0.5-1.7,0.5C251,71.3,249.9,70.2,249.9,68.5z M253.8,68.2c0-1.3-0.6-2-1.6-2c-0.9,0-1.7,0.8-1.8,2H253.8z"
			/>
		<path d="M255.7,65.8h0.4l0.1,0.8h0c0.5-0.5,1.1-1,1.8-1c1.1,0,1.6,0.7,1.6,2v3.4h-0.5v-3.3c0-1.1-0.4-1.7-1.2-1.7
			c-0.6,0-1.1,0.3-1.7,1v4h-0.5V65.8z"/>
		<path d="M261.1,68.5c0-1.7,1.1-2.8,2.3-2.8c0.6,0,1.1,0.2,1.6,0.6l0-1v-2.2h0.5v7.9h-0.4l-0.1-0.7h0c-0.4,0.4-1,0.8-1.7,0.8
			C261.9,71.3,261.1,70.3,261.1,68.5z M265,70v-3.1c-0.6-0.5-1-0.7-1.5-0.7c-1,0-1.9,1-1.9,2.4c0,1.4,0.6,2.3,1.7,2.3
			C263.9,70.8,264.4,70.5,265,70z"/>
		<path d="M267.3,64.1c0-0.3,0.2-0.4,0.4-0.4c0.2,0,0.4,0.2,0.4,0.4c0,0.3-0.2,0.4-0.4,0.4C267.5,64.6,267.3,64.4,267.3,64.1z
			 M267.5,65.8h0.5v5.3h-0.5V65.8z"/>
		<path d="M270,65.8h0.4l0.1,0.8h0c0.5-0.5,1.1-1,1.8-1c1.1,0,1.6,0.7,1.6,2v3.4h-0.5v-3.3c0-1.1-0.4-1.7-1.2-1.7
			c-0.6,0-1.1,0.3-1.7,1v4H270V65.8z"/>
		<path d="M275.4,72.2c0-0.5,0.3-0.9,0.8-1.3v0c-0.3-0.2-0.5-0.4-0.5-0.8c0-0.5,0.3-0.8,0.6-1v0c-0.3-0.3-0.7-0.8-0.7-1.4
			c0-1.1,0.8-1.9,1.9-1.9c0.3,0,0.5,0.1,0.7,0.1h1.8v0.4h-1.2c0.3,0.3,0.6,0.8,0.6,1.3c0,1.1-0.8,1.9-1.8,1.9
			c-0.3,0-0.6-0.1-0.9-0.2c-0.2,0.2-0.4,0.4-0.4,0.8c0,0.4,0.2,0.7,1,0.7h1.1c1.2,0,1.7,0.4,1.7,1.2c0,0.9-1,1.8-2.5,1.8
			C276.3,73.7,275.4,73.1,275.4,72.2z M279.6,71.9c0-0.6-0.4-0.8-1.2-0.8h-1.1c-0.1,0-0.4,0-0.7-0.1c-0.5,0.3-0.7,0.7-0.7,1.1
			c0,0.7,0.6,1.1,1.8,1.1C278.8,73.3,279.6,72.6,279.6,71.9z M278.9,67.6c0-0.9-0.6-1.5-1.4-1.5c-0.7,0-1.4,0.6-1.4,1.5
			c0,0.9,0.6,1.5,1.4,1.5C278.2,69.1,278.9,68.5,278.9,67.6z"/>
		<path d="M283,67.5c0-2.3,1.3-3.7,3.1-3.7c0.8,0,1.5,0.4,1.9,0.9l-0.3,0.3c-0.4-0.4-0.9-0.7-1.6-0.7c-1.6,0-2.6,1.3-2.6,3.3
			c0,2,1,3.3,2.5,3.3c0.7,0,1.3-0.3,1.8-0.9l0.3,0.3c-0.6,0.6-1.2,1-2.2,1C284.3,71.3,283,69.8,283,67.5z"/>
		<path d="M289.2,68.5c0-1.8,1.1-2.8,2.4-2.8s2.4,1,2.4,2.8c0,1.7-1.1,2.8-2.4,2.8S289.2,70.2,289.2,68.5z M293.4,68.5
			c0-1.4-0.8-2.4-1.9-2.4c-1.1,0-1.9,1-1.9,2.4s0.8,2.3,1.9,2.3C292.6,70.8,293.4,69.9,293.4,68.5z"/>
		<path d="M295.5,65.8h0.4l0.1,0.8h0c0.5-0.5,1.1-1,1.8-1c1.1,0,1.6,0.7,1.6,2v3.4h-0.5v-3.3c0-1.1-0.4-1.7-1.2-1.7
			c-0.6,0-1.1,0.3-1.7,1v4h-0.5V65.8z"/>
		<path d="M300.9,72.2c0-0.5,0.3-0.9,0.8-1.3v0c-0.3-0.2-0.5-0.4-0.5-0.8c0-0.5,0.3-0.8,0.6-1v0c-0.3-0.3-0.7-0.8-0.7-1.4
			c0-1.1,0.8-1.9,1.9-1.9c0.3,0,0.5,0.1,0.7,0.1h1.8v0.4h-1.2c0.3,0.3,0.6,0.8,0.6,1.3c0,1.1-0.8,1.9-1.8,1.9
			c-0.3,0-0.6-0.1-0.9-0.2c-0.2,0.2-0.4,0.4-0.4,0.8c0,0.4,0.2,0.7,1,0.7h1.1c1.2,0,1.7,0.4,1.7,1.2c0,0.9-1,1.8-2.5,1.8
			C301.8,73.7,300.9,73.1,300.9,72.2z M305.1,71.9c0-0.6-0.4-0.8-1.2-0.8h-1.1c-0.1,0-0.4,0-0.7-0.1c-0.5,0.3-0.7,0.7-0.7,1.1
			c0,0.7,0.6,1.1,1.8,1.1C304.3,73.3,305.1,72.6,305.1,71.9z M304.4,67.6c0-0.9-0.6-1.5-1.4-1.5c-0.7,0-1.4,0.6-1.4,1.5
			c0,0.9,0.6,1.5,1.4,1.5C303.7,69.1,304.4,68.5,304.4,67.6z"/>
		<path d="M306.7,65.8h0.4l0.1,1h0c0.4-0.6,0.9-1.1,1.5-1.1c0.2,0,0.4,0,0.5,0.1l-0.1,0.4c-0.2-0.1-0.3-0.1-0.5-0.1
			c-0.5,0-1,0.4-1.4,1.4v3.6h-0.5V65.8z"/>
		<path d="M309.8,68.5c0-1.7,1.1-2.8,2.3-2.8c1.3,0,2,0.9,2,2.4c0,0.1,0,0.3,0,0.4h-3.8c0,1.3,0.8,2.3,2,2.3c0.6,0,1-0.2,1.4-0.5
			l0.2,0.4c-0.4,0.3-0.9,0.5-1.7,0.5C310.9,71.3,309.8,70.2,309.8,68.5z M313.6,68.2c0-1.3-0.6-2-1.6-2c-0.9,0-1.7,0.8-1.8,2H313.6z
			"/>
		<path d="M314.9,70.5l0.3-0.4c0.4,0.4,0.9,0.7,1.7,0.7c0.8,0,1.3-0.5,1.3-1c0-0.7-0.7-1-1.3-1.2c-0.8-0.3-1.7-0.6-1.7-1.5
			c0-0.8,0.6-1.4,1.7-1.4c0.6,0,1.1,0.2,1.5,0.5l-0.3,0.4c-0.4-0.3-0.7-0.5-1.3-0.5c-0.8,0-1.2,0.5-1.2,1c0,0.6,0.6,0.8,1.3,1.1
			c0.8,0.3,1.7,0.6,1.7,1.6c0,0.8-0.6,1.5-1.8,1.5C316,71.3,315.3,70.9,314.9,70.5z"/>
		<path d="M319.3,70.5l0.3-0.4c0.4,0.4,0.9,0.7,1.7,0.7c0.8,0,1.3-0.5,1.3-1c0-0.7-0.7-1-1.3-1.2c-0.8-0.3-1.7-0.6-1.7-1.5
			c0-0.8,0.6-1.4,1.7-1.4c0.6,0,1.1,0.2,1.5,0.5l-0.3,0.4c-0.4-0.3-0.7-0.5-1.3-0.5c-0.8,0-1.2,0.5-1.2,1c0,0.6,0.6,0.8,1.3,1.1
			c0.8,0.3,1.7,0.6,1.7,1.6c0,0.8-0.6,1.5-1.8,1.5C320.5,71.3,319.8,70.9,319.3,70.5z"/>
		<path d="M324.2,64.1c0-0.3,0.2-0.4,0.4-0.4c0.2,0,0.4,0.2,0.4,0.4c0,0.3-0.2,0.4-0.4,0.4C324.5,64.6,324.2,64.4,324.2,64.1z
			 M324.4,65.8h0.5v5.3h-0.5V65.8z"/>
		<path d="M326.5,68.5c0-1.8,1.1-2.8,2.4-2.8s2.4,1,2.4,2.8c0,1.7-1.1,2.8-2.4,2.8S326.5,70.2,326.5,68.5z M330.7,68.5
			c0-1.4-0.8-2.4-1.9-2.4c-1.1,0-1.9,1-1.9,2.4s0.8,2.3,1.9,2.3C330,70.8,330.7,69.9,330.7,68.5z"/>
		<path d="M332.8,65.8h0.4l0.1,0.8h0c0.5-0.5,1.1-1,1.8-1c1.1,0,1.6,0.7,1.6,2v3.4h-0.5v-3.3c0-1.1-0.4-1.7-1.2-1.7
			c-0.6,0-1.1,0.3-1.7,1v4h-0.5V65.8z"/>
		<path d="M338.3,69.8c0-1.2,1.1-1.7,3.4-2c0-0.8-0.2-1.7-1.2-1.7c-0.7,0-1.3,0.4-1.7,0.6l-0.2-0.4c0.4-0.3,1.1-0.7,2-0.7
			c1.3,0,1.7,0.9,1.7,2v3.4h-0.4l-0.1-0.7h0c-0.5,0.4-1.2,0.8-1.9,0.8C339,71.3,338.3,70.8,338.3,69.8z M341.7,70v-1.8
			c-2.2,0.3-2.9,0.8-2.9,1.6c0,0.8,0.5,1,1.1,1C340.5,70.8,341.1,70.5,341.7,70z"/>
		<path d="M344.1,70.4v-7.2h0.5v7.3c0,0.2,0.1,0.3,0.2,0.3c0,0,0.1,0,0.2,0l0.1,0.4c-0.1,0-0.2,0.1-0.3,0.1
			C344.3,71.3,344.1,71,344.1,70.4z"/>
		<path d="M348.5,69.8c0-1.2,1.1-1.7,3.4-2c0-0.8-0.2-1.7-1.2-1.7c-0.7,0-1.3,0.4-1.7,0.6l-0.2-0.4c0.4-0.3,1.1-0.7,2-0.7
			c1.3,0,1.7,0.9,1.7,2v3.4H352l-0.1-0.7h0c-0.5,0.4-1.2,0.8-1.9,0.8C349.2,71.3,348.5,70.8,348.5,69.8z M351.9,70v-1.8
			c-2.2,0.3-2.9,0.8-2.9,1.6c0,0.8,0.5,1,1.1,1C350.7,70.8,351.3,70.5,351.9,70z"/>
		<path d="M354.3,65.8h0.4l0.1,0.7h0c0.5-0.4,1.1-0.8,1.8-0.8c1.4,0,2.1,1.1,2.1,2.7c0,1.8-1.1,2.9-2.3,2.9c-0.5,0-1-0.2-1.6-0.6
			l0,1v1.9h-0.5V65.8z M358.2,68.4c0-1.3-0.5-2.3-1.7-2.3c-0.5,0-1.1,0.3-1.7,0.9v3.1c0.6,0.5,1.2,0.7,1.6,0.7
			C357.4,70.8,358.2,69.8,358.2,68.4z"/>
		<path d="M360.3,65.8h0.4l0.1,0.7h0c0.5-0.4,1.1-0.8,1.8-0.8c1.4,0,2.1,1.1,2.1,2.7c0,1.8-1.1,2.9-2.3,2.9c-0.5,0-1-0.2-1.6-0.6
			l0,1v1.9h-0.5V65.8z M364.2,68.4c0-1.3-0.5-2.3-1.7-2.3c-0.5,0-1.1,0.3-1.7,0.9v3.1c0.6,0.5,1.2,0.7,1.6,0.7
			C363.4,70.8,364.2,69.8,364.2,68.4z"/>
		<path d="M366.3,65.8h0.4l0.1,1h0c0.4-0.6,0.9-1.1,1.5-1.1c0.2,0,0.3,0,0.5,0.1l-0.1,0.4c-0.2-0.1-0.3-0.1-0.5-0.1
			c-0.5,0-1,0.4-1.4,1.4v3.6h-0.5V65.8z"/>
		<path d="M369.3,68.5c0-1.8,1.1-2.8,2.4-2.8s2.4,1,2.4,2.8c0,1.7-1.1,2.8-2.4,2.8S369.3,70.2,369.3,68.5z M373.5,68.5
			c0-1.4-0.8-2.4-1.9-2.4c-1.1,0-1.9,1-1.9,2.4s0.8,2.3,1.9,2.3C372.8,70.8,373.5,69.9,373.5,68.5z"/>
		<path d="M374.8,65.8h0.5l1.2,3.3c0.2,0.5,0.4,1,0.5,1.5h0c0.2-0.5,0.4-1,0.5-1.5l1.2-3.3h0.5l-2,5.3h-0.6L374.8,65.8z"/>
		<path d="M380,69.8c0-1.2,1.1-1.7,3.4-2c0-0.8-0.2-1.7-1.2-1.7c-0.7,0-1.3,0.4-1.7,0.6l-0.2-0.4c0.4-0.3,1.1-0.7,2-0.7
			c1.3,0,1.7,0.9,1.7,2v3.4h-0.4l-0.1-0.7h0c-0.5,0.4-1.2,0.8-1.9,0.8C380.7,71.3,380,70.8,380,69.8z M383.4,70v-1.8
			c-2.2,0.3-2.9,0.8-2.9,1.6c0,0.8,0.5,1,1.1,1C382.3,70.8,382.8,70.5,383.4,70z"/>
		<path d="M385.8,70.4v-7.2h0.5v7.3c0,0.2,0.1,0.3,0.2,0.3c0,0,0.1,0,0.2,0l0.1,0.4c-0.1,0-0.2,0.1-0.3,0.1
			C386,71.3,385.8,71,385.8,70.4z"/>
		<path d="M388.2,70.8c0-0.3,0.2-0.5,0.5-0.5s0.5,0.2,0.5,0.5c0,0.3-0.2,0.5-0.5,0.5S388.2,71.1,388.2,70.8z"/>
	</g>
</g>
<g>
	<g>
		<path d="M134.2,395.7l0.3-0.3c0.5,0.5,1.2,0.9,1.9,0.9c1,0,1.6-0.5,1.6-1.3c0-0.8-0.5-1.1-1.2-1.4l-1-0.4
			c-0.6-0.3-1.3-0.7-1.3-1.6c0-1,0.8-1.6,1.9-1.6c0.8,0,1.4,0.4,1.8,0.8l-0.3,0.3c-0.4-0.4-0.9-0.7-1.6-0.7c-0.9,0-1.5,0.5-1.5,1.2
			c0,0.8,0.7,1.1,1.1,1.3l1,0.4c0.7,0.3,1.4,0.7,1.4,1.7c0,1-0.8,1.8-2.1,1.8C135.5,396.7,134.8,396.3,134.2,395.7z"/>
		<path d="M139.5,394.2c0-1.6,1-2.5,2.2-2.5s2.2,0.9,2.2,2.5c0,1.6-1,2.5-2.2,2.5S139.5,395.7,139.5,394.2z M143.4,394.2
			c0-1.3-0.7-2.1-1.7-2.1c-1,0-1.7,0.9-1.7,2.1s0.7,2.1,1.7,2.1C142.6,396.3,143.4,395.4,143.4,394.2z"/>
		<path d="M145.2,394.8v-3.1h0.4v3c0,1,0.3,1.5,1.1,1.5c0.6,0,1-0.3,1.5-1v-3.5h0.4v4.8h-0.4l0-0.8h0c-0.5,0.6-1,0.9-1.6,0.9
			C145.7,396.7,145.2,396.1,145.2,394.8z"/>
		<path d="M150.6,391.8h0.4l0,0.9h0c0.3-0.6,0.8-1,1.4-1c0.2,0,0.3,0,0.5,0.1l-0.1,0.4c-0.2-0.1-0.2-0.1-0.4-0.1
			c-0.4,0-0.9,0.3-1.3,1.2v3.3h-0.4V391.8z"/>
		<path d="M153.3,394.2c0-1.6,1-2.5,2.2-2.5c0.7,0,1.1,0.3,1.4,0.6l-0.3,0.3c-0.3-0.3-0.7-0.5-1.1-0.5c-1,0-1.7,0.9-1.7,2.1
			s0.7,2.1,1.7,2.1c0.5,0,1-0.2,1.3-0.6l0.2,0.3c-0.4,0.4-0.9,0.6-1.5,0.6C154.3,396.7,153.3,395.7,153.3,394.2z"/>
		<path d="M157.8,394.2c0-1.6,1-2.5,2.1-2.5c1.1,0,1.8,0.8,1.8,2.2c0,0.1,0,0.2,0,0.4h-3.5c0,1.2,0.7,2.1,1.8,2.1
			c0.5,0,0.9-0.2,1.3-0.4l0.2,0.3c-0.4,0.2-0.8,0.5-1.5,0.5C158.8,396.7,157.8,395.7,157.8,394.2z M161.3,393.8
			c0-1.2-0.6-1.8-1.4-1.8c-0.8,0-1.5,0.7-1.6,1.8H161.3z"/>
		<path d="M162.8,392.4c0-0.3,0.2-0.5,0.4-0.5c0.2,0,0.4,0.2,0.4,0.5c0,0.3-0.2,0.4-0.4,0.4C163,392.9,162.8,392.7,162.8,392.4z
			 M162.8,396.2c0-0.3,0.2-0.5,0.4-0.5c0.2,0,0.4,0.2,0.4,0.5c0,0.3-0.2,0.4-0.4,0.4C163,396.7,162.8,396.5,162.8,396.2z"/>
		<path d="M167.3,390h0.5l2.8,4.6l0.7,1.3h0c0-0.6-0.1-1.3-0.1-1.9v-4h0.4v6.6h-0.5l-2.8-4.6l-0.7-1.3h0c0,0.6,0.1,1.2,0.1,1.9v4.1
			h-0.4V390z"/>
		<path d="M173.3,395.4c0-1.1,1-1.6,3.1-1.8c0-0.7-0.2-1.5-1.1-1.5c-0.6,0-1.2,0.3-1.5,0.6l-0.2-0.3c0.3-0.2,1-0.6,1.8-0.6
			c1.1,0,1.5,0.8,1.5,1.9v3.1h-0.4l0-0.6h0c-0.5,0.4-1.1,0.7-1.7,0.7C173.9,396.7,173.3,396.3,173.3,395.4z M176.3,395.5v-1.6
			c-2,0.2-2.6,0.7-2.6,1.5c0,0.7,0.5,1,1,1C175.3,396.3,175.8,396,176.3,395.5z"/>
		<path d="M178.6,395.2v-3.1h-0.7v-0.3l0.8,0l0.1-1.4h0.4v1.4h1.4v0.4h-1.4v3.1c0,0.6,0.2,1,0.8,1c0.2,0,0.4-0.1,0.6-0.2l0.1,0.4
			c-0.3,0.1-0.6,0.2-0.8,0.2C178.9,396.7,178.6,396.1,178.6,395.2z"/>
		<path d="M181.5,390.2c0-0.2,0.2-0.4,0.4-0.4s0.4,0.1,0.4,0.4c0,0.2-0.2,0.4-0.4,0.4S181.5,390.4,181.5,390.2z M181.6,391.8h0.4
			v4.8h-0.4V391.8z"/>
		<path d="M183.5,394.2c0-1.6,1-2.5,2.2-2.5s2.2,0.9,2.2,2.5c0,1.6-1,2.5-2.2,2.5S183.5,395.7,183.5,394.2z M187.4,394.2
			c0-1.3-0.7-2.1-1.7-2.1c-1,0-1.7,0.9-1.7,2.1s0.7,2.1,1.7,2.1C186.6,396.3,187.4,395.4,187.4,394.2z"/>
		<path d="M189.3,391.8h0.4l0,0.7h0c0.5-0.5,1-0.9,1.7-0.9c1,0,1.5,0.6,1.5,1.8v3.1h-0.4v-3c0-1-0.3-1.5-1.1-1.5
			c-0.6,0-1,0.3-1.6,0.9v3.6h-0.4V391.8z"/>
		<path d="M194.2,395.4c0-1.1,1-1.6,3.1-1.8c0-0.7-0.2-1.5-1.1-1.5c-0.6,0-1.2,0.3-1.5,0.6l-0.2-0.3c0.3-0.2,1-0.6,1.8-0.6
			c1.1,0,1.5,0.8,1.5,1.9v3.1h-0.4l0-0.6h0c-0.5,0.4-1.1,0.7-1.7,0.7C194.9,396.7,194.2,396.3,194.2,395.4z M197.3,395.5v-1.6
			c-2,0.2-2.6,0.7-2.6,1.5c0,0.7,0.5,1,1,1C196.3,396.3,196.7,396,197.3,395.5z"/>
		<path d="M199.5,395.9v-6.5h0.4v6.6c0,0.2,0.1,0.3,0.2,0.3c0,0,0.1,0,0.2,0l0.1,0.4c-0.1,0-0.2,0-0.3,0
			C199.7,396.7,199.5,396.4,199.5,395.9z"/>
		<path d="M203.5,393.2c0-2.1,1.1-3.4,2.8-3.4c0.8,0,1.4,0.4,1.7,0.8l-0.3,0.3c-0.4-0.4-0.8-0.7-1.4-0.7c-1.4,0-2.3,1.1-2.3,3
			c0,1.8,0.9,3,2.3,3c0.7,0,1.2-0.3,1.7-0.8l0.3,0.3c-0.5,0.6-1.1,0.9-2,0.9C204.6,396.7,203.5,395.3,203.5,393.2z"/>
		<path d="M209.1,394.2c0-1.6,1-2.5,2.2-2.5s2.2,0.9,2.2,2.5c0,1.6-1,2.5-2.2,2.5S209.1,395.7,209.1,394.2z M212.9,394.2
			c0-1.3-0.7-2.1-1.7-2.1c-1,0-1.7,0.9-1.7,2.1s0.7,2.1,1.7,2.1C212.2,396.3,212.9,395.4,212.9,394.2z"/>
		<path d="M214.9,391.8h0.4l0,0.7h0c0.5-0.5,1-0.9,1.7-0.9c1,0,1.5,0.6,1.5,1.8v3.1H218v-3c0-1-0.3-1.5-1.1-1.5
			c-0.6,0-1,0.3-1.6,0.9v3.6h-0.4V391.8z"/>
		<path d="M219.6,391.8l0.7,0h1.5v0.4h-2.2V391.8z M220.2,390.7c0-1,0.4-1.4,1.2-1.4c0.2,0,0.5,0.1,0.7,0.2l-0.1,0.4
			c-0.2-0.1-0.4-0.1-0.6-0.1c-0.5,0-0.8,0.4-0.8,1.1v5.8h-0.4V390.7z"/>
		<path d="M222.4,394.2c0-1.6,1-2.5,2.1-2.5c1.1,0,1.8,0.8,1.8,2.2c0,0.1,0,0.2,0,0.4h-3.5c0,1.2,0.7,2.1,1.8,2.1
			c0.5,0,0.9-0.2,1.3-0.4l0.2,0.3c-0.4,0.2-0.8,0.5-1.5,0.5C223.4,396.7,222.4,395.7,222.4,394.2z M225.9,393.8
			c0-1.2-0.6-1.8-1.4-1.8c-0.8,0-1.5,0.7-1.6,1.8H225.9z"/>
		<path d="M227.6,391.8h0.4l0,0.9h0c0.3-0.6,0.8-1,1.4-1c0.2,0,0.3,0,0.5,0.1l-0.1,0.4c-0.2-0.1-0.2-0.1-0.4-0.1
			c-0.4,0-0.9,0.3-1.3,1.2v3.3h-0.4V391.8z"/>
		<path d="M230.4,394.2c0-1.6,1-2.5,2.1-2.5c1.1,0,1.8,0.8,1.8,2.2c0,0.1,0,0.2,0,0.4h-3.5c0,1.2,0.7,2.1,1.8,2.1
			c0.5,0,0.9-0.2,1.3-0.4l0.2,0.3c-0.4,0.2-0.8,0.5-1.5,0.5C231.4,396.7,230.4,395.7,230.4,394.2z M233.9,393.8
			c0-1.2-0.6-1.8-1.4-1.8c-0.8,0-1.5,0.7-1.6,1.8H233.9z"/>
		<path d="M235.6,391.8h0.4l0,0.7h0c0.5-0.5,1-0.9,1.7-0.9c1,0,1.5,0.6,1.5,1.8v3.1h-0.4v-3c0-1-0.3-1.5-1.1-1.5
			c-0.6,0-1,0.3-1.6,0.9v3.6h-0.4V391.8z"/>
		<path d="M240.6,394.2c0-1.6,1-2.5,2.2-2.5c0.7,0,1.1,0.3,1.4,0.6l-0.3,0.3c-0.3-0.3-0.7-0.5-1.1-0.5c-1,0-1.7,0.9-1.7,2.1
			s0.7,2.1,1.7,2.1c0.5,0,1-0.2,1.3-0.6l0.2,0.3c-0.4,0.4-0.9,0.6-1.5,0.6C241.5,396.7,240.6,395.7,240.6,394.2z"/>
		<path d="M245,394.2c0-1.6,1-2.5,2.1-2.5c1.1,0,1.8,0.8,1.8,2.2c0,0.1,0,0.2,0,0.4h-3.5c0,1.2,0.7,2.1,1.8,2.1
			c0.5,0,0.9-0.2,1.3-0.4l0.2,0.3c-0.4,0.2-0.8,0.5-1.5,0.5C246,396.7,245,395.7,245,394.2z M248.6,393.8c0-1.2-0.6-1.8-1.4-1.8
			c-0.8,0-1.5,0.7-1.6,1.8H248.6z"/>
		<path d="M251.9,394.2c0-1.6,1-2.5,2.2-2.5s2.2,0.9,2.2,2.5c0,1.6-1,2.5-2.2,2.5S251.9,395.7,251.9,394.2z M255.7,394.2
			c0-1.3-0.7-2.1-1.7-2.1c-1,0-1.7,0.9-1.7,2.1s0.7,2.1,1.7,2.1C255,396.3,255.7,395.4,255.7,394.2z"/>
		<path d="M257,391.8l0.7,0h1.5v0.4H257V391.8z M257.7,390.7c0-1,0.4-1.4,1.2-1.4c0.2,0,0.5,0.1,0.7,0.2l-0.1,0.4
			c-0.2-0.1-0.4-0.1-0.6-0.1c-0.5,0-0.8,0.4-0.8,1.1v5.8h-0.4V390.7z"/>
		<path d="M261.8,395.7l0.3-0.3c0.5,0.5,1.2,0.9,1.9,0.9c1,0,1.6-0.5,1.6-1.3c0-0.8-0.5-1.1-1.2-1.4l-1-0.4
			c-0.6-0.3-1.3-0.7-1.3-1.6c0-1,0.8-1.6,1.9-1.6c0.8,0,1.4,0.4,1.8,0.8l-0.3,0.3c-0.4-0.4-0.9-0.7-1.6-0.7c-0.9,0-1.5,0.5-1.5,1.2
			c0,0.8,0.7,1.1,1.1,1.3l1,0.4c0.7,0.3,1.4,0.7,1.4,1.7c0,1-0.8,1.8-2.1,1.8C263.1,396.7,262.3,396.3,261.8,395.7z"/>
		<path d="M267.6,395.2v-3.1h-0.7v-0.3l0.8,0l0.1-1.4h0.4v1.4h1.4v0.4H268v3.1c0,0.6,0.2,1,0.8,1c0.2,0,0.4-0.1,0.6-0.2l0.1,0.4
			c-0.3,0.1-0.6,0.2-0.8,0.2C267.8,396.7,267.6,396.1,267.6,395.2z"/>
		<path d="M270.2,395.4c0-1.1,1-1.6,3.1-1.8c0-0.7-0.2-1.5-1.1-1.5c-0.6,0-1.2,0.3-1.5,0.6l-0.2-0.3c0.3-0.2,1-0.6,1.8-0.6
			c1.1,0,1.5,0.8,1.5,1.9v3.1h-0.4l0-0.6h0c-0.5,0.4-1.1,0.7-1.7,0.7C270.9,396.7,270.2,396.3,270.2,395.4z M273.3,395.5v-1.6
			c-2,0.2-2.6,0.7-2.6,1.5c0,0.7,0.5,1,1,1C272.3,396.3,272.7,396,273.3,395.5z"/>
		<path d="M275.6,395.2v-3.1h-0.7v-0.3l0.8,0l0.1-1.4h0.4v1.4h1.4v0.4H276v3.1c0,0.6,0.2,1,0.8,1c0.2,0,0.4-0.1,0.6-0.2l0.1,0.4
			c-0.3,0.1-0.6,0.2-0.8,0.2C275.9,396.7,275.6,396.1,275.6,395.2z"/>
		<path d="M278.2,394.2c0-1.6,1-2.5,2.1-2.5c1.1,0,1.8,0.8,1.8,2.2c0,0.1,0,0.2,0,0.4h-3.5c0,1.2,0.7,2.1,1.8,2.1
			c0.5,0,0.9-0.2,1.3-0.4l0.2,0.3c-0.4,0.2-0.8,0.5-1.5,0.5C279.2,396.7,278.2,395.7,278.2,394.2z M281.7,393.8
			c0-1.2-0.6-1.8-1.4-1.8c-0.8,0-1.5,0.7-1.6,1.8H281.7z"/>
		<path d="M285.5,390h0.5v6.2h3v0.4h-3.5V390z"/>
		<path d="M289.7,394.2c0-1.6,1-2.5,2.1-2.5c1.1,0,1.8,0.8,1.8,2.2c0,0.1,0,0.2,0,0.4h-3.5c0,1.2,0.7,2.1,1.8,2.1
			c0.5,0,0.9-0.2,1.3-0.4l0.2,0.3c-0.4,0.2-0.8,0.5-1.5,0.5C290.7,396.7,289.7,395.7,289.7,394.2z M293.2,393.8
			c0-1.2-0.6-1.8-1.4-1.8c-0.8,0-1.5,0.7-1.6,1.8H293.2z"/>
		<path d="M294.5,397.5c0-0.4,0.3-0.8,0.7-1.2v0c-0.2-0.1-0.4-0.4-0.4-0.8c0-0.4,0.3-0.7,0.5-0.9v0c-0.3-0.3-0.6-0.7-0.6-1.3
			c0-1,0.8-1.7,1.7-1.7c0.3,0,0.5,0.1,0.6,0.1h1.6v0.4h-1.1c0.3,0.3,0.5,0.7,0.5,1.2c0,1-0.7,1.7-1.7,1.7c-0.3,0-0.6-0.1-0.8-0.2
			c-0.2,0.2-0.4,0.4-0.4,0.7c0,0.3,0.2,0.6,0.9,0.6h1c1.1,0,1.6,0.3,1.6,1.1c0,0.8-0.9,1.6-2.3,1.6
			C295.3,398.9,294.5,398.3,294.5,397.5z M298.3,397.3c0-0.5-0.4-0.7-1.1-0.7h-1c-0.1,0-0.3,0-0.6-0.1c-0.4,0.3-0.6,0.7-0.6,1
			c0,0.6,0.6,1,1.6,1C297.6,398.5,298.3,397.9,298.3,397.3z M297.7,393.3c0-0.8-0.6-1.3-1.2-1.3s-1.2,0.5-1.2,1.3
			c0,0.8,0.6,1.3,1.2,1.3S297.7,394.1,297.7,393.3z"/>
		<path d="M299.6,390.2c0-0.2,0.2-0.4,0.4-0.4s0.4,0.1,0.4,0.4c0,0.2-0.2,0.4-0.4,0.4S299.6,390.4,299.6,390.2z M299.8,391.8h0.4
			v4.8h-0.4V391.8z"/>
		<path d="M301.5,396l0.3-0.3c0.4,0.3,0.8,0.6,1.5,0.6c0.8,0,1.1-0.4,1.1-0.9c0-0.6-0.6-0.9-1.2-1.1c-0.7-0.3-1.5-0.6-1.5-1.4
			c0-0.7,0.5-1.3,1.5-1.3c0.5,0,1,0.2,1.4,0.5l-0.2,0.3c-0.3-0.2-0.7-0.4-1.1-0.4c-0.7,0-1.1,0.4-1.1,0.9c0,0.5,0.6,0.8,1.1,1
			c0.7,0.3,1.6,0.5,1.6,1.5c0,0.7-0.6,1.4-1.6,1.4C302.6,396.7,301.9,396.4,301.5,396z"/>
		<path d="M306.2,395.9v-6.5h0.4v6.6c0,0.2,0.1,0.3,0.2,0.3c0,0,0.1,0,0.2,0l0.1,0.4c-0.1,0-0.2,0-0.3,0
			C306.4,396.7,306.2,396.4,306.2,395.9z"/>
		<path d="M308.2,395.4c0-1.1,1-1.6,3.1-1.8c0-0.7-0.2-1.5-1.1-1.5c-0.6,0-1.2,0.3-1.5,0.6l-0.2-0.3c0.3-0.2,1-0.6,1.8-0.6
			c1.1,0,1.5,0.8,1.5,1.9v3.1h-0.4l0-0.6h0c-0.5,0.4-1.1,0.7-1.7,0.7C308.8,396.7,308.2,396.3,308.2,395.4z M311.3,395.5v-1.6
			c-2,0.2-2.6,0.7-2.6,1.5c0,0.7,0.5,1,1,1C310.2,396.3,310.7,396,311.3,395.5z"/>
		<path d="M313.5,395.2v-3.1h-0.7v-0.3l0.8,0l0.1-1.4h0.4v1.4h1.4v0.4H314v3.1c0,0.6,0.2,1,0.8,1c0.2,0,0.4-0.1,0.6-0.2l0.1,0.4
			c-0.3,0.1-0.6,0.2-0.8,0.2C313.8,396.7,313.5,396.1,313.5,395.2z"/>
		<path d="M316.5,394.8v-3.1h0.4v3c0,1,0.3,1.5,1.1,1.5c0.6,0,1-0.3,1.5-1v-3.5h0.4v4.8h-0.4l0-0.8h0c-0.5,0.6-1,0.9-1.6,0.9
			C316.9,396.7,316.5,396.1,316.5,394.8z"/>
		<path d="M321.8,391.8h0.4l0,0.9h0c0.3-0.6,0.8-1,1.4-1c0.2,0,0.3,0,0.5,0.1l-0.1,0.4c-0.2-0.1-0.2-0.1-0.4-0.1
			c-0.4,0-0.9,0.3-1.3,1.2v3.3h-0.4V391.8z"/>
		<path d="M324.6,394.2c0-1.6,1-2.5,2.1-2.5c1.1,0,1.8,0.8,1.8,2.2c0,0.1,0,0.2,0,0.4h-3.5c0,1.2,0.7,2.1,1.8,2.1
			c0.5,0,0.9-0.2,1.3-0.4l0.2,0.3c-0.4,0.2-0.8,0.5-1.5,0.5C325.6,396.7,324.6,395.7,324.6,394.2z M328.1,393.8
			c0-1.2-0.6-1.8-1.4-1.8c-0.8,0-1.5,0.7-1.6,1.8H328.1z"/>
		<path d="M329.2,396l0.3-0.3c0.4,0.3,0.8,0.6,1.5,0.6c0.8,0,1.1-0.4,1.1-0.9c0-0.6-0.6-0.9-1.2-1.1c-0.7-0.3-1.5-0.6-1.5-1.4
			c0-0.7,0.5-1.3,1.5-1.3c0.5,0,1,0.2,1.4,0.5l-0.2,0.3c-0.3-0.2-0.7-0.4-1.1-0.4c-0.7,0-1.1,0.4-1.1,0.9c0,0.5,0.6,0.8,1.1,1
			c0.7,0.3,1.6,0.5,1.6,1.5c0,0.7-0.6,1.4-1.6,1.4C330.3,396.7,329.7,396.4,329.2,396z"/>
	</g>
</g>
</svg>
