<?xml version="1.0" encoding="utf-8" standalone="no"?>
<!DOCTYPE svg PUBLIC "-//W3C//DTD SVG 1.1//EN"
  "http://www.w3.org/Graphics/SVG/1.1/DTD/svg11.dtd">
<svg height="322.134121pt" version="1.1" viewBox="0 0 541.58125 322.134121" width="541.58125pt" xmlns="http://www.w3.org/2000/svg" xmlns:xlink="http://www.w3.org/1999/xlink">
 <metadata>
  <rdf:RDF xmlns:cc="http://creativecommons.org/ns#" xmlns:dc="http://purl.org/dc/elements/1.1/" xmlns:rdf="http://www.w3.org/1999/02/22-rdf-syntax-ns#">
   <cc:Work>
    <dc:type rdf:resource="http://purl.org/dc/dcmitype/StillImage"/>
    <dc:date>2022-03-11T10:15:44.986191</dc:date>
    <dc:format>image/svg+xml</dc:format>
    <dc:creator>
     <cc:Agent>
      <dc:title>Matplotlib v3.4.3, https://matplotlib.org/</dc:title>
     </cc:Agent>
    </dc:creator>
   </cc:Work>
  </rdf:RDF>
 </metadata>
 <defs>
  <style type="text/css">*{stroke-linecap:butt;stroke-linejoin:round;}</style>
 </defs>
 <g id="figure_1">
  <g id="patch_1">
   <path d="M -0 322.134121 
L 541.58125 322.134121 
L 541.58125 0 
L -0 0 
z
" style="fill:none;"/>
  </g>
  <g id="axes_1">
   <g id="patch_2">
    <path d="M 91.001125 292.217371 
L 448.121125 292.217371 
L 448.121125 26.105371 
L 91.001125 26.105371 
z
" style="fill:none;"/>
   </g>
   <g id="matplotlib.axis_1">
    <g id="xtick_1">
     <g id="text_1">
      <text style="fill:#4d4d4d;font-family:DejaVu Sans;font-size:8.8px;font-stretch:normal;font-style:normal;font-weight:normal;text-anchor:middle;" transform="rotate(-0, 161.342943, 313.103996)" x="161.342943" y="313.103996">2020</text>
     </g>
    </g>
    <g id="xtick_2">
     <g id="text_2">
      <text style="fill:#4d4d4d;font-family:DejaVu Sans;font-size:8.8px;font-stretch:normal;font-style:normal;font-weight:normal;text-anchor:middle;" transform="rotate(-0, 269.561125, 313.103996)" x="269.561125" y="313.103996">2021</text>
     </g>
    </g>
    <g id="xtick_3">
     <g id="text_3">
      <text style="fill:#4d4d4d;font-family:DejaVu Sans;font-size:8.8px;font-stretch:normal;font-style:normal;font-weight:normal;text-anchor:middle;" transform="rotate(-0, 377.779307, 313.103996)" x="377.779307" y="313.103996">2022</text>
     </g>
    </g>
    <g id="xtick_4"/>
    <g id="xtick_5"/>
    <g id="xtick_6"/>
    <g id="xtick_7"/>
   </g>
   <g id="matplotlib.axis_2">
    <g id="ytick_1">
     <g id="text_4">
      <text style="fill:#4d4d4d;font-family:DejaVu Sans;font-size:8.8px;font-stretch:normal;font-style:normal;font-weight:normal;text-anchor:end;" transform="rotate(-0, 76.801125, 290.862038)" x="76.801125" y="290.862038">Iowa</text>
     </g>
    </g>
    <g id="ytick_2">
     <g id="text_5">
      <text style="fill:#4d4d4d;font-family:DejaVu Sans;font-size:8.8px;font-stretch:normal;font-style:normal;font-weight:normal;text-anchor:end;" transform="rotate(-0, 76.801125, 284.556066)" x="76.801125" y="284.556066">Massachusetts</text>
     </g>
    </g>
    <g id="ytick_3">
     <g id="text_6">
      <text style="fill:#4d4d4d;font-family:DejaVu Sans;font-size:8.8px;font-stretch:normal;font-style:normal;font-weight:normal;text-anchor:end;" transform="rotate(-0, 76.801125, 278.250095)" x="76.801125" y="278.250095">Michigan</text>
     </g>
    </g>
    <g id="ytick_4">
     <g id="text_7">
      <text style="fill:#4d4d4d;font-family:DejaVu Sans;font-size:8.8px;font-stretch:normal;font-style:normal;font-weight:normal;text-anchor:end;" transform="rotate(-0, 76.801125, 271.944123)" x="76.801125" y="271.944123">Kentucky</text>
     </g>
    </g>
    <g id="ytick_5">
     <g id="text_8">
      <text style="fill:#4d4d4d;font-family:DejaVu Sans;font-size:8.8px;font-stretch:normal;font-style:normal;font-weight:normal;text-anchor:end;" transform="rotate(-0, 76.801125, 265.638152)" x="76.801125" y="265.638152">Kansas</text>
     </g>
    </g>
    <g id="ytick_6">
     <g id="text_9">
      <text style="fill:#4d4d4d;font-family:DejaVu Sans;font-size:8.8px;font-stretch:normal;font-style:normal;font-weight:normal;text-anchor:end;" transform="rotate(-0, 76.801125, 259.33218)" x="76.801125" y="259.33218">Maryland</text>
     </g>
    </g>
    <g id="ytick_7">
     <g id="text_10">
      <text style="fill:#4d4d4d;font-family:DejaVu Sans;font-size:8.8px;font-stretch:normal;font-style:normal;font-weight:normal;text-anchor:end;" transform="rotate(-0, 76.801125, 253.026208)" x="76.801125" y="253.026208">Connecticut</text>
     </g>
    </g>
    <g id="ytick_8">
     <g id="text_11">
      <text style="fill:#4d4d4d;font-family:DejaVu Sans;font-size:8.8px;font-stretch:normal;font-style:normal;font-weight:normal;text-anchor:end;" transform="rotate(-0, 76.801125, 246.720237)" x="76.801125" y="246.720237">Colorado</text>
     </g>
    </g>
    <g id="ytick_9">
     <g id="text_12">
      <text style="fill:#4d4d4d;font-family:DejaVu Sans;font-size:8.8px;font-stretch:normal;font-style:normal;font-weight:normal;text-anchor:end;" transform="rotate(-0, 76.801125, 240.414265)" x="76.801125" y="240.414265">Illinois</text>
     </g>
    </g>
    <g id="ytick_10">
     <g id="text_13">
      <text style="fill:#4d4d4d;font-family:DejaVu Sans;font-size:8.8px;font-stretch:normal;font-style:normal;font-weight:normal;text-anchor:end;" transform="rotate(-0, 76.801125, 234.108294)" x="76.801125" y="234.108294">Missouri</text>
     </g>
    </g>
    <g id="ytick_11">
     <g id="text_14">
      <text style="fill:#4d4d4d;font-family:DejaVu Sans;font-size:8.8px;font-stretch:normal;font-style:normal;font-weight:normal;text-anchor:end;" transform="rotate(-0, 76.801125, 227.802322)" x="76.801125" y="227.802322">Vermont</text>
     </g>
    </g>
    <g id="ytick_12">
     <g id="text_15">
      <text style="fill:#4d4d4d;font-family:DejaVu Sans;font-size:8.8px;font-stretch:normal;font-style:normal;font-weight:normal;text-anchor:end;" transform="rotate(-0, 76.801125, 221.496351)" x="76.801125" y="221.496351">Texas</text>
     </g>
    </g>
    <g id="ytick_13">
     <g id="text_16">
      <text style="fill:#4d4d4d;font-family:DejaVu Sans;font-size:8.8px;font-stretch:normal;font-style:normal;font-weight:normal;text-anchor:end;" transform="rotate(-0, 76.801125, 215.190379)" x="76.801125" y="215.190379">South Dakota</text>
     </g>
    </g>
    <g id="ytick_14">
     <g id="text_17">
      <text style="fill:#4d4d4d;font-family:DejaVu Sans;font-size:8.8px;font-stretch:normal;font-style:normal;font-weight:normal;text-anchor:end;" transform="rotate(-0, 76.801125, 208.884407)" x="76.801125" y="208.884407">Pennsylvania</text>
     </g>
    </g>
    <g id="ytick_15">
     <g id="text_18">
      <text style="fill:#4d4d4d;font-family:DejaVu Sans;font-size:8.8px;font-stretch:normal;font-style:normal;font-weight:normal;text-anchor:end;" transform="rotate(-0, 76.801125, 202.578436)" x="76.801125" y="202.578436">Oklahoma</text>
     </g>
    </g>
    <g id="ytick_16">
     <g id="text_19">
      <text style="fill:#4d4d4d;font-family:DejaVu Sans;font-size:8.8px;font-stretch:normal;font-style:normal;font-weight:normal;text-anchor:end;" transform="rotate(-0, 76.801125, 196.272464)" x="76.801125" y="196.272464">Arkansas</text>
     </g>
    </g>
    <g id="ytick_17">
     <g id="text_20">
      <text style="fill:#4d4d4d;font-family:DejaVu Sans;font-size:8.8px;font-stretch:normal;font-style:normal;font-weight:normal;text-anchor:end;" transform="rotate(-0, 76.801125, 189.966493)" x="76.801125" y="189.966493">Nebraska</text>
     </g>
    </g>
    <g id="ytick_18">
     <g id="text_21">
      <text style="fill:#4d4d4d;font-family:DejaVu Sans;font-size:8.8px;font-stretch:normal;font-style:normal;font-weight:normal;text-anchor:end;" transform="rotate(-0, 76.801125, 183.660521)" x="76.801125" y="183.660521">Alaska</text>
     </g>
    </g>
    <g id="ytick_19">
     <g id="text_22">
      <text style="fill:#4d4d4d;font-family:DejaVu Sans;font-size:8.8px;font-stretch:normal;font-style:normal;font-weight:normal;text-anchor:end;" transform="rotate(-0, 76.801125, 177.35455)" x="76.801125" y="177.35455">California</text>
     </g>
    </g>
    <g id="ytick_20">
     <g id="text_23">
      <text style="fill:#4d4d4d;font-family:DejaVu Sans;font-size:8.8px;font-stretch:normal;font-style:normal;font-weight:normal;text-anchor:end;" transform="rotate(-0, 76.801125, 171.048578)" x="76.801125" y="171.048578">North Dakota</text>
     </g>
    </g>
    <g id="ytick_21">
     <g id="text_24">
      <text style="fill:#4d4d4d;font-family:DejaVu Sans;font-size:8.8px;font-stretch:normal;font-style:normal;font-weight:normal;text-anchor:end;" transform="rotate(-0, 76.801125, 164.742607)" x="76.801125" y="164.742607">North Carolina</text>
     </g>
    </g>
    <g id="ytick_22">
     <g id="text_25">
      <text style="fill:#4d4d4d;font-family:DejaVu Sans;font-size:8.8px;font-stretch:normal;font-style:normal;font-weight:normal;text-anchor:end;" transform="rotate(-0, 76.801125, 158.436635)" x="76.801125" y="158.436635">New York</text>
     </g>
    </g>
    <g id="ytick_23">
     <g id="text_26">
      <text style="fill:#4d4d4d;font-family:DejaVu Sans;font-size:8.8px;font-stretch:normal;font-style:normal;font-weight:normal;text-anchor:end;" transform="rotate(-0, 76.801125, 152.130663)" x="76.801125" y="152.130663">New Mexico</text>
     </g>
    </g>
    <g id="ytick_24">
     <g id="text_27">
      <text style="fill:#4d4d4d;font-family:DejaVu Sans;font-size:8.8px;font-stretch:normal;font-style:normal;font-weight:normal;text-anchor:end;" transform="rotate(-0, 76.801125, 145.824692)" x="76.801125" y="145.824692">New Jersey</text>
     </g>
    </g>
    <g id="ytick_25">
     <g id="text_28">
      <text style="fill:#4d4d4d;font-family:DejaVu Sans;font-size:8.8px;font-stretch:normal;font-style:normal;font-weight:normal;text-anchor:end;" transform="rotate(-0, 76.801125, 139.51872)" x="76.801125" y="139.51872">West Virginia</text>
     </g>
    </g>
    <g id="ytick_26">
     <g id="text_29">
      <text style="fill:#4d4d4d;font-family:DejaVu Sans;font-size:8.8px;font-stretch:normal;font-style:normal;font-weight:normal;text-anchor:end;" transform="rotate(-0, 76.801125, 133.212749)" x="76.801125" y="133.212749">New Hampshire</text>
     </g>
    </g>
    <g id="ytick_27">
     <g id="text_30">
      <text style="fill:#4d4d4d;font-family:DejaVu Sans;font-size:8.8px;font-stretch:normal;font-style:normal;font-weight:normal;text-anchor:end;" transform="rotate(-0, 76.801125, 126.906777)" x="76.801125" y="126.906777">Nevada</text>
     </g>
    </g>
    <g id="ytick_28">
     <g id="text_31">
      <text style="fill:#4d4d4d;font-family:DejaVu Sans;font-size:8.8px;font-stretch:normal;font-style:normal;font-weight:normal;text-anchor:end;" transform="rotate(-0, 76.801125, 120.600806)" x="76.801125" y="120.600806">Virginia</text>
     </g>
    </g>
    <g id="ytick_29">
     <g id="text_32">
      <text style="fill:#4d4d4d;font-family:DejaVu Sans;font-size:8.8px;font-stretch:normal;font-style:normal;font-weight:normal;text-anchor:end;" transform="rotate(-0, 76.801125, 114.294834)" x="76.801125" y="114.294834">Georgia</text>
     </g>
    </g>
    <g id="ytick_30">
     <g id="text_33">
      <text style="fill:#4d4d4d;font-family:DejaVu Sans;font-size:8.8px;font-stretch:normal;font-style:normal;font-weight:normal;text-anchor:end;" transform="rotate(-0, 76.801125, 107.988862)" x="76.801125" y="107.988862">Idaho</text>
     </g>
    </g>
    <g id="ytick_31">
     <g id="text_34">
      <text style="fill:#4d4d4d;font-family:DejaVu Sans;font-size:8.8px;font-stretch:normal;font-style:normal;font-weight:normal;text-anchor:end;" transform="rotate(-0, 76.801125, 101.682891)" x="76.801125" y="101.682891"> </text>
     </g>
    </g>
    <g id="ytick_32">
     <g id="text_35">
      <text style="fill:#4d4d4d;font-family:DejaVu Sans;font-size:8.8px;font-stretch:normal;font-style:normal;font-weight:normal;text-anchor:end;" transform="rotate(-0, 76.801125, 95.376919)" x="76.801125" y="95.376919">Montana</text>
     </g>
    </g>
    <g id="ytick_33">
     <g id="text_36">
      <text style="fill:#4d4d4d;font-family:DejaVu Sans;font-size:8.8px;font-stretch:normal;font-style:normal;font-weight:normal;text-anchor:end;" transform="rotate(-0, 76.801125, 89.070948)" x="76.801125" y="89.070948">Louisiana</text>
     </g>
    </g>
    <g id="ytick_34">
     <g id="text_37">
      <text style="fill:#4d4d4d;font-family:DejaVu Sans;font-size:8.8px;font-stretch:normal;font-style:normal;font-weight:normal;text-anchor:end;" transform="rotate(-0, 76.801125, 82.764976)" x="76.801125" y="82.764976">Maine</text>
     </g>
    </g>
    <g id="ytick_35">
     <g id="text_38">
      <text style="fill:#4d4d4d;font-family:DejaVu Sans;font-size:8.8px;font-stretch:normal;font-style:normal;font-weight:normal;text-anchor:end;" transform="rotate(-0, 76.801125, 76.459005)" x="76.801125" y="76.459005">Minnesota</text>
     </g>
    </g>
    <g id="ytick_36">
     <g id="text_39">
      <text style="fill:#4d4d4d;font-family:DejaVu Sans;font-size:8.8px;font-stretch:normal;font-style:normal;font-weight:normal;text-anchor:end;" transform="rotate(-0, 76.801125, 70.153033)" x="76.801125" y="70.153033">Mississippi</text>
     </g>
    </g>
    <g id="ytick_37">
     <g id="text_40">
      <text style="fill:#4d4d4d;font-family:DejaVu Sans;font-size:8.8px;font-stretch:normal;font-style:normal;font-weight:normal;text-anchor:end;" transform="rotate(-0, 76.801125, 63.847061)" x="76.801125" y="63.847061">Wyoming</text>
     </g>
    </g>
    <g id="ytick_38">
     <g id="text_41">
      <text style="fill:#4d4d4d;font-family:DejaVu Sans;font-size:8.8px;font-stretch:normal;font-style:normal;font-weight:normal;text-anchor:end;" transform="rotate(-0, 76.801125, 57.54109)" x="76.801125" y="57.54109">Ohio</text>
     </g>
    </g>
    <g id="ytick_39">
     <g id="text_42">
      <text style="fill:#4d4d4d;font-family:DejaVu Sans;font-size:8.8px;font-stretch:normal;font-style:normal;font-weight:normal;text-anchor:end;" transform="rotate(-0, 76.801125, 51.235118)" x="76.801125" y="51.235118">South Carolina</text>
     </g>
    </g>
    <g id="ytick_40">
     <g id="text_43">
      <text style="fill:#4d4d4d;font-family:DejaVu Sans;font-size:8.8px;font-stretch:normal;font-style:normal;font-weight:normal;text-anchor:end;" transform="rotate(-0, 76.801125, 44.929147)" x="76.801125" y="44.929147">Utah</text>
     </g>
    </g>
    <g id="ytick_41">
     <g id="text_44">
      <text style="fill:#4d4d4d;font-family:DejaVu Sans;font-size:8.8px;font-stretch:normal;font-style:normal;font-weight:normal;text-anchor:end;" transform="rotate(-0, 76.801125, 38.623175)" x="76.801125" y="38.623175">Washington</text>
     </g>
    </g>
    <g id="ytick_42">
     <g id="text_45">
      <text style="fill:#4d4d4d;font-family:DejaVu Sans;font-size:8.8px;font-stretch:normal;font-style:normal;font-weight:normal;text-anchor:end;" transform="rotate(-0, 76.801125, 32.317204)" x="76.801125" y="32.317204">Alabama</text>
     </g>
    </g>
   </g>
   <g id="PolyCollection_1">
    <path clip-path="url(#pedb7090060)" d="M 215.452034 33.041939 
L 215.452034 26.735968 
L 323.670216 26.735968 
L 323.670216 33.041939 
z
" style="fill:#a8e799;stroke:#ffffff;stroke-width:0.354491;"/>
    <path clip-path="url(#pedb7090060)" d="M 107.233852 39.347911 
L 107.233852 33.041939 
L 215.452034 33.041939 
L 215.452034 39.347911 
z
" style="fill:#a8e799;stroke:#ffffff;stroke-width:0.354491;"/>
    <path clip-path="url(#pedb7090060)" d="M 107.233852 45.653883 
L 107.233852 39.347911 
L 215.452034 39.347911 
L 215.452034 45.653883 
z
" style="fill:#a8e799;stroke:#ffffff;stroke-width:0.354491;"/>
    <path clip-path="url(#pedb7090060)" d="M 107.233852 51.959854 
L 107.233852 45.653883 
L 215.452034 45.653883 
L 215.452034 51.959854 
z
" style="fill:#a8e799;stroke:#ffffff;stroke-width:0.354491;"/>
    <path clip-path="url(#pedb7090060)" d="M 107.233852 58.265826 
L 107.233852 51.959854 
L 215.452034 51.959854 
L 215.452034 58.265826 
z
" style="fill:#a8e799;stroke:#ffffff;stroke-width:0.354491;"/>
    <path clip-path="url(#pedb7090060)" d="M 215.452034 58.265826 
L 215.452034 51.959854 
L 323.670216 51.959854 
L 323.670216 58.265826 
z
" style="fill:#a8e799;stroke:#ffffff;stroke-width:0.354491;"/>
    <path clip-path="url(#pedb7090060)" d="M 107.233852 64.571797 
L 107.233852 58.265826 
L 215.452034 58.265826 
L 215.452034 64.571797 
z
" style="fill:#a8e799;stroke:#ffffff;stroke-width:0.354491;"/>
    <path clip-path="url(#pedb7090060)" d="M 215.452034 70.877769 
L 215.452034 64.571797 
L 323.670216 64.571797 
L 323.670216 70.877769 
z
" style="fill:#a8e799;stroke:#ffffff;stroke-width:0.354491;"/>
    <path clip-path="url(#pedb7090060)" d="M 215.452034 77.18374 
L 215.452034 70.877769 
L 323.670216 70.877769 
L 323.670216 77.18374 
z
" style="fill:#a8e799;stroke:#ffffff;stroke-width:0.354491;"/>
    <path clip-path="url(#pedb7090060)" d="M 215.452034 83.489712 
L 215.452034 77.18374 
L 323.670216 77.18374 
L 323.670216 83.489712 
z
" style="fill:#a8e799;stroke:#ffffff;stroke-width:0.354491;"/>
    <path clip-path="url(#pedb7090060)" d="M 107.233852 83.489712 
L 107.233852 77.18374 
L 215.452034 77.18374 
L 215.452034 83.489712 
z
" style="fill:#a8e799;stroke:#ffffff;stroke-width:0.354491;"/>
    <path clip-path="url(#pedb7090060)" d="M 107.233852 89.795684 
L 107.233852 83.489712 
L 215.452034 83.489712 
L 215.452034 89.795684 
z
" style="fill:#a8e799;stroke:#ffffff;stroke-width:0.354491;"/>
    <path clip-path="url(#pedb7090060)" d="M 215.452034 96.101655 
L 215.452034 89.795684 
L 323.670216 89.795684 
L 323.670216 96.101655 
z
" style="fill:#a8e799;stroke:#ffffff;stroke-width:0.354491;"/>
    <path clip-path="url(#pedb7090060)" d="M 215.452034 102.407627 
L 215.452034 96.101655 
L 323.670216 96.101655 
L 323.670216 102.407627 
z
" style="fill:#a8e799;stroke:#ffffff;stroke-width:0.354491;"/>
    <path clip-path="url(#pedb7090060)" d="M 107.233852 108.713598 
L 107.233852 102.407627 
L 215.452034 102.407627 
L 215.452034 108.713598 
z
" style="fill:#a8e799;stroke:#ffffff;stroke-width:0.354491;"/>
    <path clip-path="url(#pedb7090060)" d="M 107.233852 115.01957 
L 107.233852 108.713598 
L 215.452034 108.713598 
L 215.452034 115.01957 
z
" style="fill:#a8e799;stroke:#ffffff;stroke-width:0.354491;"/>
    <path clip-path="url(#pedb7090060)" d="M 215.452034 115.01957 
L 215.452034 108.713598 
L 323.670216 108.713598 
L 323.670216 115.01957 
z
" style="fill:#a8e799;stroke:#ffffff;stroke-width:0.354491;"/>
    <path clip-path="url(#pedb7090060)" d="M 215.452034 121.325541 
L 215.452034 115.01957 
L 323.670216 115.01957 
L 323.670216 121.325541 
z
" style="fill:#f89176;stroke:#ffffff;stroke-width:0.354491;"/>
    <path clip-path="url(#pedb7090060)" d="M 215.452034 127.631513 
L 215.452034 121.325541 
L 323.670216 121.325541 
L 323.670216 127.631513 
z
" style="fill:#f89176;stroke:#ffffff;stroke-width:0.354491;"/>
    <path clip-path="url(#pedb7090060)" d="M 215.452034 133.937484 
L 215.452034 127.631513 
L 323.670216 127.631513 
L 323.670216 133.937484 
z
" style="fill:#f89176;stroke:#ffffff;stroke-width:0.354491;"/>
    <path clip-path="url(#pedb7090060)" d="M 107.233852 140.243456 
L 107.233852 133.937484 
L 215.452034 133.937484 
L 215.452034 140.243456 
z
" style="fill:#f89176;stroke:#ffffff;stroke-width:0.354491;"/>
    <path clip-path="url(#pedb7090060)" d="M 215.452034 146.549428 
L 215.452034 140.243456 
L 323.670216 140.243456 
L 323.670216 146.549428 
z
" style="fill:#f89176;stroke:#ffffff;stroke-width:0.354491;"/>
    <path clip-path="url(#pedb7090060)" d="M 215.452034 152.855399 
L 215.452034 146.549428 
L 323.670216 146.549428 
L 323.670216 152.855399 
z
" style="fill:#f89176;stroke:#ffffff;stroke-width:0.354491;"/>
    <path clip-path="url(#pedb7090060)" d="M 107.233852 152.855399 
L 107.233852 146.549428 
L 215.452034 146.549428 
L 215.452034 152.855399 
z
" style="fill:#f89176;stroke:#ffffff;stroke-width:0.354491;"/>
    <path clip-path="url(#pedb7090060)" d="M 107.233852 159.161371 
L 107.233852 152.855399 
L 215.452034 152.855399 
L 215.452034 159.161371 
z
" style="fill:#f89176;stroke:#ffffff;stroke-width:0.354491;"/>
    <path clip-path="url(#pedb7090060)" d="M 107.233852 165.467342 
L 107.233852 159.161371 
L 215.452034 159.161371 
L 215.452034 165.467342 
z
" style="fill:#f89176;stroke:#ffffff;stroke-width:0.354491;"/>
    <path clip-path="url(#pedb7090060)" d="M 215.452034 171.773314 
L 215.452034 165.467342 
L 323.670216 165.467342 
L 323.670216 171.773314 
z
" style="fill:#f89176;stroke:#ffffff;stroke-width:0.354491;"/>
    <path clip-path="url(#pedb7090060)" d="M 107.233852 178.079285 
L 107.233852 171.773314 
L 215.452034 171.773314 
L 215.452034 178.079285 
z
" style="fill:#f89176;stroke:#ffffff;stroke-width:0.354491;"/>
    <path clip-path="url(#pedb7090060)" d="M 107.233852 184.385257 
L 107.233852 178.079285 
L 215.452034 178.079285 
L 215.452034 184.385257 
z
" style="fill:#f89176;stroke:#ffffff;stroke-width:0.354491;"/>
    <path clip-path="url(#pedb7090060)" d="M 107.233852 190.691229 
L 107.233852 184.385257 
L 215.452034 184.385257 
L 215.452034 190.691229 
z
" style="fill:#f89176;stroke:#ffffff;stroke-width:0.354491;"/>
    <path clip-path="url(#pedb7090060)" d="M 215.452034 196.9972 
L 215.452034 190.691229 
L 323.670216 190.691229 
L 323.670216 196.9972 
z
" style="fill:#f89176;stroke:#ffffff;stroke-width:0.354491;"/>
    <path clip-path="url(#pedb7090060)" d="M 107.233852 203.303172 
L 107.233852 196.9972 
L 215.452034 196.9972 
L 215.452034 203.303172 
z
" style="fill:#f89176;stroke:#ffffff;stroke-width:0.354491;"/>
    <path clip-path="url(#pedb7090060)" d="M 107.233852 209.609143 
L 107.233852 203.303172 
L 215.452034 203.303172 
L 215.452034 209.609143 
z
" style="fill:#f89176;stroke:#ffffff;stroke-width:0.354491;"/>
    <path clip-path="url(#pedb7090060)" d="M 107.233852 215.915115 
L 107.233852 209.609143 
L 215.452034 209.609143 
L 215.452034 215.915115 
z
" style="fill:#f89176;stroke:#ffffff;stroke-width:0.354491;"/>
    <path clip-path="url(#pedb7090060)" d="M 215.452034 215.915115 
L 215.452034 209.609143 
L 323.670216 209.609143 
L 323.670216 215.915115 
z
" style="fill:#f89176;stroke:#ffffff;stroke-width:0.354491;"/>
    <path clip-path="url(#pedb7090060)" d="M 215.452034 222.221086 
L 215.452034 215.915115 
L 323.670216 215.915115 
L 323.670216 222.221086 
z
" style="fill:#f89176;stroke:#ffffff;stroke-width:0.354491;"/>
    <path clip-path="url(#pedb7090060)" d="M 107.233852 228.527058 
L 107.233852 222.221086 
L 215.452034 222.221086 
L 215.452034 228.527058 
z
" style="fill:#f89176;stroke:#ffffff;stroke-width:0.354491;"/>
    <path clip-path="url(#pedb7090060)" d="M 323.670216 121.325541 
L 323.670216 115.01957 
L 431.888398 115.01957 
L 431.888398 121.325541 
z
" style="fill:#f89176;stroke:#ffffff;stroke-width:0.354491;"/>
    <path clip-path="url(#pedb7090060)" d="M 215.452034 234.833029 
L 215.452034 228.527058 
L 323.670216 228.527058 
L 323.670216 234.833029 
z
" style="fill:#f89176;stroke:#ffffff;stroke-width:0.354491;"/>
    <path clip-path="url(#pedb7090060)" d="M 107.233852 241.139001 
L 107.233852 234.833029 
L 215.452034 234.833029 
L 215.452034 241.139001 
z
" style="fill:#f89176;stroke:#ffffff;stroke-width:0.354491;"/>
    <path clip-path="url(#pedb7090060)" d="M 107.233852 247.444973 
L 107.233852 241.139001 
L 215.452034 241.139001 
L 215.452034 247.444973 
z
" style="fill:#f89176;stroke:#ffffff;stroke-width:0.354491;"/>
    <path clip-path="url(#pedb7090060)" d="M 107.233852 234.833029 
L 107.233852 228.527058 
L 215.452034 228.527058 
L 215.452034 234.833029 
z
" style="fill:#f89176;stroke:#ffffff;stroke-width:0.354491;"/>
    <path clip-path="url(#pedb7090060)" d="M 215.452034 253.750944 
L 215.452034 247.444973 
L 323.670216 247.444973 
L 323.670216 253.750944 
z
" style="fill:#f89176;stroke:#ffffff;stroke-width:0.354491;"/>
    <path clip-path="url(#pedb7090060)" d="M 215.452034 260.056916 
L 215.452034 253.750944 
L 323.670216 253.750944 
L 323.670216 260.056916 
z
" style="fill:#f89176;stroke:#ffffff;stroke-width:0.354491;"/>
    <path clip-path="url(#pedb7090060)" d="M 107.233852 260.056916 
L 107.233852 253.750944 
L 215.452034 253.750944 
L 215.452034 260.056916 
z
" style="fill:#f89176;stroke:#ffffff;stroke-width:0.354491;"/>
    <path clip-path="url(#pedb7090060)" d="M 107.233852 266.362887 
L 107.233852 260.056916 
L 215.452034 260.056916 
L 215.452034 266.362887 
z
" style="fill:#f89176;stroke:#ffffff;stroke-width:0.354491;"/>
    <path clip-path="url(#pedb7090060)" d="M 107.233852 272.668859 
L 107.233852 266.362887 
L 215.452034 266.362887 
L 215.452034 272.668859 
z
" style="fill:#f89176;stroke:#ffffff;stroke-width:0.354491;"/>
    <path clip-path="url(#pedb7090060)" d="M 107.233852 278.97483 
L 107.233852 272.668859 
L 215.452034 272.668859 
L 215.452034 278.97483 
z
" style="fill:#f89176;stroke:#ffffff;stroke-width:0.354491;"/>
    <path clip-path="url(#pedb7090060)" d="M 107.233852 285.280802 
L 107.233852 278.97483 
L 215.452034 278.97483 
L 215.452034 285.280802 
z
" style="fill:#f89176;stroke:#ffffff;stroke-width:0.354491;"/>
    <path clip-path="url(#pedb7090060)" d="M 107.233852 291.586774 
L 107.233852 285.280802 
L 215.452034 285.280802 
L 215.452034 291.586774 
z
" style="fill:#f89176;stroke:#ffffff;stroke-width:0.354491;"/>
    <path clip-path="url(#pedb7090060)" d="M 107.233852 272.668859 
L 107.233852 266.362887 
L 215.452034 266.362887 
L 215.452034 272.668859 
z
" style="fill:#f89176;stroke:#ffffff;stroke-width:0.354491;"/>
    <path clip-path="url(#pedb7090060)" d="M 323.670216 291.586774 
L 323.670216 285.280802 
L 431.888398 285.280802 
L 431.888398 291.586774 
z
" style="fill:#fae688;stroke:#ffffff;stroke-width:0.354491;"/>
    <path clip-path="url(#pedb7090060)" d="M 215.452034 184.385257 
L 215.452034 178.079285 
L 323.670216 178.079285 
L 323.670216 184.385257 
z
" style="fill:#fae688;stroke:#ffffff;stroke-width:0.354491;"/>
    <path clip-path="url(#pedb7090060)" d="M 323.670216 266.362887 
L 323.670216 260.056916 
L 431.888398 260.056916 
L 431.888398 266.362887 
z
" style="fill:#fae688;stroke:#ffffff;stroke-width:0.354491;"/>
    <path clip-path="url(#pedb7090060)" d="M 323.670216 228.527058 
L 323.670216 222.221086 
L 431.888398 222.221086 
L 431.888398 228.527058 
z
" style="fill:#fae688;stroke:#ffffff;stroke-width:0.354491;"/>
    <path clip-path="url(#pedb7090060)" d="M 323.670216 215.915115 
L 323.670216 209.609143 
L 431.888398 209.609143 
L 431.888398 215.915115 
z
" style="fill:#fae688;stroke:#ffffff;stroke-width:0.354491;"/>
    <path clip-path="url(#pedb7090060)" d="M 215.452034 266.362887 
L 215.452034 260.056916 
L 323.670216 260.056916 
L 323.670216 266.362887 
z
" style="fill:#fae688;stroke:#ffffff;stroke-width:0.354491;"/>
    <path clip-path="url(#pedb7090060)" d="M 215.452034 291.586774 
L 215.452034 285.280802 
L 323.670216 285.280802 
L 323.670216 291.586774 
z
" style="fill:#fae688;stroke:#ffffff;stroke-width:0.354491;"/>
    <path clip-path="url(#pedb7090060)" d="M 323.670216 184.385257 
L 323.670216 178.079285 
L 431.888398 178.079285 
L 431.888398 184.385257 
z
" style="fill:#fae688;stroke:#ffffff;stroke-width:0.354491;"/>
    <path clip-path="url(#pedb7090060)" d="M 323.670216 209.609143 
L 323.670216 203.303172 
L 431.888398 203.303172 
L 431.888398 209.609143 
z
" style="fill:#fae688;stroke:#ffffff;stroke-width:0.354491;"/>
    <path clip-path="url(#pedb7090060)" d="M 215.452034 209.609143 
L 215.452034 203.303172 
L 323.670216 203.303172 
L 323.670216 209.609143 
z
" style="fill:#fae688;stroke:#ffffff;stroke-width:0.354491;"/>
    <path clip-path="url(#pedb7090060)" d="M 323.670216 241.139001 
L 323.670216 234.833029 
L 431.888398 234.833029 
L 431.888398 241.139001 
z
" style="fill:#fae688;stroke:#ffffff;stroke-width:0.354491;"/>
    <path clip-path="url(#pedb7090060)" d="M 215.452034 241.139001 
L 215.452034 234.833029 
L 323.670216 234.833029 
L 323.670216 241.139001 
z
" style="fill:#fae688;stroke:#ffffff;stroke-width:0.354491;"/>
    <path clip-path="url(#pedb7090060)" d="M 323.670216 140.243456 
L 323.670216 133.937484 
L 431.888398 133.937484 
L 431.888398 140.243456 
z
" style="fill:#fae688;stroke:#ffffff;stroke-width:0.354491;"/>
    <path clip-path="url(#pedb7090060)" d="M 215.452034 228.527058 
L 215.452034 222.221086 
L 323.670216 222.221086 
L 323.670216 228.527058 
z
" style="fill:#fae688;stroke:#ffffff;stroke-width:0.354491;"/>
    <path clip-path="url(#pedb7090060)" d="M 323.670216 272.668859 
L 323.670216 266.362887 
L 431.888398 266.362887 
L 431.888398 272.668859 
z
" style="fill:#fae688;stroke:#ffffff;stroke-width:0.354491;"/>
    <path clip-path="url(#pedb7090060)" d="M 323.670216 203.303172 
L 323.670216 196.9972 
L 431.888398 196.9972 
L 431.888398 203.303172 
z
" style="fill:#fae688;stroke:#ffffff;stroke-width:0.354491;"/>
    <path clip-path="url(#pedb7090060)" d="M 323.670216 234.833029 
L 323.670216 228.527058 
L 431.888398 228.527058 
L 431.888398 234.833029 
z
" style="fill:#fae688;stroke:#ffffff;stroke-width:0.354491;"/>
    <path clip-path="url(#pedb7090060)" d="M 323.670216 178.079285 
L 323.670216 171.773314 
L 431.888398 171.773314 
L 431.888398 178.079285 
z
" style="fill:#fae688;stroke:#ffffff;stroke-width:0.354491;"/>
    <path clip-path="url(#pedb7090060)" d="M 323.670216 247.444973 
L 323.670216 241.139001 
L 431.888398 241.139001 
L 431.888398 247.444973 
z
" style="fill:#fae688;stroke:#ffffff;stroke-width:0.354491;"/>
    <path clip-path="url(#pedb7090060)" d="M 215.452034 190.691229 
L 215.452034 184.385257 
L 323.670216 184.385257 
L 323.670216 190.691229 
z
" style="fill:#fae688;stroke:#ffffff;stroke-width:0.354491;"/>
    <path clip-path="url(#pedb7090060)" d="M 323.670216 190.691229 
L 323.670216 184.385257 
L 431.888398 184.385257 
L 431.888398 190.691229 
z
" style="fill:#fae688;stroke:#ffffff;stroke-width:0.354491;"/>
    <path clip-path="url(#pedb7090060)" d="M 323.670216 278.97483 
L 323.670216 272.668859 
L 431.888398 272.668859 
L 431.888398 278.97483 
z
" style="fill:#fae688;stroke:#ffffff;stroke-width:0.354491;"/>
    <path clip-path="url(#pedb7090060)" d="M 215.452034 278.97483 
L 215.452034 272.668859 
L 323.670216 272.668859 
L 323.670216 278.97483 
z
" style="fill:#fae688;stroke:#ffffff;stroke-width:0.354491;"/>
    <path clip-path="url(#pedb7090060)" d="M 215.452034 203.303172 
L 215.452034 196.9972 
L 323.670216 196.9972 
L 323.670216 203.303172 
z
" style="fill:#fae688;stroke:#ffffff;stroke-width:0.354491;"/>
    <path clip-path="url(#pedb7090060)" d="M 215.452034 285.280802 
L 215.452034 278.97483 
L 323.670216 278.97483 
L 323.670216 285.280802 
z
" style="fill:#fae688;stroke:#ffffff;stroke-width:0.354491;"/>
    <path clip-path="url(#pedb7090060)" d="M 323.670216 146.549428 
L 323.670216 140.243456 
L 431.888398 140.243456 
L 431.888398 146.549428 
z
" style="fill:#fae688;stroke:#ffffff;stroke-width:0.354491;"/>
    <path clip-path="url(#pedb7090060)" d="M 323.670216 285.280802 
L 323.670216 278.97483 
L 431.888398 278.97483 
L 431.888398 285.280802 
z
" style="fill:#fae688;stroke:#ffffff;stroke-width:0.354491;"/>
    <path clip-path="url(#pedb7090060)" d="M 323.670216 260.056916 
L 323.670216 253.750944 
L 431.888398 253.750944 
L 431.888398 260.056916 
z
" style="fill:#fae688;stroke:#ffffff;stroke-width:0.354491;"/>
    <path clip-path="url(#pedb7090060)" d="M 215.452034 159.161371 
L 215.452034 152.855399 
L 323.670216 152.855399 
L 323.670216 159.161371 
z
" style="fill:#fae688;stroke:#ffffff;stroke-width:0.354491;"/>
    <path clip-path="url(#pedb7090060)" d="M 323.670216 159.161371 
L 323.670216 152.855399 
L 431.888398 152.855399 
L 431.888398 159.161371 
z
" style="fill:#fae688;stroke:#ffffff;stroke-width:0.354491;"/>
    <path clip-path="url(#pedb7090060)" d="M 215.452034 165.467342 
L 215.452034 159.161371 
L 323.670216 159.161371 
L 323.670216 165.467342 
z
" style="fill:#fae688;stroke:#ffffff;stroke-width:0.354491;"/>
    <path clip-path="url(#pedb7090060)" d="M 323.670216 165.467342 
L 323.670216 159.161371 
L 431.888398 159.161371 
L 431.888398 165.467342 
z
" style="fill:#fae688;stroke:#ffffff;stroke-width:0.354491;"/>
    <path clip-path="url(#pedb7090060)" d="M 107.233852 146.549428 
L 107.233852 140.243456 
L 215.452034 140.243456 
L 215.452034 146.549428 
z
" style="fill:#fae688;stroke:#ffffff;stroke-width:0.354491;"/>
    <path clip-path="url(#pedb7090060)" d="M 323.670216 133.937484 
L 323.670216 127.631513 
L 431.888398 127.631513 
L 431.888398 133.937484 
z
" style="fill:#fae688;stroke:#ffffff;stroke-width:0.354491;"/>
   </g>
   <g id="patch_3">
    <path d="M 455.321125 202.916339 
L 534.38125 202.916339 
L 534.38125 111.950402 
L 455.321125 111.950402 
z
" style="fill:none;"/>
   </g>
   <g id="text_46">
    <text style="font-family:DejaVu Sans;font-size:11px;font-stretch:normal;font-style:normal;font-weight:normal;text-anchor:start;" transform="rotate(-0, 467.521125, 135.543996)" x="467.521125" y="135.543996">status</text>
   </g>
   <g id="patch_4">
    <path clip-path="url(#p8d0a4d5c7b)" d="M 467.521125 155.036339 
L 483.361125 155.036339 
L 483.361125 139.196339 
L 467.521125 139.196339 
z
" style="fill:none;"/>
   </g>
   <g id="patch_5">
    <path clip-path="url(#p8d0a4d5c7b)" d="M 467.69837 154.859094 
L 483.18388 154.859094 
L 483.18388 139.373585 
L 467.69837 139.373585 
z
" style="fill:#a8e799;stroke:#ffffff;stroke-linecap:square;stroke-linejoin:miter;stroke-width:0.354491;"/>
   </g>
   <g id="text_47">
    <text style="font-family:DejaVu Sans;font-size:8.8px;font-stretch:normal;font-style:normal;font-weight:normal;text-anchor:start;" transform="rotate(-0, 486.361125, 149.544589)" x="486.361125" y="149.544589">Enacted</text>
   </g>
   <g id="patch_6">
    <path clip-path="url(#pa8bf5481c3)" d="M 467.521125 172.876339 
L 483.361125 172.876339 
L 483.361125 157.036339 
L 467.521125 157.036339 
z
" style="fill:none;"/>
   </g>
   <g id="patch_7">
    <path clip-path="url(#pa8bf5481c3)" d="M 467.69837 172.699094 
L 483.18388 172.699094 
L 483.18388 157.213585 
L 467.69837 157.213585 
z
" style="fill:#f89176;stroke:#ffffff;stroke-linecap:square;stroke-linejoin:miter;stroke-width:0.354491;"/>
   </g>
   <g id="text_48">
    <text style="font-family:DejaVu Sans;font-size:8.8px;font-stretch:normal;font-style:normal;font-weight:normal;text-anchor:start;" transform="rotate(-0, 486.361125, 167.384589)" x="486.361125" y="167.384589">Failed</text>
   </g>
   <g id="patch_8">
    <path clip-path="url(#pfb7120fe60)" d="M 467.521125 190.716339 
L 483.361125 190.716339 
L 483.361125 174.876339 
L 467.521125 174.876339 
z
" style="fill:none;"/>
   </g>
   <g id="patch_9">
    <path clip-path="url(#pfb7120fe60)" d="M 467.69837 190.539094 
L 483.18388 190.539094 
L 483.18388 175.053585 
L 467.69837 175.053585 
z
" style="fill:#fae688;stroke:#ffffff;stroke-linecap:square;stroke-linejoin:miter;stroke-width:0.354491;"/>
   </g>
   <g id="text_49">
    <text style="font-family:DejaVu Sans;font-size:8.8px;font-stretch:normal;font-style:normal;font-weight:normal;text-anchor:start;" transform="rotate(-0, 486.361125, 185.224589)" x="486.361125" y="185.224589">Pending</text>
   </g>
  </g>
  <g id="text_50">
   <text style="font-family:DejaVu Sans;font-size:13.2px;font-stretch:normal;font-style:normal;font-weight:normal;text-anchor:middle;" transform="rotate(-0, 263.801125, 17.229938)" x="263.801125" y="17.229938">28 states are considering legislation on Daylight Saving Time in 2022</text>
  </g>
 </g>
 <defs>
  <clipPath id="pedb7090060">
   <rect height="266.112" width="357.12" x="91.001125" y="26.105371"/>
  </clipPath>
  <clipPath id="p8d0a4d5c7b">
   <path d="M 467.521125 155.036339 
L 467.521125 139.196339 
L 483.361125 139.196339 
L 483.361125 155.036339 
"/>
  </clipPath>
  <clipPath id="pa8bf5481c3">
   <path d="M 467.521125 172.876339 
L 467.521125 157.036339 
L 483.361125 157.036339 
L 483.361125 172.876339 
"/>
  </clipPath>
  <clipPath id="pfb7120fe60">
   <path d="M 467.521125 190.716339 
L 467.521125 174.876339 
L 483.361125 174.876339 
L 483.361125 190.716339 
"/>
  </clipPath>
 </defs>
</svg>
