<?xml version="1.0" encoding="utf-8" standalone="no"?>
<!DOCTYPE svg PUBLIC "-//W3C//DTD SVG 1.1//EN"
  "http://www.w3.org/Graphics/SVG/1.1/DTD/svg11.dtd">
<svg height="4622.829393pt" version="1.1" viewBox="0 0 579.180625 4622.829393" width="579.180625pt" xmlns="http://www.w3.org/2000/svg" xmlns:xlink="http://www.w3.org/1999/xlink">
 <metadata>
  <rdf:RDF xmlns:cc="http://creativecommons.org/ns#" xmlns:dc="http://purl.org/dc/elements/1.1/" xmlns:rdf="http://www.w3.org/1999/02/22-rdf-syntax-ns#">
   <cc:Work>
    <dc:type rdf:resource="http://purl.org/dc/dcmitype/StillImage"/>
    <dc:date>2022-03-09T09:10:46.534562</dc:date>
    <dc:format>image/svg+xml</dc:format>
    <dc:creator>
     <cc:Agent>
      <dc:title>Matplotlib v3.4.3, https://matplotlib.org/</dc:title>
     </cc:Agent>
    </dc:creator>
   </cc:Work>
  </rdf:RDF>
 </metadata>
 <defs>
  <style type="text/css">*{stroke-linecap:butt;stroke-linejoin:round;}</style>
 </defs>
 <g id="figure_1">
  <g id="patch_1">
   <path d="M -0 4622.829393 
L 579.180625 4622.829393 
L 579.180625 0 
L -0 0 
z
" style="fill:none;"/>
  </g>
  <g id="axes_1">
   <g id="patch_2">
    <path d="M 91.001125 4592.912643 
L 448.121125 4592.912643 
L 448.121125 26.105371 
L 91.001125 26.105371 
z
" style="fill:none;"/>
   </g>
   <g id="matplotlib.axis_1">
    <g id="xtick_1">
     <g id="text_1">
      <!-- 2020 -->
      <g style="fill:#4d4d4d;" transform="translate(150.144943 4613.799268)scale(0.088 -0.088)">
       <defs>
        <path d="M 1228 531 
L 3431 531 
L 3431 0 
L 469 0 
L 469 531 
Q 828 903 1448 1529 
Q 2069 2156 2228 2338 
Q 2531 2678 2651 2914 
Q 2772 3150 2772 3378 
Q 2772 3750 2511 3984 
Q 2250 4219 1831 4219 
Q 1534 4219 1204 4116 
Q 875 4013 500 3803 
L 500 4441 
Q 881 4594 1212 4672 
Q 1544 4750 1819 4750 
Q 2544 4750 2975 4387 
Q 3406 4025 3406 3419 
Q 3406 3131 3298 2873 
Q 3191 2616 2906 2266 
Q 2828 2175 2409 1742 
Q 1991 1309 1228 531 
z
" id="DejaVuSans-32" transform="scale(0.015625)"/>
        <path d="M 2034 4250 
Q 1547 4250 1301 3770 
Q 1056 3291 1056 2328 
Q 1056 1369 1301 889 
Q 1547 409 2034 409 
Q 2525 409 2770 889 
Q 3016 1369 3016 2328 
Q 3016 3291 2770 3770 
Q 2525 4250 2034 4250 
z
M 2034 4750 
Q 2819 4750 3233 4129 
Q 3647 3509 3647 2328 
Q 3647 1150 3233 529 
Q 2819 -91 2034 -91 
Q 1250 -91 836 529 
Q 422 1150 422 2328 
Q 422 3509 836 4129 
Q 1250 4750 2034 4750 
z
" id="DejaVuSans-30" transform="scale(0.015625)"/>
       </defs>
       <use xlink:href="#DejaVuSans-32"/>
       <use x="63.623047" xlink:href="#DejaVuSans-30"/>
       <use x="127.246094" xlink:href="#DejaVuSans-32"/>
       <use x="190.869141" xlink:href="#DejaVuSans-30"/>
      </g>
     </g>
    </g>
    <g id="xtick_2">
     <g id="text_2">
      <!-- 2021 -->
      <g style="fill:#4d4d4d;" transform="translate(258.363125 4613.799268)scale(0.088 -0.088)">
       <defs>
        <path d="M 794 531 
L 1825 531 
L 1825 4091 
L 703 3866 
L 703 4441 
L 1819 4666 
L 2450 4666 
L 2450 531 
L 3481 531 
L 3481 0 
L 794 0 
L 794 531 
z
" id="DejaVuSans-31" transform="scale(0.015625)"/>
       </defs>
       <use xlink:href="#DejaVuSans-32"/>
       <use x="63.623047" xlink:href="#DejaVuSans-30"/>
       <use x="127.246094" xlink:href="#DejaVuSans-32"/>
       <use x="190.869141" xlink:href="#DejaVuSans-31"/>
      </g>
     </g>
    </g>
    <g id="xtick_3">
     <g id="text_3">
      <!-- 2022 -->
      <g style="fill:#4d4d4d;" transform="translate(366.581307 4613.799268)scale(0.088 -0.088)">
       <use xlink:href="#DejaVuSans-32"/>
       <use x="63.623047" xlink:href="#DejaVuSans-30"/>
       <use x="127.246094" xlink:href="#DejaVuSans-32"/>
       <use x="190.869141" xlink:href="#DejaVuSans-32"/>
      </g>
     </g>
    </g>
    <g id="xtick_4"/>
    <g id="xtick_5"/>
    <g id="xtick_6"/>
    <g id="xtick_7"/>
   </g>
   <g id="matplotlib.axis_2">
    <g id="ytick_1">
     <g id="text_4">
      <!--   -->
      <g style="fill:#4d4d4d;" transform="translate(74.004375 4530.409984)scale(0.088 -0.088)">
       <defs>
        <path id="DejaVuSans-a0" transform="scale(0.015625)"/>
       </defs>
       <use xlink:href="#DejaVuSans-a0"/>
      </g>
     </g>
    </g>
    <g id="ytick_2">
     <g id="text_5">
      <!-- Wyoming -->
      <g style="fill:#4d4d4d;" transform="translate(35.481 4422.191803)scale(0.088 -0.088)">
       <defs>
        <path d="M 213 4666 
L 850 4666 
L 1831 722 
L 2809 4666 
L 3519 4666 
L 4500 722 
L 5478 4666 
L 6119 4666 
L 4947 0 
L 4153 0 
L 3169 4050 
L 2175 0 
L 1381 0 
L 213 4666 
z
" id="DejaVuSans-57" transform="scale(0.015625)"/>
        <path d="M 2059 -325 
Q 1816 -950 1584 -1140 
Q 1353 -1331 966 -1331 
L 506 -1331 
L 506 -850 
L 844 -850 
Q 1081 -850 1212 -737 
Q 1344 -625 1503 -206 
L 1606 56 
L 191 3500 
L 800 3500 
L 1894 763 
L 2988 3500 
L 3597 3500 
L 2059 -325 
z
" id="DejaVuSans-79" transform="scale(0.015625)"/>
        <path d="M 1959 3097 
Q 1497 3097 1228 2736 
Q 959 2375 959 1747 
Q 959 1119 1226 758 
Q 1494 397 1959 397 
Q 2419 397 2687 759 
Q 2956 1122 2956 1747 
Q 2956 2369 2687 2733 
Q 2419 3097 1959 3097 
z
M 1959 3584 
Q 2709 3584 3137 3096 
Q 3566 2609 3566 1747 
Q 3566 888 3137 398 
Q 2709 -91 1959 -91 
Q 1206 -91 779 398 
Q 353 888 353 1747 
Q 353 2609 779 3096 
Q 1206 3584 1959 3584 
z
" id="DejaVuSans-6f" transform="scale(0.015625)"/>
        <path d="M 3328 2828 
Q 3544 3216 3844 3400 
Q 4144 3584 4550 3584 
Q 5097 3584 5394 3201 
Q 5691 2819 5691 2113 
L 5691 0 
L 5113 0 
L 5113 2094 
Q 5113 2597 4934 2840 
Q 4756 3084 4391 3084 
Q 3944 3084 3684 2787 
Q 3425 2491 3425 1978 
L 3425 0 
L 2847 0 
L 2847 2094 
Q 2847 2600 2669 2842 
Q 2491 3084 2119 3084 
Q 1678 3084 1418 2786 
Q 1159 2488 1159 1978 
L 1159 0 
L 581 0 
L 581 3500 
L 1159 3500 
L 1159 2956 
Q 1356 3278 1631 3431 
Q 1906 3584 2284 3584 
Q 2666 3584 2933 3390 
Q 3200 3197 3328 2828 
z
" id="DejaVuSans-6d" transform="scale(0.015625)"/>
        <path d="M 603 3500 
L 1178 3500 
L 1178 0 
L 603 0 
L 603 3500 
z
M 603 4863 
L 1178 4863 
L 1178 4134 
L 603 4134 
L 603 4863 
z
" id="DejaVuSans-69" transform="scale(0.015625)"/>
        <path d="M 3513 2113 
L 3513 0 
L 2938 0 
L 2938 2094 
Q 2938 2591 2744 2837 
Q 2550 3084 2163 3084 
Q 1697 3084 1428 2787 
Q 1159 2491 1159 1978 
L 1159 0 
L 581 0 
L 581 3500 
L 1159 3500 
L 1159 2956 
Q 1366 3272 1645 3428 
Q 1925 3584 2291 3584 
Q 2894 3584 3203 3211 
Q 3513 2838 3513 2113 
z
" id="DejaVuSans-6e" transform="scale(0.015625)"/>
        <path d="M 2906 1791 
Q 2906 2416 2648 2759 
Q 2391 3103 1925 3103 
Q 1463 3103 1205 2759 
Q 947 2416 947 1791 
Q 947 1169 1205 825 
Q 1463 481 1925 481 
Q 2391 481 2648 825 
Q 2906 1169 2906 1791 
z
M 3481 434 
Q 3481 -459 3084 -895 
Q 2688 -1331 1869 -1331 
Q 1566 -1331 1297 -1286 
Q 1028 -1241 775 -1147 
L 775 -588 
Q 1028 -725 1275 -790 
Q 1522 -856 1778 -856 
Q 2344 -856 2625 -561 
Q 2906 -266 2906 331 
L 2906 616 
Q 2728 306 2450 153 
Q 2172 0 1784 0 
Q 1141 0 747 490 
Q 353 981 353 1791 
Q 353 2603 747 3093 
Q 1141 3584 1784 3584 
Q 2172 3584 2450 3431 
Q 2728 3278 2906 2969 
L 2906 3500 
L 3481 3500 
L 3481 434 
z
" id="DejaVuSans-67" transform="scale(0.015625)"/>
       </defs>
       <use xlink:href="#DejaVuSans-57"/>
       <use x="97.126953" xlink:href="#DejaVuSans-79"/>
       <use x="156.306641" xlink:href="#DejaVuSans-6f"/>
       <use x="217.488281" xlink:href="#DejaVuSans-6d"/>
       <use x="314.900391" xlink:href="#DejaVuSans-69"/>
       <use x="342.683594" xlink:href="#DejaVuSans-6e"/>
       <use x="406.0625" xlink:href="#DejaVuSans-67"/>
      </g>
     </g>
    </g>
    <g id="ytick_3">
     <g id="text_6">
      <!-- West Virginia -->
      <g style="fill:#4d4d4d;" transform="translate(19.1955 4313.973621)scale(0.088 -0.088)">
       <defs>
        <path d="M 3597 1894 
L 3597 1613 
L 953 1613 
Q 991 1019 1311 708 
Q 1631 397 2203 397 
Q 2534 397 2845 478 
Q 3156 559 3463 722 
L 3463 178 
Q 3153 47 2828 -22 
Q 2503 -91 2169 -91 
Q 1331 -91 842 396 
Q 353 884 353 1716 
Q 353 2575 817 3079 
Q 1281 3584 2069 3584 
Q 2775 3584 3186 3129 
Q 3597 2675 3597 1894 
z
M 3022 2063 
Q 3016 2534 2758 2815 
Q 2500 3097 2075 3097 
Q 1594 3097 1305 2825 
Q 1016 2553 972 2059 
L 3022 2063 
z
" id="DejaVuSans-65" transform="scale(0.015625)"/>
        <path d="M 2834 3397 
L 2834 2853 
Q 2591 2978 2328 3040 
Q 2066 3103 1784 3103 
Q 1356 3103 1142 2972 
Q 928 2841 928 2578 
Q 928 2378 1081 2264 
Q 1234 2150 1697 2047 
L 1894 2003 
Q 2506 1872 2764 1633 
Q 3022 1394 3022 966 
Q 3022 478 2636 193 
Q 2250 -91 1575 -91 
Q 1294 -91 989 -36 
Q 684 19 347 128 
L 347 722 
Q 666 556 975 473 
Q 1284 391 1588 391 
Q 1994 391 2212 530 
Q 2431 669 2431 922 
Q 2431 1156 2273 1281 
Q 2116 1406 1581 1522 
L 1381 1569 
Q 847 1681 609 1914 
Q 372 2147 372 2553 
Q 372 3047 722 3315 
Q 1072 3584 1716 3584 
Q 2034 3584 2315 3537 
Q 2597 3491 2834 3397 
z
" id="DejaVuSans-73" transform="scale(0.015625)"/>
        <path d="M 1172 4494 
L 1172 3500 
L 2356 3500 
L 2356 3053 
L 1172 3053 
L 1172 1153 
Q 1172 725 1289 603 
Q 1406 481 1766 481 
L 2356 481 
L 2356 0 
L 1766 0 
Q 1100 0 847 248 
Q 594 497 594 1153 
L 594 3053 
L 172 3053 
L 172 3500 
L 594 3500 
L 594 4494 
L 1172 4494 
z
" id="DejaVuSans-74" transform="scale(0.015625)"/>
        <path id="DejaVuSans-20" transform="scale(0.015625)"/>
        <path d="M 1831 0 
L 50 4666 
L 709 4666 
L 2188 738 
L 3669 4666 
L 4325 4666 
L 2547 0 
L 1831 0 
z
" id="DejaVuSans-56" transform="scale(0.015625)"/>
        <path d="M 2631 2963 
Q 2534 3019 2420 3045 
Q 2306 3072 2169 3072 
Q 1681 3072 1420 2755 
Q 1159 2438 1159 1844 
L 1159 0 
L 581 0 
L 581 3500 
L 1159 3500 
L 1159 2956 
Q 1341 3275 1631 3429 
Q 1922 3584 2338 3584 
Q 2397 3584 2469 3576 
Q 2541 3569 2628 3553 
L 2631 2963 
z
" id="DejaVuSans-72" transform="scale(0.015625)"/>
        <path d="M 2194 1759 
Q 1497 1759 1228 1600 
Q 959 1441 959 1056 
Q 959 750 1161 570 
Q 1363 391 1709 391 
Q 2188 391 2477 730 
Q 2766 1069 2766 1631 
L 2766 1759 
L 2194 1759 
z
M 3341 1997 
L 3341 0 
L 2766 0 
L 2766 531 
Q 2569 213 2275 61 
Q 1981 -91 1556 -91 
Q 1019 -91 701 211 
Q 384 513 384 1019 
Q 384 1609 779 1909 
Q 1175 2209 1959 2209 
L 2766 2209 
L 2766 2266 
Q 2766 2663 2505 2880 
Q 2244 3097 1772 3097 
Q 1472 3097 1187 3025 
Q 903 2953 641 2809 
L 641 3341 
Q 956 3463 1253 3523 
Q 1550 3584 1831 3584 
Q 2591 3584 2966 3190 
Q 3341 2797 3341 1997 
z
" id="DejaVuSans-61" transform="scale(0.015625)"/>
       </defs>
       <use xlink:href="#DejaVuSans-57"/>
       <use x="93.001953" xlink:href="#DejaVuSans-65"/>
       <use x="154.525391" xlink:href="#DejaVuSans-73"/>
       <use x="206.625" xlink:href="#DejaVuSans-74"/>
       <use x="245.833984" xlink:href="#DejaVuSans-20"/>
       <use x="277.621094" xlink:href="#DejaVuSans-56"/>
       <use x="343.779297" xlink:href="#DejaVuSans-69"/>
       <use x="371.5625" xlink:href="#DejaVuSans-72"/>
       <use x="410.925781" xlink:href="#DejaVuSans-67"/>
       <use x="474.402344" xlink:href="#DejaVuSans-69"/>
       <use x="502.185547" xlink:href="#DejaVuSans-6e"/>
       <use x="565.564453" xlink:href="#DejaVuSans-69"/>
       <use x="593.347656" xlink:href="#DejaVuSans-61"/>
      </g>
     </g>
    </g>
    <g id="ytick_4">
     <g id="text_7">
      <!-- Washington -->
      <g style="fill:#4d4d4d;" transform="translate(25.087375 4205.755439)scale(0.088 -0.088)">
       <defs>
        <path d="M 3513 2113 
L 3513 0 
L 2938 0 
L 2938 2094 
Q 2938 2591 2744 2837 
Q 2550 3084 2163 3084 
Q 1697 3084 1428 2787 
Q 1159 2491 1159 1978 
L 1159 0 
L 581 0 
L 581 4863 
L 1159 4863 
L 1159 2956 
Q 1366 3272 1645 3428 
Q 1925 3584 2291 3584 
Q 2894 3584 3203 3211 
Q 3513 2838 3513 2113 
z
" id="DejaVuSans-68" transform="scale(0.015625)"/>
       </defs>
       <use xlink:href="#DejaVuSans-57"/>
       <use x="92.501953" xlink:href="#DejaVuSans-61"/>
       <use x="153.78125" xlink:href="#DejaVuSans-73"/>
       <use x="205.880859" xlink:href="#DejaVuSans-68"/>
       <use x="269.259766" xlink:href="#DejaVuSans-69"/>
       <use x="297.042969" xlink:href="#DejaVuSans-6e"/>
       <use x="360.421875" xlink:href="#DejaVuSans-67"/>
       <use x="423.898438" xlink:href="#DejaVuSans-74"/>
       <use x="463.107422" xlink:href="#DejaVuSans-6f"/>
       <use x="524.289062" xlink:href="#DejaVuSans-6e"/>
      </g>
     </g>
    </g>
    <g id="ytick_5">
     <g id="text_8">
      <!-- Virginia -->
      <g style="fill:#4d4d4d;" transform="translate(43.625125 4097.537257)scale(0.088 -0.088)">
       <use xlink:href="#DejaVuSans-56"/>
       <use x="66.158203" xlink:href="#DejaVuSans-69"/>
       <use x="93.941406" xlink:href="#DejaVuSans-72"/>
       <use x="133.304688" xlink:href="#DejaVuSans-67"/>
       <use x="196.78125" xlink:href="#DejaVuSans-69"/>
       <use x="224.564453" xlink:href="#DejaVuSans-6e"/>
       <use x="287.943359" xlink:href="#DejaVuSans-69"/>
       <use x="315.726562" xlink:href="#DejaVuSans-61"/>
      </g>
     </g>
    </g>
    <g id="ytick_6">
     <g id="text_9">
      <!-- Vermont -->
      <g style="fill:#4d4d4d;" transform="translate(39.601875 3989.319075)scale(0.088 -0.088)">
       <use xlink:href="#DejaVuSans-56"/>
       <use x="60.658203" xlink:href="#DejaVuSans-65"/>
       <use x="122.181641" xlink:href="#DejaVuSans-72"/>
       <use x="161.544922" xlink:href="#DejaVuSans-6d"/>
       <use x="258.957031" xlink:href="#DejaVuSans-6f"/>
       <use x="320.138672" xlink:href="#DejaVuSans-6e"/>
       <use x="383.517578" xlink:href="#DejaVuSans-74"/>
      </g>
     </g>
    </g>
    <g id="ytick_7">
     <g id="text_10">
      <!-- Utah -->
      <g style="fill:#4d4d4d;" transform="translate(55.941 3881.100893)scale(0.088 -0.088)">
       <defs>
        <path d="M 556 4666 
L 1191 4666 
L 1191 1831 
Q 1191 1081 1462 751 
Q 1734 422 2344 422 
Q 2950 422 3222 751 
Q 3494 1081 3494 1831 
L 3494 4666 
L 4128 4666 
L 4128 1753 
Q 4128 841 3676 375 
Q 3225 -91 2344 -91 
Q 1459 -91 1007 375 
Q 556 841 556 1753 
L 556 4666 
z
" id="DejaVuSans-55" transform="scale(0.015625)"/>
       </defs>
       <use xlink:href="#DejaVuSans-55"/>
       <use x="73.193359" xlink:href="#DejaVuSans-74"/>
       <use x="112.402344" xlink:href="#DejaVuSans-61"/>
       <use x="173.681641" xlink:href="#DejaVuSans-68"/>
      </g>
     </g>
    </g>
    <g id="ytick_8">
     <g id="text_11">
      <!-- Texas -->
      <g style="fill:#4d4d4d;" transform="translate(52.476 3772.882712)scale(0.088 -0.088)">
       <defs>
        <path d="M -19 4666 
L 3928 4666 
L 3928 4134 
L 2272 4134 
L 2272 0 
L 1638 0 
L 1638 4134 
L -19 4134 
L -19 4666 
z
" id="DejaVuSans-54" transform="scale(0.015625)"/>
        <path d="M 3513 3500 
L 2247 1797 
L 3578 0 
L 2900 0 
L 1881 1375 
L 863 0 
L 184 0 
L 1544 1831 
L 300 3500 
L 978 3500 
L 1906 2253 
L 2834 3500 
L 3513 3500 
z
" id="DejaVuSans-78" transform="scale(0.015625)"/>
       </defs>
       <use xlink:href="#DejaVuSans-54"/>
       <use x="44.083984" xlink:href="#DejaVuSans-65"/>
       <use x="103.857422" xlink:href="#DejaVuSans-78"/>
       <use x="163.037109" xlink:href="#DejaVuSans-61"/>
       <use x="224.316406" xlink:href="#DejaVuSans-73"/>
      </g>
     </g>
    </g>
    <g id="ytick_9">
     <g id="text_12">
      <!-- South Dakota -->
      <g style="fill:#4d4d4d;" transform="translate(17.25675 3664.66453)scale(0.088 -0.088)">
       <defs>
        <path d="M 3425 4513 
L 3425 3897 
Q 3066 4069 2747 4153 
Q 2428 4238 2131 4238 
Q 1616 4238 1336 4038 
Q 1056 3838 1056 3469 
Q 1056 3159 1242 3001 
Q 1428 2844 1947 2747 
L 2328 2669 
Q 3034 2534 3370 2195 
Q 3706 1856 3706 1288 
Q 3706 609 3251 259 
Q 2797 -91 1919 -91 
Q 1588 -91 1214 -16 
Q 841 59 441 206 
L 441 856 
Q 825 641 1194 531 
Q 1563 422 1919 422 
Q 2459 422 2753 634 
Q 3047 847 3047 1241 
Q 3047 1584 2836 1778 
Q 2625 1972 2144 2069 
L 1759 2144 
Q 1053 2284 737 2584 
Q 422 2884 422 3419 
Q 422 4038 858 4394 
Q 1294 4750 2059 4750 
Q 2388 4750 2728 4690 
Q 3069 4631 3425 4513 
z
" id="DejaVuSans-53" transform="scale(0.015625)"/>
        <path d="M 544 1381 
L 544 3500 
L 1119 3500 
L 1119 1403 
Q 1119 906 1312 657 
Q 1506 409 1894 409 
Q 2359 409 2629 706 
Q 2900 1003 2900 1516 
L 2900 3500 
L 3475 3500 
L 3475 0 
L 2900 0 
L 2900 538 
Q 2691 219 2414 64 
Q 2138 -91 1772 -91 
Q 1169 -91 856 284 
Q 544 659 544 1381 
z
M 1991 3584 
L 1991 3584 
z
" id="DejaVuSans-75" transform="scale(0.015625)"/>
        <path d="M 1259 4147 
L 1259 519 
L 2022 519 
Q 2988 519 3436 956 
Q 3884 1394 3884 2338 
Q 3884 3275 3436 3711 
Q 2988 4147 2022 4147 
L 1259 4147 
z
M 628 4666 
L 1925 4666 
Q 3281 4666 3915 4102 
Q 4550 3538 4550 2338 
Q 4550 1131 3912 565 
Q 3275 0 1925 0 
L 628 0 
L 628 4666 
z
" id="DejaVuSans-44" transform="scale(0.015625)"/>
        <path d="M 581 4863 
L 1159 4863 
L 1159 1991 
L 2875 3500 
L 3609 3500 
L 1753 1863 
L 3688 0 
L 2938 0 
L 1159 1709 
L 1159 0 
L 581 0 
L 581 4863 
z
" id="DejaVuSans-6b" transform="scale(0.015625)"/>
       </defs>
       <use xlink:href="#DejaVuSans-53"/>
       <use x="63.476562" xlink:href="#DejaVuSans-6f"/>
       <use x="124.658203" xlink:href="#DejaVuSans-75"/>
       <use x="188.037109" xlink:href="#DejaVuSans-74"/>
       <use x="227.246094" xlink:href="#DejaVuSans-68"/>
       <use x="290.625" xlink:href="#DejaVuSans-20"/>
       <use x="322.412109" xlink:href="#DejaVuSans-44"/>
       <use x="399.414062" xlink:href="#DejaVuSans-61"/>
       <use x="460.693359" xlink:href="#DejaVuSans-6b"/>
       <use x="514.978516" xlink:href="#DejaVuSans-6f"/>
       <use x="576.160156" xlink:href="#DejaVuSans-74"/>
       <use x="615.369141" xlink:href="#DejaVuSans-61"/>
      </g>
     </g>
    </g>
    <g id="ytick_10">
     <g id="text_13">
      <!-- South Carolina -->
      <g style="fill:#4d4d4d;" transform="translate(12.228375 3556.446348)scale(0.088 -0.088)">
       <defs>
        <path d="M 4122 4306 
L 4122 3641 
Q 3803 3938 3442 4084 
Q 3081 4231 2675 4231 
Q 1875 4231 1450 3742 
Q 1025 3253 1025 2328 
Q 1025 1406 1450 917 
Q 1875 428 2675 428 
Q 3081 428 3442 575 
Q 3803 722 4122 1019 
L 4122 359 
Q 3791 134 3420 21 
Q 3050 -91 2638 -91 
Q 1578 -91 968 557 
Q 359 1206 359 2328 
Q 359 3453 968 4101 
Q 1578 4750 2638 4750 
Q 3056 4750 3426 4639 
Q 3797 4528 4122 4306 
z
" id="DejaVuSans-43" transform="scale(0.015625)"/>
        <path d="M 603 4863 
L 1178 4863 
L 1178 0 
L 603 0 
L 603 4863 
z
" id="DejaVuSans-6c" transform="scale(0.015625)"/>
       </defs>
       <use xlink:href="#DejaVuSans-53"/>
       <use x="63.476562" xlink:href="#DejaVuSans-6f"/>
       <use x="124.658203" xlink:href="#DejaVuSans-75"/>
       <use x="188.037109" xlink:href="#DejaVuSans-74"/>
       <use x="227.246094" xlink:href="#DejaVuSans-68"/>
       <use x="290.625" xlink:href="#DejaVuSans-20"/>
       <use x="322.412109" xlink:href="#DejaVuSans-43"/>
       <use x="392.236328" xlink:href="#DejaVuSans-61"/>
       <use x="453.515625" xlink:href="#DejaVuSans-72"/>
       <use x="492.378906" xlink:href="#DejaVuSans-6f"/>
       <use x="553.560547" xlink:href="#DejaVuSans-6c"/>
       <use x="581.34375" xlink:href="#DejaVuSans-69"/>
       <use x="609.126953" xlink:href="#DejaVuSans-6e"/>
       <use x="672.505859" xlink:href="#DejaVuSans-61"/>
      </g>
     </g>
    </g>
    <g id="ytick_11">
     <g id="text_14">
      <!-- Pennsylvania -->
      <g style="fill:#4d4d4d;" transform="translate(18.992 3448.228166)scale(0.088 -0.088)">
       <defs>
        <path d="M 1259 4147 
L 1259 2394 
L 2053 2394 
Q 2494 2394 2734 2622 
Q 2975 2850 2975 3272 
Q 2975 3691 2734 3919 
Q 2494 4147 2053 4147 
L 1259 4147 
z
M 628 4666 
L 2053 4666 
Q 2838 4666 3239 4311 
Q 3641 3956 3641 3272 
Q 3641 2581 3239 2228 
Q 2838 1875 2053 1875 
L 1259 1875 
L 1259 0 
L 628 0 
L 628 4666 
z
" id="DejaVuSans-50" transform="scale(0.015625)"/>
        <path d="M 191 3500 
L 800 3500 
L 1894 563 
L 2988 3500 
L 3597 3500 
L 2284 0 
L 1503 0 
L 191 3500 
z
" id="DejaVuSans-76" transform="scale(0.015625)"/>
       </defs>
       <use xlink:href="#DejaVuSans-50"/>
       <use x="56.677734" xlink:href="#DejaVuSans-65"/>
       <use x="118.201172" xlink:href="#DejaVuSans-6e"/>
       <use x="181.580078" xlink:href="#DejaVuSans-6e"/>
       <use x="244.958984" xlink:href="#DejaVuSans-73"/>
       <use x="297.058594" xlink:href="#DejaVuSans-79"/>
       <use x="356.238281" xlink:href="#DejaVuSans-6c"/>
       <use x="384.021484" xlink:href="#DejaVuSans-76"/>
       <use x="443.201172" xlink:href="#DejaVuSans-61"/>
       <use x="504.480469" xlink:href="#DejaVuSans-6e"/>
       <use x="567.859375" xlink:href="#DejaVuSans-69"/>
       <use x="595.642578" xlink:href="#DejaVuSans-61"/>
      </g>
     </g>
    </g>
    <g id="ytick_12">
     <g id="text_15">
      <!-- Oklahoma -->
      <g style="fill:#4d4d4d;" transform="translate(32.014625 3340.009984)scale(0.088 -0.088)">
       <defs>
        <path d="M 2522 4238 
Q 1834 4238 1429 3725 
Q 1025 3213 1025 2328 
Q 1025 1447 1429 934 
Q 1834 422 2522 422 
Q 3209 422 3611 934 
Q 4013 1447 4013 2328 
Q 4013 3213 3611 3725 
Q 3209 4238 2522 4238 
z
M 2522 4750 
Q 3503 4750 4090 4092 
Q 4678 3434 4678 2328 
Q 4678 1225 4090 567 
Q 3503 -91 2522 -91 
Q 1538 -91 948 565 
Q 359 1222 359 2328 
Q 359 3434 948 4092 
Q 1538 4750 2522 4750 
z
" id="DejaVuSans-4f" transform="scale(0.015625)"/>
       </defs>
       <use xlink:href="#DejaVuSans-4f"/>
       <use x="78.710938" xlink:href="#DejaVuSans-6b"/>
       <use x="136.621094" xlink:href="#DejaVuSans-6c"/>
       <use x="164.404297" xlink:href="#DejaVuSans-61"/>
       <use x="225.683594" xlink:href="#DejaVuSans-68"/>
       <use x="289.0625" xlink:href="#DejaVuSans-6f"/>
       <use x="350.244141" xlink:href="#DejaVuSans-6d"/>
       <use x="447.65625" xlink:href="#DejaVuSans-61"/>
      </g>
     </g>
    </g>
    <g id="ytick_13">
     <g id="text_16">
      <!-- Ohio -->
      <g style="fill:#4d4d4d;" transform="translate(56.467625 3231.791803)scale(0.088 -0.088)">
       <use xlink:href="#DejaVuSans-4f"/>
       <use x="78.710938" xlink:href="#DejaVuSans-68"/>
       <use x="142.089844" xlink:href="#DejaVuSans-69"/>
       <use x="169.873047" xlink:href="#DejaVuSans-6f"/>
      </g>
     </g>
    </g>
    <g id="ytick_14">
     <g id="text_17">
      <!-- North Dakota -->
      <g style="fill:#4d4d4d;" transform="translate(18.21925 3123.573621)scale(0.088 -0.088)">
       <defs>
        <path d="M 628 4666 
L 1478 4666 
L 3547 763 
L 3547 4666 
L 4159 4666 
L 4159 0 
L 3309 0 
L 1241 3903 
L 1241 0 
L 628 0 
L 628 4666 
z
" id="DejaVuSans-4e" transform="scale(0.015625)"/>
       </defs>
       <use xlink:href="#DejaVuSans-4e"/>
       <use x="74.804688" xlink:href="#DejaVuSans-6f"/>
       <use x="135.986328" xlink:href="#DejaVuSans-72"/>
       <use x="177.099609" xlink:href="#DejaVuSans-74"/>
       <use x="216.308594" xlink:href="#DejaVuSans-68"/>
       <use x="279.6875" xlink:href="#DejaVuSans-20"/>
       <use x="311.474609" xlink:href="#DejaVuSans-44"/>
       <use x="388.476562" xlink:href="#DejaVuSans-61"/>
       <use x="449.755859" xlink:href="#DejaVuSans-6b"/>
       <use x="504.041016" xlink:href="#DejaVuSans-6f"/>
       <use x="565.222656" xlink:href="#DejaVuSans-74"/>
       <use x="604.431641" xlink:href="#DejaVuSans-61"/>
      </g>
     </g>
    </g>
    <g id="ytick_15">
     <g id="text_18">
      <!-- North Carolina -->
      <g style="fill:#4d4d4d;" transform="translate(13.190875 3015.355439)scale(0.088 -0.088)">
       <use xlink:href="#DejaVuSans-4e"/>
       <use x="74.804688" xlink:href="#DejaVuSans-6f"/>
       <use x="135.986328" xlink:href="#DejaVuSans-72"/>
       <use x="177.099609" xlink:href="#DejaVuSans-74"/>
       <use x="216.308594" xlink:href="#DejaVuSans-68"/>
       <use x="279.6875" xlink:href="#DejaVuSans-20"/>
       <use x="311.474609" xlink:href="#DejaVuSans-43"/>
       <use x="381.298828" xlink:href="#DejaVuSans-61"/>
       <use x="442.578125" xlink:href="#DejaVuSans-72"/>
       <use x="481.441406" xlink:href="#DejaVuSans-6f"/>
       <use x="542.623047" xlink:href="#DejaVuSans-6c"/>
       <use x="570.40625" xlink:href="#DejaVuSans-69"/>
       <use x="598.189453" xlink:href="#DejaVuSans-6e"/>
       <use x="661.568359" xlink:href="#DejaVuSans-61"/>
      </g>
     </g>
    </g>
    <g id="ytick_16">
     <g id="text_19">
      <!-- New York -->
      <g style="fill:#4d4d4d;" transform="translate(36.502625 2907.137257)scale(0.088 -0.088)">
       <defs>
        <path d="M 269 3500 
L 844 3500 
L 1563 769 
L 2278 3500 
L 2956 3500 
L 3675 769 
L 4391 3500 
L 4966 3500 
L 4050 0 
L 3372 0 
L 2619 2869 
L 1863 0 
L 1184 0 
L 269 3500 
z
" id="DejaVuSans-77" transform="scale(0.015625)"/>
        <path d="M -13 4666 
L 666 4666 
L 1959 2747 
L 3244 4666 
L 3922 4666 
L 2272 2222 
L 2272 0 
L 1638 0 
L 1638 2222 
L -13 4666 
z
" id="DejaVuSans-59" transform="scale(0.015625)"/>
       </defs>
       <use xlink:href="#DejaVuSans-4e"/>
       <use x="74.804688" xlink:href="#DejaVuSans-65"/>
       <use x="136.328125" xlink:href="#DejaVuSans-77"/>
       <use x="218.115234" xlink:href="#DejaVuSans-20"/>
       <use x="249.902344" xlink:href="#DejaVuSans-59"/>
       <use x="297.736328" xlink:href="#DejaVuSans-6f"/>
       <use x="358.917969" xlink:href="#DejaVuSans-72"/>
       <use x="400.03125" xlink:href="#DejaVuSans-6b"/>
      </g>
     </g>
    </g>
    <g id="ytick_17">
     <g id="text_20">
      <!-- New Mexico -->
      <g style="fill:#4d4d4d;" transform="translate(24.0795 2798.919075)scale(0.088 -0.088)">
       <defs>
        <path d="M 628 4666 
L 1569 4666 
L 2759 1491 
L 3956 4666 
L 4897 4666 
L 4897 0 
L 4281 0 
L 4281 4097 
L 3078 897 
L 2444 897 
L 1241 4097 
L 1241 0 
L 628 0 
L 628 4666 
z
" id="DejaVuSans-4d" transform="scale(0.015625)"/>
        <path d="M 3122 3366 
L 3122 2828 
Q 2878 2963 2633 3030 
Q 2388 3097 2138 3097 
Q 1578 3097 1268 2742 
Q 959 2388 959 1747 
Q 959 1106 1268 751 
Q 1578 397 2138 397 
Q 2388 397 2633 464 
Q 2878 531 3122 666 
L 3122 134 
Q 2881 22 2623 -34 
Q 2366 -91 2075 -91 
Q 1284 -91 818 406 
Q 353 903 353 1747 
Q 353 2603 823 3093 
Q 1294 3584 2113 3584 
Q 2378 3584 2631 3529 
Q 2884 3475 3122 3366 
z
" id="DejaVuSans-63" transform="scale(0.015625)"/>
       </defs>
       <use xlink:href="#DejaVuSans-4e"/>
       <use x="74.804688" xlink:href="#DejaVuSans-65"/>
       <use x="136.328125" xlink:href="#DejaVuSans-77"/>
       <use x="218.115234" xlink:href="#DejaVuSans-20"/>
       <use x="249.902344" xlink:href="#DejaVuSans-4d"/>
       <use x="336.181641" xlink:href="#DejaVuSans-65"/>
       <use x="395.955078" xlink:href="#DejaVuSans-78"/>
       <use x="455.134766" xlink:href="#DejaVuSans-69"/>
       <use x="482.917969" xlink:href="#DejaVuSans-63"/>
       <use x="537.898438" xlink:href="#DejaVuSans-6f"/>
      </g>
     </g>
    </g>
    <g id="ytick_18">
     <g id="text_21">
      <!-- New Jersey -->
      <g style="fill:#4d4d4d;" transform="translate(27.9735 2690.700893)scale(0.088 -0.088)">
       <defs>
        <path d="M 628 4666 
L 1259 4666 
L 1259 325 
Q 1259 -519 939 -900 
Q 619 -1281 -91 -1281 
L -331 -1281 
L -331 -750 
L -134 -750 
Q 284 -750 456 -515 
Q 628 -281 628 325 
L 628 4666 
z
" id="DejaVuSans-4a" transform="scale(0.015625)"/>
       </defs>
       <use xlink:href="#DejaVuSans-4e"/>
       <use x="74.804688" xlink:href="#DejaVuSans-65"/>
       <use x="136.328125" xlink:href="#DejaVuSans-77"/>
       <use x="218.115234" xlink:href="#DejaVuSans-20"/>
       <use x="249.902344" xlink:href="#DejaVuSans-4a"/>
       <use x="279.394531" xlink:href="#DejaVuSans-65"/>
       <use x="340.917969" xlink:href="#DejaVuSans-72"/>
       <use x="382.03125" xlink:href="#DejaVuSans-73"/>
       <use x="434.130859" xlink:href="#DejaVuSans-65"/>
       <use x="495.654297" xlink:href="#DejaVuSans-79"/>
      </g>
     </g>
    </g>
    <g id="ytick_19">
     <g id="text_22">
      <!-- New Hampshire -->
      <g style="fill:#4d4d4d;" transform="translate(7.2 2582.482712)scale(0.088 -0.088)">
       <defs>
        <path d="M 628 4666 
L 1259 4666 
L 1259 2753 
L 3553 2753 
L 3553 4666 
L 4184 4666 
L 4184 0 
L 3553 0 
L 3553 2222 
L 1259 2222 
L 1259 0 
L 628 0 
L 628 4666 
z
" id="DejaVuSans-48" transform="scale(0.015625)"/>
        <path d="M 1159 525 
L 1159 -1331 
L 581 -1331 
L 581 3500 
L 1159 3500 
L 1159 2969 
Q 1341 3281 1617 3432 
Q 1894 3584 2278 3584 
Q 2916 3584 3314 3078 
Q 3713 2572 3713 1747 
Q 3713 922 3314 415 
Q 2916 -91 2278 -91 
Q 1894 -91 1617 61 
Q 1341 213 1159 525 
z
M 3116 1747 
Q 3116 2381 2855 2742 
Q 2594 3103 2138 3103 
Q 1681 3103 1420 2742 
Q 1159 2381 1159 1747 
Q 1159 1113 1420 752 
Q 1681 391 2138 391 
Q 2594 391 2855 752 
Q 3116 1113 3116 1747 
z
" id="DejaVuSans-70" transform="scale(0.015625)"/>
       </defs>
       <use xlink:href="#DejaVuSans-4e"/>
       <use x="74.804688" xlink:href="#DejaVuSans-65"/>
       <use x="136.328125" xlink:href="#DejaVuSans-77"/>
       <use x="218.115234" xlink:href="#DejaVuSans-20"/>
       <use x="249.902344" xlink:href="#DejaVuSans-48"/>
       <use x="325.097656" xlink:href="#DejaVuSans-61"/>
       <use x="386.376953" xlink:href="#DejaVuSans-6d"/>
       <use x="483.789062" xlink:href="#DejaVuSans-70"/>
       <use x="547.265625" xlink:href="#DejaVuSans-73"/>
       <use x="599.365234" xlink:href="#DejaVuSans-68"/>
       <use x="662.744141" xlink:href="#DejaVuSans-69"/>
       <use x="690.527344" xlink:href="#DejaVuSans-72"/>
       <use x="729.390625" xlink:href="#DejaVuSans-65"/>
      </g>
     </g>
    </g>
    <g id="ytick_20">
     <g id="text_23">
      <!-- Nevada -->
      <g style="fill:#4d4d4d;" transform="translate(43.22225 2474.26453)scale(0.088 -0.088)">
       <defs>
        <path d="M 2906 2969 
L 2906 4863 
L 3481 4863 
L 3481 0 
L 2906 0 
L 2906 525 
Q 2725 213 2448 61 
Q 2172 -91 1784 -91 
Q 1150 -91 751 415 
Q 353 922 353 1747 
Q 353 2572 751 3078 
Q 1150 3584 1784 3584 
Q 2172 3584 2448 3432 
Q 2725 3281 2906 2969 
z
M 947 1747 
Q 947 1113 1208 752 
Q 1469 391 1925 391 
Q 2381 391 2643 752 
Q 2906 1113 2906 1747 
Q 2906 2381 2643 2742 
Q 2381 3103 1925 3103 
Q 1469 3103 1208 2742 
Q 947 2381 947 1747 
z
" id="DejaVuSans-64" transform="scale(0.015625)"/>
       </defs>
       <use xlink:href="#DejaVuSans-4e"/>
       <use x="74.804688" xlink:href="#DejaVuSans-65"/>
       <use x="136.328125" xlink:href="#DejaVuSans-76"/>
       <use x="195.507812" xlink:href="#DejaVuSans-61"/>
       <use x="256.787109" xlink:href="#DejaVuSans-64"/>
       <use x="320.263672" xlink:href="#DejaVuSans-61"/>
      </g>
     </g>
    </g>
    <g id="ytick_21">
     <g id="text_24">
      <!-- Nebraska -->
      <g style="fill:#4d4d4d;" transform="translate(35.287125 2366.046348)scale(0.088 -0.088)">
       <defs>
        <path d="M 3116 1747 
Q 3116 2381 2855 2742 
Q 2594 3103 2138 3103 
Q 1681 3103 1420 2742 
Q 1159 2381 1159 1747 
Q 1159 1113 1420 752 
Q 1681 391 2138 391 
Q 2594 391 2855 752 
Q 3116 1113 3116 1747 
z
M 1159 2969 
Q 1341 3281 1617 3432 
Q 1894 3584 2278 3584 
Q 2916 3584 3314 3078 
Q 3713 2572 3713 1747 
Q 3713 922 3314 415 
Q 2916 -91 2278 -91 
Q 1894 -91 1617 61 
Q 1341 213 1159 525 
L 1159 0 
L 581 0 
L 581 4863 
L 1159 4863 
L 1159 2969 
z
" id="DejaVuSans-62" transform="scale(0.015625)"/>
       </defs>
       <use xlink:href="#DejaVuSans-4e"/>
       <use x="74.804688" xlink:href="#DejaVuSans-65"/>
       <use x="136.328125" xlink:href="#DejaVuSans-62"/>
       <use x="199.804688" xlink:href="#DejaVuSans-72"/>
       <use x="240.917969" xlink:href="#DejaVuSans-61"/>
       <use x="302.197266" xlink:href="#DejaVuSans-73"/>
       <use x="354.296875" xlink:href="#DejaVuSans-6b"/>
       <use x="410.457031" xlink:href="#DejaVuSans-61"/>
      </g>
     </g>
    </g>
    <g id="ytick_22">
     <g id="text_25">
      <!-- Montana -->
      <g style="fill:#4d4d4d;" transform="translate(38.4345 2257.828166)scale(0.088 -0.088)">
       <use xlink:href="#DejaVuSans-4d"/>
       <use x="86.279297" xlink:href="#DejaVuSans-6f"/>
       <use x="147.460938" xlink:href="#DejaVuSans-6e"/>
       <use x="210.839844" xlink:href="#DejaVuSans-74"/>
       <use x="250.048828" xlink:href="#DejaVuSans-61"/>
       <use x="311.328125" xlink:href="#DejaVuSans-6e"/>
       <use x="374.707031" xlink:href="#DejaVuSans-61"/>
      </g>
     </g>
    </g>
    <g id="ytick_23">
     <g id="text_26">
      <!-- Missouri -->
      <g style="fill:#4d4d4d;" transform="translate(40.57125 2149.609984)scale(0.088 -0.088)">
       <use xlink:href="#DejaVuSans-4d"/>
       <use x="86.279297" xlink:href="#DejaVuSans-69"/>
       <use x="114.0625" xlink:href="#DejaVuSans-73"/>
       <use x="166.162109" xlink:href="#DejaVuSans-73"/>
       <use x="218.261719" xlink:href="#DejaVuSans-6f"/>
       <use x="279.443359" xlink:href="#DejaVuSans-75"/>
       <use x="342.822266" xlink:href="#DejaVuSans-72"/>
       <use x="383.935547" xlink:href="#DejaVuSans-69"/>
      </g>
     </g>
    </g>
    <g id="ytick_24">
     <g id="text_27">
      <!-- Mississippi -->
      <g style="fill:#4d4d4d;" transform="translate(29.919125 2041.391803)scale(0.088 -0.088)">
       <use xlink:href="#DejaVuSans-4d"/>
       <use x="86.279297" xlink:href="#DejaVuSans-69"/>
       <use x="114.0625" xlink:href="#DejaVuSans-73"/>
       <use x="166.162109" xlink:href="#DejaVuSans-73"/>
       <use x="218.261719" xlink:href="#DejaVuSans-69"/>
       <use x="246.044922" xlink:href="#DejaVuSans-73"/>
       <use x="298.144531" xlink:href="#DejaVuSans-73"/>
       <use x="350.244141" xlink:href="#DejaVuSans-69"/>
       <use x="378.027344" xlink:href="#DejaVuSans-70"/>
       <use x="441.503906" xlink:href="#DejaVuSans-70"/>
       <use x="504.980469" xlink:href="#DejaVuSans-69"/>
      </g>
     </g>
    </g>
    <g id="ytick_25">
     <g id="text_28">
      <!-- Minnesota -->
      <g style="fill:#4d4d4d;" transform="translate(31.3835 1933.173621)scale(0.088 -0.088)">
       <use xlink:href="#DejaVuSans-4d"/>
       <use x="86.279297" xlink:href="#DejaVuSans-69"/>
       <use x="114.0625" xlink:href="#DejaVuSans-6e"/>
       <use x="177.441406" xlink:href="#DejaVuSans-6e"/>
       <use x="240.820312" xlink:href="#DejaVuSans-65"/>
       <use x="302.34375" xlink:href="#DejaVuSans-73"/>
       <use x="354.443359" xlink:href="#DejaVuSans-6f"/>
       <use x="415.625" xlink:href="#DejaVuSans-74"/>
       <use x="454.833984" xlink:href="#DejaVuSans-61"/>
      </g>
     </g>
    </g>
    <g id="ytick_26">
     <g id="text_29">
      <!-- Michigan -->
      <g style="fill:#4d4d4d;" transform="translate(37.346875 1824.955439)scale(0.088 -0.088)">
       <use xlink:href="#DejaVuSans-4d"/>
       <use x="86.279297" xlink:href="#DejaVuSans-69"/>
       <use x="114.0625" xlink:href="#DejaVuSans-63"/>
       <use x="169.042969" xlink:href="#DejaVuSans-68"/>
       <use x="232.421875" xlink:href="#DejaVuSans-69"/>
       <use x="260.205078" xlink:href="#DejaVuSans-67"/>
       <use x="323.681641" xlink:href="#DejaVuSans-61"/>
       <use x="384.960938" xlink:href="#DejaVuSans-6e"/>
      </g>
     </g>
    </g>
    <g id="ytick_27">
     <g id="text_30">
      <!-- Massachusetts -->
      <g style="fill:#4d4d4d;" transform="translate(11.77875 1716.737257)scale(0.088 -0.088)">
       <use xlink:href="#DejaVuSans-4d"/>
       <use x="86.279297" xlink:href="#DejaVuSans-61"/>
       <use x="147.558594" xlink:href="#DejaVuSans-73"/>
       <use x="199.658203" xlink:href="#DejaVuSans-73"/>
       <use x="251.757812" xlink:href="#DejaVuSans-61"/>
       <use x="313.037109" xlink:href="#DejaVuSans-63"/>
       <use x="368.017578" xlink:href="#DejaVuSans-68"/>
       <use x="431.396484" xlink:href="#DejaVuSans-75"/>
       <use x="494.775391" xlink:href="#DejaVuSans-73"/>
       <use x="546.875" xlink:href="#DejaVuSans-65"/>
       <use x="608.398438" xlink:href="#DejaVuSans-74"/>
       <use x="647.607422" xlink:href="#DejaVuSans-74"/>
       <use x="686.816406" xlink:href="#DejaVuSans-73"/>
      </g>
     </g>
    </g>
    <g id="ytick_28">
     <g id="text_31">
      <!-- Maryland -->
      <g style="fill:#4d4d4d;" transform="translate(35.988375 1608.519075)scale(0.088 -0.088)">
       <use xlink:href="#DejaVuSans-4d"/>
       <use x="86.279297" xlink:href="#DejaVuSans-61"/>
       <use x="147.558594" xlink:href="#DejaVuSans-72"/>
       <use x="188.671875" xlink:href="#DejaVuSans-79"/>
       <use x="247.851562" xlink:href="#DejaVuSans-6c"/>
       <use x="275.634766" xlink:href="#DejaVuSans-61"/>
       <use x="336.914062" xlink:href="#DejaVuSans-6e"/>
       <use x="400.292969" xlink:href="#DejaVuSans-64"/>
      </g>
     </g>
    </g>
    <g id="ytick_29">
     <g id="text_32">
      <!-- Maine -->
      <g style="fill:#4d4d4d;" transform="translate(50.379125 1500.300893)scale(0.088 -0.088)">
       <use xlink:href="#DejaVuSans-4d"/>
       <use x="86.279297" xlink:href="#DejaVuSans-61"/>
       <use x="147.558594" xlink:href="#DejaVuSans-69"/>
       <use x="175.341797" xlink:href="#DejaVuSans-6e"/>
       <use x="238.720703" xlink:href="#DejaVuSans-65"/>
      </g>
     </g>
    </g>
    <g id="ytick_30">
     <g id="text_33">
      <!-- Louisiana -->
      <g style="fill:#4d4d4d;" transform="translate(35.254125 1392.082712)scale(0.088 -0.088)">
       <defs>
        <path d="M 628 4666 
L 1259 4666 
L 1259 531 
L 3531 531 
L 3531 0 
L 628 0 
L 628 4666 
z
" id="DejaVuSans-4c" transform="scale(0.015625)"/>
       </defs>
       <use xlink:href="#DejaVuSans-4c"/>
       <use x="53.962891" xlink:href="#DejaVuSans-6f"/>
       <use x="115.144531" xlink:href="#DejaVuSans-75"/>
       <use x="178.523438" xlink:href="#DejaVuSans-69"/>
       <use x="206.306641" xlink:href="#DejaVuSans-73"/>
       <use x="258.40625" xlink:href="#DejaVuSans-69"/>
       <use x="286.189453" xlink:href="#DejaVuSans-61"/>
       <use x="347.46875" xlink:href="#DejaVuSans-6e"/>
       <use x="410.847656" xlink:href="#DejaVuSans-61"/>
      </g>
     </g>
    </g>
    <g id="ytick_31">
     <g id="text_34">
      <!-- Kentucky -->
      <g style="fill:#4d4d4d;" transform="translate(36.62775 1283.86453)scale(0.088 -0.088)">
       <defs>
        <path d="M 628 4666 
L 1259 4666 
L 1259 2694 
L 3353 4666 
L 4166 4666 
L 1850 2491 
L 4331 0 
L 3500 0 
L 1259 2247 
L 1259 0 
L 628 0 
L 628 4666 
z
" id="DejaVuSans-4b" transform="scale(0.015625)"/>
       </defs>
       <use xlink:href="#DejaVuSans-4b"/>
       <use x="60.576172" xlink:href="#DejaVuSans-65"/>
       <use x="122.099609" xlink:href="#DejaVuSans-6e"/>
       <use x="185.478516" xlink:href="#DejaVuSans-74"/>
       <use x="224.6875" xlink:href="#DejaVuSans-75"/>
       <use x="288.066406" xlink:href="#DejaVuSans-63"/>
       <use x="343.046875" xlink:href="#DejaVuSans-6b"/>
       <use x="397.332031" xlink:href="#DejaVuSans-79"/>
      </g>
     </g>
    </g>
    <g id="ytick_32">
     <g id="text_35">
      <!-- Kansas -->
      <g style="fill:#4d4d4d;" transform="translate(45.65325 1175.646348)scale(0.088 -0.088)">
       <use xlink:href="#DejaVuSans-4b"/>
       <use x="63.826172" xlink:href="#DejaVuSans-61"/>
       <use x="125.105469" xlink:href="#DejaVuSans-6e"/>
       <use x="188.484375" xlink:href="#DejaVuSans-73"/>
       <use x="240.583984" xlink:href="#DejaVuSans-61"/>
       <use x="301.863281" xlink:href="#DejaVuSans-73"/>
      </g>
     </g>
    </g>
    <g id="ytick_33">
     <g id="text_36">
      <!-- Iowa -->
      <g style="fill:#4d4d4d;" transform="translate(56.231125 1067.428166)scale(0.088 -0.088)">
       <defs>
        <path d="M 628 4666 
L 1259 4666 
L 1259 0 
L 628 0 
L 628 4666 
z
" id="DejaVuSans-49" transform="scale(0.015625)"/>
       </defs>
       <use xlink:href="#DejaVuSans-49"/>
       <use x="29.492188" xlink:href="#DejaVuSans-6f"/>
       <use x="90.673828" xlink:href="#DejaVuSans-77"/>
       <use x="172.460938" xlink:href="#DejaVuSans-61"/>
      </g>
     </g>
    </g>
    <g id="ytick_34">
     <g id="text_37">
      <!-- Illinois -->
      <g style="fill:#4d4d4d;" transform="translate(48.880375 959.209984)scale(0.088 -0.088)">
       <use xlink:href="#DejaVuSans-49"/>
       <use x="29.492188" xlink:href="#DejaVuSans-6c"/>
       <use x="57.275391" xlink:href="#DejaVuSans-6c"/>
       <use x="85.058594" xlink:href="#DejaVuSans-69"/>
       <use x="112.841797" xlink:href="#DejaVuSans-6e"/>
       <use x="176.220703" xlink:href="#DejaVuSans-6f"/>
       <use x="237.402344" xlink:href="#DejaVuSans-69"/>
       <use x="265.185547" xlink:href="#DejaVuSans-73"/>
      </g>
     </g>
    </g>
    <g id="ytick_35">
     <g id="text_38">
      <!-- Idaho -->
      <g style="fill:#4d4d4d;" transform="translate(52.26425 850.991803)scale(0.088 -0.088)">
       <use xlink:href="#DejaVuSans-49"/>
       <use x="29.492188" xlink:href="#DejaVuSans-64"/>
       <use x="92.96875" xlink:href="#DejaVuSans-61"/>
       <use x="154.248047" xlink:href="#DejaVuSans-68"/>
       <use x="217.626953" xlink:href="#DejaVuSans-6f"/>
      </g>
     </g>
    </g>
    <g id="ytick_36">
     <g id="text_39">
      <!-- Georgia -->
      <g style="fill:#4d4d4d;" transform="translate(42.2955 742.773621)scale(0.088 -0.088)">
       <defs>
        <path d="M 3809 666 
L 3809 1919 
L 2778 1919 
L 2778 2438 
L 4434 2438 
L 4434 434 
Q 4069 175 3628 42 
Q 3188 -91 2688 -91 
Q 1594 -91 976 548 
Q 359 1188 359 2328 
Q 359 3472 976 4111 
Q 1594 4750 2688 4750 
Q 3144 4750 3555 4637 
Q 3966 4525 4313 4306 
L 4313 3634 
Q 3963 3931 3569 4081 
Q 3175 4231 2741 4231 
Q 1884 4231 1454 3753 
Q 1025 3275 1025 2328 
Q 1025 1384 1454 906 
Q 1884 428 2741 428 
Q 3075 428 3337 486 
Q 3600 544 3809 666 
z
" id="DejaVuSans-47" transform="scale(0.015625)"/>
       </defs>
       <use xlink:href="#DejaVuSans-47"/>
       <use x="77.490234" xlink:href="#DejaVuSans-65"/>
       <use x="139.013672" xlink:href="#DejaVuSans-6f"/>
       <use x="200.195312" xlink:href="#DejaVuSans-72"/>
       <use x="239.558594" xlink:href="#DejaVuSans-67"/>
       <use x="303.035156" xlink:href="#DejaVuSans-69"/>
       <use x="330.818359" xlink:href="#DejaVuSans-61"/>
      </g>
     </g>
    </g>
    <g id="ytick_37">
     <g id="text_40">
      <!-- Connecticut -->
      <g style="fill:#4d4d4d;" transform="translate(24.10425 634.555439)scale(0.088 -0.088)">
       <use xlink:href="#DejaVuSans-43"/>
       <use x="69.824219" xlink:href="#DejaVuSans-6f"/>
       <use x="131.005859" xlink:href="#DejaVuSans-6e"/>
       <use x="194.384766" xlink:href="#DejaVuSans-6e"/>
       <use x="257.763672" xlink:href="#DejaVuSans-65"/>
       <use x="319.287109" xlink:href="#DejaVuSans-63"/>
       <use x="374.267578" xlink:href="#DejaVuSans-74"/>
       <use x="413.476562" xlink:href="#DejaVuSans-69"/>
       <use x="441.259766" xlink:href="#DejaVuSans-63"/>
       <use x="496.240234" xlink:href="#DejaVuSans-75"/>
       <use x="559.619141" xlink:href="#DejaVuSans-74"/>
      </g>
     </g>
    </g>
    <g id="ytick_38">
     <g id="text_41">
      <!-- Colorado -->
      <g style="fill:#4d4d4d;" transform="translate(37.461 526.337257)scale(0.088 -0.088)">
       <use xlink:href="#DejaVuSans-43"/>
       <use x="69.824219" xlink:href="#DejaVuSans-6f"/>
       <use x="131.005859" xlink:href="#DejaVuSans-6c"/>
       <use x="158.789062" xlink:href="#DejaVuSans-6f"/>
       <use x="219.970703" xlink:href="#DejaVuSans-72"/>
       <use x="261.083984" xlink:href="#DejaVuSans-61"/>
       <use x="322.363281" xlink:href="#DejaVuSans-64"/>
       <use x="385.839844" xlink:href="#DejaVuSans-6f"/>
      </g>
     </g>
    </g>
    <g id="ytick_39">
     <g id="text_42">
      <!-- California -->
      <g style="fill:#4d4d4d;" transform="translate(35.0135 418.119075)scale(0.088 -0.088)">
       <defs>
        <path d="M 2375 4863 
L 2375 4384 
L 1825 4384 
Q 1516 4384 1395 4259 
Q 1275 4134 1275 3809 
L 1275 3500 
L 2222 3500 
L 2222 3053 
L 1275 3053 
L 1275 0 
L 697 0 
L 697 3053 
L 147 3053 
L 147 3500 
L 697 3500 
L 697 3744 
Q 697 4328 969 4595 
Q 1241 4863 1831 4863 
L 2375 4863 
z
" id="DejaVuSans-66" transform="scale(0.015625)"/>
       </defs>
       <use xlink:href="#DejaVuSans-43"/>
       <use x="69.824219" xlink:href="#DejaVuSans-61"/>
       <use x="131.103516" xlink:href="#DejaVuSans-6c"/>
       <use x="158.886719" xlink:href="#DejaVuSans-69"/>
       <use x="186.669922" xlink:href="#DejaVuSans-66"/>
       <use x="221.875" xlink:href="#DejaVuSans-6f"/>
       <use x="283.056641" xlink:href="#DejaVuSans-72"/>
       <use x="322.419922" xlink:href="#DejaVuSans-6e"/>
       <use x="385.798828" xlink:href="#DejaVuSans-69"/>
       <use x="413.582031" xlink:href="#DejaVuSans-61"/>
      </g>
     </g>
    </g>
    <g id="ytick_40">
     <g id="text_43">
      <!-- Arkansas -->
      <g style="fill:#4d4d4d;" transform="translate(36.691 309.900893)scale(0.088 -0.088)">
       <defs>
        <path d="M 2188 4044 
L 1331 1722 
L 3047 1722 
L 2188 4044 
z
M 1831 4666 
L 2547 4666 
L 4325 0 
L 3669 0 
L 3244 1197 
L 1141 1197 
L 716 0 
L 50 0 
L 1831 4666 
z
" id="DejaVuSans-41" transform="scale(0.015625)"/>
       </defs>
       <use xlink:href="#DejaVuSans-41"/>
       <use x="68.408203" xlink:href="#DejaVuSans-72"/>
       <use x="109.521484" xlink:href="#DejaVuSans-6b"/>
       <use x="165.681641" xlink:href="#DejaVuSans-61"/>
       <use x="226.960938" xlink:href="#DejaVuSans-6e"/>
       <use x="290.339844" xlink:href="#DejaVuSans-73"/>
       <use x="342.439453" xlink:href="#DejaVuSans-61"/>
       <use x="403.71875" xlink:href="#DejaVuSans-73"/>
      </g>
     </g>
    </g>
    <g id="ytick_41">
     <g id="text_44">
      <!-- Alaska -->
      <g style="fill:#4d4d4d;" transform="translate(48.025125 201.682712)scale(0.088 -0.088)">
       <use xlink:href="#DejaVuSans-41"/>
       <use x="68.408203" xlink:href="#DejaVuSans-6c"/>
       <use x="96.191406" xlink:href="#DejaVuSans-61"/>
       <use x="157.470703" xlink:href="#DejaVuSans-73"/>
       <use x="209.570312" xlink:href="#DejaVuSans-6b"/>
       <use x="265.730469" xlink:href="#DejaVuSans-61"/>
      </g>
     </g>
    </g>
    <g id="ytick_42">
     <g id="text_45">
      <!-- Alabama -->
      <g style="fill:#4d4d4d;" transform="translate(38 93.46453)scale(0.088 -0.088)">
       <use xlink:href="#DejaVuSans-41"/>
       <use x="68.408203" xlink:href="#DejaVuSans-6c"/>
       <use x="96.191406" xlink:href="#DejaVuSans-61"/>
       <use x="157.470703" xlink:href="#DejaVuSans-62"/>
       <use x="220.947266" xlink:href="#DejaVuSans-61"/>
       <use x="282.226562" xlink:href="#DejaVuSans-6d"/>
       <use x="379.638672" xlink:href="#DejaVuSans-61"/>
      </g>
     </g>
    </g>
   </g>
   <g id="PolyCollection_1">
    <path clip-path="url(#p8c7e99a2d2)" d="M 215.452034 145.145371 
L 215.452034 36.927189 
L 323.670216 36.927189 
L 323.670216 145.145371 
z
" style="fill:#a8e799;stroke:#ffffff;stroke-width:0.354491;"/>
    <path clip-path="url(#p8c7e99a2d2)" d="M 107.233852 253.363553 
L 107.233852 145.145371 
L 215.452034 145.145371 
L 215.452034 253.363553 
z
" style="fill:#f8bd76;stroke:#ffffff;stroke-width:0.354491;"/>
    <path clip-path="url(#p8c7e99a2d2)" d="M 215.452034 253.363553 
L 215.452034 145.145371 
L 323.670216 145.145371 
L 323.670216 253.363553 
z
" style="fill:#fae688;stroke:#ffffff;stroke-width:0.354491;"/>
    <path clip-path="url(#p8c7e99a2d2)" d="M 323.670216 253.363553 
L 323.670216 145.145371 
L 431.888398 145.145371 
L 431.888398 253.363553 
z
" style="fill:#fae688;stroke:#ffffff;stroke-width:0.354491;"/>
    <path clip-path="url(#p8c7e99a2d2)" d="M 215.452034 361.581734 
L 215.452034 253.363553 
L 323.670216 253.363553 
L 323.670216 361.581734 
z
" style="fill:#f89176;stroke:#ffffff;stroke-width:0.354491;"/>
    <path clip-path="url(#p8c7e99a2d2)" d="M 107.233852 469.799916 
L 107.233852 361.581734 
L 215.452034 361.581734 
L 215.452034 469.799916 
z
" style="fill:#f89176;stroke:#ffffff;stroke-width:0.354491;"/>
    <path clip-path="url(#p8c7e99a2d2)" d="M 323.670216 469.799916 
L 323.670216 361.581734 
L 431.888398 361.581734 
L 431.888398 469.799916 
z
" style="fill:#fae688;stroke:#ffffff;stroke-width:0.354491;"/>
    <path clip-path="url(#p8c7e99a2d2)" d="M 107.233852 578.018098 
L 107.233852 469.799916 
L 215.452034 469.799916 
L 215.452034 578.018098 
z
" style="fill:#f8bd76;stroke:#ffffff;stroke-width:0.354491;"/>
    <path clip-path="url(#p8c7e99a2d2)" d="M 323.670216 578.018098 
L 323.670216 469.799916 
L 431.888398 469.799916 
L 431.888398 578.018098 
z
" style="fill:#fae688;stroke:#ffffff;stroke-width:0.354491;"/>
    <path clip-path="url(#p8c7e99a2d2)" d="M 215.452034 686.23628 
L 215.452034 578.018098 
L 323.670216 578.018098 
L 323.670216 686.23628 
z
" style="fill:#f89176;stroke:#ffffff;stroke-width:0.354491;"/>
    <path clip-path="url(#p8c7e99a2d2)" d="M 107.233852 794.454462 
L 107.233852 686.23628 
L 215.452034 686.23628 
L 215.452034 794.454462 
z
" style="fill:#a8e799;stroke:#ffffff;stroke-width:0.354491;"/>
    <path clip-path="url(#p8c7e99a2d2)" d="M 215.452034 794.454462 
L 215.452034 686.23628 
L 323.670216 686.23628 
L 323.670216 794.454462 
z
" style="fill:#a8e799;stroke:#ffffff;stroke-width:0.354491;"/>
    <path clip-path="url(#p8c7e99a2d2)" d="M 107.233852 902.672643 
L 107.233852 794.454462 
L 215.452034 794.454462 
L 215.452034 902.672643 
z
" style="fill:#a8e799;stroke:#ffffff;stroke-width:0.354491;"/>
    <path clip-path="url(#p8c7e99a2d2)" d="M 107.233852 1010.890825 
L 107.233852 902.672643 
L 215.452034 902.672643 
L 215.452034 1010.890825 
z
" style="fill:#f8bd76;stroke:#ffffff;stroke-width:0.354491;"/>
    <path clip-path="url(#p8c7e99a2d2)" d="M 215.452034 1010.890825 
L 215.452034 902.672643 
L 323.670216 902.672643 
L 323.670216 1010.890825 
z
" style="fill:#fae688;stroke:#ffffff;stroke-width:0.354491;"/>
    <path clip-path="url(#p8c7e99a2d2)" d="M 323.670216 1010.890825 
L 323.670216 902.672643 
L 431.888398 902.672643 
L 431.888398 1010.890825 
z
" style="fill:#fae688;stroke:#ffffff;stroke-width:0.354491;"/>
    <path clip-path="url(#p8c7e99a2d2)" d="M 107.233852 1119.109007 
L 107.233852 1010.890825 
L 215.452034 1010.890825 
L 215.452034 1119.109007 
z
" style="fill:#f8bd76;stroke:#ffffff;stroke-width:0.354491;"/>
    <path clip-path="url(#p8c7e99a2d2)" d="M 215.452034 1119.109007 
L 215.452034 1010.890825 
L 323.670216 1010.890825 
L 323.670216 1119.109007 
z
" style="fill:#fae688;stroke:#ffffff;stroke-width:0.354491;"/>
    <path clip-path="url(#p8c7e99a2d2)" d="M 323.670216 1119.109007 
L 323.670216 1010.890825 
L 431.888398 1010.890825 
L 431.888398 1119.109007 
z
" style="fill:#fae688;stroke:#ffffff;stroke-width:0.354491;"/>
    <path clip-path="url(#p8c7e99a2d2)" d="M 107.233852 1227.327189 
L 107.233852 1119.109007 
L 215.452034 1119.109007 
L 215.452034 1227.327189 
z
" style="fill:#f8bd76;stroke:#ffffff;stroke-width:0.354491;"/>
    <path clip-path="url(#p8c7e99a2d2)" d="M 215.452034 1227.327189 
L 215.452034 1119.109007 
L 323.670216 1119.109007 
L 323.670216 1227.327189 
z
" style="fill:#fae688;stroke:#ffffff;stroke-width:0.354491;"/>
    <path clip-path="url(#p8c7e99a2d2)" d="M 323.670216 1227.327189 
L 323.670216 1119.109007 
L 431.888398 1119.109007 
L 431.888398 1227.327189 
z
" style="fill:#fae688;stroke:#ffffff;stroke-width:0.354491;"/>
    <path clip-path="url(#p8c7e99a2d2)" d="M 107.233852 1335.545371 
L 107.233852 1227.327189 
L 215.452034 1227.327189 
L 215.452034 1335.545371 
z
" style="fill:#f89176;stroke:#ffffff;stroke-width:0.354491;"/>
    <path clip-path="url(#p8c7e99a2d2)" d="M 107.233852 1335.545371 
L 107.233852 1227.327189 
L 215.452034 1227.327189 
L 215.452034 1335.545371 
z
" style="fill:#f8bd76;stroke:#ffffff;stroke-width:0.354491;"/>
    <path clip-path="url(#p8c7e99a2d2)" d="M 323.670216 1335.545371 
L 323.670216 1227.327189 
L 431.888398 1227.327189 
L 431.888398 1335.545371 
z
" style="fill:#fae688;stroke:#ffffff;stroke-width:0.354491;"/>
    <path clip-path="url(#p8c7e99a2d2)" d="M 107.233852 1443.763553 
L 107.233852 1335.545371 
L 215.452034 1335.545371 
L 215.452034 1443.763553 
z
" style="fill:#a8e799;stroke:#ffffff;stroke-width:0.354491;"/>
    <path clip-path="url(#p8c7e99a2d2)" d="M 107.233852 1551.981734 
L 107.233852 1443.763553 
L 215.452034 1443.763553 
L 215.452034 1551.981734 
z
" style="fill:#a8e799;stroke:#ffffff;stroke-width:0.354491;"/>
    <path clip-path="url(#p8c7e99a2d2)" d="M 215.452034 1551.981734 
L 215.452034 1443.763553 
L 323.670216 1443.763553 
L 323.670216 1551.981734 
z
" style="fill:#a8e799;stroke:#ffffff;stroke-width:0.354491;"/>
    <path clip-path="url(#p8c7e99a2d2)" d="M 215.452034 1660.199916 
L 215.452034 1551.981734 
L 323.670216 1551.981734 
L 323.670216 1660.199916 
z
" style="fill:#f89176;stroke:#ffffff;stroke-width:0.354491;"/>
    <path clip-path="url(#p8c7e99a2d2)" d="M 107.233852 1660.199916 
L 107.233852 1551.981734 
L 215.452034 1551.981734 
L 215.452034 1660.199916 
z
" style="fill:#f8bd76;stroke:#ffffff;stroke-width:0.354491;"/>
    <path clip-path="url(#p8c7e99a2d2)" d="M 323.670216 1660.199916 
L 323.670216 1551.981734 
L 431.888398 1551.981734 
L 431.888398 1660.199916 
z
" style="fill:#fae688;stroke:#ffffff;stroke-width:0.354491;"/>
    <path clip-path="url(#p8c7e99a2d2)" d="M 215.452034 1768.418098 
L 215.452034 1660.199916 
L 323.670216 1660.199916 
L 323.670216 1768.418098 
z
" style="fill:#fae688;stroke:#ffffff;stroke-width:0.354491;"/>
    <path clip-path="url(#p8c7e99a2d2)" d="M 323.670216 1768.418098 
L 323.670216 1660.199916 
L 431.888398 1660.199916 
L 431.888398 1768.418098 
z
" style="fill:#fae688;stroke:#ffffff;stroke-width:0.354491;"/>
    <path clip-path="url(#p8c7e99a2d2)" d="M 107.233852 1768.418098 
L 107.233852 1660.199916 
L 215.452034 1660.199916 
L 215.452034 1768.418098 
z
" style="fill:#f8bd76;stroke:#ffffff;stroke-width:0.354491;"/>
    <path clip-path="url(#p8c7e99a2d2)" d="M 107.233852 1876.63628 
L 107.233852 1768.418098 
L 215.452034 1768.418098 
L 215.452034 1876.63628 
z
" style="fill:#f8bd76;stroke:#ffffff;stroke-width:0.354491;"/>
    <path clip-path="url(#p8c7e99a2d2)" d="M 215.452034 1876.63628 
L 215.452034 1768.418098 
L 323.670216 1768.418098 
L 323.670216 1876.63628 
z
" style="fill:#fae688;stroke:#ffffff;stroke-width:0.354491;"/>
    <path clip-path="url(#p8c7e99a2d2)" d="M 323.670216 1876.63628 
L 323.670216 1768.418098 
L 431.888398 1768.418098 
L 431.888398 1876.63628 
z
" style="fill:#fae688;stroke:#ffffff;stroke-width:0.354491;"/>
    <path clip-path="url(#p8c7e99a2d2)" d="M 215.452034 1984.854462 
L 215.452034 1876.63628 
L 323.670216 1876.63628 
L 323.670216 1984.854462 
z
" style="fill:#a8e799;stroke:#ffffff;stroke-width:0.354491;"/>
    <path clip-path="url(#p8c7e99a2d2)" d="M 215.452034 2093.072643 
L 215.452034 1984.854462 
L 323.670216 1984.854462 
L 323.670216 2093.072643 
z
" style="fill:#a8e799;stroke:#ffffff;stroke-width:0.354491;"/>
    <path clip-path="url(#p8c7e99a2d2)" d="M 215.452034 2201.290825 
L 215.452034 2093.072643 
L 323.670216 2093.072643 
L 323.670216 2201.290825 
z
" style="fill:#f89176;stroke:#ffffff;stroke-width:0.354491;"/>
    <path clip-path="url(#p8c7e99a2d2)" d="M 107.233852 2201.290825 
L 107.233852 2093.072643 
L 215.452034 2093.072643 
L 215.452034 2201.290825 
z
" style="fill:#f8bd76;stroke:#ffffff;stroke-width:0.354491;"/>
    <path clip-path="url(#p8c7e99a2d2)" d="M 323.670216 2201.290825 
L 323.670216 2093.072643 
L 431.888398 2093.072643 
L 431.888398 2201.290825 
z
" style="fill:#fae688;stroke:#ffffff;stroke-width:0.354491;"/>
    <path clip-path="url(#p8c7e99a2d2)" d="M 215.452034 2309.509007 
L 215.452034 2201.290825 
L 323.670216 2201.290825 
L 323.670216 2309.509007 
z
" style="fill:#a8e799;stroke:#ffffff;stroke-width:0.354491;"/>
    <path clip-path="url(#p8c7e99a2d2)" d="M 107.233852 2417.727189 
L 107.233852 2309.509007 
L 215.452034 2309.509007 
L 215.452034 2417.727189 
z
" style="fill:#f8bd76;stroke:#ffffff;stroke-width:0.354491;"/>
    <path clip-path="url(#p8c7e99a2d2)" d="M 215.452034 2417.727189 
L 215.452034 2309.509007 
L 323.670216 2309.509007 
L 323.670216 2417.727189 
z
" style="fill:#fae688;stroke:#ffffff;stroke-width:0.354491;"/>
    <path clip-path="url(#p8c7e99a2d2)" d="M 323.670216 2417.727189 
L 323.670216 2309.509007 
L 431.888398 2309.509007 
L 431.888398 2417.727189 
z
" style="fill:#fae688;stroke:#ffffff;stroke-width:0.354491;"/>
    <path clip-path="url(#p8c7e99a2d2)" d="M 215.452034 2525.945371 
L 215.452034 2417.727189 
L 323.670216 2417.727189 
L 323.670216 2525.945371 
z
" style="fill:#f89176;stroke:#ffffff;stroke-width:0.354491;"/>
    <path clip-path="url(#p8c7e99a2d2)" d="M 215.452034 2634.163553 
L 215.452034 2525.945371 
L 323.670216 2525.945371 
L 323.670216 2634.163553 
z
" style="fill:#f89176;stroke:#ffffff;stroke-width:0.354491;"/>
    <path clip-path="url(#p8c7e99a2d2)" d="M 323.670216 2634.163553 
L 323.670216 2525.945371 
L 431.888398 2525.945371 
L 431.888398 2634.163553 
z
" style="fill:#fae688;stroke:#ffffff;stroke-width:0.354491;"/>
    <path clip-path="url(#p8c7e99a2d2)" d="M 215.452034 2742.381734 
L 215.452034 2634.163553 
L 323.670216 2634.163553 
L 323.670216 2742.381734 
z
" style="fill:#f8bd76;stroke:#ffffff;stroke-width:0.354491;"/>
    <path clip-path="url(#p8c7e99a2d2)" d="M 107.233852 2742.381734 
L 107.233852 2634.163553 
L 215.452034 2634.163553 
L 215.452034 2742.381734 
z
" style="fill:#fae688;stroke:#ffffff;stroke-width:0.354491;"/>
    <path clip-path="url(#p8c7e99a2d2)" d="M 323.670216 2742.381734 
L 323.670216 2634.163553 
L 431.888398 2634.163553 
L 431.888398 2742.381734 
z
" style="fill:#fae688;stroke:#ffffff;stroke-width:0.354491;"/>
    <path clip-path="url(#p8c7e99a2d2)" d="M 107.233852 2850.599916 
L 107.233852 2742.381734 
L 215.452034 2742.381734 
L 215.452034 2850.599916 
z
" style="fill:#f8bd76;stroke:#ffffff;stroke-width:0.354491;"/>
    <path clip-path="url(#p8c7e99a2d2)" d="M 215.452034 2850.599916 
L 215.452034 2742.381734 
L 323.670216 2742.381734 
L 323.670216 2850.599916 
z
" style="fill:#f8bd76;stroke:#ffffff;stroke-width:0.354491;"/>
    <path clip-path="url(#p8c7e99a2d2)" d="M 107.233852 2958.818098 
L 107.233852 2850.599916 
L 215.452034 2850.599916 
L 215.452034 2958.818098 
z
" style="fill:#f8bd76;stroke:#ffffff;stroke-width:0.354491;"/>
    <path clip-path="url(#p8c7e99a2d2)" d="M 215.452034 2958.818098 
L 215.452034 2850.599916 
L 323.670216 2850.599916 
L 323.670216 2958.818098 
z
" style="fill:#fae688;stroke:#ffffff;stroke-width:0.354491;"/>
    <path clip-path="url(#p8c7e99a2d2)" d="M 323.670216 2958.818098 
L 323.670216 2850.599916 
L 431.888398 2850.599916 
L 431.888398 2958.818098 
z
" style="fill:#fae688;stroke:#ffffff;stroke-width:0.354491;"/>
    <path clip-path="url(#p8c7e99a2d2)" d="M 107.233852 3067.03628 
L 107.233852 2958.818098 
L 215.452034 2958.818098 
L 215.452034 3067.03628 
z
" style="fill:#f8bd76;stroke:#ffffff;stroke-width:0.354491;"/>
    <path clip-path="url(#p8c7e99a2d2)" d="M 215.452034 3067.03628 
L 215.452034 2958.818098 
L 323.670216 2958.818098 
L 323.670216 3067.03628 
z
" style="fill:#fae688;stroke:#ffffff;stroke-width:0.354491;"/>
    <path clip-path="url(#p8c7e99a2d2)" d="M 323.670216 3067.03628 
L 323.670216 2958.818098 
L 431.888398 2958.818098 
L 431.888398 3067.03628 
z
" style="fill:#fae688;stroke:#ffffff;stroke-width:0.354491;"/>
    <path clip-path="url(#p8c7e99a2d2)" d="M 215.452034 3175.254462 
L 215.452034 3067.03628 
L 323.670216 3067.03628 
L 323.670216 3175.254462 
z
" style="fill:#f89176;stroke:#ffffff;stroke-width:0.354491;"/>
    <path clip-path="url(#p8c7e99a2d2)" d="M 107.233852 3283.472643 
L 107.233852 3175.254462 
L 215.452034 3175.254462 
L 215.452034 3283.472643 
z
" style="fill:#a8e799;stroke:#ffffff;stroke-width:0.354491;"/>
    <path clip-path="url(#p8c7e99a2d2)" d="M 215.452034 3283.472643 
L 215.452034 3175.254462 
L 323.670216 3175.254462 
L 323.670216 3283.472643 
z
" style="fill:#a8e799;stroke:#ffffff;stroke-width:0.354491;"/>
    <path clip-path="url(#p8c7e99a2d2)" d="M 215.452034 3391.690825 
L 215.452034 3283.472643 
L 323.670216 3283.472643 
L 323.670216 3391.690825 
z
" style="fill:#fae688;stroke:#ffffff;stroke-width:0.354491;"/>
    <path clip-path="url(#p8c7e99a2d2)" d="M 323.670216 3391.690825 
L 323.670216 3283.472643 
L 431.888398 3283.472643 
L 431.888398 3391.690825 
z
" style="fill:#fae688;stroke:#ffffff;stroke-width:0.354491;"/>
    <path clip-path="url(#p8c7e99a2d2)" d="M 107.233852 3391.690825 
L 107.233852 3283.472643 
L 215.452034 3283.472643 
L 215.452034 3391.690825 
z
" style="fill:#f8bd76;stroke:#ffffff;stroke-width:0.354491;"/>
    <path clip-path="url(#p8c7e99a2d2)" d="M 107.233852 3499.909007 
L 107.233852 3391.690825 
L 215.452034 3391.690825 
L 215.452034 3499.909007 
z
" style="fill:#f8bd76;stroke:#ffffff;stroke-width:0.354491;"/>
    <path clip-path="url(#p8c7e99a2d2)" d="M 215.452034 3499.909007 
L 215.452034 3391.690825 
L 323.670216 3391.690825 
L 323.670216 3499.909007 
z
" style="fill:#fae688;stroke:#ffffff;stroke-width:0.354491;"/>
    <path clip-path="url(#p8c7e99a2d2)" d="M 323.670216 3499.909007 
L 323.670216 3391.690825 
L 431.888398 3391.690825 
L 431.888398 3499.909007 
z
" style="fill:#fae688;stroke:#ffffff;stroke-width:0.354491;"/>
    <path clip-path="url(#p8c7e99a2d2)" d="M 107.233852 3608.127189 
L 107.233852 3499.909007 
L 215.452034 3499.909007 
L 215.452034 3608.127189 
z
" style="fill:#a8e799;stroke:#ffffff;stroke-width:0.354491;"/>
    <path clip-path="url(#p8c7e99a2d2)" d="M 107.233852 3716.345371 
L 107.233852 3608.127189 
L 215.452034 3608.127189 
L 215.452034 3716.345371 
z
" style="fill:#f89176;stroke:#ffffff;stroke-width:0.354491;"/>
    <path clip-path="url(#p8c7e99a2d2)" d="M 215.452034 3716.345371 
L 215.452034 3608.127189 
L 323.670216 3608.127189 
L 323.670216 3716.345371 
z
" style="fill:#f89176;stroke:#ffffff;stroke-width:0.354491;"/>
    <path clip-path="url(#p8c7e99a2d2)" d="M 323.670216 3716.345371 
L 323.670216 3608.127189 
L 431.888398 3608.127189 
L 431.888398 3716.345371 
z
" style="fill:#fae688;stroke:#ffffff;stroke-width:0.354491;"/>
    <path clip-path="url(#p8c7e99a2d2)" d="M 215.452034 3824.563553 
L 215.452034 3716.345371 
L 323.670216 3716.345371 
L 323.670216 3824.563553 
z
" style="fill:#f89176;stroke:#ffffff;stroke-width:0.354491;"/>
    <path clip-path="url(#p8c7e99a2d2)" d="M 107.233852 3932.781734 
L 107.233852 3824.563553 
L 215.452034 3824.563553 
L 215.452034 3932.781734 
z
" style="fill:#a8e799;stroke:#ffffff;stroke-width:0.354491;"/>
    <path clip-path="url(#p8c7e99a2d2)" d="M 107.233852 4040.999916 
L 107.233852 3932.781734 
L 215.452034 3932.781734 
L 215.452034 4040.999916 
z
" style="fill:#f8bd76;stroke:#ffffff;stroke-width:0.354491;"/>
    <path clip-path="url(#p8c7e99a2d2)" d="M 215.452034 4040.999916 
L 215.452034 3932.781734 
L 323.670216 3932.781734 
L 323.670216 4040.999916 
z
" style="fill:#fae688;stroke:#ffffff;stroke-width:0.354491;"/>
    <path clip-path="url(#p8c7e99a2d2)" d="M 323.670216 4040.999916 
L 323.670216 3932.781734 
L 431.888398 3932.781734 
L 431.888398 4040.999916 
z
" style="fill:#fae688;stroke:#ffffff;stroke-width:0.354491;"/>
    <path clip-path="url(#p8c7e99a2d2)" d="M 215.452034 4149.218098 
L 215.452034 4040.999916 
L 323.670216 4040.999916 
L 323.670216 4149.218098 
z
" style="fill:#f89176;stroke:#ffffff;stroke-width:0.354491;"/>
    <path clip-path="url(#p8c7e99a2d2)" d="M 323.670216 4149.218098 
L 323.670216 4040.999916 
L 431.888398 4040.999916 
L 431.888398 4149.218098 
z
" style="fill:#f89176;stroke:#ffffff;stroke-width:0.354491;"/>
    <path clip-path="url(#p8c7e99a2d2)" d="M 107.233852 4257.43628 
L 107.233852 4149.218098 
L 215.452034 4149.218098 
L 215.452034 4257.43628 
z
" style="fill:#a8e799;stroke:#ffffff;stroke-width:0.354491;"/>
    <path clip-path="url(#p8c7e99a2d2)" d="M 107.233852 4365.654462 
L 107.233852 4257.43628 
L 215.452034 4257.43628 
L 215.452034 4365.654462 
z
" style="fill:#f8bd76;stroke:#ffffff;stroke-width:0.354491;"/>
    <path clip-path="url(#p8c7e99a2d2)" d="M 323.670216 4365.654462 
L 323.670216 4257.43628 
L 431.888398 4257.43628 
L 431.888398 4365.654462 
z
" style="fill:#fae688;stroke:#ffffff;stroke-width:0.354491;"/>
    <path clip-path="url(#p8c7e99a2d2)" d="M 107.233852 4473.872643 
L 107.233852 4365.654462 
L 215.452034 4365.654462 
L 215.452034 4473.872643 
z
" style="fill:#a8e799;stroke:#ffffff;stroke-width:0.354491;"/>
    <path clip-path="url(#p8c7e99a2d2)" d="M 215.452034 4582.090825 
L 215.452034 4473.872643 
L 323.670216 4473.872643 
L 323.670216 4582.090825 
z
" style="fill:#a8e799;stroke:#ffffff;stroke-width:0.354491;"/>
   </g>
   <g id="patch_3">
    <path d="M 455.321125 2334.257383 
L 571.980625 2334.257383 
L 571.980625 2225.451446 
L 455.321125 2225.451446 
z
" style="fill:none;"/>
   </g>
   <g id="text_46">
    <!-- status -->
    <g transform="translate(467.521125 2249.045039)scale(0.11 -0.11)">
     <use xlink:href="#DejaVuSans-73"/>
     <use x="52.099609" xlink:href="#DejaVuSans-74"/>
     <use x="91.308594" xlink:href="#DejaVuSans-61"/>
     <use x="152.587891" xlink:href="#DejaVuSans-74"/>
     <use x="191.796875" xlink:href="#DejaVuSans-75"/>
     <use x="255.175781" xlink:href="#DejaVuSans-73"/>
    </g>
   </g>
   <g id="patch_4">
    <path clip-path="url(#p9349503f4c)" d="M 467.521125 2268.537383 
L 483.361125 2268.537383 
L 483.361125 2252.697383 
L 467.521125 2252.697383 
z
" style="fill:none;"/>
   </g>
   <g id="patch_5">
    <path clip-path="url(#p9349503f4c)" d="M 467.69837 2268.360138 
L 483.18388 2268.360138 
L 483.18388 2252.874629 
L 467.69837 2252.874629 
z
" style="fill:#a8e799;stroke:#ffffff;stroke-linecap:square;stroke-linejoin:miter;stroke-width:0.354491;"/>
   </g>
   <g id="text_47">
    <!-- Enacted -->
    <g transform="translate(486.361125 2263.045633)scale(0.088 -0.088)">
     <defs>
      <path d="M 628 4666 
L 3578 4666 
L 3578 4134 
L 1259 4134 
L 1259 2753 
L 3481 2753 
L 3481 2222 
L 1259 2222 
L 1259 531 
L 3634 531 
L 3634 0 
L 628 0 
L 628 4666 
z
" id="DejaVuSans-45" transform="scale(0.015625)"/>
     </defs>
     <use xlink:href="#DejaVuSans-45"/>
     <use x="63.183594" xlink:href="#DejaVuSans-6e"/>
     <use x="126.5625" xlink:href="#DejaVuSans-61"/>
     <use x="187.841797" xlink:href="#DejaVuSans-63"/>
     <use x="242.822266" xlink:href="#DejaVuSans-74"/>
     <use x="282.03125" xlink:href="#DejaVuSans-65"/>
     <use x="343.554688" xlink:href="#DejaVuSans-64"/>
    </g>
   </g>
   <g id="patch_6">
    <path clip-path="url(#pe07a408b0d)" d="M 467.521125 2286.377383 
L 483.361125 2286.377383 
L 483.361125 2270.537383 
L 467.521125 2270.537383 
z
" style="fill:none;"/>
   </g>
   <g id="patch_7">
    <path clip-path="url(#pe07a408b0d)" d="M 467.69837 2286.200138 
L 483.18388 2286.200138 
L 483.18388 2270.714629 
L 467.69837 2270.714629 
z
" style="fill:#f89176;stroke:#ffffff;stroke-linecap:square;stroke-linejoin:miter;stroke-width:0.354491;"/>
   </g>
   <g id="text_48">
    <!-- Failed -->
    <g transform="translate(486.361125 2280.885633)scale(0.088 -0.088)">
     <defs>
      <path d="M 628 4666 
L 3309 4666 
L 3309 4134 
L 1259 4134 
L 1259 2759 
L 3109 2759 
L 3109 2228 
L 1259 2228 
L 1259 0 
L 628 0 
L 628 4666 
z
" id="DejaVuSans-46" transform="scale(0.015625)"/>
     </defs>
     <use xlink:href="#DejaVuSans-46"/>
     <use x="48.394531" xlink:href="#DejaVuSans-61"/>
     <use x="109.673828" xlink:href="#DejaVuSans-69"/>
     <use x="137.457031" xlink:href="#DejaVuSans-6c"/>
     <use x="165.240234" xlink:href="#DejaVuSans-65"/>
     <use x="226.763672" xlink:href="#DejaVuSans-64"/>
    </g>
   </g>
   <g id="patch_8">
    <path clip-path="url(#p6385c3781d)" d="M 467.521125 2304.217383 
L 483.361125 2304.217383 
L 483.361125 2288.377383 
L 467.521125 2288.377383 
z
" style="fill:none;"/>
   </g>
   <g id="patch_9">
    <path clip-path="url(#p6385c3781d)" d="M 467.69837 2304.040138 
L 483.18388 2304.040138 
L 483.18388 2288.554629 
L 467.69837 2288.554629 
z
" style="fill:#f8bd76;stroke:#ffffff;stroke-linecap:square;stroke-linejoin:miter;stroke-width:0.354491;"/>
   </g>
   <g id="text_49">
    <!-- Failed-Adjourned -->
    <g transform="translate(486.361125 2298.725633)scale(0.088 -0.088)">
     <defs>
      <path d="M 313 2009 
L 1997 2009 
L 1997 1497 
L 313 1497 
L 313 2009 
z
" id="DejaVuSans-2d" transform="scale(0.015625)"/>
      <path d="M 603 3500 
L 1178 3500 
L 1178 -63 
Q 1178 -731 923 -1031 
Q 669 -1331 103 -1331 
L -116 -1331 
L -116 -844 
L 38 -844 
Q 366 -844 484 -692 
Q 603 -541 603 -63 
L 603 3500 
z
M 603 4863 
L 1178 4863 
L 1178 4134 
L 603 4134 
L 603 4863 
z
" id="DejaVuSans-6a" transform="scale(0.015625)"/>
     </defs>
     <use xlink:href="#DejaVuSans-46"/>
     <use x="48.394531" xlink:href="#DejaVuSans-61"/>
     <use x="109.673828" xlink:href="#DejaVuSans-69"/>
     <use x="137.457031" xlink:href="#DejaVuSans-6c"/>
     <use x="165.240234" xlink:href="#DejaVuSans-65"/>
     <use x="226.763672" xlink:href="#DejaVuSans-64"/>
     <use x="290.240234" xlink:href="#DejaVuSans-2d"/>
     <use x="324.074219" xlink:href="#DejaVuSans-41"/>
     <use x="390.732422" xlink:href="#DejaVuSans-64"/>
     <use x="454.208984" xlink:href="#DejaVuSans-6a"/>
     <use x="481.992188" xlink:href="#DejaVuSans-6f"/>
     <use x="543.173828" xlink:href="#DejaVuSans-75"/>
     <use x="606.552734" xlink:href="#DejaVuSans-72"/>
     <use x="645.916016" xlink:href="#DejaVuSans-6e"/>
     <use x="709.294922" xlink:href="#DejaVuSans-65"/>
     <use x="770.818359" xlink:href="#DejaVuSans-64"/>
    </g>
   </g>
   <g id="patch_10">
    <path clip-path="url(#pe2b6f22892)" d="M 467.521125 2322.057383 
L 483.361125 2322.057383 
L 483.361125 2306.217383 
L 467.521125 2306.217383 
z
" style="fill:none;"/>
   </g>
   <g id="patch_11">
    <path clip-path="url(#pe2b6f22892)" d="M 467.69837 2321.880138 
L 483.18388 2321.880138 
L 483.18388 2306.394629 
L 467.69837 2306.394629 
z
" style="fill:#fae688;stroke:#ffffff;stroke-linecap:square;stroke-linejoin:miter;stroke-width:0.354491;"/>
   </g>
   <g id="text_50">
    <!-- Pending -->
    <g transform="translate(486.361125 2316.565633)scale(0.088 -0.088)">
     <use xlink:href="#DejaVuSans-50"/>
     <use x="56.677734" xlink:href="#DejaVuSans-65"/>
     <use x="118.201172" xlink:href="#DejaVuSans-6e"/>
     <use x="181.580078" xlink:href="#DejaVuSans-64"/>
     <use x="245.056641" xlink:href="#DejaVuSans-69"/>
     <use x="272.839844" xlink:href="#DejaVuSans-6e"/>
     <use x="336.21875" xlink:href="#DejaVuSans-67"/>
    </g>
   </g>
  </g>
  <g id="text_51">
   <!-- 28 states are considering legislation on Daylight Saving Time in 2022 -->
   <g transform="translate(34.24075 17.229937)scale(0.132 -0.132)">
    <defs>
     <path d="M 2034 2216 
Q 1584 2216 1326 1975 
Q 1069 1734 1069 1313 
Q 1069 891 1326 650 
Q 1584 409 2034 409 
Q 2484 409 2743 651 
Q 3003 894 3003 1313 
Q 3003 1734 2745 1975 
Q 2488 2216 2034 2216 
z
M 1403 2484 
Q 997 2584 770 2862 
Q 544 3141 544 3541 
Q 544 4100 942 4425 
Q 1341 4750 2034 4750 
Q 2731 4750 3128 4425 
Q 3525 4100 3525 3541 
Q 3525 3141 3298 2862 
Q 3072 2584 2669 2484 
Q 3125 2378 3379 2068 
Q 3634 1759 3634 1313 
Q 3634 634 3220 271 
Q 2806 -91 2034 -91 
Q 1263 -91 848 271 
Q 434 634 434 1313 
Q 434 1759 690 2068 
Q 947 2378 1403 2484 
z
M 1172 3481 
Q 1172 3119 1398 2916 
Q 1625 2713 2034 2713 
Q 2441 2713 2670 2916 
Q 2900 3119 2900 3481 
Q 2900 3844 2670 4047 
Q 2441 4250 2034 4250 
Q 1625 4250 1398 4047 
Q 1172 3844 1172 3481 
z
" id="DejaVuSans-38" transform="scale(0.015625)"/>
    </defs>
    <use xlink:href="#DejaVuSans-32"/>
    <use x="63.623047" xlink:href="#DejaVuSans-38"/>
    <use x="127.246094" xlink:href="#DejaVuSans-20"/>
    <use x="159.033203" xlink:href="#DejaVuSans-73"/>
    <use x="211.132812" xlink:href="#DejaVuSans-74"/>
    <use x="250.341797" xlink:href="#DejaVuSans-61"/>
    <use x="311.621094" xlink:href="#DejaVuSans-74"/>
    <use x="350.830078" xlink:href="#DejaVuSans-65"/>
    <use x="412.353516" xlink:href="#DejaVuSans-73"/>
    <use x="464.453125" xlink:href="#DejaVuSans-20"/>
    <use x="496.240234" xlink:href="#DejaVuSans-61"/>
    <use x="557.519531" xlink:href="#DejaVuSans-72"/>
    <use x="596.382812" xlink:href="#DejaVuSans-65"/>
    <use x="657.90625" xlink:href="#DejaVuSans-20"/>
    <use x="689.693359" xlink:href="#DejaVuSans-63"/>
    <use x="744.673828" xlink:href="#DejaVuSans-6f"/>
    <use x="805.855469" xlink:href="#DejaVuSans-6e"/>
    <use x="869.234375" xlink:href="#DejaVuSans-73"/>
    <use x="921.333984" xlink:href="#DejaVuSans-69"/>
    <use x="949.117188" xlink:href="#DejaVuSans-64"/>
    <use x="1012.59375" xlink:href="#DejaVuSans-65"/>
    <use x="1074.117188" xlink:href="#DejaVuSans-72"/>
    <use x="1115.230469" xlink:href="#DejaVuSans-69"/>
    <use x="1143.013672" xlink:href="#DejaVuSans-6e"/>
    <use x="1206.392578" xlink:href="#DejaVuSans-67"/>
    <use x="1269.869141" xlink:href="#DejaVuSans-20"/>
    <use x="1301.65625" xlink:href="#DejaVuSans-6c"/>
    <use x="1329.439453" xlink:href="#DejaVuSans-65"/>
    <use x="1390.962891" xlink:href="#DejaVuSans-67"/>
    <use x="1454.439453" xlink:href="#DejaVuSans-69"/>
    <use x="1482.222656" xlink:href="#DejaVuSans-73"/>
    <use x="1534.322266" xlink:href="#DejaVuSans-6c"/>
    <use x="1562.105469" xlink:href="#DejaVuSans-61"/>
    <use x="1623.384766" xlink:href="#DejaVuSans-74"/>
    <use x="1662.59375" xlink:href="#DejaVuSans-69"/>
    <use x="1690.376953" xlink:href="#DejaVuSans-6f"/>
    <use x="1751.558594" xlink:href="#DejaVuSans-6e"/>
    <use x="1814.9375" xlink:href="#DejaVuSans-20"/>
    <use x="1846.724609" xlink:href="#DejaVuSans-6f"/>
    <use x="1907.90625" xlink:href="#DejaVuSans-6e"/>
    <use x="1971.285156" xlink:href="#DejaVuSans-20"/>
    <use x="2003.072266" xlink:href="#DejaVuSans-44"/>
    <use x="2080.074219" xlink:href="#DejaVuSans-61"/>
    <use x="2141.353516" xlink:href="#DejaVuSans-79"/>
    <use x="2200.533203" xlink:href="#DejaVuSans-6c"/>
    <use x="2228.316406" xlink:href="#DejaVuSans-69"/>
    <use x="2256.099609" xlink:href="#DejaVuSans-67"/>
    <use x="2319.576172" xlink:href="#DejaVuSans-68"/>
    <use x="2382.955078" xlink:href="#DejaVuSans-74"/>
    <use x="2422.164062" xlink:href="#DejaVuSans-20"/>
    <use x="2453.951172" xlink:href="#DejaVuSans-53"/>
    <use x="2517.427734" xlink:href="#DejaVuSans-61"/>
    <use x="2578.707031" xlink:href="#DejaVuSans-76"/>
    <use x="2637.886719" xlink:href="#DejaVuSans-69"/>
    <use x="2665.669922" xlink:href="#DejaVuSans-6e"/>
    <use x="2729.048828" xlink:href="#DejaVuSans-67"/>
    <use x="2792.525391" xlink:href="#DejaVuSans-20"/>
    <use x="2824.3125" xlink:href="#DejaVuSans-54"/>
    <use x="2882.271484" xlink:href="#DejaVuSans-69"/>
    <use x="2910.054688" xlink:href="#DejaVuSans-6d"/>
    <use x="3007.466797" xlink:href="#DejaVuSans-65"/>
    <use x="3068.990234" xlink:href="#DejaVuSans-20"/>
    <use x="3100.777344" xlink:href="#DejaVuSans-69"/>
    <use x="3128.560547" xlink:href="#DejaVuSans-6e"/>
    <use x="3191.939453" xlink:href="#DejaVuSans-20"/>
    <use x="3223.726562" xlink:href="#DejaVuSans-32"/>
    <use x="3287.349609" xlink:href="#DejaVuSans-30"/>
    <use x="3350.972656" xlink:href="#DejaVuSans-32"/>
    <use x="3414.595703" xlink:href="#DejaVuSans-32"/>
   </g>
  </g>
 </g>
 <defs>
  <clipPath id="p8c7e99a2d2">
   <rect height="4566.807273" width="357.12" x="91.001125" y="26.105371"/>
  </clipPath>
  <clipPath id="p9349503f4c">
   <path d="M 467.521125 2268.537383 
L 467.521125 2252.697383 
L 483.361125 2252.697383 
L 483.361125 2268.537383 
"/>
  </clipPath>
  <clipPath id="pe07a408b0d">
   <path d="M 467.521125 2286.377383 
L 467.521125 2270.537383 
L 483.361125 2270.537383 
L 483.361125 2286.377383 
"/>
  </clipPath>
  <clipPath id="p6385c3781d">
   <path d="M 467.521125 2304.217383 
L 467.521125 2288.377383 
L 483.361125 2288.377383 
L 483.361125 2304.217383 
"/>
  </clipPath>
  <clipPath id="pe2b6f22892">
   <path d="M 467.521125 2322.057383 
L 467.521125 2306.217383 
L 483.361125 2306.217383 
L 483.361125 2322.057383 
"/>
  </clipPath>
 </defs>
</svg>
